<?xml version="1.0" encoding="UTF-8" standalone="no"?>
<!DOCTYPE svg PUBLIC "-//W3C//DTD SVG 1.1//EN"
 "http://www.w3.org/Graphics/SVG/1.1/DTD/svg11.dtd">
<!-- Generated by graphviz version 2.40.1 (20161225.0304)
 -->
<!-- Title: oneDegreeRelationshipsDiagram Pages: 1 -->
<svg width="499pt" height="199pt"
 viewBox="0.00 0.00 499.00 199.20" xmlns="http://www.w3.org/2000/svg" xmlns:xlink="http://www.w3.org/1999/xlink">
<g id="graph0" class="graph" transform="scale(1 1) rotate(0) translate(4 195.2)">
<title>oneDegreeRelationshipsDiagram</title>
<polygon fill="#ffffff" stroke="transparent" points="-4,4 -4,-195.2 495,-195.2 495,4 -4,4"/>
<text text-anchor="middle" x="72.4936" y="-7.3" font-family="Helvetica,sans-Serif" font-size="11.00" fill="#000000">Generated by SchemaSpy</text>
<!-- Album -->
<g id="node1" class="node">
<title>Album</title>
<g id="a_node1"><a xlink:href="../../tables/Album.html" xlink:title="Album" target="_top">
<polygon fill="#ffffff" stroke="transparent" points="140,-54.7 140,-166.7 327,-166.7 327,-54.7 140,-54.7"/>
<polygon fill="#f5f5f5" stroke="transparent" points="142.5,-141.7 142.5,-164.7 325.5,-164.7 325.5,-141.7 142.5,-141.7"/>
<polygon fill="none" stroke="#000000" points="142.5,-141.7 142.5,-164.7 325.5,-164.7 325.5,-141.7 142.5,-141.7"/>
<text text-anchor="start" x="147.5" y="-150.3" font-family="Helvetica,sans-Serif" font-weight="bold" font-size="11.00" fill="#000000">Album</text>
<text text-anchor="start" x="290.5437" y="-149.8" font-family="Helvetica,sans-Serif" font-size="11.00" fill="#000000">[table]</text>
<polygon fill="none" stroke="#000000" points="142.5,-119.7 142.5,-141.7 219.5,-141.7 219.5,-119.7 142.5,-119.7"/>
<image xlink:href="../../images/primaryKeys.png" width="11px" height="12px" preserveAspectRatio="xMinYMin meet" x="147.5" y="-136.7"/>
<text text-anchor="start" x="162.5" y="-126.8" font-family="Helvetica,sans-Serif" font-size="11.00" fill="#000000">AlbumId</text>
<polygon fill="none" stroke="#000000" points="219.5,-119.7 219.5,-141.7 325.5,-141.7 325.5,-119.7 219.5,-119.7"/>
<text text-anchor="start" x="222.059" y="-127.4" font-family="Helvetica,sans-Serif" font-size="11.00" fill="#000000">integer[2000000000]</text>
<polygon fill="none" stroke="#000000" points="142.5,-97.7 142.5,-119.7 219.5,-119.7 219.5,-97.7 142.5,-97.7"/>
<text text-anchor="start" x="162.5" y="-104.8" font-family="Helvetica,sans-Serif" font-size="11.00" fill="#000000">Title</text>
<polygon fill="none" stroke="#000000" points="219.5,-97.7 219.5,-119.7 325.5,-119.7 325.5,-97.7 219.5,-97.7"/>
<text text-anchor="start" x="222.5" y="-105.4" font-family="Helvetica,sans-Serif" font-size="11.00" fill="#000000">nvarchar[160]</text>
<polygon fill="#ffffff" stroke="transparent" points="142.5,-75.7 142.5,-97.7 219.5,-97.7 219.5,-75.7 142.5,-75.7"/>
<polygon fill="none" stroke="#000000" points="142.5,-75.7 142.5,-97.7 219.5,-97.7 219.5,-75.7 142.5,-75.7"/>
<image xlink:href="../../images/foreignKeys.png" width="11px" height="12px" preserveAspectRatio="xMinYMin meet" x="147.5" y="-92.7"/>
<text text-anchor="start" x="162.5" y="-82.8" font-family="Helvetica,sans-Serif" font-size="11.00" fill="#000000">ArtistId</text>
<polygon fill="none" stroke="#000000" points="219.5,-75.7 219.5,-97.7 325.5,-97.7 325.5,-75.7 219.5,-75.7"/>
<text text-anchor="start" x="222.059" y="-83.4" font-family="Helvetica,sans-Serif" font-size="11.00" fill="#000000">integer[2000000000]</text>
<polygon fill="#ffffff" stroke="transparent" points="142.5,-56.7 142.5,-75.7 166.5,-75.7 166.5,-56.7 142.5,-56.7"/>
<polygon fill="none" stroke="#000000" points="142.5,-56.7 142.5,-75.7 166.5,-75.7 166.5,-56.7 142.5,-56.7"/>
<text text-anchor="start" x="145.5" y="-62.8" font-family="Helvetica,sans-Serif" font-size="11.00" fill="#000000">&lt; 1</text>
<polygon fill="#ffffff" stroke="transparent" points="166.5,-56.7 166.5,-75.7 219.5,-75.7 219.5,-56.7 166.5,-56.7"/>
<polygon fill="none" stroke="#000000" points="166.5,-56.7 166.5,-75.7 219.5,-75.7 219.5,-56.7 166.5,-56.7"/>
<text text-anchor="start" x="171.8807" y="-62.8" font-family="Helvetica,sans-Serif" font-size="11.00" fill="#000000">347 rows</text>
<polygon fill="#ffffff" stroke="transparent" points="219.5,-56.7 219.5,-75.7 325.5,-75.7 325.5,-56.7 219.5,-56.7"/>
<polygon fill="none" stroke="#000000" points="219.5,-56.7 219.5,-75.7 325.5,-75.7 325.5,-56.7 219.5,-56.7"/>
<text text-anchor="start" x="306.9053" y="-62.8" font-family="Helvetica,sans-Serif" font-size="11.00" fill="#000000">1 &gt;</text>
<polygon fill="none" stroke="#000000" stroke-width="2" points="141,-55.7 141,-165.7 326,-165.7 326,-55.7 141,-55.7"/>
</a>
</g>
</g>
<!-- Artist -->
<g id="node2" class="node">
<title>Artist</title>
<g id="a_node2"><a xlink:href="../../tables/Artist.html" xlink:title="Artist" target="_top">
<polygon fill="#ffffff" stroke="transparent" points="8,-38.2 8,-121.2 91,-121.2 91,-38.2 8,-38.2"/>
<polygon fill="#f5f5f5" stroke="transparent" points="8.5,-97.7 8.5,-120.7 91.5,-120.7 91.5,-97.7 8.5,-97.7"/>
<polygon fill="none" stroke="#000000" points="8.5,-97.7 8.5,-120.7 91.5,-120.7 91.5,-97.7 8.5,-97.7"/>
<text text-anchor="start" x="13.5" y="-106.3" font-family="Helvetica,sans-Serif" font-weight="bold" font-size="11.00" fill="#000000">Artist</text>
<text text-anchor="start" x="56.5437" y="-105.8" font-family="Helvetica,sans-Serif" font-size="11.00" fill="#000000">[table]</text>
<polygon fill="none" stroke="#000000" points="8.5,-75.7 8.5,-97.7 91.5,-97.7 91.5,-75.7 8.5,-75.7"/>
<image xlink:href="../../images/primaryKeys.png" width="11px" height="12px" preserveAspectRatio="xMinYMin meet" x="13.5" y="-92.7"/>
<text text-anchor="start" x="34.5" y="-82.8" font-family="Helvetica,sans-Serif" font-size="11.00" fill="#000000">ArtistId</text>
<polygon fill="none" stroke="#000000" points="8.5,-56.7 8.5,-75.7 91.5,-75.7 91.5,-56.7 8.5,-56.7"/>
<text text-anchor="start" x="11.5" y="-62.8" font-family="Helvetica,sans-Serif" font-size="11.00" fill="#000000">...</text>
<polygon fill="#ffffff" stroke="transparent" points="8.5,-37.7 8.5,-56.7 20.5,-56.7 20.5,-37.7 8.5,-37.7"/>
<polygon fill="none" stroke="#000000" points="8.5,-37.7 8.5,-56.7 20.5,-56.7 20.5,-37.7 8.5,-37.7"/>
<text text-anchor="start" x="11.4431" y="-43.8" font-family="Helvetica,sans-Serif" font-size="11.00" fill="#000000"> &#160;</text>
<polygon fill="#ffffff" stroke="transparent" points="20.5,-37.7 20.5,-56.7 70.5,-56.7 70.5,-37.7 20.5,-37.7"/>
<polygon fill="none" stroke="#000000" points="20.5,-37.7 20.5,-56.7 70.5,-56.7 70.5,-37.7 20.5,-37.7"/>
<text text-anchor="start" x="23.1904" y="-43.8" font-family="Helvetica,sans-Serif" font-size="11.00" fill="#000000">275 rows</text>
<polygon fill="#ffffff" stroke="transparent" points="70.5,-37.7 70.5,-56.7 91.5,-56.7 91.5,-37.7 70.5,-37.7"/>
<polygon fill="none" stroke="#000000" points="70.5,-37.7 70.5,-56.7 91.5,-56.7 91.5,-37.7 70.5,-37.7"/>
<text text-anchor="start" x="73.2027" y="-43.8" font-family="Helvetica,sans-Serif" font-size="11.00" fill="#000000">1 &gt;</text>
</a>
</g>
</g>
<!-- Album&#45;&gt;Artist -->
<g id="edge1" class="edge">
<title>Album:w&#45;&gt;Artist:e</title>
<path fill="none" stroke="#000000" d="M127.776,-86.7C115.7815,-86.7 108.3229,-86.7 91.5,-86.7"/>
<polygon fill="#000000" stroke="#000000" points="134.5,-86.7001 142.5,-90.3 138.5,-86.7 142.5,-86.7 142.5,-86.7 142.5,-86.7 138.5,-86.7 142.5,-83.1 134.5,-86.7001 134.5,-86.7001"/>
<ellipse fill="none" stroke="#000000" cx="131.3" cy="-86.7001" rx="3.2" ry="3.2"/>
</g>
<!-- Track -->
<g id="node3" class="node">
<title>Track</title>
<g id="a_node3"><a xlink:href="../../tables/Track.html" xlink:title="Track" target="_top">
<polygon fill="#ffffff" stroke="transparent" points="376,-38.2 376,-187.2 483,-187.2 483,-38.2 376,-38.2"/>
<polygon fill="#f5f5f5" stroke="transparent" points="376.5,-163.7 376.5,-186.7 483.5,-186.7 483.5,-163.7 376.5,-163.7"/>
<polygon fill="none" stroke="#000000" points="376.5,-163.7 376.5,-186.7 483.5,-186.7 483.5,-163.7 376.5,-163.7"/>
<text text-anchor="start" x="381.5" y="-172.3" font-family="Helvetica,sans-Serif" font-weight="bold" font-size="11.00" fill="#000000">Track</text>
<text text-anchor="start" x="448.5437" y="-171.8" font-family="Helvetica,sans-Serif" font-size="11.00" fill="#000000">[table]</text>
<polygon fill="none" stroke="#000000" points="376.5,-141.7 376.5,-163.7 483.5,-163.7 483.5,-141.7 376.5,-141.7"/>
<image xlink:href="../../images/primaryKeys.png" width="11px" height="12px" preserveAspectRatio="xMinYMin meet" x="381.5" y="-158.7"/>
<text text-anchor="start" x="396.5" y="-148.8" font-family="Helvetica,sans-Serif" font-size="11.00" fill="#000000">TrackId</text>
<polygon fill="#ffffff" stroke="transparent" points="376.5,-119.7 376.5,-141.7 483.5,-141.7 483.5,-119.7 376.5,-119.7"/>
<polygon fill="none" stroke="#000000" points="376.5,-119.7 376.5,-141.7 483.5,-141.7 483.5,-119.7 376.5,-119.7"/>
<image xlink:href="../../images/foreignKeys.png" width="11px" height="12px" preserveAspectRatio="xMinYMin meet" x="381.5" y="-136.7"/>
<text text-anchor="start" x="396.5" y="-126.8" font-family="Helvetica,sans-Serif" font-size="11.00" fill="#000000">AlbumId</text>
<polygon fill="#ffffff" stroke="transparent" points="376.5,-97.7 376.5,-119.7 483.5,-119.7 483.5,-97.7 376.5,-97.7"/>
<polygon fill="none" stroke="#000000" points="376.5,-97.7 376.5,-119.7 483.5,-119.7 483.5,-97.7 376.5,-97.7"/>
<image xlink:href="../../images/foreignKeys.png" width="11px" height="12px" preserveAspectRatio="xMinYMin meet" x="381.5" y="-114.7"/>
<text text-anchor="start" x="396.5" y="-104.8" font-family="Helvetica,sans-Serif" font-size="11.00" fill="#000000">MediaTypeId</text>
<polygon fill="#ffffff" stroke="transparent" points="376.5,-75.7 376.5,-97.7 483.5,-97.7 483.5,-75.7 376.5,-75.7"/>
<polygon fill="none" stroke="#000000" points="376.5,-75.7 376.5,-97.7 483.5,-97.7 483.5,-75.7 376.5,-75.7"/>
<image xlink:href="../../images/foreignKeys.png" width="11px" height="12px" preserveAspectRatio="xMinYMin meet" x="381.5" y="-92.7"/>
<text text-anchor="start" x="396.5" y="-82.8" font-family="Helvetica,sans-Serif" font-size="11.00" fill="#000000">GenreId</text>
<polygon fill="none" stroke="#000000" points="376.5,-56.7 376.5,-75.7 483.5,-75.7 483.5,-56.7 376.5,-56.7"/>
<text text-anchor="start" x="379.5" y="-62.8" font-family="Helvetica,sans-Serif" font-size="11.00" fill="#000000">...</text>
<polygon fill="#ffffff" stroke="transparent" points="376.5,-37.7 376.5,-56.7 400.5,-56.7 400.5,-37.7 376.5,-37.7"/>
<polygon fill="none" stroke="#000000" points="376.5,-37.7 376.5,-56.7 400.5,-56.7 400.5,-37.7 376.5,-37.7"/>
<text text-anchor="start" x="379.5" y="-43.8" font-family="Helvetica,sans-Serif" font-size="11.00" fill="#000000">&lt; 3</text>
<polygon fill="#ffffff" stroke="transparent" points="400.5,-37.7 400.5,-56.7 460.5,-56.7 460.5,-37.7 400.5,-37.7"/>
<polygon fill="none" stroke="#000000" points="400.5,-37.7 400.5,-56.7 460.5,-56.7 460.5,-37.7 400.5,-37.7"/>
<text text-anchor="start" x="403.7089" y="-43.8" font-family="Helvetica,sans-Serif" font-size="11.00" fill="#000000">3,503 rows</text>
<polygon fill="#ffffff" stroke="transparent" points="460.5,-37.7 460.5,-56.7 483.5,-56.7 483.5,-37.7 460.5,-37.7"/>
<polygon fill="none" stroke="#000000" points="460.5,-37.7 460.5,-56.7 483.5,-56.7 483.5,-37.7 460.5,-37.7"/>
<text text-anchor="start" x="464.9053" y="-43.8" font-family="Helvetica,sans-Serif" font-size="11.00" fill="#000000">2 &gt;</text>
</a>
</g>
</g>
<!-- Track&#45;&gt;Album -->
<g id="edge2" class="edge">
<title>Track:w&#45;&gt;Album:e</title>
<path fill="none" stroke="#000000" d="M361.776,-130.7C349.7815,-130.7 342.3229,-130.7 325.5,-130.7"/>
<polygon fill="#000000" stroke="#000000" points="368.5,-130.7001 376.5,-134.3 372.5,-130.7 376.5,-130.7 376.5,-130.7 376.5,-130.7 372.5,-130.7 376.5,-127.1 368.5,-130.7001 368.5,-130.7001"/>
<ellipse fill="none" stroke="#000000" cx="365.3" cy="-130.7001" rx="3.2" ry="3.2"/>
</g>
</g>
</svg>
