<?xml version="1.0" encoding="UTF-8" standalone="no"?>
<!DOCTYPE svg PUBLIC "-//W3C//DTD SVG 1.1//EN"
 "http://www.w3.org/Graphics/SVG/1.1/DTD/svg11.dtd">
<!-- Generated by graphviz version 2.40.1 (20161225.0304)
 -->
<!-- Title: twoDegreesRelationshipsDiagram Pages: 1 -->
<svg width="674pt" height="327pt"
 viewBox="0.00 0.00 674.00 326.70" xmlns="http://www.w3.org/2000/svg" xmlns:xlink="http://www.w3.org/1999/xlink">
<g id="graph0" class="graph" transform="scale(1 1) rotate(0) translate(4 322.7)">
<title>twoDegreesRelationshipsDiagram</title>
<polygon fill="#ffffff" stroke="transparent" points="-4,4 -4,-322.7 670,-322.7 670,4 -4,4"/>
<text text-anchor="middle" x="72.4936" y="-7.3" font-family="Helvetica,sans-Serif" font-size="11.00" fill="#000000">Generated by SchemaSpy</text>
<!-- Album -->
<g id="node1" class="node">
<title>Album</title>
<g id="a_node1"><a xlink:href="../../tables/Album.html" xlink:title="Album" target="_top">
<polygon fill="#ffffff" stroke="transparent" points="140,-202.7 140,-314.7 327,-314.7 327,-202.7 140,-202.7"/>
<polygon fill="#f5f5f5" stroke="transparent" points="142.5,-289.7 142.5,-312.7 325.5,-312.7 325.5,-289.7 142.5,-289.7"/>
<polygon fill="none" stroke="#000000" points="142.5,-289.7 142.5,-312.7 325.5,-312.7 325.5,-289.7 142.5,-289.7"/>
<text text-anchor="start" x="147.5" y="-298.3" font-family="Helvetica,sans-Serif" font-weight="bold" font-size="11.00" fill="#000000">Album</text>
<text text-anchor="start" x="290.5437" y="-297.8" font-family="Helvetica,sans-Serif" font-size="11.00" fill="#000000">[table]</text>
<polygon fill="none" stroke="#000000" points="142.5,-267.7 142.5,-289.7 219.5,-289.7 219.5,-267.7 142.5,-267.7"/>
<image xlink:href="../../images/primaryKeys.png" width="11px" height="12px" preserveAspectRatio="xMinYMin meet" x="147.5" y="-284.7"/>
<text text-anchor="start" x="162.5" y="-274.8" font-family="Helvetica,sans-Serif" font-size="11.00" fill="#000000">AlbumId</text>
<polygon fill="none" stroke="#000000" points="219.5,-267.7 219.5,-289.7 325.5,-289.7 325.5,-267.7 219.5,-267.7"/>
<text text-anchor="start" x="222.059" y="-275.4" font-family="Helvetica,sans-Serif" font-size="11.00" fill="#000000">integer[2000000000]</text>
<polygon fill="none" stroke="#000000" points="142.5,-245.7 142.5,-267.7 219.5,-267.7 219.5,-245.7 142.5,-245.7"/>
<text text-anchor="start" x="162.5" y="-252.8" font-family="Helvetica,sans-Serif" font-size="11.00" fill="#000000">Title</text>
<polygon fill="none" stroke="#000000" points="219.5,-245.7 219.5,-267.7 325.5,-267.7 325.5,-245.7 219.5,-245.7"/>
<text text-anchor="start" x="222.5" y="-253.4" font-family="Helvetica,sans-Serif" font-size="11.00" fill="#000000">nvarchar[160]</text>
<polygon fill="#ffffff" stroke="transparent" points="142.5,-223.7 142.5,-245.7 219.5,-245.7 219.5,-223.7 142.5,-223.7"/>
<polygon fill="none" stroke="#000000" points="142.5,-223.7 142.5,-245.7 219.5,-245.7 219.5,-223.7 142.5,-223.7"/>
<image xlink:href="../../images/foreignKeys.png" width="11px" height="12px" preserveAspectRatio="xMinYMin meet" x="147.5" y="-240.7"/>
<text text-anchor="start" x="162.5" y="-230.8" font-family="Helvetica,sans-Serif" font-size="11.00" fill="#000000">ArtistId</text>
<polygon fill="none" stroke="#000000" points="219.5,-223.7 219.5,-245.7 325.5,-245.7 325.5,-223.7 219.5,-223.7"/>
<text text-anchor="start" x="222.059" y="-231.4" font-family="Helvetica,sans-Serif" font-size="11.00" fill="#000000">integer[2000000000]</text>
<polygon fill="#ffffff" stroke="transparent" points="142.5,-204.7 142.5,-223.7 166.5,-223.7 166.5,-204.7 142.5,-204.7"/>
<polygon fill="none" stroke="#000000" points="142.5,-204.7 142.5,-223.7 166.5,-223.7 166.5,-204.7 142.5,-204.7"/>
<text text-anchor="start" x="145.5" y="-210.8" font-family="Helvetica,sans-Serif" font-size="11.00" fill="#000000">&lt; 1</text>
<polygon fill="#ffffff" stroke="transparent" points="166.5,-204.7 166.5,-223.7 219.5,-223.7 219.5,-204.7 166.5,-204.7"/>
<polygon fill="none" stroke="#000000" points="166.5,-204.7 166.5,-223.7 219.5,-223.7 219.5,-204.7 166.5,-204.7"/>
<text text-anchor="start" x="171.8807" y="-210.8" font-family="Helvetica,sans-Serif" font-size="11.00" fill="#000000">347 rows</text>
<polygon fill="#ffffff" stroke="transparent" points="219.5,-204.7 219.5,-223.7 325.5,-223.7 325.5,-204.7 219.5,-204.7"/>
<polygon fill="none" stroke="#000000" points="219.5,-204.7 219.5,-223.7 325.5,-223.7 325.5,-204.7 219.5,-204.7"/>
<text text-anchor="start" x="306.9053" y="-210.8" font-family="Helvetica,sans-Serif" font-size="11.00" fill="#000000">1 &gt;</text>
<polygon fill="none" stroke="#000000" stroke-width="2" points="141,-203.7 141,-313.7 326,-313.7 326,-203.7 141,-203.7"/>
</a>
</g>
</g>
<!-- Artist -->
<g id="node2" class="node">
<title>Artist</title>
<g id="a_node2"><a xlink:href="../../tables/Artist.html" xlink:title="Artist" target="_top">
<polygon fill="#ffffff" stroke="transparent" points="8,-186.2 8,-269.2 91,-269.2 91,-186.2 8,-186.2"/>
<polygon fill="#f5f5f5" stroke="transparent" points="8.5,-245.7 8.5,-268.7 91.5,-268.7 91.5,-245.7 8.5,-245.7"/>
<polygon fill="none" stroke="#000000" points="8.5,-245.7 8.5,-268.7 91.5,-268.7 91.5,-245.7 8.5,-245.7"/>
<text text-anchor="start" x="13.5" y="-254.3" font-family="Helvetica,sans-Serif" font-weight="bold" font-size="11.00" fill="#000000">Artist</text>
<text text-anchor="start" x="56.5437" y="-253.8" font-family="Helvetica,sans-Serif" font-size="11.00" fill="#000000">[table]</text>
<polygon fill="none" stroke="#000000" points="8.5,-223.7 8.5,-245.7 91.5,-245.7 91.5,-223.7 8.5,-223.7"/>
<image xlink:href="../../images/primaryKeys.png" width="11px" height="12px" preserveAspectRatio="xMinYMin meet" x="13.5" y="-240.7"/>
<text text-anchor="start" x="34.5" y="-230.8" font-family="Helvetica,sans-Serif" font-size="11.00" fill="#000000">ArtistId</text>
<polygon fill="none" stroke="#000000" points="8.5,-204.7 8.5,-223.7 91.5,-223.7 91.5,-204.7 8.5,-204.7"/>
<text text-anchor="start" x="11.5" y="-210.8" font-family="Helvetica,sans-Serif" font-size="11.00" fill="#000000">...</text>
<polygon fill="#ffffff" stroke="transparent" points="8.5,-185.7 8.5,-204.7 20.5,-204.7 20.5,-185.7 8.5,-185.7"/>
<polygon fill="none" stroke="#000000" points="8.5,-185.7 8.5,-204.7 20.5,-204.7 20.5,-185.7 8.5,-185.7"/>
<text text-anchor="start" x="11.4431" y="-191.8" font-family="Helvetica,sans-Serif" font-size="11.00" fill="#000000"> &#160;</text>
<polygon fill="#ffffff" stroke="transparent" points="20.5,-185.7 20.5,-204.7 70.5,-204.7 70.5,-185.7 20.5,-185.7"/>
<polygon fill="none" stroke="#000000" points="20.5,-185.7 20.5,-204.7 70.5,-204.7 70.5,-185.7 20.5,-185.7"/>
<text text-anchor="start" x="23.1904" y="-191.8" font-family="Helvetica,sans-Serif" font-size="11.00" fill="#000000">275 rows</text>
<polygon fill="#ffffff" stroke="transparent" points="70.5,-185.7 70.5,-204.7 91.5,-204.7 91.5,-185.7 70.5,-185.7"/>
<polygon fill="none" stroke="#000000" points="70.5,-185.7 70.5,-204.7 91.5,-204.7 91.5,-185.7 70.5,-185.7"/>
<text text-anchor="start" x="73.2027" y="-191.8" font-family="Helvetica,sans-Serif" font-size="11.00" fill="#000000">1 &gt;</text>
</a>
</g>
</g>
<!-- Album&#45;&gt;Artist -->
<g id="edge1" class="edge">
<title>Album:w&#45;&gt;Artist:e</title>
<path fill="none" stroke="#000000" d="M127.776,-234.7C115.7815,-234.7 108.3229,-234.7 91.5,-234.7"/>
<polygon fill="#000000" stroke="#000000" points="134.5,-234.7001 142.5,-238.3 138.5,-234.7 142.5,-234.7 142.5,-234.7 142.5,-234.7 138.5,-234.7 142.5,-231.1 134.5,-234.7001 134.5,-234.7001"/>
<ellipse fill="none" stroke="#000000" cx="131.3" cy="-234.7001" rx="3.2" ry="3.2"/>
</g>
<!-- InvoiceLine -->
<g id="node3" class="node">
<title>InvoiceLine</title>
<g id="a_node3"><a xlink:href="../../tables/InvoiceLine.html" xlink:title="InvoiceLine" target="_top">
<polygon fill="#ffffff" stroke="transparent" points="537.5,-205.2 537.5,-266.2 652.5,-266.2 652.5,-205.2 537.5,-205.2"/>
<polygon fill="#f5f5f5" stroke="transparent" points="538,-242.7 538,-265.7 653,-265.7 653,-242.7 538,-242.7"/>
<polygon fill="none" stroke="#000000" points="538,-242.7 538,-265.7 653,-265.7 653,-242.7 538,-242.7"/>
<text text-anchor="start" x="543" y="-251.3" font-family="Helvetica,sans-Serif" font-weight="bold" font-size="11.00" fill="#000000">InvoiceLine</text>
<text text-anchor="start" x="618.5219" y="-250.8" font-family="Helvetica,sans-Serif" font-size="11.00" fill="#000000">[table]</text>
<polygon fill="none" stroke="#000000" points="538,-223.7 538,-242.7 653,-242.7 653,-223.7 538,-223.7"/>
<text text-anchor="start" x="541" y="-229.8" font-family="Helvetica,sans-Serif" font-size="11.00" fill="#000000">...</text>
<polygon fill="#ffffff" stroke="transparent" points="538,-204.7 538,-223.7 570,-223.7 570,-204.7 538,-204.7"/>
<polygon fill="none" stroke="#000000" points="538,-204.7 538,-223.7 570,-223.7 570,-204.7 538,-204.7"/>
<text text-anchor="start" x="541" y="-210.8" font-family="Helvetica,sans-Serif" font-size="11.00" fill="#000000">&lt; 2</text>
<polygon fill="#ffffff" stroke="transparent" points="570,-204.7 570,-223.7 635,-223.7 635,-204.7 570,-204.7"/>
<polygon fill="none" stroke="#000000" points="570,-204.7 570,-223.7 635,-223.7 635,-204.7 570,-204.7"/>
<text text-anchor="start" x="578.2089" y="-210.8" font-family="Helvetica,sans-Serif" font-size="11.00" fill="#000000">2,240 rows</text>
<polygon fill="#ffffff" stroke="transparent" points="635,-204.7 635,-223.7 653,-223.7 653,-204.7 635,-204.7"/>
<polygon fill="none" stroke="#000000" points="635,-204.7 635,-223.7 653,-223.7 653,-204.7 635,-204.7"/>
<text text-anchor="start" x="643.8862" y="-210.8" font-family="Helvetica,sans-Serif" font-size="11.00" fill="#000000"> &#160;</text>
</a>
</g>
</g>
<!-- Track -->
<g id="node4" class="node">
<title>Track</title>
<g id="a_node4"><a xlink:href="../../tables/Track.html" xlink:title="Track" target="_top">
<polygon fill="#ffffff" stroke="transparent" points="376,-77.2 376,-226.2 483,-226.2 483,-77.2 376,-77.2"/>
<polygon fill="#f5f5f5" stroke="transparent" points="376.5,-202.7 376.5,-225.7 483.5,-225.7 483.5,-202.7 376.5,-202.7"/>
<polygon fill="none" stroke="#000000" points="376.5,-202.7 376.5,-225.7 483.5,-225.7 483.5,-202.7 376.5,-202.7"/>
<text text-anchor="start" x="381.5" y="-211.3" font-family="Helvetica,sans-Serif" font-weight="bold" font-size="11.00" fill="#000000">Track</text>
<text text-anchor="start" x="448.5437" y="-210.8" font-family="Helvetica,sans-Serif" font-size="11.00" fill="#000000">[table]</text>
<polygon fill="none" stroke="#000000" points="376.5,-180.7 376.5,-202.7 483.5,-202.7 483.5,-180.7 376.5,-180.7"/>
<image xlink:href="../../images/primaryKeys.png" width="11px" height="12px" preserveAspectRatio="xMinYMin meet" x="381.5" y="-197.7"/>
<text text-anchor="start" x="396.5" y="-187.8" font-family="Helvetica,sans-Serif" font-size="11.00" fill="#000000">TrackId</text>
<polygon fill="#ffffff" stroke="transparent" points="376.5,-158.7 376.5,-180.7 483.5,-180.7 483.5,-158.7 376.5,-158.7"/>
<polygon fill="none" stroke="#000000" points="376.5,-158.7 376.5,-180.7 483.5,-180.7 483.5,-158.7 376.5,-158.7"/>
<image xlink:href="../../images/foreignKeys.png" width="11px" height="12px" preserveAspectRatio="xMinYMin meet" x="381.5" y="-175.7"/>
<text text-anchor="start" x="396.5" y="-165.8" font-family="Helvetica,sans-Serif" font-size="11.00" fill="#000000">AlbumId</text>
<polygon fill="#ffffff" stroke="transparent" points="376.5,-136.7 376.5,-158.7 483.5,-158.7 483.5,-136.7 376.5,-136.7"/>
<polygon fill="none" stroke="#000000" points="376.5,-136.7 376.5,-158.7 483.5,-158.7 483.5,-136.7 376.5,-136.7"/>
<image xlink:href="../../images/foreignKeys.png" width="11px" height="12px" preserveAspectRatio="xMinYMin meet" x="381.5" y="-153.7"/>
<text text-anchor="start" x="396.5" y="-143.8" font-family="Helvetica,sans-Serif" font-size="11.00" fill="#000000">MediaTypeId</text>
<polygon fill="#ffffff" stroke="transparent" points="376.5,-114.7 376.5,-136.7 483.5,-136.7 483.5,-114.7 376.5,-114.7"/>
<polygon fill="none" stroke="#000000" points="376.5,-114.7 376.5,-136.7 483.5,-136.7 483.5,-114.7 376.5,-114.7"/>
<image xlink:href="../../images/foreignKeys.png" width="11px" height="12px" preserveAspectRatio="xMinYMin meet" x="381.5" y="-131.7"/>
<text text-anchor="start" x="396.5" y="-121.8" font-family="Helvetica,sans-Serif" font-size="11.00" fill="#000000">GenreId</text>
<polygon fill="none" stroke="#000000" points="376.5,-95.7 376.5,-114.7 483.5,-114.7 483.5,-95.7 376.5,-95.7"/>
<text text-anchor="start" x="379.5" y="-101.8" font-family="Helvetica,sans-Serif" font-size="11.00" fill="#000000">...</text>
<polygon fill="#ffffff" stroke="transparent" points="376.5,-76.7 376.5,-95.7 400.5,-95.7 400.5,-76.7 376.5,-76.7"/>
<polygon fill="none" stroke="#000000" points="376.5,-76.7 376.5,-95.7 400.5,-95.7 400.5,-76.7 376.5,-76.7"/>
<text text-anchor="start" x="379.5" y="-82.8" font-family="Helvetica,sans-Serif" font-size="11.00" fill="#000000">&lt; 3</text>
<polygon fill="#ffffff" stroke="transparent" points="400.5,-76.7 400.5,-95.7 460.5,-95.7 460.5,-76.7 400.5,-76.7"/>
<polygon fill="none" stroke="#000000" points="400.5,-76.7 400.5,-95.7 460.5,-95.7 460.5,-76.7 400.5,-76.7"/>
<text text-anchor="start" x="403.7089" y="-82.8" font-family="Helvetica,sans-Serif" font-size="11.00" fill="#000000">3,503 rows</text>
<polygon fill="#ffffff" stroke="transparent" points="460.5,-76.7 460.5,-95.7 483.5,-95.7 483.5,-76.7 460.5,-76.7"/>
<polygon fill="none" stroke="#000000" points="460.5,-76.7 460.5,-95.7 483.5,-95.7 483.5,-76.7 460.5,-76.7"/>
<text text-anchor="start" x="464.9053" y="-82.8" font-family="Helvetica,sans-Serif" font-size="11.00" fill="#000000">2 &gt;</text>
</a>
</g>
</g>
<!-- InvoiceLine&#45;&gt;Track -->
<g id="edge2" class="edge">
<title>InvoiceLine:w&#45;&gt;Track:e</title>
<path fill="none" stroke="#000000" d="M523.8661,-228.6189C508.6905,-218.2484 507.891,-191.7 483.5,-191.7"/>
<polygon fill="#000000" stroke="#000000" points="530.314,-230.4806 537.0013,-236.1587 534.157,-231.5903 538,-232.7 538,-232.7 538,-232.7 534.157,-231.5903 538.9987,-229.2413 530.314,-230.4806 530.314,-230.4806"/>
<ellipse fill="none" stroke="#000000" cx="527.2396" cy="-229.5929" rx="3.2" ry="3.2"/>
</g>
<!-- Track&#45;&gt;Album -->
<g id="edge4" class="edge">
<title>Track:w&#45;&gt;Album:e</title>
<path fill="none" stroke="#000000" d="M362.219,-173.5794C334.2911,-192.9966 372.9261,-278.7 325.5,-278.7"/>
<polygon fill="#000000" stroke="#000000" points="368.7798,-171.7972 377.4437,-173.1741 372.6399,-170.7486 376.5,-169.7 376.5,-169.7 376.5,-169.7 372.6399,-170.7486 375.5563,-166.2259 368.7798,-171.7972 368.7798,-171.7972"/>
<ellipse fill="none" stroke="#000000" cx="365.6917" cy="-172.6361" rx="3.2" ry="3.2"/>
</g>
<!-- Genre -->
<g id="node6" class="node">
<title>Genre</title>
<g id="a_node6"><a xlink:href="../../tables/Genre.html" xlink:title="Genre" target="_top">
<polygon fill="#ffffff" stroke="transparent" points="194,-38.2 194,-99.2 273,-99.2 273,-38.2 194,-38.2"/>
<polygon fill="#f5f5f5" stroke="transparent" points="194.5,-75.7 194.5,-98.7 273.5,-98.7 273.5,-75.7 194.5,-75.7"/>
<polygon fill="none" stroke="#000000" points="194.5,-75.7 194.5,-98.7 273.5,-98.7 273.5,-75.7 194.5,-75.7"/>
<text text-anchor="start" x="199.5" y="-84.3" font-family="Helvetica,sans-Serif" font-weight="bold" font-size="11.00" fill="#000000">Genre</text>
<text text-anchor="start" x="239.0219" y="-83.8" font-family="Helvetica,sans-Serif" font-size="11.00" fill="#000000">[table]</text>
<polygon fill="none" stroke="#000000" points="194.5,-56.7 194.5,-75.7 273.5,-75.7 273.5,-56.7 194.5,-56.7"/>
<text text-anchor="start" x="197.5" y="-62.8" font-family="Helvetica,sans-Serif" font-size="11.00" fill="#000000">...</text>
<polygon fill="#ffffff" stroke="transparent" points="194.5,-37.7 194.5,-56.7 207.5,-56.7 207.5,-37.7 194.5,-37.7"/>
<polygon fill="none" stroke="#000000" points="194.5,-37.7 194.5,-56.7 207.5,-56.7 207.5,-37.7 194.5,-37.7"/>
<text text-anchor="start" x="197.5" y="-43.8" font-family="Helvetica,sans-Serif" font-size="11.00" fill="#000000"> &#160;</text>
<polygon fill="#ffffff" stroke="transparent" points="207.5,-37.7 207.5,-56.7 251.5,-56.7 251.5,-37.7 207.5,-37.7"/>
<polygon fill="none" stroke="#000000" points="207.5,-37.7 207.5,-56.7 251.5,-56.7 251.5,-37.7 207.5,-37.7"/>
<text text-anchor="start" x="210.2478" y="-43.8" font-family="Helvetica,sans-Serif" font-size="11.00" fill="#000000">25 rows</text>
<polygon fill="#ffffff" stroke="transparent" points="251.5,-37.7 251.5,-56.7 273.5,-56.7 273.5,-37.7 251.5,-37.7"/>
<polygon fill="none" stroke="#000000" points="251.5,-37.7 251.5,-56.7 273.5,-56.7 273.5,-37.7 251.5,-37.7"/>
<text text-anchor="start" x="254.9053" y="-43.8" font-family="Helvetica,sans-Serif" font-size="11.00" fill="#000000">1 &gt;</text>
</a>
</g>
</g>
<!-- Track&#45;&gt;Genre -->
<g id="edge5" class="edge">
<title>Track:w&#45;&gt;Genre:e</title>
<path fill="none" stroke="#000000" d="M361.9718,-123.969C323.5452,-114.1314 321.0978,-65.7 273.5,-65.7"/>
<polygon fill="#000000" stroke="#000000" points="368.5562,-124.7535 376.0741,-129.2747 372.5281,-125.2267 376.5,-125.7 376.5,-125.7 376.5,-125.7 372.5281,-125.2267 376.9259,-122.1253 368.5562,-124.7535 368.5562,-124.7535"/>
<ellipse fill="none" stroke="#000000" cx="365.3787" cy="-124.3749" rx="3.2" ry="3.2"/>
</g>
<!-- MediaType -->
<g id="node7" class="node">
<title>MediaType</title>
<g id="a_node7"><a xlink:href="../../tables/MediaType.html" xlink:title="MediaType" target="_top">
<polygon fill="#ffffff" stroke="transparent" points="177.5,-120.2 177.5,-181.2 289.5,-181.2 289.5,-120.2 177.5,-120.2"/>
<polygon fill="#f5f5f5" stroke="transparent" points="177.5,-157.7 177.5,-180.7 289.5,-180.7 289.5,-157.7 177.5,-157.7"/>
<polygon fill="none" stroke="#000000" points="177.5,-157.7 177.5,-180.7 289.5,-180.7 289.5,-157.7 177.5,-157.7"/>
<text text-anchor="start" x="182.5" y="-166.3" font-family="Helvetica,sans-Serif" font-weight="bold" font-size="11.00" fill="#000000">MediaType</text>
<text text-anchor="start" x="255.0219" y="-165.8" font-family="Helvetica,sans-Serif" font-size="11.00" fill="#000000">[table]</text>
<polygon fill="none" stroke="#000000" points="177.5,-138.7 177.5,-157.7 289.5,-157.7 289.5,-138.7 177.5,-138.7"/>
<text text-anchor="start" x="180.5" y="-144.8" font-family="Helvetica,sans-Serif" font-size="11.00" fill="#000000">...</text>
<polygon fill="#ffffff" stroke="transparent" points="177.5,-119.7 177.5,-138.7 209.5,-138.7 209.5,-119.7 177.5,-119.7"/>
<polygon fill="none" stroke="#000000" points="177.5,-119.7 177.5,-138.7 209.5,-138.7 209.5,-119.7 177.5,-119.7"/>
<text text-anchor="start" x="180.5" y="-125.8" font-family="Helvetica,sans-Serif" font-size="11.00" fill="#000000"> &#160;</text>
<polygon fill="#ffffff" stroke="transparent" points="209.5,-119.7 209.5,-138.7 257.5,-138.7 257.5,-119.7 209.5,-119.7"/>
<polygon fill="none" stroke="#000000" points="209.5,-119.7 209.5,-138.7 257.5,-138.7 257.5,-119.7 209.5,-119.7"/>
<text text-anchor="start" x="222.1105" y="-125.8" font-family="Helvetica,sans-Serif" font-size="11.00" fill="#000000">5 rows</text>
<polygon fill="#ffffff" stroke="transparent" points="257.5,-119.7 257.5,-138.7 289.5,-138.7 289.5,-119.7 257.5,-119.7"/>
<polygon fill="none" stroke="#000000" points="257.5,-119.7 257.5,-138.7 289.5,-138.7 289.5,-119.7 257.5,-119.7"/>
<text text-anchor="start" x="270.9053" y="-125.8" font-family="Helvetica,sans-Serif" font-size="11.00" fill="#000000">1 &gt;</text>
</a>
</g>
</g>
<!-- Track&#45;&gt;MediaType -->
<g id="edge6" class="edge">
<title>Track:w&#45;&gt;MediaType:e</title>
<path fill="none" stroke="#000000" d="M361.7467,-147.7C334.5411,-147.7 322.7292,-147.7 289.5,-147.7"/>
<polygon fill="#000000" stroke="#000000" points="368.5,-147.7001 376.5,-151.3 372.5,-147.7 376.5,-147.7 376.5,-147.7 376.5,-147.7 372.5,-147.7 376.5,-144.1 368.5,-147.7001 368.5,-147.7001"/>
<ellipse fill="none" stroke="#000000" cx="365.3" cy="-147.7001" rx="3.2" ry="3.2"/>
</g>
<!-- PlaylistTrack -->
<g id="node5" class="node">
<title>PlaylistTrack</title>
<g id="a_node5"><a xlink:href="../../tables/PlaylistTrack.html" xlink:title="PlaylistTrack" target="_top">
<polygon fill="#ffffff" stroke="transparent" points="532,-123.2 532,-184.2 658,-184.2 658,-123.2 532,-123.2"/>
<polygon fill="#f5f5f5" stroke="transparent" points="532,-160.7 532,-183.7 658,-183.7 658,-160.7 532,-160.7"/>
<polygon fill="none" stroke="#000000" points="532,-160.7 532,-183.7 658,-183.7 658,-160.7 532,-160.7"/>
<text text-anchor="start" x="537" y="-169.3" font-family="Helvetica,sans-Serif" font-weight="bold" font-size="11.00" fill="#000000">PlaylistTrack</text>
<text text-anchor="start" x="623.5219" y="-168.8" font-family="Helvetica,sans-Serif" font-size="11.00" fill="#000000">[table]</text>
<polygon fill="none" stroke="#000000" points="532,-141.7 532,-160.7 658,-160.7 658,-141.7 532,-141.7"/>
<text text-anchor="start" x="535" y="-147.8" font-family="Helvetica,sans-Serif" font-size="11.00" fill="#000000">...</text>
<polygon fill="#ffffff" stroke="transparent" points="532,-122.7 532,-141.7 570,-141.7 570,-122.7 532,-122.7"/>
<polygon fill="none" stroke="#000000" points="532,-122.7 532,-141.7 570,-141.7 570,-122.7 532,-122.7"/>
<text text-anchor="start" x="535" y="-128.8" font-family="Helvetica,sans-Serif" font-size="11.00" fill="#000000">&lt; 2</text>
<polygon fill="#ffffff" stroke="transparent" points="570,-122.7 570,-141.7 637,-141.7 637,-122.7 570,-122.7"/>
<polygon fill="none" stroke="#000000" points="570,-122.7 570,-141.7 637,-141.7 637,-122.7 570,-122.7"/>
<text text-anchor="start" x="580.2089" y="-128.8" font-family="Helvetica,sans-Serif" font-size="11.00" fill="#000000">8,715 rows</text>
<polygon fill="#ffffff" stroke="transparent" points="637,-122.7 637,-141.7 658,-141.7 658,-122.7 637,-122.7"/>
<polygon fill="none" stroke="#000000" points="637,-122.7 637,-141.7 658,-141.7 658,-122.7 637,-122.7"/>
<text text-anchor="start" x="648.8862" y="-128.8" font-family="Helvetica,sans-Serif" font-size="11.00" fill="#000000"> &#160;</text>
</a>
</g>
</g>
<!-- PlaylistTrack&#45;&gt;Track -->
<g id="edge3" class="edge">
<title>PlaylistTrack:w&#45;&gt;Track:e</title>
<path fill="none" stroke="#000000" d="M518.2884,-155.4032C505.5191,-166.1726 505.7719,-191.7 483.5,-191.7"/>
<polygon fill="#000000" stroke="#000000" points="524.4328,-153.2957 533.1681,-154.1052 528.2164,-151.9978 532,-150.7 532,-150.7 532,-150.7 528.2164,-151.9978 530.8319,-147.2948 524.4328,-153.2957 524.4328,-153.2957"/>
<ellipse fill="none" stroke="#000000" cx="521.4059" cy="-154.3339" rx="3.2" ry="3.2"/>
</g>
</g>
</svg>
