<?xml version="1.0" encoding="UTF-8" standalone="no"?>
<!DOCTYPE svg PUBLIC "-//W3C//DTD SVG 1.1//EN"
 "http://www.w3.org/Graphics/SVG/1.1/DTD/svg11.dtd">
<!-- Generated by graphviz version 2.40.1 (20161225.0304)
 -->
<!-- Title: oneDegreeRelationshipsDiagram Pages: 1 -->
<svg width="346pt" height="161pt"
 viewBox="0.00 0.00 346.00 160.70" xmlns="http://www.w3.org/2000/svg" xmlns:xlink="http://www.w3.org/1999/xlink">
<g id="graph0" class="graph" transform="scale(1 1) rotate(0) translate(4 156.7)">
<title>oneDegreeRelationshipsDiagram</title>
<polygon fill="#ffffff" stroke="transparent" points="-4,4 -4,-156.7 342,-156.7 342,4 -4,4"/>
<text text-anchor="middle" x="72.4936" y="-7.3" font-family="Helvetica,sans-Serif" font-size="11.00" fill="#000000">Generated by SchemaSpy</text>
<!-- Album -->
<g id="node1" class="node">
<title>Album</title>
<g id="a_node1"><a xlink:href="../../tables/Album.html" xlink:title="Album" target="_top">
<polygon fill="#ffffff" stroke="transparent" points="238,-43.7 238,-148.7 330,-148.7 330,-43.7 238,-43.7"/>
<polygon fill="#f5f5f5" stroke="transparent" points="238,-125.2 238,-148.2 330,-148.2 330,-125.2 238,-125.2"/>
<polygon fill="none" stroke="#000000" points="238,-125.2 238,-148.2 330,-148.2 330,-125.2 238,-125.2"/>
<text text-anchor="start" x="243" y="-133.8" font-family="Helvetica,sans-Serif" font-weight="bold" font-size="11.00" fill="#000000">Album</text>
<text text-anchor="start" x="295.0437" y="-133.3" font-family="Helvetica,sans-Serif" font-size="11.00" fill="#000000">[table]</text>
<polygon fill="none" stroke="#000000" points="238,-103.2 238,-125.2 330,-125.2 330,-103.2 238,-103.2"/>
<image xlink:href="../../images/primaryKeys.png" width="11px" height="12px" preserveAspectRatio="xMinYMin meet" x="243" y="-120.2"/>
<text text-anchor="start" x="266" y="-110.3" font-family="Helvetica,sans-Serif" font-size="11.00" fill="#000000">AlbumId</text>
<polygon fill="#ffffff" stroke="transparent" points="238,-81.2 238,-103.2 330,-103.2 330,-81.2 238,-81.2"/>
<polygon fill="none" stroke="#000000" points="238,-81.2 238,-103.2 330,-103.2 330,-81.2 238,-81.2"/>
<image xlink:href="../../images/foreignKeys.png" width="11px" height="12px" preserveAspectRatio="xMinYMin meet" x="243" y="-98.2"/>
<text text-anchor="start" x="266" y="-88.3" font-family="Helvetica,sans-Serif" font-size="11.00" fill="#000000">ArtistId</text>
<polygon fill="none" stroke="#000000" points="238,-62.2 238,-81.2 330,-81.2 330,-62.2 238,-62.2"/>
<text text-anchor="start" x="241" y="-68.3" font-family="Helvetica,sans-Serif" font-size="11.00" fill="#000000">...</text>
<polygon fill="#ffffff" stroke="transparent" points="238,-43.2 238,-62.2 259,-62.2 259,-43.2 238,-43.2"/>
<polygon fill="none" stroke="#000000" points="238,-43.2 238,-62.2 259,-62.2 259,-43.2 238,-43.2"/>
<text text-anchor="start" x="240.7027" y="-49.3" font-family="Helvetica,sans-Serif" font-size="11.00" fill="#000000">&lt; 1</text>
<polygon fill="#ffffff" stroke="transparent" points="259,-43.2 259,-62.2 309,-62.2 309,-43.2 259,-43.2"/>
<polygon fill="none" stroke="#000000" points="259,-43.2 259,-62.2 309,-62.2 309,-43.2 259,-43.2"/>
<text text-anchor="start" x="261.6904" y="-49.3" font-family="Helvetica,sans-Serif" font-size="11.00" fill="#000000">347 rows</text>
<polygon fill="#ffffff" stroke="transparent" points="309,-43.2 309,-62.2 330,-62.2 330,-43.2 309,-43.2"/>
<polygon fill="none" stroke="#000000" points="309,-43.2 309,-62.2 330,-62.2 330,-43.2 309,-43.2"/>
<text text-anchor="start" x="311.7027" y="-49.3" font-family="Helvetica,sans-Serif" font-size="11.00" fill="#000000">1 &gt;</text>
</a>
</g>
</g>
<!-- Artist -->
<g id="node2" class="node">
<title>Artist</title>
<g id="a_node2"><a xlink:href="../../tables/Artist.html" xlink:title="Artist" target="_top">
<polygon fill="#ffffff" stroke="transparent" points="8,-38.2 8,-128.2 189,-128.2 189,-38.2 8,-38.2"/>
<polygon fill="#f5f5f5" stroke="transparent" points="10.5,-103.2 10.5,-126.2 187.5,-126.2 187.5,-103.2 10.5,-103.2"/>
<polygon fill="none" stroke="#000000" points="10.5,-103.2 10.5,-126.2 187.5,-126.2 187.5,-103.2 10.5,-103.2"/>
<text text-anchor="start" x="15.5" y="-111.8" font-family="Helvetica,sans-Serif" font-weight="bold" font-size="11.00" fill="#000000">Artist</text>
<text text-anchor="start" x="152.5437" y="-111.3" font-family="Helvetica,sans-Serif" font-size="11.00" fill="#000000">[table]</text>
<polygon fill="none" stroke="#000000" points="10.5,-81.2 10.5,-103.2 81.5,-103.2 81.5,-81.2 10.5,-81.2"/>
<image xlink:href="../../images/primaryKeys.png" width="11px" height="12px" preserveAspectRatio="xMinYMin meet" x="15.5" y="-98.2"/>
<text text-anchor="start" x="30.5" y="-88.3" font-family="Helvetica,sans-Serif" font-size="11.00" fill="#000000">ArtistId</text>
<polygon fill="none" stroke="#000000" points="81.5,-81.2 81.5,-103.2 187.5,-103.2 187.5,-81.2 81.5,-81.2"/>
<text text-anchor="start" x="84.059" y="-88.9" font-family="Helvetica,sans-Serif" font-size="11.00" fill="#000000">integer[2000000000]</text>
<polygon fill="none" stroke="#000000" points="10.5,-59.2 10.5,-81.2 81.5,-81.2 81.5,-59.2 10.5,-59.2"/>
<text text-anchor="start" x="30.5" y="-66.3" font-family="Helvetica,sans-Serif" font-size="11.00" fill="#000000">Name</text>
<polygon fill="none" stroke="#000000" points="81.5,-59.2 81.5,-81.2 187.5,-81.2 187.5,-59.2 81.5,-59.2"/>
<text text-anchor="start" x="84.5" y="-66.9" font-family="Helvetica,sans-Serif" font-size="11.00" fill="#000000">nvarchar[120]</text>
<polygon fill="#ffffff" stroke="transparent" points="10.5,-40.2 10.5,-59.2 31.5,-59.2 31.5,-40.2 10.5,-40.2"/>
<polygon fill="none" stroke="#000000" points="10.5,-40.2 10.5,-59.2 31.5,-59.2 31.5,-40.2 10.5,-40.2"/>
<text text-anchor="start" x="13.2027" y="-46.3" font-family="Helvetica,sans-Serif" font-size="11.00" fill="#000000">&lt; 0</text>
<polygon fill="#ffffff" stroke="transparent" points="31.5,-40.2 31.5,-59.2 81.5,-59.2 81.5,-40.2 31.5,-40.2"/>
<polygon fill="none" stroke="#000000" points="31.5,-40.2 31.5,-59.2 81.5,-59.2 81.5,-40.2 31.5,-40.2"/>
<text text-anchor="start" x="34.1903" y="-46.3" font-family="Helvetica,sans-Serif" font-size="11.00" fill="#000000">275 rows</text>
<polygon fill="#ffffff" stroke="transparent" points="81.5,-40.2 81.5,-59.2 187.5,-59.2 187.5,-40.2 81.5,-40.2"/>
<polygon fill="none" stroke="#000000" points="81.5,-40.2 81.5,-59.2 187.5,-59.2 187.5,-40.2 81.5,-40.2"/>
<text text-anchor="start" x="168.9053" y="-46.3" font-family="Helvetica,sans-Serif" font-size="11.00" fill="#000000">1 &gt;</text>
<polygon fill="none" stroke="#000000" stroke-width="2" points="9,-39.2 9,-127.2 188,-127.2 188,-39.2 9,-39.2"/>
</a>
</g>
</g>
<!-- Album&#45;&gt;Artist -->
<g id="edge1" class="edge">
<title>Album:w&#45;&gt;Artist:e</title>
<path fill="none" stroke="#000000" d="M223.4203,-92.2C211.5435,-92.2 204.158,-92.2 187.5,-92.2"/>
<polygon fill="#000000" stroke="#000000" points="230,-92.2001 238,-95.8 234,-92.2 238,-92.2 238,-92.2 238,-92.2 234,-92.2 238,-88.6 230,-92.2001 230,-92.2001"/>
<ellipse fill="none" stroke="#000000" cx="226.8" cy="-92.2001" rx="3.2" ry="3.2"/>
</g>
</g>
</svg>
