<?xml version="1.0" encoding="UTF-8" standalone="no"?>
<!DOCTYPE svg PUBLIC "-//W3C//DTD SVG 1.1//EN"
 "http://www.w3.org/Graphics/SVG/1.1/DTD/svg11.dtd">
<!-- Generated by graphviz version 2.40.1 (20161225.0304)
 -->
<!-- Title: oneDegreeRelationshipsDiagram Pages: 1 -->
<svg width="589pt" height="441pt"
 viewBox="0.00 0.00 589.00 441.20" xmlns="http://www.w3.org/2000/svg" xmlns:xlink="http://www.w3.org/1999/xlink">
<g id="graph0" class="graph" transform="scale(1 1) rotate(0) translate(4 437.2)">
<title>oneDegreeRelationshipsDiagram</title>
<polygon fill="#ffffff" stroke="transparent" points="-4,4 -4,-437.2 585,-437.2 585,4 -4,4"/>
<text text-anchor="middle" x="72.4936" y="-7.3" font-family="Helvetica,sans-Serif" font-size="11.00" fill="#000000">Generated by SchemaSpy</text>
<!-- Customer -->
<g id="node1" class="node">
<title>Customer</title>
<g id="a_node1"><a xlink:href="../../tables/Customer.html" xlink:title="Customer" target="_top">
<polygon fill="#ffffff" stroke="transparent" points="161,-76.7 161,-408.7 385,-408.7 385,-76.7 161,-76.7"/>
<polygon fill="#f5f5f5" stroke="transparent" points="163,-383.7 163,-406.7 383,-406.7 383,-383.7 163,-383.7"/>
<polygon fill="none" stroke="#000000" points="163,-383.7 163,-406.7 383,-406.7 383,-383.7 163,-383.7"/>
<text text-anchor="start" x="168" y="-392.3" font-family="Helvetica,sans-Serif" font-weight="bold" font-size="11.00" fill="#000000">Customer</text>
<text text-anchor="start" x="348.0437" y="-391.8" font-family="Helvetica,sans-Serif" font-size="11.00" fill="#000000">[table]</text>
<polygon fill="none" stroke="#000000" points="163,-361.7 163,-383.7 277,-383.7 277,-361.7 163,-361.7"/>
<image xlink:href="../../images/primaryKeys.png" width="11px" height="12px" preserveAspectRatio="xMinYMin meet" x="168" y="-378.7"/>
<text text-anchor="start" x="183" y="-368.8" font-family="Helvetica,sans-Serif" font-size="11.00" fill="#000000">CustomerId</text>
<polygon fill="none" stroke="#000000" points="277,-361.7 277,-383.7 383,-383.7 383,-361.7 277,-361.7"/>
<text text-anchor="start" x="279.559" y="-369.4" font-family="Helvetica,sans-Serif" font-size="11.00" fill="#000000">integer[2000000000]</text>
<polygon fill="none" stroke="#000000" points="163,-339.7 163,-361.7 277,-361.7 277,-339.7 163,-339.7"/>
<text text-anchor="start" x="183" y="-346.8" font-family="Helvetica,sans-Serif" font-size="11.00" fill="#000000">FirstName</text>
<polygon fill="none" stroke="#000000" points="277,-339.7 277,-361.7 383,-361.7 383,-339.7 277,-339.7"/>
<text text-anchor="start" x="280" y="-347.4" font-family="Helvetica,sans-Serif" font-size="11.00" fill="#000000">nvarchar[40]</text>
<polygon fill="none" stroke="#000000" points="163,-317.7 163,-339.7 277,-339.7 277,-317.7 163,-317.7"/>
<text text-anchor="start" x="183" y="-324.8" font-family="Helvetica,sans-Serif" font-size="11.00" fill="#000000">LastName</text>
<polygon fill="none" stroke="#000000" points="277,-317.7 277,-339.7 383,-339.7 383,-317.7 277,-317.7"/>
<text text-anchor="start" x="280" y="-325.4" font-family="Helvetica,sans-Serif" font-size="11.00" fill="#000000">nvarchar[20]</text>
<polygon fill="none" stroke="#000000" points="163,-295.7 163,-317.7 277,-317.7 277,-295.7 163,-295.7"/>
<text text-anchor="start" x="183" y="-302.8" font-family="Helvetica,sans-Serif" font-size="11.00" fill="#000000">Company</text>
<polygon fill="none" stroke="#000000" points="277,-295.7 277,-317.7 383,-317.7 383,-295.7 277,-295.7"/>
<text text-anchor="start" x="280" y="-303.4" font-family="Helvetica,sans-Serif" font-size="11.00" fill="#000000">nvarchar[80]</text>
<polygon fill="none" stroke="#000000" points="163,-273.7 163,-295.7 277,-295.7 277,-273.7 163,-273.7"/>
<text text-anchor="start" x="183" y="-280.8" font-family="Helvetica,sans-Serif" font-size="11.00" fill="#000000">Address</text>
<polygon fill="none" stroke="#000000" points="277,-273.7 277,-295.7 383,-295.7 383,-273.7 277,-273.7"/>
<text text-anchor="start" x="280" y="-281.4" font-family="Helvetica,sans-Serif" font-size="11.00" fill="#000000">nvarchar[70]</text>
<polygon fill="none" stroke="#000000" points="163,-251.7 163,-273.7 277,-273.7 277,-251.7 163,-251.7"/>
<text text-anchor="start" x="183" y="-258.8" font-family="Helvetica,sans-Serif" font-size="11.00" fill="#000000">City</text>
<polygon fill="none" stroke="#000000" points="277,-251.7 277,-273.7 383,-273.7 383,-251.7 277,-251.7"/>
<text text-anchor="start" x="280" y="-259.4" font-family="Helvetica,sans-Serif" font-size="11.00" fill="#000000">nvarchar[40]</text>
<polygon fill="none" stroke="#000000" points="163,-229.7 163,-251.7 277,-251.7 277,-229.7 163,-229.7"/>
<text text-anchor="start" x="183" y="-236.8" font-family="Helvetica,sans-Serif" font-size="11.00" fill="#000000">State</text>
<polygon fill="none" stroke="#000000" points="277,-229.7 277,-251.7 383,-251.7 383,-229.7 277,-229.7"/>
<text text-anchor="start" x="280" y="-237.4" font-family="Helvetica,sans-Serif" font-size="11.00" fill="#000000">nvarchar[40]</text>
<polygon fill="none" stroke="#000000" points="163,-207.7 163,-229.7 277,-229.7 277,-207.7 163,-207.7"/>
<text text-anchor="start" x="183" y="-214.8" font-family="Helvetica,sans-Serif" font-size="11.00" fill="#000000">Country</text>
<polygon fill="none" stroke="#000000" points="277,-207.7 277,-229.7 383,-229.7 383,-207.7 277,-207.7"/>
<text text-anchor="start" x="280" y="-215.4" font-family="Helvetica,sans-Serif" font-size="11.00" fill="#000000">nvarchar[40]</text>
<polygon fill="none" stroke="#000000" points="163,-185.7 163,-207.7 277,-207.7 277,-185.7 163,-185.7"/>
<text text-anchor="start" x="183" y="-192.8" font-family="Helvetica,sans-Serif" font-size="11.00" fill="#000000">PostalCode</text>
<polygon fill="none" stroke="#000000" points="277,-185.7 277,-207.7 383,-207.7 383,-185.7 277,-185.7"/>
<text text-anchor="start" x="280" y="-193.4" font-family="Helvetica,sans-Serif" font-size="11.00" fill="#000000">nvarchar[10]</text>
<polygon fill="none" stroke="#000000" points="163,-163.7 163,-185.7 277,-185.7 277,-163.7 163,-163.7"/>
<text text-anchor="start" x="183" y="-170.8" font-family="Helvetica,sans-Serif" font-size="11.00" fill="#000000">Phone</text>
<polygon fill="none" stroke="#000000" points="277,-163.7 277,-185.7 383,-185.7 383,-163.7 277,-163.7"/>
<text text-anchor="start" x="280" y="-171.4" font-family="Helvetica,sans-Serif" font-size="11.00" fill="#000000">nvarchar[24]</text>
<polygon fill="none" stroke="#000000" points="163,-141.7 163,-163.7 277,-163.7 277,-141.7 163,-141.7"/>
<text text-anchor="start" x="183" y="-148.8" font-family="Helvetica,sans-Serif" font-size="11.00" fill="#000000">Fax</text>
<polygon fill="none" stroke="#000000" points="277,-141.7 277,-163.7 383,-163.7 383,-141.7 277,-141.7"/>
<text text-anchor="start" x="280" y="-149.4" font-family="Helvetica,sans-Serif" font-size="11.00" fill="#000000">nvarchar[24]</text>
<polygon fill="none" stroke="#000000" points="163,-119.7 163,-141.7 277,-141.7 277,-119.7 163,-119.7"/>
<text text-anchor="start" x="183" y="-126.8" font-family="Helvetica,sans-Serif" font-size="11.00" fill="#000000">Email</text>
<polygon fill="none" stroke="#000000" points="277,-119.7 277,-141.7 383,-141.7 383,-119.7 277,-119.7"/>
<text text-anchor="start" x="280" y="-127.4" font-family="Helvetica,sans-Serif" font-size="11.00" fill="#000000">nvarchar[60]</text>
<polygon fill="#ffffff" stroke="transparent" points="163,-97.7 163,-119.7 277,-119.7 277,-97.7 163,-97.7"/>
<polygon fill="none" stroke="#000000" points="163,-97.7 163,-119.7 277,-119.7 277,-97.7 163,-97.7"/>
<image xlink:href="../../images/foreignKeys.png" width="11px" height="12px" preserveAspectRatio="xMinYMin meet" x="168" y="-114.7"/>
<text text-anchor="start" x="183" y="-104.8" font-family="Helvetica,sans-Serif" font-size="11.00" fill="#000000">SupportRepId</text>
<polygon fill="none" stroke="#000000" points="277,-97.7 277,-119.7 383,-119.7 383,-97.7 277,-97.7"/>
<text text-anchor="start" x="279.559" y="-105.4" font-family="Helvetica,sans-Serif" font-size="11.00" fill="#000000">integer[2000000000]</text>
<polygon fill="#ffffff" stroke="transparent" points="163,-78.7 163,-97.7 208,-97.7 208,-78.7 163,-78.7"/>
<polygon fill="none" stroke="#000000" points="163,-78.7 163,-97.7 208,-97.7 208,-78.7 163,-78.7"/>
<text text-anchor="start" x="166" y="-84.8" font-family="Helvetica,sans-Serif" font-size="11.00" fill="#000000">&lt; 1</text>
<polygon fill="#ffffff" stroke="transparent" points="208,-78.7 208,-97.7 277,-97.7 277,-78.7 208,-78.7"/>
<polygon fill="none" stroke="#000000" points="208,-78.7 208,-97.7 277,-97.7 277,-78.7 208,-78.7"/>
<text text-anchor="start" x="235.4956" y="-84.8" font-family="Helvetica,sans-Serif" font-size="11.00" fill="#000000">59 rows</text>
<polygon fill="#ffffff" stroke="transparent" points="277,-78.7 277,-97.7 383,-97.7 383,-78.7 277,-78.7"/>
<polygon fill="none" stroke="#000000" points="277,-78.7 277,-97.7 383,-97.7 383,-78.7 277,-78.7"/>
<text text-anchor="start" x="364.4053" y="-84.8" font-family="Helvetica,sans-Serif" font-size="11.00" fill="#000000">1 &gt;</text>
<polygon fill="none" stroke="#000000" stroke-width="2" points="162,-77.7 162,-407.7 384,-407.7 384,-77.7 162,-77.7"/>
</a>
</g>
</g>
<!-- Employee -->
<g id="node2" class="node">
<title>Employee</title>
<g id="a_node2"><a xlink:href="../../tables/Employee.html" xlink:title="Employee" target="_top">
<polygon fill="#ffffff" stroke="transparent" points="8,-38.2 8,-143.2 112,-143.2 112,-38.2 8,-38.2"/>
<polygon fill="#f5f5f5" stroke="transparent" points="8,-119.7 8,-142.7 112,-142.7 112,-119.7 8,-119.7"/>
<polygon fill="none" stroke="#000000" points="8,-119.7 8,-142.7 112,-142.7 112,-119.7 8,-119.7"/>
<text text-anchor="start" x="13" y="-128.3" font-family="Helvetica,sans-Serif" font-weight="bold" font-size="11.00" fill="#000000">Employee</text>
<text text-anchor="start" x="77.5219" y="-127.8" font-family="Helvetica,sans-Serif" font-size="11.00" fill="#000000">[table]</text>
<polygon fill="none" stroke="#000000" points="8,-97.7 8,-119.7 112,-119.7 112,-97.7 8,-97.7"/>
<image xlink:href="../../images/primaryKeys.png" width="11px" height="12px" preserveAspectRatio="xMinYMin meet" x="13" y="-114.7"/>
<text text-anchor="start" x="31" y="-104.8" font-family="Helvetica,sans-Serif" font-size="11.00" fill="#000000">EmployeeId</text>
<polygon fill="#ffffff" stroke="transparent" points="8,-75.7 8,-97.7 112,-97.7 112,-75.7 8,-75.7"/>
<polygon fill="none" stroke="#000000" points="8,-75.7 8,-97.7 112,-97.7 112,-75.7 8,-75.7"/>
<image xlink:href="../../images/foreignKeys.png" width="11px" height="12px" preserveAspectRatio="xMinYMin meet" x="13" y="-92.7"/>
<text text-anchor="start" x="31" y="-82.8" font-family="Helvetica,sans-Serif" font-size="11.00" fill="#000000">ReportsTo</text>
<polygon fill="none" stroke="#000000" points="8,-56.7 8,-75.7 112,-75.7 112,-56.7 8,-56.7"/>
<text text-anchor="start" x="11" y="-62.8" font-family="Helvetica,sans-Serif" font-size="11.00" fill="#000000">...</text>
<polygon fill="#ffffff" stroke="transparent" points="8,-37.7 8,-56.7 41,-56.7 41,-37.7 8,-37.7"/>
<polygon fill="none" stroke="#000000" points="8,-37.7 8,-56.7 41,-56.7 41,-37.7 8,-37.7"/>
<text text-anchor="start" x="11" y="-43.8" font-family="Helvetica,sans-Serif" font-size="11.00" fill="#000000">&lt; 1</text>
<polygon fill="#ffffff" stroke="transparent" points="41,-37.7 41,-56.7 85,-56.7 85,-37.7 41,-37.7"/>
<polygon fill="none" stroke="#000000" points="41,-37.7 41,-56.7 85,-56.7 85,-37.7 41,-37.7"/>
<text text-anchor="start" x="49.6105" y="-43.8" font-family="Helvetica,sans-Serif" font-size="11.00" fill="#000000">8 rows</text>
<polygon fill="#ffffff" stroke="transparent" points="85,-37.7 85,-56.7 112,-56.7 112,-37.7 85,-37.7"/>
<polygon fill="none" stroke="#000000" points="85,-37.7 85,-56.7 112,-56.7 112,-37.7 85,-37.7"/>
<text text-anchor="start" x="93.4053" y="-43.8" font-family="Helvetica,sans-Serif" font-size="11.00" fill="#000000">2 &gt;</text>
</a>
</g>
</g>
<!-- Customer&#45;&gt;Employee -->
<g id="edge1" class="edge">
<title>Customer:w&#45;&gt;Employee:e</title>
<path fill="none" stroke="#000000" d="M148.276,-108.7C136.2815,-108.7 128.8229,-108.7 112,-108.7"/>
<polygon fill="#000000" stroke="#000000" points="155,-108.7001 163,-112.3 159,-108.7 163,-108.7 163,-108.7 163,-108.7 159,-108.7 163,-105.1 155,-108.7001 155,-108.7001"/>
<ellipse fill="none" stroke="#000000" cx="151.8" cy="-108.7001" rx="3.2" ry="3.2"/>
</g>
<!-- Invoice -->
<g id="node3" class="node">
<title>Invoice</title>
<g id="a_node3"><a xlink:href="../../tables/Invoice.html" xlink:title="Invoice" target="_top">
<polygon fill="#ffffff" stroke="transparent" points="434,-324.2 434,-429.2 573,-429.2 573,-324.2 434,-324.2"/>
<polygon fill="#f5f5f5" stroke="transparent" points="434.5,-405.7 434.5,-428.7 573.5,-428.7 573.5,-405.7 434.5,-405.7"/>
<polygon fill="none" stroke="#000000" points="434.5,-405.7 434.5,-428.7 573.5,-428.7 573.5,-405.7 434.5,-405.7"/>
<text text-anchor="start" x="439.5" y="-414.3" font-family="Helvetica,sans-Serif" font-weight="bold" font-size="11.00" fill="#000000">Invoice</text>
<text text-anchor="start" x="538.5437" y="-413.8" font-family="Helvetica,sans-Serif" font-size="11.00" fill="#000000">[table]</text>
<polygon fill="none" stroke="#000000" points="434.5,-383.7 434.5,-405.7 573.5,-405.7 573.5,-383.7 434.5,-383.7"/>
<image xlink:href="../../images/primaryKeys.png" width="11px" height="12px" preserveAspectRatio="xMinYMin meet" x="439.5" y="-400.7"/>
<text text-anchor="start" x="454.5" y="-390.8" font-family="Helvetica,sans-Serif" font-size="11.00" fill="#000000">InvoiceId</text>
<polygon fill="#ffffff" stroke="transparent" points="434.5,-361.7 434.5,-383.7 573.5,-383.7 573.5,-361.7 434.5,-361.7"/>
<polygon fill="none" stroke="#000000" points="434.5,-361.7 434.5,-383.7 573.5,-383.7 573.5,-361.7 434.5,-361.7"/>
<image xlink:href="../../images/foreignKeys.png" width="11px" height="12px" preserveAspectRatio="xMinYMin meet" x="439.5" y="-378.7"/>
<text text-anchor="start" x="454.5" y="-368.8" font-family="Helvetica,sans-Serif" font-size="11.00" fill="#000000">CustomerId</text>
<polygon fill="none" stroke="#000000" points="434.5,-342.7 434.5,-361.7 573.5,-361.7 573.5,-342.7 434.5,-342.7"/>
<text text-anchor="start" x="437.5" y="-348.8" font-family="Helvetica,sans-Serif" font-size="11.00" fill="#000000">...</text>
<polygon fill="#ffffff" stroke="transparent" points="434.5,-323.7 434.5,-342.7 478.5,-342.7 478.5,-323.7 434.5,-323.7"/>
<polygon fill="none" stroke="#000000" points="434.5,-323.7 434.5,-342.7 478.5,-342.7 478.5,-323.7 434.5,-323.7"/>
<text text-anchor="start" x="437.5" y="-329.8" font-family="Helvetica,sans-Serif" font-size="11.00" fill="#000000">&lt; 1</text>
<polygon fill="#ffffff" stroke="transparent" points="478.5,-323.7 478.5,-342.7 540.5,-342.7 540.5,-323.7 478.5,-323.7"/>
<polygon fill="none" stroke="#000000" points="478.5,-323.7 478.5,-342.7 540.5,-342.7 540.5,-323.7 478.5,-323.7"/>
<text text-anchor="start" x="492.8807" y="-329.8" font-family="Helvetica,sans-Serif" font-size="11.00" fill="#000000">412 rows</text>
<polygon fill="#ffffff" stroke="transparent" points="540.5,-323.7 540.5,-342.7 573.5,-342.7 573.5,-323.7 540.5,-323.7"/>
<polygon fill="none" stroke="#000000" points="540.5,-323.7 540.5,-342.7 573.5,-342.7 573.5,-323.7 540.5,-323.7"/>
<text text-anchor="start" x="554.9053" y="-329.8" font-family="Helvetica,sans-Serif" font-size="11.00" fill="#000000">1 &gt;</text>
</a>
</g>
</g>
<!-- Invoice&#45;&gt;Customer -->
<g id="edge2" class="edge">
<title>Invoice:w&#45;&gt;Customer:e</title>
<path fill="none" stroke="#000000" d="M420.0156,-372.7C407.6771,-372.7 400.1667,-372.7 383,-372.7"/>
<polygon fill="#000000" stroke="#000000" points="426.5,-372.7001 434.5,-376.3 430.5,-372.7 434.5,-372.7 434.5,-372.7 434.5,-372.7 430.5,-372.7 434.5,-369.1 426.5,-372.7001 426.5,-372.7001"/>
<ellipse fill="none" stroke="#000000" cx="423.3" cy="-372.7001" rx="3.2" ry="3.2"/>
</g>
</g>
</svg>
