<?xml version="1.0" encoding="UTF-8" standalone="no"?>
<!DOCTYPE svg PUBLIC "-//W3C//DTD SVG 1.1//EN"
 "http://www.w3.org/Graphics/SVG/1.1/DTD/svg11.dtd">
<!-- Generated by graphviz version 2.40.1 (20161225.0304)
 -->
<!-- Title: oneDegreeRelationshipsDiagram Pages: 1 -->
<svg width="443pt" height="447pt"
 viewBox="0.00 0.00 442.98 446.70" xmlns="http://www.w3.org/2000/svg" xmlns:xlink="http://www.w3.org/1999/xlink">
<g id="graph0" class="graph" transform="scale(1 1) rotate(0) translate(4 442.7)">
<title>oneDegreeRelationshipsDiagram</title>
<polygon fill="#ffffff" stroke="transparent" points="-4,4 -4,-442.7 438.975,-442.7 438.975,4 -4,4"/>
<text text-anchor="middle" x="72.4936" y="-7.3" font-family="Helvetica,sans-Serif" font-size="11.00" fill="#000000">Generated by SchemaSpy</text>
<!-- Customer -->
<g id="node1" class="node">
<title>Customer</title>
<g id="a_node1"><a xlink:href="../../tables/Customer.html" xlink:title="Customer" target="_top">
<polygon fill="#ffffff" stroke="transparent" points="312.975,-329.7 312.975,-434.7 426.975,-434.7 426.975,-329.7 312.975,-329.7"/>
<polygon fill="#f5f5f5" stroke="transparent" points="312.975,-411.2 312.975,-434.2 426.975,-434.2 426.975,-411.2 312.975,-411.2"/>
<polygon fill="none" stroke="#000000" points="312.975,-411.2 312.975,-434.2 426.975,-434.2 426.975,-411.2 312.975,-411.2"/>
<text text-anchor="start" x="317.975" y="-419.8" font-family="Helvetica,sans-Serif" font-weight="bold" font-size="11.00" fill="#000000">Customer</text>
<text text-anchor="start" x="392.0187" y="-419.3" font-family="Helvetica,sans-Serif" font-size="11.00" fill="#000000">[table]</text>
<polygon fill="none" stroke="#000000" points="312.975,-389.2 312.975,-411.2 426.975,-411.2 426.975,-389.2 312.975,-389.2"/>
<image xlink:href="../../images/primaryKeys.png" width="11px" height="12px" preserveAspectRatio="xMinYMin meet" x="317.975" y="-406.2"/>
<text text-anchor="start" x="332.975" y="-396.3" font-family="Helvetica,sans-Serif" font-size="11.00" fill="#000000">CustomerId</text>
<polygon fill="#ffffff" stroke="transparent" points="312.975,-367.2 312.975,-389.2 426.975,-389.2 426.975,-367.2 312.975,-367.2"/>
<polygon fill="none" stroke="#000000" points="312.975,-367.2 312.975,-389.2 426.975,-389.2 426.975,-367.2 312.975,-367.2"/>
<image xlink:href="../../images/foreignKeys.png" width="11px" height="12px" preserveAspectRatio="xMinYMin meet" x="317.975" y="-384.2"/>
<text text-anchor="start" x="332.975" y="-374.3" font-family="Helvetica,sans-Serif" font-size="11.00" fill="#000000">SupportRepId</text>
<polygon fill="none" stroke="#000000" points="312.975,-348.2 312.975,-367.2 426.975,-367.2 426.975,-348.2 312.975,-348.2"/>
<text text-anchor="start" x="315.975" y="-354.3" font-family="Helvetica,sans-Serif" font-size="11.00" fill="#000000">...</text>
<polygon fill="#ffffff" stroke="transparent" points="312.975,-329.2 312.975,-348.2 347.975,-348.2 347.975,-329.2 312.975,-329.2"/>
<polygon fill="none" stroke="#000000" points="312.975,-329.2 312.975,-348.2 347.975,-348.2 347.975,-329.2 312.975,-329.2"/>
<text text-anchor="start" x="315.975" y="-335.3" font-family="Helvetica,sans-Serif" font-size="11.00" fill="#000000">&lt; 1</text>
<polygon fill="#ffffff" stroke="transparent" points="347.975,-329.2 347.975,-348.2 398.975,-348.2 398.975,-329.2 347.975,-329.2"/>
<polygon fill="none" stroke="#000000" points="347.975,-329.2 347.975,-348.2 398.975,-348.2 398.975,-329.2 347.975,-329.2"/>
<text text-anchor="start" x="357.4706" y="-335.3" font-family="Helvetica,sans-Serif" font-size="11.00" fill="#000000">59 rows</text>
<polygon fill="#ffffff" stroke="transparent" points="398.975,-329.2 398.975,-348.2 426.975,-348.2 426.975,-329.2 398.975,-329.2"/>
<polygon fill="none" stroke="#000000" points="398.975,-329.2 398.975,-348.2 426.975,-348.2 426.975,-329.2 398.975,-329.2"/>
<text text-anchor="start" x="408.3803" y="-335.3" font-family="Helvetica,sans-Serif" font-size="11.00" fill="#000000">1 &gt;</text>
</a>
</g>
</g>
<!-- Employee -->
<g id="node2" class="node">
<title>Employee</title>
<g id="a_node2"><a xlink:href="../../tables/Employee.html" xlink:title="Employee" target="_top">
<polygon fill="#ffffff" stroke="transparent" points="30.975,-38.2 30.975,-414.2 263.975,-414.2 263.975,-38.2 30.975,-38.2"/>
<polygon fill="#f5f5f5" stroke="transparent" points="33.475,-389.2 33.475,-412.2 262.475,-412.2 262.475,-389.2 33.475,-389.2"/>
<polygon fill="none" stroke="#000000" points="33.475,-389.2 33.475,-412.2 262.475,-412.2 262.475,-389.2 33.475,-389.2"/>
<text text-anchor="start" x="38.475" y="-397.8" font-family="Helvetica,sans-Serif" font-weight="bold" font-size="11.00" fill="#000000">Employee</text>
<text text-anchor="start" x="227.5187" y="-397.3" font-family="Helvetica,sans-Serif" font-size="11.00" fill="#000000">[table]</text>
<polygon fill="none" stroke="#000000" points="33.475,-367.2 33.475,-389.2 132.475,-389.2 132.475,-367.2 33.475,-367.2"/>
<image xlink:href="../../images/primaryKeys.png" width="11px" height="12px" preserveAspectRatio="xMinYMin meet" x="38.475" y="-384.2"/>
<text text-anchor="start" x="53.475" y="-374.3" font-family="Helvetica,sans-Serif" font-size="11.00" fill="#000000">EmployeeId</text>
<polygon fill="none" stroke="#000000" points="132.475,-367.2 132.475,-389.2 262.475,-389.2 262.475,-367.2 132.475,-367.2"/>
<text text-anchor="start" x="135.475" y="-374.9" font-family="Helvetica,sans-Serif" font-size="11.00" fill="#000000">integer[2000000000]</text>
<polygon fill="none" stroke="#000000" points="33.475,-345.2 33.475,-367.2 132.475,-367.2 132.475,-345.2 33.475,-345.2"/>
<text text-anchor="start" x="53.475" y="-352.3" font-family="Helvetica,sans-Serif" font-size="11.00" fill="#000000">LastName</text>
<polygon fill="none" stroke="#000000" points="132.475,-345.2 132.475,-367.2 262.475,-367.2 262.475,-345.2 132.475,-345.2"/>
<text text-anchor="start" x="135.475" y="-352.9" font-family="Helvetica,sans-Serif" font-size="11.00" fill="#000000">nvarchar[20]</text>
<polygon fill="none" stroke="#000000" points="33.475,-323.2 33.475,-345.2 132.475,-345.2 132.475,-323.2 33.475,-323.2"/>
<text text-anchor="start" x="53.475" y="-330.3" font-family="Helvetica,sans-Serif" font-size="11.00" fill="#000000">FirstName</text>
<polygon fill="none" stroke="#000000" points="132.475,-323.2 132.475,-345.2 262.475,-345.2 262.475,-323.2 132.475,-323.2"/>
<text text-anchor="start" x="135.475" y="-330.9" font-family="Helvetica,sans-Serif" font-size="11.00" fill="#000000">nvarchar[20]</text>
<polygon fill="none" stroke="#000000" points="33.475,-301.2 33.475,-323.2 132.475,-323.2 132.475,-301.2 33.475,-301.2"/>
<text text-anchor="start" x="53.475" y="-308.3" font-family="Helvetica,sans-Serif" font-size="11.00" fill="#000000">Title</text>
<polygon fill="none" stroke="#000000" points="132.475,-301.2 132.475,-323.2 262.475,-323.2 262.475,-301.2 132.475,-301.2"/>
<text text-anchor="start" x="135.475" y="-308.9" font-family="Helvetica,sans-Serif" font-size="11.00" fill="#000000">nvarchar[30]</text>
<polygon fill="#ffffff" stroke="transparent" points="33.475,-279.2 33.475,-301.2 132.475,-301.2 132.475,-279.2 33.475,-279.2"/>
<polygon fill="none" stroke="#000000" points="33.475,-279.2 33.475,-301.2 132.475,-301.2 132.475,-279.2 33.475,-279.2"/>
<image xlink:href="../../images/foreignKeys.png" width="11px" height="12px" preserveAspectRatio="xMinYMin meet" x="38.475" y="-296.2"/>
<text text-anchor="start" x="53.475" y="-286.3" font-family="Helvetica,sans-Serif" font-size="11.00" fill="#000000">ReportsTo</text>
<polygon fill="none" stroke="#000000" points="132.475,-279.2 132.475,-301.2 262.475,-301.2 262.475,-279.2 132.475,-279.2"/>
<text text-anchor="start" x="135.475" y="-286.9" font-family="Helvetica,sans-Serif" font-size="11.00" fill="#000000">integer[2000000000]</text>
<polygon fill="none" stroke="#000000" points="33.475,-257.2 33.475,-279.2 132.475,-279.2 132.475,-257.2 33.475,-257.2"/>
<text text-anchor="start" x="53.475" y="-264.3" font-family="Helvetica,sans-Serif" font-size="11.00" fill="#000000">BirthDate</text>
<polygon fill="none" stroke="#000000" points="132.475,-257.2 132.475,-279.2 262.475,-279.2 262.475,-257.2 132.475,-257.2"/>
<text text-anchor="start" x="135.1122" y="-264.9" font-family="Helvetica,sans-Serif" font-size="11.00" fill="#000000">datetime[2000000000,10]</text>
<polygon fill="none" stroke="#000000" points="33.475,-235.2 33.475,-257.2 132.475,-257.2 132.475,-235.2 33.475,-235.2"/>
<text text-anchor="start" x="53.475" y="-242.3" font-family="Helvetica,sans-Serif" font-size="11.00" fill="#000000">HireDate</text>
<polygon fill="none" stroke="#000000" points="132.475,-235.2 132.475,-257.2 262.475,-257.2 262.475,-235.2 132.475,-235.2"/>
<text text-anchor="start" x="135.1122" y="-242.9" font-family="Helvetica,sans-Serif" font-size="11.00" fill="#000000">datetime[2000000000,10]</text>
<polygon fill="none" stroke="#000000" points="33.475,-213.2 33.475,-235.2 132.475,-235.2 132.475,-213.2 33.475,-213.2"/>
<text text-anchor="start" x="53.475" y="-220.3" font-family="Helvetica,sans-Serif" font-size="11.00" fill="#000000">Address</text>
<polygon fill="none" stroke="#000000" points="132.475,-213.2 132.475,-235.2 262.475,-235.2 262.475,-213.2 132.475,-213.2"/>
<text text-anchor="start" x="135.475" y="-220.9" font-family="Helvetica,sans-Serif" font-size="11.00" fill="#000000">nvarchar[70]</text>
<polygon fill="none" stroke="#000000" points="33.475,-191.2 33.475,-213.2 132.475,-213.2 132.475,-191.2 33.475,-191.2"/>
<text text-anchor="start" x="53.475" y="-198.3" font-family="Helvetica,sans-Serif" font-size="11.00" fill="#000000">City</text>
<polygon fill="none" stroke="#000000" points="132.475,-191.2 132.475,-213.2 262.475,-213.2 262.475,-191.2 132.475,-191.2"/>
<text text-anchor="start" x="135.475" y="-198.9" font-family="Helvetica,sans-Serif" font-size="11.00" fill="#000000">nvarchar[40]</text>
<polygon fill="none" stroke="#000000" points="33.475,-169.2 33.475,-191.2 132.475,-191.2 132.475,-169.2 33.475,-169.2"/>
<text text-anchor="start" x="53.475" y="-176.3" font-family="Helvetica,sans-Serif" font-size="11.00" fill="#000000">State</text>
<polygon fill="none" stroke="#000000" points="132.475,-169.2 132.475,-191.2 262.475,-191.2 262.475,-169.2 132.475,-169.2"/>
<text text-anchor="start" x="135.475" y="-176.9" font-family="Helvetica,sans-Serif" font-size="11.00" fill="#000000">nvarchar[40]</text>
<polygon fill="none" stroke="#000000" points="33.475,-147.2 33.475,-169.2 132.475,-169.2 132.475,-147.2 33.475,-147.2"/>
<text text-anchor="start" x="53.475" y="-154.3" font-family="Helvetica,sans-Serif" font-size="11.00" fill="#000000">Country</text>
<polygon fill="none" stroke="#000000" points="132.475,-147.2 132.475,-169.2 262.475,-169.2 262.475,-147.2 132.475,-147.2"/>
<text text-anchor="start" x="135.475" y="-154.9" font-family="Helvetica,sans-Serif" font-size="11.00" fill="#000000">nvarchar[40]</text>
<polygon fill="none" stroke="#000000" points="33.475,-125.2 33.475,-147.2 132.475,-147.2 132.475,-125.2 33.475,-125.2"/>
<text text-anchor="start" x="53.475" y="-132.3" font-family="Helvetica,sans-Serif" font-size="11.00" fill="#000000">PostalCode</text>
<polygon fill="none" stroke="#000000" points="132.475,-125.2 132.475,-147.2 262.475,-147.2 262.475,-125.2 132.475,-125.2"/>
<text text-anchor="start" x="135.475" y="-132.9" font-family="Helvetica,sans-Serif" font-size="11.00" fill="#000000">nvarchar[10]</text>
<polygon fill="none" stroke="#000000" points="33.475,-103.2 33.475,-125.2 132.475,-125.2 132.475,-103.2 33.475,-103.2"/>
<text text-anchor="start" x="53.475" y="-110.3" font-family="Helvetica,sans-Serif" font-size="11.00" fill="#000000">Phone</text>
<polygon fill="none" stroke="#000000" points="132.475,-103.2 132.475,-125.2 262.475,-125.2 262.475,-103.2 132.475,-103.2"/>
<text text-anchor="start" x="135.475" y="-110.9" font-family="Helvetica,sans-Serif" font-size="11.00" fill="#000000">nvarchar[24]</text>
<polygon fill="none" stroke="#000000" points="33.475,-81.2 33.475,-103.2 132.475,-103.2 132.475,-81.2 33.475,-81.2"/>
<text text-anchor="start" x="53.475" y="-88.3" font-family="Helvetica,sans-Serif" font-size="11.00" fill="#000000">Fax</text>
<polygon fill="none" stroke="#000000" points="132.475,-81.2 132.475,-103.2 262.475,-103.2 262.475,-81.2 132.475,-81.2"/>
<text text-anchor="start" x="135.475" y="-88.9" font-family="Helvetica,sans-Serif" font-size="11.00" fill="#000000">nvarchar[24]</text>
<polygon fill="none" stroke="#000000" points="33.475,-59.2 33.475,-81.2 132.475,-81.2 132.475,-59.2 33.475,-59.2"/>
<text text-anchor="start" x="53.475" y="-66.3" font-family="Helvetica,sans-Serif" font-size="11.00" fill="#000000">Email</text>
<polygon fill="none" stroke="#000000" points="132.475,-59.2 132.475,-81.2 262.475,-81.2 262.475,-59.2 132.475,-59.2"/>
<text text-anchor="start" x="135.475" y="-66.9" font-family="Helvetica,sans-Serif" font-size="11.00" fill="#000000">nvarchar[60]</text>
<polygon fill="#ffffff" stroke="transparent" points="33.475,-40.2 33.475,-59.2 74.475,-59.2 74.475,-40.2 33.475,-40.2"/>
<polygon fill="none" stroke="#000000" points="33.475,-40.2 33.475,-59.2 74.475,-59.2 74.475,-40.2 33.475,-40.2"/>
<text text-anchor="start" x="36.475" y="-46.3" font-family="Helvetica,sans-Serif" font-size="11.00" fill="#000000">&lt; 1</text>
<polygon fill="#ffffff" stroke="transparent" points="74.475,-40.2 74.475,-59.2 132.475,-59.2 132.475,-40.2 74.475,-40.2"/>
<polygon fill="none" stroke="#000000" points="74.475,-40.2 74.475,-59.2 132.475,-59.2 132.475,-40.2 74.475,-40.2"/>
<text text-anchor="start" x="97.0855" y="-46.3" font-family="Helvetica,sans-Serif" font-size="11.00" fill="#000000">8 rows</text>
<polygon fill="#ffffff" stroke="transparent" points="132.475,-40.2 132.475,-59.2 262.475,-59.2 262.475,-40.2 132.475,-40.2"/>
<polygon fill="none" stroke="#000000" points="132.475,-40.2 132.475,-59.2 262.475,-59.2 262.475,-40.2 132.475,-40.2"/>
<text text-anchor="start" x="243.8803" y="-46.3" font-family="Helvetica,sans-Serif" font-size="11.00" fill="#000000">2 &gt;</text>
<polygon fill="none" stroke="#000000" stroke-width="2" points="31.975,-39.2 31.975,-413.2 262.975,-413.2 262.975,-39.2 31.975,-39.2"/>
</a>
</g>
</g>
<!-- Customer&#45;&gt;Employee -->
<g id="edge1" class="edge">
<title>Customer:w&#45;&gt;Employee:e</title>
<path fill="none" stroke="#000000" d="M298.3953,-378.2C286.5185,-378.2 279.133,-378.2 262.475,-378.2"/>
<polygon fill="#000000" stroke="#000000" points="304.975,-378.2001 312.9751,-381.8 308.975,-378.2 312.975,-378.2 312.975,-378.2 312.975,-378.2 308.975,-378.2 312.975,-374.6 304.975,-378.2001 304.975,-378.2001"/>
<ellipse fill="none" stroke="#000000" cx="301.775" cy="-378.2001" rx="3.2" ry="3.2"/>
</g>
<!-- Employee&#45;&gt;Employee -->
<g id="edge2" class="edge">
<title>Employee:w&#45;&gt;Employee:e</title>
<path fill="none" stroke="#000000" d="M24.5993,-301.839C-21.4796,-366.532 -12.3961,-431.2 147.975,-431.2 317.975,-431.2 317.975,-422.5333 262.475,-378.2"/>
<polygon fill="#000000" stroke="#000000" points="28.624,-296.5614 36.3377,-292.383 31.0495,-293.3807 33.475,-290.2 33.475,-290.2 33.475,-290.2 31.0495,-293.3807 30.6124,-288.017 28.624,-296.5614 28.624,-296.5614"/>
<ellipse fill="none" stroke="#000000" cx="26.6835" cy="-299.106" rx="3.2" ry="3.2"/>
</g>
</g>
</svg>
