<?xml version="1.0" encoding="UTF-8" standalone="no"?>
<!DOCTYPE svg PUBLIC "-//W3C//DTD SVG 1.1//EN"
 "http://www.w3.org/Graphics/SVG/1.1/DTD/svg11.dtd">
<!-- Generated by graphviz version 2.40.1 (20161225.0304)
 -->
<!-- Title: oneDegreeRelationshipsDiagram Pages: 1 -->
<svg width="364pt" height="205pt"
 viewBox="0.00 0.00 364.00 204.70" xmlns="http://www.w3.org/2000/svg" xmlns:xlink="http://www.w3.org/1999/xlink">
<g id="graph0" class="graph" transform="scale(1 1) rotate(0) translate(4 200.7)">
<title>oneDegreeRelationshipsDiagram</title>
<polygon fill="#ffffff" stroke="transparent" points="-4,4 -4,-200.7 360,-200.7 360,4 -4,4"/>
<text text-anchor="middle" x="72.4936" y="-7.3" font-family="Helvetica,sans-Serif" font-size="11.00" fill="#000000">Generated by SchemaSpy</text>
<!-- Track -->
<g id="node1" class="node">
<title>Track</title>
<g id="a_node1"><a xlink:href="../../tables/Track.html" xlink:title="Track" target="_top">
<polygon fill="#ffffff" stroke="transparent" points="241,-43.7 241,-192.7 348,-192.7 348,-43.7 241,-43.7"/>
<polygon fill="#f5f5f5" stroke="transparent" points="241.5,-169.2 241.5,-192.2 348.5,-192.2 348.5,-169.2 241.5,-169.2"/>
<polygon fill="none" stroke="#000000" points="241.5,-169.2 241.5,-192.2 348.5,-192.2 348.5,-169.2 241.5,-169.2"/>
<text text-anchor="start" x="246.5" y="-177.8" font-family="Helvetica,sans-Serif" font-weight="bold" font-size="11.00" fill="#000000">Track</text>
<text text-anchor="start" x="313.5437" y="-177.3" font-family="Helvetica,sans-Serif" font-size="11.00" fill="#000000">[table]</text>
<polygon fill="none" stroke="#000000" points="241.5,-147.2 241.5,-169.2 348.5,-169.2 348.5,-147.2 241.5,-147.2"/>
<image xlink:href="../../images/primaryKeys.png" width="11px" height="12px" preserveAspectRatio="xMinYMin meet" x="246.5" y="-164.2"/>
<text text-anchor="start" x="261.5" y="-154.3" font-family="Helvetica,sans-Serif" font-size="11.00" fill="#000000">TrackId</text>
<polygon fill="#ffffff" stroke="transparent" points="241.5,-125.2 241.5,-147.2 348.5,-147.2 348.5,-125.2 241.5,-125.2"/>
<polygon fill="none" stroke="#000000" points="241.5,-125.2 241.5,-147.2 348.5,-147.2 348.5,-125.2 241.5,-125.2"/>
<image xlink:href="../../images/foreignKeys.png" width="11px" height="12px" preserveAspectRatio="xMinYMin meet" x="246.5" y="-142.2"/>
<text text-anchor="start" x="261.5" y="-132.3" font-family="Helvetica,sans-Serif" font-size="11.00" fill="#000000">AlbumId</text>
<polygon fill="#ffffff" stroke="transparent" points="241.5,-103.2 241.5,-125.2 348.5,-125.2 348.5,-103.2 241.5,-103.2"/>
<polygon fill="none" stroke="#000000" points="241.5,-103.2 241.5,-125.2 348.5,-125.2 348.5,-103.2 241.5,-103.2"/>
<image xlink:href="../../images/foreignKeys.png" width="11px" height="12px" preserveAspectRatio="xMinYMin meet" x="246.5" y="-120.2"/>
<text text-anchor="start" x="261.5" y="-110.3" font-family="Helvetica,sans-Serif" font-size="11.00" fill="#000000">MediaTypeId</text>
<polygon fill="#ffffff" stroke="transparent" points="241.5,-81.2 241.5,-103.2 348.5,-103.2 348.5,-81.2 241.5,-81.2"/>
<polygon fill="none" stroke="#000000" points="241.5,-81.2 241.5,-103.2 348.5,-103.2 348.5,-81.2 241.5,-81.2"/>
<image xlink:href="../../images/foreignKeys.png" width="11px" height="12px" preserveAspectRatio="xMinYMin meet" x="246.5" y="-98.2"/>
<text text-anchor="start" x="261.5" y="-88.3" font-family="Helvetica,sans-Serif" font-size="11.00" fill="#000000">GenreId</text>
<polygon fill="none" stroke="#000000" points="241.5,-62.2 241.5,-81.2 348.5,-81.2 348.5,-62.2 241.5,-62.2"/>
<text text-anchor="start" x="244.5" y="-68.3" font-family="Helvetica,sans-Serif" font-size="11.00" fill="#000000">...</text>
<polygon fill="#ffffff" stroke="transparent" points="241.5,-43.2 241.5,-62.2 265.5,-62.2 265.5,-43.2 241.5,-43.2"/>
<polygon fill="none" stroke="#000000" points="241.5,-43.2 241.5,-62.2 265.5,-62.2 265.5,-43.2 241.5,-43.2"/>
<text text-anchor="start" x="244.5" y="-49.3" font-family="Helvetica,sans-Serif" font-size="11.00" fill="#000000">&lt; 3</text>
<polygon fill="#ffffff" stroke="transparent" points="265.5,-43.2 265.5,-62.2 325.5,-62.2 325.5,-43.2 265.5,-43.2"/>
<polygon fill="none" stroke="#000000" points="265.5,-43.2 265.5,-62.2 325.5,-62.2 325.5,-43.2 265.5,-43.2"/>
<text text-anchor="start" x="268.7089" y="-49.3" font-family="Helvetica,sans-Serif" font-size="11.00" fill="#000000">3,503 rows</text>
<polygon fill="#ffffff" stroke="transparent" points="325.5,-43.2 325.5,-62.2 348.5,-62.2 348.5,-43.2 325.5,-43.2"/>
<polygon fill="none" stroke="#000000" points="325.5,-43.2 325.5,-62.2 348.5,-62.2 348.5,-43.2 325.5,-43.2"/>
<text text-anchor="start" x="329.9053" y="-49.3" font-family="Helvetica,sans-Serif" font-size="11.00" fill="#000000">2 &gt;</text>
</a>
</g>
</g>
<!-- Genre -->
<g id="node2" class="node">
<title>Genre</title>
<g id="a_node2"><a xlink:href="../../tables/Genre.html" xlink:title="Genre" target="_top">
<polygon fill="#ffffff" stroke="transparent" points="8,-38.2 8,-128.2 192,-128.2 192,-38.2 8,-38.2"/>
<polygon fill="#f5f5f5" stroke="transparent" points="10,-103.2 10,-126.2 190,-126.2 190,-103.2 10,-103.2"/>
<polygon fill="none" stroke="#000000" points="10,-103.2 10,-126.2 190,-126.2 190,-103.2 10,-103.2"/>
<text text-anchor="start" x="15" y="-111.8" font-family="Helvetica,sans-Serif" font-weight="bold" font-size="11.00" fill="#000000">Genre</text>
<text text-anchor="start" x="155.0437" y="-111.3" font-family="Helvetica,sans-Serif" font-size="11.00" fill="#000000">[table]</text>
<polygon fill="none" stroke="#000000" points="10,-81.2 10,-103.2 84,-103.2 84,-81.2 10,-81.2"/>
<image xlink:href="../../images/primaryKeys.png" width="11px" height="12px" preserveAspectRatio="xMinYMin meet" x="15" y="-98.2"/>
<text text-anchor="start" x="30" y="-88.3" font-family="Helvetica,sans-Serif" font-size="11.00" fill="#000000">GenreId</text>
<polygon fill="none" stroke="#000000" points="84,-81.2 84,-103.2 190,-103.2 190,-81.2 84,-81.2"/>
<text text-anchor="start" x="86.559" y="-88.9" font-family="Helvetica,sans-Serif" font-size="11.00" fill="#000000">integer[2000000000]</text>
<polygon fill="none" stroke="#000000" points="10,-59.2 10,-81.2 84,-81.2 84,-59.2 10,-59.2"/>
<text text-anchor="start" x="30" y="-66.3" font-family="Helvetica,sans-Serif" font-size="11.00" fill="#000000">Name</text>
<polygon fill="none" stroke="#000000" points="84,-59.2 84,-81.2 190,-81.2 190,-59.2 84,-59.2"/>
<text text-anchor="start" x="87" y="-66.9" font-family="Helvetica,sans-Serif" font-size="11.00" fill="#000000">nvarchar[120]</text>
<polygon fill="#ffffff" stroke="transparent" points="10,-40.2 10,-59.2 35,-59.2 35,-40.2 10,-40.2"/>
<polygon fill="none" stroke="#000000" points="10,-40.2 10,-59.2 35,-59.2 35,-40.2 10,-40.2"/>
<text text-anchor="start" x="13" y="-46.3" font-family="Helvetica,sans-Serif" font-size="11.00" fill="#000000">&lt; 0</text>
<polygon fill="#ffffff" stroke="transparent" points="35,-40.2 35,-59.2 84,-59.2 84,-40.2 35,-40.2"/>
<polygon fill="none" stroke="#000000" points="35,-40.2 35,-59.2 84,-59.2 84,-40.2 35,-40.2"/>
<text text-anchor="start" x="42.4956" y="-46.3" font-family="Helvetica,sans-Serif" font-size="11.00" fill="#000000">25 rows</text>
<polygon fill="#ffffff" stroke="transparent" points="84,-40.2 84,-59.2 190,-59.2 190,-40.2 84,-40.2"/>
<polygon fill="none" stroke="#000000" points="84,-40.2 84,-59.2 190,-59.2 190,-40.2 84,-40.2"/>
<text text-anchor="start" x="171.4053" y="-46.3" font-family="Helvetica,sans-Serif" font-size="11.00" fill="#000000">1 &gt;</text>
<polygon fill="none" stroke="#000000" stroke-width="2" points="9,-39.2 9,-127.2 191,-127.2 191,-39.2 9,-39.2"/>
</a>
</g>
</g>
<!-- Track&#45;&gt;Genre -->
<g id="edge1" class="edge">
<title>Track:w&#45;&gt;Genre:e</title>
<path fill="none" stroke="#000000" d="M227.0156,-92.2C214.6771,-92.2 207.1667,-92.2 190,-92.2"/>
<polygon fill="#000000" stroke="#000000" points="233.5,-92.2001 241.5,-95.8 237.5,-92.2 241.5,-92.2 241.5,-92.2 241.5,-92.2 237.5,-92.2 241.5,-88.6 233.5,-92.2001 233.5,-92.2001"/>
<ellipse fill="none" stroke="#000000" cx="230.3" cy="-92.2001" rx="3.2" ry="3.2"/>
</g>
</g>
</svg>
