<?xml version="1.0" encoding="UTF-8" standalone="no"?>
<!DOCTYPE svg PUBLIC "-//W3C//DTD SVG 1.1//EN"
 "http://www.w3.org/Graphics/SVG/1.1/DTD/svg11.dtd">
<!-- Generated by graphviz version 2.40.1 (20161225.0304)
 -->
<!-- Title: twoDegreesRelationshipsDiagram Pages: 1 -->
<svg width="539pt" height="308pt"
 viewBox="0.00 0.00 539.00 307.70" xmlns="http://www.w3.org/2000/svg" xmlns:xlink="http://www.w3.org/1999/xlink">
<g id="graph0" class="graph" transform="scale(1 1) rotate(0) translate(4 303.7)">
<title>twoDegreesRelationshipsDiagram</title>
<polygon fill="#ffffff" stroke="transparent" points="-4,4 -4,-303.7 535,-303.7 535,4 -4,4"/>
<text text-anchor="middle" x="72.4936" y="-7.3" font-family="Helvetica,sans-Serif" font-size="11.00" fill="#000000">Generated by SchemaSpy</text>
<!-- InvoiceLine -->
<g id="node1" class="node">
<title>InvoiceLine</title>
<g id="a_node1"><a xlink:href="../../tables/InvoiceLine.html" xlink:title="InvoiceLine" target="_top">
<polygon fill="#ffffff" stroke="transparent" points="402.5,-234.7 402.5,-295.7 517.5,-295.7 517.5,-234.7 402.5,-234.7"/>
<polygon fill="#f5f5f5" stroke="transparent" points="403,-272.2 403,-295.2 518,-295.2 518,-272.2 403,-272.2"/>
<polygon fill="none" stroke="#000000" points="403,-272.2 403,-295.2 518,-295.2 518,-272.2 403,-272.2"/>
<text text-anchor="start" x="408" y="-280.8" font-family="Helvetica,sans-Serif" font-weight="bold" font-size="11.00" fill="#000000">InvoiceLine</text>
<text text-anchor="start" x="483.5219" y="-280.3" font-family="Helvetica,sans-Serif" font-size="11.00" fill="#000000">[table]</text>
<polygon fill="none" stroke="#000000" points="403,-253.2 403,-272.2 518,-272.2 518,-253.2 403,-253.2"/>
<text text-anchor="start" x="406" y="-259.3" font-family="Helvetica,sans-Serif" font-size="11.00" fill="#000000">...</text>
<polygon fill="#ffffff" stroke="transparent" points="403,-234.2 403,-253.2 435,-253.2 435,-234.2 403,-234.2"/>
<polygon fill="none" stroke="#000000" points="403,-234.2 403,-253.2 435,-253.2 435,-234.2 403,-234.2"/>
<text text-anchor="start" x="406" y="-240.3" font-family="Helvetica,sans-Serif" font-size="11.00" fill="#000000">&lt; 2</text>
<polygon fill="#ffffff" stroke="transparent" points="435,-234.2 435,-253.2 500,-253.2 500,-234.2 435,-234.2"/>
<polygon fill="none" stroke="#000000" points="435,-234.2 435,-253.2 500,-253.2 500,-234.2 435,-234.2"/>
<text text-anchor="start" x="443.2089" y="-240.3" font-family="Helvetica,sans-Serif" font-size="11.00" fill="#000000">2,240 rows</text>
<polygon fill="#ffffff" stroke="transparent" points="500,-234.2 500,-253.2 518,-253.2 518,-234.2 500,-234.2"/>
<polygon fill="none" stroke="#000000" points="500,-234.2 500,-253.2 518,-253.2 518,-234.2 500,-234.2"/>
<text text-anchor="start" x="508.8862" y="-240.3" font-family="Helvetica,sans-Serif" font-size="11.00" fill="#000000"> &#160;</text>
</a>
</g>
</g>
<!-- Track -->
<g id="node2" class="node">
<title>Track</title>
<g id="a_node2"><a xlink:href="../../tables/Track.html" xlink:title="Track" target="_top">
<polygon fill="#ffffff" stroke="transparent" points="241,-106.7 241,-255.7 348,-255.7 348,-106.7 241,-106.7"/>
<polygon fill="#f5f5f5" stroke="transparent" points="241.5,-232.2 241.5,-255.2 348.5,-255.2 348.5,-232.2 241.5,-232.2"/>
<polygon fill="none" stroke="#000000" points="241.5,-232.2 241.5,-255.2 348.5,-255.2 348.5,-232.2 241.5,-232.2"/>
<text text-anchor="start" x="246.5" y="-240.8" font-family="Helvetica,sans-Serif" font-weight="bold" font-size="11.00" fill="#000000">Track</text>
<text text-anchor="start" x="313.5437" y="-240.3" font-family="Helvetica,sans-Serif" font-size="11.00" fill="#000000">[table]</text>
<polygon fill="none" stroke="#000000" points="241.5,-210.2 241.5,-232.2 348.5,-232.2 348.5,-210.2 241.5,-210.2"/>
<image xlink:href="../../images/primaryKeys.png" width="11px" height="12px" preserveAspectRatio="xMinYMin meet" x="246.5" y="-227.2"/>
<text text-anchor="start" x="261.5" y="-217.3" font-family="Helvetica,sans-Serif" font-size="11.00" fill="#000000">TrackId</text>
<polygon fill="#ffffff" stroke="transparent" points="241.5,-188.2 241.5,-210.2 348.5,-210.2 348.5,-188.2 241.5,-188.2"/>
<polygon fill="none" stroke="#000000" points="241.5,-188.2 241.5,-210.2 348.5,-210.2 348.5,-188.2 241.5,-188.2"/>
<image xlink:href="../../images/foreignKeys.png" width="11px" height="12px" preserveAspectRatio="xMinYMin meet" x="246.5" y="-205.2"/>
<text text-anchor="start" x="261.5" y="-195.3" font-family="Helvetica,sans-Serif" font-size="11.00" fill="#000000">AlbumId</text>
<polygon fill="#ffffff" stroke="transparent" points="241.5,-166.2 241.5,-188.2 348.5,-188.2 348.5,-166.2 241.5,-166.2"/>
<polygon fill="none" stroke="#000000" points="241.5,-166.2 241.5,-188.2 348.5,-188.2 348.5,-166.2 241.5,-166.2"/>
<image xlink:href="../../images/foreignKeys.png" width="11px" height="12px" preserveAspectRatio="xMinYMin meet" x="246.5" y="-183.2"/>
<text text-anchor="start" x="261.5" y="-173.3" font-family="Helvetica,sans-Serif" font-size="11.00" fill="#000000">MediaTypeId</text>
<polygon fill="#ffffff" stroke="transparent" points="241.5,-144.2 241.5,-166.2 348.5,-166.2 348.5,-144.2 241.5,-144.2"/>
<polygon fill="none" stroke="#000000" points="241.5,-144.2 241.5,-166.2 348.5,-166.2 348.5,-144.2 241.5,-144.2"/>
<image xlink:href="../../images/foreignKeys.png" width="11px" height="12px" preserveAspectRatio="xMinYMin meet" x="246.5" y="-161.2"/>
<text text-anchor="start" x="261.5" y="-151.3" font-family="Helvetica,sans-Serif" font-size="11.00" fill="#000000">GenreId</text>
<polygon fill="none" stroke="#000000" points="241.5,-125.2 241.5,-144.2 348.5,-144.2 348.5,-125.2 241.5,-125.2"/>
<text text-anchor="start" x="244.5" y="-131.3" font-family="Helvetica,sans-Serif" font-size="11.00" fill="#000000">...</text>
<polygon fill="#ffffff" stroke="transparent" points="241.5,-106.2 241.5,-125.2 265.5,-125.2 265.5,-106.2 241.5,-106.2"/>
<polygon fill="none" stroke="#000000" points="241.5,-106.2 241.5,-125.2 265.5,-125.2 265.5,-106.2 241.5,-106.2"/>
<text text-anchor="start" x="244.5" y="-112.3" font-family="Helvetica,sans-Serif" font-size="11.00" fill="#000000">&lt; 3</text>
<polygon fill="#ffffff" stroke="transparent" points="265.5,-106.2 265.5,-125.2 325.5,-125.2 325.5,-106.2 265.5,-106.2"/>
<polygon fill="none" stroke="#000000" points="265.5,-106.2 265.5,-125.2 325.5,-125.2 325.5,-106.2 265.5,-106.2"/>
<text text-anchor="start" x="268.7089" y="-112.3" font-family="Helvetica,sans-Serif" font-size="11.00" fill="#000000">3,503 rows</text>
<polygon fill="#ffffff" stroke="transparent" points="325.5,-106.2 325.5,-125.2 348.5,-125.2 348.5,-106.2 325.5,-106.2"/>
<polygon fill="none" stroke="#000000" points="325.5,-106.2 325.5,-125.2 348.5,-125.2 348.5,-106.2 325.5,-106.2"/>
<text text-anchor="start" x="329.9053" y="-112.3" font-family="Helvetica,sans-Serif" font-size="11.00" fill="#000000">2 &gt;</text>
</a>
</g>
</g>
<!-- InvoiceLine&#45;&gt;Track -->
<g id="edge1" class="edge">
<title>InvoiceLine:w&#45;&gt;Track:e</title>
<path fill="none" stroke="#000000" d="M388.8661,-258.1189C373.6905,-247.7484 372.891,-221.2 348.5,-221.2"/>
<polygon fill="#000000" stroke="#000000" points="395.314,-259.9806 402.0013,-265.6587 399.157,-261.0903 403,-262.2 403,-262.2 403,-262.2 399.157,-261.0903 403.9987,-258.7413 395.314,-259.9806 395.314,-259.9806"/>
<ellipse fill="none" stroke="#000000" cx="392.2396" cy="-259.0929" rx="3.2" ry="3.2"/>
</g>
<!-- Album -->
<g id="node4" class="node">
<title>Album</title>
<g id="a_node4"><a xlink:href="../../tables/Album.html" xlink:title="Album" target="_top">
<polygon fill="#ffffff" stroke="transparent" points="54,-231.7 54,-292.7 146,-292.7 146,-231.7 54,-231.7"/>
<polygon fill="#f5f5f5" stroke="transparent" points="54,-269.2 54,-292.2 146,-292.2 146,-269.2 54,-269.2"/>
<polygon fill="none" stroke="#000000" points="54,-269.2 54,-292.2 146,-292.2 146,-269.2 54,-269.2"/>
<text text-anchor="start" x="59" y="-277.8" font-family="Helvetica,sans-Serif" font-weight="bold" font-size="11.00" fill="#000000">Album</text>
<text text-anchor="start" x="111.0437" y="-277.3" font-family="Helvetica,sans-Serif" font-size="11.00" fill="#000000">[table]</text>
<polygon fill="none" stroke="#000000" points="54,-250.2 54,-269.2 146,-269.2 146,-250.2 54,-250.2"/>
<text text-anchor="start" x="57" y="-256.3" font-family="Helvetica,sans-Serif" font-size="11.00" fill="#000000">...</text>
<polygon fill="#ffffff" stroke="transparent" points="54,-231.2 54,-250.2 75,-250.2 75,-231.2 54,-231.2"/>
<polygon fill="none" stroke="#000000" points="54,-231.2 54,-250.2 75,-250.2 75,-231.2 54,-231.2"/>
<text text-anchor="start" x="56.7027" y="-237.3" font-family="Helvetica,sans-Serif" font-size="11.00" fill="#000000">&lt; 1</text>
<polygon fill="#ffffff" stroke="transparent" points="75,-231.2 75,-250.2 125,-250.2 125,-231.2 75,-231.2"/>
<polygon fill="none" stroke="#000000" points="75,-231.2 75,-250.2 125,-250.2 125,-231.2 75,-231.2"/>
<text text-anchor="start" x="77.6904" y="-237.3" font-family="Helvetica,sans-Serif" font-size="11.00" fill="#000000">347 rows</text>
<polygon fill="#ffffff" stroke="transparent" points="125,-231.2 125,-250.2 146,-250.2 146,-231.2 125,-231.2"/>
<polygon fill="none" stroke="#000000" points="125,-231.2 125,-250.2 146,-250.2 146,-231.2 125,-231.2"/>
<text text-anchor="start" x="127.7027" y="-237.3" font-family="Helvetica,sans-Serif" font-size="11.00" fill="#000000">1 &gt;</text>
</a>
</g>
</g>
<!-- Track&#45;&gt;Album -->
<g id="edge3" class="edge">
<title>Track:w&#45;&gt;Album:e</title>
<path fill="none" stroke="#000000" d="M227.7036,-203.5151C202.0953,-217.2725 166.9512,-259.2 146,-259.2"/>
<polygon fill="#000000" stroke="#000000" points="233.8647,-201.5881 242.5746,-202.6359 237.6824,-200.394 241.5,-199.2 241.5,-199.2 241.5,-199.2 237.6824,-200.394 240.4254,-195.7641 233.8647,-201.5881 233.8647,-201.5881"/>
<ellipse fill="none" stroke="#000000" cx="230.8106" cy="-202.5433" rx="3.2" ry="3.2"/>
</g>
<!-- Genre -->
<g id="node5" class="node">
<title>Genre</title>
<g id="a_node5"><a xlink:href="../../tables/Genre.html" xlink:title="Genre" target="_top">
<polygon fill="#ffffff" stroke="transparent" points="8,-38.2 8,-128.2 192,-128.2 192,-38.2 8,-38.2"/>
<polygon fill="#f5f5f5" stroke="transparent" points="10,-103.2 10,-126.2 190,-126.2 190,-103.2 10,-103.2"/>
<polygon fill="none" stroke="#000000" points="10,-103.2 10,-126.2 190,-126.2 190,-103.2 10,-103.2"/>
<text text-anchor="start" x="15" y="-111.8" font-family="Helvetica,sans-Serif" font-weight="bold" font-size="11.00" fill="#000000">Genre</text>
<text text-anchor="start" x="155.0437" y="-111.3" font-family="Helvetica,sans-Serif" font-size="11.00" fill="#000000">[table]</text>
<polygon fill="none" stroke="#000000" points="10,-81.2 10,-103.2 84,-103.2 84,-81.2 10,-81.2"/>
<image xlink:href="../../images/primaryKeys.png" width="11px" height="12px" preserveAspectRatio="xMinYMin meet" x="15" y="-98.2"/>
<text text-anchor="start" x="30" y="-88.3" font-family="Helvetica,sans-Serif" font-size="11.00" fill="#000000">GenreId</text>
<polygon fill="none" stroke="#000000" points="84,-81.2 84,-103.2 190,-103.2 190,-81.2 84,-81.2"/>
<text text-anchor="start" x="86.559" y="-88.9" font-family="Helvetica,sans-Serif" font-size="11.00" fill="#000000">integer[2000000000]</text>
<polygon fill="none" stroke="#000000" points="10,-59.2 10,-81.2 84,-81.2 84,-59.2 10,-59.2"/>
<text text-anchor="start" x="30" y="-66.3" font-family="Helvetica,sans-Serif" font-size="11.00" fill="#000000">Name</text>
<polygon fill="none" stroke="#000000" points="84,-59.2 84,-81.2 190,-81.2 190,-59.2 84,-59.2"/>
<text text-anchor="start" x="87" y="-66.9" font-family="Helvetica,sans-Serif" font-size="11.00" fill="#000000">nvarchar[120]</text>
<polygon fill="#ffffff" stroke="transparent" points="10,-40.2 10,-59.2 35,-59.2 35,-40.2 10,-40.2"/>
<polygon fill="none" stroke="#000000" points="10,-40.2 10,-59.2 35,-59.2 35,-40.2 10,-40.2"/>
<text text-anchor="start" x="13" y="-46.3" font-family="Helvetica,sans-Serif" font-size="11.00" fill="#000000">&lt; 0</text>
<polygon fill="#ffffff" stroke="transparent" points="35,-40.2 35,-59.2 84,-59.2 84,-40.2 35,-40.2"/>
<polygon fill="none" stroke="#000000" points="35,-40.2 35,-59.2 84,-59.2 84,-40.2 35,-40.2"/>
<text text-anchor="start" x="42.4956" y="-46.3" font-family="Helvetica,sans-Serif" font-size="11.00" fill="#000000">25 rows</text>
<polygon fill="#ffffff" stroke="transparent" points="84,-40.2 84,-59.2 190,-59.2 190,-40.2 84,-40.2"/>
<polygon fill="none" stroke="#000000" points="84,-40.2 84,-59.2 190,-59.2 190,-40.2 84,-40.2"/>
<text text-anchor="start" x="171.4053" y="-46.3" font-family="Helvetica,sans-Serif" font-size="11.00" fill="#000000">1 &gt;</text>
<polygon fill="none" stroke="#000000" stroke-width="2" points="9,-39.2 9,-127.2 191,-127.2 191,-39.2 9,-39.2"/>
</a>
</g>
</g>
<!-- Track&#45;&gt;Genre -->
<g id="edge4" class="edge">
<title>Track:w&#45;&gt;Genre:e</title>
<path fill="none" stroke="#000000" d="M227.799,-150.6692C210.6358,-136.2239 220.2316,-92.2 190,-92.2"/>
<polygon fill="#000000" stroke="#000000" points="233.9045,-152.6882 240.3697,-158.618 237.7023,-153.9441 241.5,-155.2 241.5,-155.2 241.5,-155.2 237.7023,-153.9441 242.6303,-151.782 233.9045,-152.6882 233.9045,-152.6882"/>
<ellipse fill="none" stroke="#000000" cx="230.8663" cy="-151.6835" rx="3.2" ry="3.2"/>
</g>
<!-- MediaType -->
<g id="node6" class="node">
<title>MediaType</title>
<g id="a_node6"><a xlink:href="../../tables/MediaType.html" xlink:title="MediaType" target="_top">
<polygon fill="#ffffff" stroke="transparent" points="44,-149.7 44,-210.7 156,-210.7 156,-149.7 44,-149.7"/>
<polygon fill="#f5f5f5" stroke="transparent" points="44,-187.2 44,-210.2 156,-210.2 156,-187.2 44,-187.2"/>
<polygon fill="none" stroke="#000000" points="44,-187.2 44,-210.2 156,-210.2 156,-187.2 44,-187.2"/>
<text text-anchor="start" x="49" y="-195.8" font-family="Helvetica,sans-Serif" font-weight="bold" font-size="11.00" fill="#000000">MediaType</text>
<text text-anchor="start" x="121.5219" y="-195.3" font-family="Helvetica,sans-Serif" font-size="11.00" fill="#000000">[table]</text>
<polygon fill="none" stroke="#000000" points="44,-168.2 44,-187.2 156,-187.2 156,-168.2 44,-168.2"/>
<text text-anchor="start" x="47" y="-174.3" font-family="Helvetica,sans-Serif" font-size="11.00" fill="#000000">...</text>
<polygon fill="#ffffff" stroke="transparent" points="44,-149.2 44,-168.2 76,-168.2 76,-149.2 44,-149.2"/>
<polygon fill="none" stroke="#000000" points="44,-149.2 44,-168.2 76,-168.2 76,-149.2 44,-149.2"/>
<text text-anchor="start" x="47" y="-155.3" font-family="Helvetica,sans-Serif" font-size="11.00" fill="#000000"> &#160;</text>
<polygon fill="#ffffff" stroke="transparent" points="76,-149.2 76,-168.2 124,-168.2 124,-149.2 76,-149.2"/>
<polygon fill="none" stroke="#000000" points="76,-149.2 76,-168.2 124,-168.2 124,-149.2 76,-149.2"/>
<text text-anchor="start" x="88.6105" y="-155.3" font-family="Helvetica,sans-Serif" font-size="11.00" fill="#000000">5 rows</text>
<polygon fill="#ffffff" stroke="transparent" points="124,-149.2 124,-168.2 156,-168.2 156,-149.2 124,-149.2"/>
<polygon fill="none" stroke="#000000" points="124,-149.2 124,-168.2 156,-168.2 156,-149.2 124,-149.2"/>
<text text-anchor="start" x="137.4053" y="-155.3" font-family="Helvetica,sans-Serif" font-size="11.00" fill="#000000">1 &gt;</text>
</a>
</g>
</g>
<!-- Track&#45;&gt;MediaType -->
<g id="edge5" class="edge">
<title>Track:w&#45;&gt;MediaType:e</title>
<path fill="none" stroke="#000000" d="M227.001,-177.2C200.2645,-177.2 188.6563,-177.2 156,-177.2"/>
<polygon fill="#000000" stroke="#000000" points="233.5,-177.2001 241.5,-180.8 237.5,-177.2 241.5,-177.2 241.5,-177.2 241.5,-177.2 237.5,-177.2 241.5,-173.6 233.5,-177.2001 233.5,-177.2001"/>
<ellipse fill="none" stroke="#000000" cx="230.3" cy="-177.2001" rx="3.2" ry="3.2"/>
</g>
<!-- PlaylistTrack -->
<g id="node3" class="node">
<title>PlaylistTrack</title>
<g id="a_node3"><a xlink:href="../../tables/PlaylistTrack.html" xlink:title="PlaylistTrack" target="_top">
<polygon fill="#ffffff" stroke="transparent" points="397,-152.7 397,-213.7 523,-213.7 523,-152.7 397,-152.7"/>
<polygon fill="#f5f5f5" stroke="transparent" points="397,-190.2 397,-213.2 523,-213.2 523,-190.2 397,-190.2"/>
<polygon fill="none" stroke="#000000" points="397,-190.2 397,-213.2 523,-213.2 523,-190.2 397,-190.2"/>
<text text-anchor="start" x="402" y="-198.8" font-family="Helvetica,sans-Serif" font-weight="bold" font-size="11.00" fill="#000000">PlaylistTrack</text>
<text text-anchor="start" x="488.5219" y="-198.3" font-family="Helvetica,sans-Serif" font-size="11.00" fill="#000000">[table]</text>
<polygon fill="none" stroke="#000000" points="397,-171.2 397,-190.2 523,-190.2 523,-171.2 397,-171.2"/>
<text text-anchor="start" x="400" y="-177.3" font-family="Helvetica,sans-Serif" font-size="11.00" fill="#000000">...</text>
<polygon fill="#ffffff" stroke="transparent" points="397,-152.2 397,-171.2 435,-171.2 435,-152.2 397,-152.2"/>
<polygon fill="none" stroke="#000000" points="397,-152.2 397,-171.2 435,-171.2 435,-152.2 397,-152.2"/>
<text text-anchor="start" x="400" y="-158.3" font-family="Helvetica,sans-Serif" font-size="11.00" fill="#000000">&lt; 2</text>
<polygon fill="#ffffff" stroke="transparent" points="435,-152.2 435,-171.2 502,-171.2 502,-152.2 435,-152.2"/>
<polygon fill="none" stroke="#000000" points="435,-152.2 435,-171.2 502,-171.2 502,-152.2 435,-152.2"/>
<text text-anchor="start" x="445.2089" y="-158.3" font-family="Helvetica,sans-Serif" font-size="11.00" fill="#000000">8,715 rows</text>
<polygon fill="#ffffff" stroke="transparent" points="502,-152.2 502,-171.2 523,-171.2 523,-152.2 502,-152.2"/>
<polygon fill="none" stroke="#000000" points="502,-152.2 502,-171.2 523,-171.2 523,-152.2 502,-152.2"/>
<text text-anchor="start" x="513.8862" y="-158.3" font-family="Helvetica,sans-Serif" font-size="11.00" fill="#000000"> &#160;</text>
</a>
</g>
</g>
<!-- PlaylistTrack&#45;&gt;Track -->
<g id="edge2" class="edge">
<title>PlaylistTrack:w&#45;&gt;Track:e</title>
<path fill="none" stroke="#000000" d="M383.2884,-184.9032C370.5191,-195.6726 370.7719,-221.2 348.5,-221.2"/>
<polygon fill="#000000" stroke="#000000" points="389.4328,-182.7957 398.1681,-183.6052 393.2164,-181.4978 397,-180.2 397,-180.2 397,-180.2 393.2164,-181.4978 395.8319,-176.7948 389.4328,-182.7957 389.4328,-182.7957"/>
<ellipse fill="none" stroke="#000000" cx="386.4059" cy="-183.8339" rx="3.2" ry="3.2"/>
</g>
</g>
</svg>
