<?xml version="1.0" encoding="UTF-8" standalone="no"?>
<!DOCTYPE svg PUBLIC "-//W3C//DTD SVG 1.1//EN"
 "http://www.w3.org/Graphics/SVG/1.1/DTD/svg11.dtd">
<!-- Generated by graphviz version 2.40.1 (20161225.0304)
 -->
<!-- Title: oneDegreeRelationshipsDiagram Pages: 1 -->
<svg width="432pt" height="325pt"
 viewBox="0.00 0.00 432.00 325.20" xmlns="http://www.w3.org/2000/svg" xmlns:xlink="http://www.w3.org/1999/xlink">
<g id="graph0" class="graph" transform="scale(1 1) rotate(0) translate(4 321.2)">
<title>oneDegreeRelationshipsDiagram</title>
<polygon fill="#ffffff" stroke="transparent" points="-4,4 -4,-321.2 428,-321.2 428,4 -4,4"/>
<text text-anchor="middle" x="72.4936" y="-7.3" font-family="Helvetica,sans-Serif" font-size="11.00" fill="#000000">Generated by SchemaSpy</text>
<!-- InvoiceLine -->
<g id="node1" class="node">
<title>InvoiceLine</title>
<g id="a_node1"><a xlink:href="../../tables/InvoiceLine.html" xlink:title="InvoiceLine" target="_top">
<polygon fill="#ffffff" stroke="transparent" points="196,-128.7 196,-284.7 416,-284.7 416,-128.7 196,-128.7"/>
<polygon fill="#f5f5f5" stroke="transparent" points="198,-259.7 198,-282.7 414,-282.7 414,-259.7 198,-259.7"/>
<polygon fill="none" stroke="#000000" points="198,-259.7 198,-282.7 414,-282.7 414,-259.7 198,-259.7"/>
<text text-anchor="start" x="203" y="-268.3" font-family="Helvetica,sans-Serif" font-weight="bold" font-size="11.00" fill="#000000">InvoiceLine</text>
<text text-anchor="start" x="379.0437" y="-267.8" font-family="Helvetica,sans-Serif" font-size="11.00" fill="#000000">[table]</text>
<polygon fill="none" stroke="#000000" points="198,-237.7 198,-259.7 308,-259.7 308,-237.7 198,-237.7"/>
<image xlink:href="../../images/primaryKeys.png" width="11px" height="12px" preserveAspectRatio="xMinYMin meet" x="203" y="-254.7"/>
<text text-anchor="start" x="218" y="-244.8" font-family="Helvetica,sans-Serif" font-size="11.00" fill="#000000">InvoiceLineId</text>
<polygon fill="none" stroke="#000000" points="308,-237.7 308,-259.7 414,-259.7 414,-237.7 308,-237.7"/>
<text text-anchor="start" x="310.559" y="-245.4" font-family="Helvetica,sans-Serif" font-size="11.00" fill="#000000">integer[2000000000]</text>
<polygon fill="#ffffff" stroke="transparent" points="198,-215.7 198,-237.7 308,-237.7 308,-215.7 198,-215.7"/>
<polygon fill="none" stroke="#000000" points="198,-215.7 198,-237.7 308,-237.7 308,-215.7 198,-215.7"/>
<image xlink:href="../../images/foreignKeys.png" width="11px" height="12px" preserveAspectRatio="xMinYMin meet" x="203" y="-232.7"/>
<text text-anchor="start" x="218" y="-222.8" font-family="Helvetica,sans-Serif" font-size="11.00" fill="#000000">InvoiceId</text>
<polygon fill="none" stroke="#000000" points="308,-215.7 308,-237.7 414,-237.7 414,-215.7 308,-215.7"/>
<text text-anchor="start" x="310.559" y="-223.4" font-family="Helvetica,sans-Serif" font-size="11.00" fill="#000000">integer[2000000000]</text>
<polygon fill="#ffffff" stroke="transparent" points="198,-193.7 198,-215.7 308,-215.7 308,-193.7 198,-193.7"/>
<polygon fill="none" stroke="#000000" points="198,-193.7 198,-215.7 308,-215.7 308,-193.7 198,-193.7"/>
<image xlink:href="../../images/foreignKeys.png" width="11px" height="12px" preserveAspectRatio="xMinYMin meet" x="203" y="-210.7"/>
<text text-anchor="start" x="218" y="-200.8" font-family="Helvetica,sans-Serif" font-size="11.00" fill="#000000">TrackId</text>
<polygon fill="none" stroke="#000000" points="308,-193.7 308,-215.7 414,-215.7 414,-193.7 308,-193.7"/>
<text text-anchor="start" x="310.559" y="-201.4" font-family="Helvetica,sans-Serif" font-size="11.00" fill="#000000">integer[2000000000]</text>
<polygon fill="none" stroke="#000000" points="198,-171.7 198,-193.7 308,-193.7 308,-171.7 198,-171.7"/>
<text text-anchor="start" x="218" y="-178.8" font-family="Helvetica,sans-Serif" font-size="11.00" fill="#000000">UnitPrice</text>
<polygon fill="none" stroke="#000000" points="308,-171.7 308,-193.7 414,-193.7 414,-171.7 308,-171.7"/>
<text text-anchor="start" x="311" y="-179.4" font-family="Helvetica,sans-Serif" font-size="11.00" fill="#000000">numeric[12,2]</text>
<polygon fill="none" stroke="#000000" points="198,-149.7 198,-171.7 308,-171.7 308,-149.7 198,-149.7"/>
<text text-anchor="start" x="218" y="-156.8" font-family="Helvetica,sans-Serif" font-size="11.00" fill="#000000">Quantity</text>
<polygon fill="none" stroke="#000000" points="308,-149.7 308,-171.7 414,-171.7 414,-149.7 308,-149.7"/>
<text text-anchor="start" x="310.559" y="-157.4" font-family="Helvetica,sans-Serif" font-size="11.00" fill="#000000">integer[2000000000]</text>
<polygon fill="#ffffff" stroke="transparent" points="198,-130.7 198,-149.7 234,-149.7 234,-130.7 198,-130.7"/>
<polygon fill="none" stroke="#000000" points="198,-130.7 198,-149.7 234,-149.7 234,-130.7 198,-130.7"/>
<text text-anchor="start" x="201" y="-136.8" font-family="Helvetica,sans-Serif" font-size="11.00" fill="#000000">&lt; 2</text>
<polygon fill="#ffffff" stroke="transparent" points="234,-130.7 234,-149.7 308,-149.7 308,-130.7 234,-130.7"/>
<polygon fill="none" stroke="#000000" points="234,-130.7 234,-149.7 308,-149.7 308,-130.7 234,-130.7"/>
<text text-anchor="start" x="251.2089" y="-136.8" font-family="Helvetica,sans-Serif" font-size="11.00" fill="#000000">2,240 rows</text>
<polygon fill="#ffffff" stroke="transparent" points="308,-130.7 308,-149.7 414,-149.7 414,-130.7 308,-130.7"/>
<polygon fill="none" stroke="#000000" points="308,-130.7 308,-149.7 414,-149.7 414,-130.7 308,-130.7"/>
<text text-anchor="start" x="395.4053" y="-136.8" font-family="Helvetica,sans-Serif" font-size="11.00" fill="#000000">0 &gt;</text>
<polygon fill="none" stroke="#000000" stroke-width="2" points="197,-129.7 197,-283.7 415,-283.7 415,-129.7 197,-129.7"/>
</a>
</g>
</g>
<!-- Invoice -->
<g id="node2" class="node">
<title>Invoice</title>
<g id="a_node2"><a xlink:href="../../tables/Invoice.html" xlink:title="Invoice" target="_top">
<polygon fill="#ffffff" stroke="transparent" points="8,-208.2 8,-313.2 147,-313.2 147,-208.2 8,-208.2"/>
<polygon fill="#f5f5f5" stroke="transparent" points="8.5,-289.7 8.5,-312.7 147.5,-312.7 147.5,-289.7 8.5,-289.7"/>
<polygon fill="none" stroke="#000000" points="8.5,-289.7 8.5,-312.7 147.5,-312.7 147.5,-289.7 8.5,-289.7"/>
<text text-anchor="start" x="13.5" y="-298.3" font-family="Helvetica,sans-Serif" font-weight="bold" font-size="11.00" fill="#000000">Invoice</text>
<text text-anchor="start" x="112.5437" y="-297.8" font-family="Helvetica,sans-Serif" font-size="11.00" fill="#000000">[table]</text>
<polygon fill="none" stroke="#000000" points="8.5,-267.7 8.5,-289.7 147.5,-289.7 147.5,-267.7 8.5,-267.7"/>
<image xlink:href="../../images/primaryKeys.png" width="11px" height="12px" preserveAspectRatio="xMinYMin meet" x="13.5" y="-284.7"/>
<text text-anchor="start" x="28.5" y="-274.8" font-family="Helvetica,sans-Serif" font-size="11.00" fill="#000000">InvoiceId</text>
<polygon fill="#ffffff" stroke="transparent" points="8.5,-245.7 8.5,-267.7 147.5,-267.7 147.5,-245.7 8.5,-245.7"/>
<polygon fill="none" stroke="#000000" points="8.5,-245.7 8.5,-267.7 147.5,-267.7 147.5,-245.7 8.5,-245.7"/>
<image xlink:href="../../images/foreignKeys.png" width="11px" height="12px" preserveAspectRatio="xMinYMin meet" x="13.5" y="-262.7"/>
<text text-anchor="start" x="28.5" y="-252.8" font-family="Helvetica,sans-Serif" font-size="11.00" fill="#000000">CustomerId</text>
<polygon fill="none" stroke="#000000" points="8.5,-226.7 8.5,-245.7 147.5,-245.7 147.5,-226.7 8.5,-226.7"/>
<text text-anchor="start" x="11.5" y="-232.8" font-family="Helvetica,sans-Serif" font-size="11.00" fill="#000000">...</text>
<polygon fill="#ffffff" stroke="transparent" points="8.5,-207.7 8.5,-226.7 52.5,-226.7 52.5,-207.7 8.5,-207.7"/>
<polygon fill="none" stroke="#000000" points="8.5,-207.7 8.5,-226.7 52.5,-226.7 52.5,-207.7 8.5,-207.7"/>
<text text-anchor="start" x="11.5" y="-213.8" font-family="Helvetica,sans-Serif" font-size="11.00" fill="#000000">&lt; 1</text>
<polygon fill="#ffffff" stroke="transparent" points="52.5,-207.7 52.5,-226.7 114.5,-226.7 114.5,-207.7 52.5,-207.7"/>
<polygon fill="none" stroke="#000000" points="52.5,-207.7 52.5,-226.7 114.5,-226.7 114.5,-207.7 52.5,-207.7"/>
<text text-anchor="start" x="66.8807" y="-213.8" font-family="Helvetica,sans-Serif" font-size="11.00" fill="#000000">412 rows</text>
<polygon fill="#ffffff" stroke="transparent" points="114.5,-207.7 114.5,-226.7 147.5,-226.7 147.5,-207.7 114.5,-207.7"/>
<polygon fill="none" stroke="#000000" points="114.5,-207.7 114.5,-226.7 147.5,-226.7 147.5,-207.7 114.5,-207.7"/>
<text text-anchor="start" x="128.9053" y="-213.8" font-family="Helvetica,sans-Serif" font-size="11.00" fill="#000000">1 &gt;</text>
</a>
</g>
</g>
<!-- InvoiceLine&#45;&gt;Invoice -->
<g id="edge1" class="edge">
<title>InvoiceLine:w&#45;&gt;Invoice:e</title>
<path fill="none" stroke="#000000" d="M184.1372,-231.4988C169.3861,-244.3719 173.6756,-278.7 147.5,-278.7"/>
<polygon fill="#000000" stroke="#000000" points="190.4401,-229.317 199.1777,-230.1019 194.2201,-228.0085 198,-226.7 198,-226.7 198,-226.7 194.2201,-228.0085 196.8223,-223.2981 190.4401,-229.317 190.4401,-229.317"/>
<ellipse fill="none" stroke="#000000" cx="187.4162" cy="-230.3638" rx="3.2" ry="3.2"/>
</g>
<!-- Track -->
<g id="node3" class="node">
<title>Track</title>
<g id="a_node3"><a xlink:href="../../tables/Track.html" xlink:title="Track" target="_top">
<polygon fill="#ffffff" stroke="transparent" points="24,-38.2 24,-187.2 131,-187.2 131,-38.2 24,-38.2"/>
<polygon fill="#f5f5f5" stroke="transparent" points="24.5,-163.7 24.5,-186.7 131.5,-186.7 131.5,-163.7 24.5,-163.7"/>
<polygon fill="none" stroke="#000000" points="24.5,-163.7 24.5,-186.7 131.5,-186.7 131.5,-163.7 24.5,-163.7"/>
<text text-anchor="start" x="29.5" y="-172.3" font-family="Helvetica,sans-Serif" font-weight="bold" font-size="11.00" fill="#000000">Track</text>
<text text-anchor="start" x="96.5437" y="-171.8" font-family="Helvetica,sans-Serif" font-size="11.00" fill="#000000">[table]</text>
<polygon fill="none" stroke="#000000" points="24.5,-141.7 24.5,-163.7 131.5,-163.7 131.5,-141.7 24.5,-141.7"/>
<image xlink:href="../../images/primaryKeys.png" width="11px" height="12px" preserveAspectRatio="xMinYMin meet" x="29.5" y="-158.7"/>
<text text-anchor="start" x="44.5" y="-148.8" font-family="Helvetica,sans-Serif" font-size="11.00" fill="#000000">TrackId</text>
<polygon fill="#ffffff" stroke="transparent" points="24.5,-119.7 24.5,-141.7 131.5,-141.7 131.5,-119.7 24.5,-119.7"/>
<polygon fill="none" stroke="#000000" points="24.5,-119.7 24.5,-141.7 131.5,-141.7 131.5,-119.7 24.5,-119.7"/>
<image xlink:href="../../images/foreignKeys.png" width="11px" height="12px" preserveAspectRatio="xMinYMin meet" x="29.5" y="-136.7"/>
<text text-anchor="start" x="44.5" y="-126.8" font-family="Helvetica,sans-Serif" font-size="11.00" fill="#000000">AlbumId</text>
<polygon fill="#ffffff" stroke="transparent" points="24.5,-97.7 24.5,-119.7 131.5,-119.7 131.5,-97.7 24.5,-97.7"/>
<polygon fill="none" stroke="#000000" points="24.5,-97.7 24.5,-119.7 131.5,-119.7 131.5,-97.7 24.5,-97.7"/>
<image xlink:href="../../images/foreignKeys.png" width="11px" height="12px" preserveAspectRatio="xMinYMin meet" x="29.5" y="-114.7"/>
<text text-anchor="start" x="44.5" y="-104.8" font-family="Helvetica,sans-Serif" font-size="11.00" fill="#000000">MediaTypeId</text>
<polygon fill="#ffffff" stroke="transparent" points="24.5,-75.7 24.5,-97.7 131.5,-97.7 131.5,-75.7 24.5,-75.7"/>
<polygon fill="none" stroke="#000000" points="24.5,-75.7 24.5,-97.7 131.5,-97.7 131.5,-75.7 24.5,-75.7"/>
<image xlink:href="../../images/foreignKeys.png" width="11px" height="12px" preserveAspectRatio="xMinYMin meet" x="29.5" y="-92.7"/>
<text text-anchor="start" x="44.5" y="-82.8" font-family="Helvetica,sans-Serif" font-size="11.00" fill="#000000">GenreId</text>
<polygon fill="none" stroke="#000000" points="24.5,-56.7 24.5,-75.7 131.5,-75.7 131.5,-56.7 24.5,-56.7"/>
<text text-anchor="start" x="27.5" y="-62.8" font-family="Helvetica,sans-Serif" font-size="11.00" fill="#000000">...</text>
<polygon fill="#ffffff" stroke="transparent" points="24.5,-37.7 24.5,-56.7 48.5,-56.7 48.5,-37.7 24.5,-37.7"/>
<polygon fill="none" stroke="#000000" points="24.5,-37.7 24.5,-56.7 48.5,-56.7 48.5,-37.7 24.5,-37.7"/>
<text text-anchor="start" x="27.5" y="-43.8" font-family="Helvetica,sans-Serif" font-size="11.00" fill="#000000">&lt; 3</text>
<polygon fill="#ffffff" stroke="transparent" points="48.5,-37.7 48.5,-56.7 108.5,-56.7 108.5,-37.7 48.5,-37.7"/>
<polygon fill="none" stroke="#000000" points="48.5,-37.7 48.5,-56.7 108.5,-56.7 108.5,-37.7 48.5,-37.7"/>
<text text-anchor="start" x="51.7089" y="-43.8" font-family="Helvetica,sans-Serif" font-size="11.00" fill="#000000">3,503 rows</text>
<polygon fill="#ffffff" stroke="transparent" points="108.5,-37.7 108.5,-56.7 131.5,-56.7 131.5,-37.7 108.5,-37.7"/>
<polygon fill="none" stroke="#000000" points="108.5,-37.7 108.5,-56.7 131.5,-56.7 131.5,-37.7 108.5,-37.7"/>
<text text-anchor="start" x="112.9053" y="-43.8" font-family="Helvetica,sans-Serif" font-size="11.00" fill="#000000">2 &gt;</text>
</a>
</g>
</g>
<!-- InvoiceLine&#45;&gt;Track -->
<g id="edge2" class="edge">
<title>InvoiceLine:w&#45;&gt;Track:e</title>
<path fill="none" stroke="#000000" d="M183.7338,-201.4472C162.0136,-190.0631 163.303,-152.7 131.5,-152.7"/>
<polygon fill="#000000" stroke="#000000" points="190.2002,-202.9215 197.1997,-208.2099 194.1001,-203.8108 198,-204.7 198,-204.7 198,-204.7 194.1001,-203.8108 198.8003,-201.1901 190.2002,-202.9215 190.2002,-202.9215"/>
<ellipse fill="none" stroke="#000000" cx="187.0803" cy="-202.2101" rx="3.2" ry="3.2"/>
</g>
</g>
</svg>
