<?xml version="1.0" encoding="UTF-8" standalone="no"?>
<!DOCTYPE svg PUBLIC "-//W3C//DTD SVG 1.1//EN"
 "http://www.w3.org/Graphics/SVG/1.1/DTD/svg11.dtd">
<!-- Generated by graphviz version 2.40.1 (20161225.0304)
 -->
<!-- Title: twoDegreesRelationshipsDiagram Pages: 1 -->
<svg width="593pt" height="410pt"
 viewBox="0.00 0.00 593.00 409.70" xmlns="http://www.w3.org/2000/svg" xmlns:xlink="http://www.w3.org/1999/xlink">
<g id="graph0" class="graph" transform="scale(1 1) rotate(0) translate(4 405.7)">
<title>twoDegreesRelationshipsDiagram</title>
<polygon fill="#ffffff" stroke="transparent" points="-4,4 -4,-405.7 589,-405.7 589,4 -4,4"/>
<text text-anchor="middle" x="72.4936" y="-7.3" font-family="Helvetica,sans-Serif" font-size="11.00" fill="#000000">Generated by SchemaSpy</text>
<!-- Invoice -->
<g id="node1" class="node">
<title>Invoice</title>
<g id="a_node1"><a xlink:href="../../tables/Invoice.html" xlink:title="Invoice" target="_top">
<polygon fill="#ffffff" stroke="transparent" points="169,-269.2 169,-374.2 308,-374.2 308,-269.2 169,-269.2"/>
<polygon fill="#f5f5f5" stroke="transparent" points="169.5,-350.7 169.5,-373.7 308.5,-373.7 308.5,-350.7 169.5,-350.7"/>
<polygon fill="none" stroke="#000000" points="169.5,-350.7 169.5,-373.7 308.5,-373.7 308.5,-350.7 169.5,-350.7"/>
<text text-anchor="start" x="174.5" y="-359.3" font-family="Helvetica,sans-Serif" font-weight="bold" font-size="11.00" fill="#000000">Invoice</text>
<text text-anchor="start" x="273.5437" y="-358.8" font-family="Helvetica,sans-Serif" font-size="11.00" fill="#000000">[table]</text>
<polygon fill="none" stroke="#000000" points="169.5,-328.7 169.5,-350.7 308.5,-350.7 308.5,-328.7 169.5,-328.7"/>
<image xlink:href="../../images/primaryKeys.png" width="11px" height="12px" preserveAspectRatio="xMinYMin meet" x="174.5" y="-345.7"/>
<text text-anchor="start" x="189.5" y="-335.8" font-family="Helvetica,sans-Serif" font-size="11.00" fill="#000000">InvoiceId</text>
<polygon fill="#ffffff" stroke="transparent" points="169.5,-306.7 169.5,-328.7 308.5,-328.7 308.5,-306.7 169.5,-306.7"/>
<polygon fill="none" stroke="#000000" points="169.5,-306.7 169.5,-328.7 308.5,-328.7 308.5,-306.7 169.5,-306.7"/>
<image xlink:href="../../images/foreignKeys.png" width="11px" height="12px" preserveAspectRatio="xMinYMin meet" x="174.5" y="-323.7"/>
<text text-anchor="start" x="189.5" y="-313.8" font-family="Helvetica,sans-Serif" font-size="11.00" fill="#000000">CustomerId</text>
<polygon fill="none" stroke="#000000" points="169.5,-287.7 169.5,-306.7 308.5,-306.7 308.5,-287.7 169.5,-287.7"/>
<text text-anchor="start" x="172.5" y="-293.8" font-family="Helvetica,sans-Serif" font-size="11.00" fill="#000000">...</text>
<polygon fill="#ffffff" stroke="transparent" points="169.5,-268.7 169.5,-287.7 213.5,-287.7 213.5,-268.7 169.5,-268.7"/>
<polygon fill="none" stroke="#000000" points="169.5,-268.7 169.5,-287.7 213.5,-287.7 213.5,-268.7 169.5,-268.7"/>
<text text-anchor="start" x="172.5" y="-274.8" font-family="Helvetica,sans-Serif" font-size="11.00" fill="#000000">&lt; 1</text>
<polygon fill="#ffffff" stroke="transparent" points="213.5,-268.7 213.5,-287.7 275.5,-287.7 275.5,-268.7 213.5,-268.7"/>
<polygon fill="none" stroke="#000000" points="213.5,-268.7 213.5,-287.7 275.5,-287.7 275.5,-268.7 213.5,-268.7"/>
<text text-anchor="start" x="227.8807" y="-274.8" font-family="Helvetica,sans-Serif" font-size="11.00" fill="#000000">412 rows</text>
<polygon fill="#ffffff" stroke="transparent" points="275.5,-268.7 275.5,-287.7 308.5,-287.7 308.5,-268.7 275.5,-268.7"/>
<polygon fill="none" stroke="#000000" points="275.5,-268.7 275.5,-287.7 308.5,-287.7 308.5,-268.7 275.5,-268.7"/>
<text text-anchor="start" x="289.9053" y="-274.8" font-family="Helvetica,sans-Serif" font-size="11.00" fill="#000000">1 &gt;</text>
</a>
</g>
</g>
<!-- Customer -->
<g id="node2" class="node">
<title>Customer</title>
<g id="a_node2"><a xlink:href="../../tables/Customer.html" xlink:title="Customer" target="_top">
<polygon fill="#ffffff" stroke="transparent" points="12,-290.2 12,-351.2 116,-351.2 116,-290.2 12,-290.2"/>
<polygon fill="#f5f5f5" stroke="transparent" points="12,-327.7 12,-350.7 116,-350.7 116,-327.7 12,-327.7"/>
<polygon fill="none" stroke="#000000" points="12,-327.7 12,-350.7 116,-350.7 116,-327.7 12,-327.7"/>
<text text-anchor="start" x="17" y="-336.3" font-family="Helvetica,sans-Serif" font-weight="bold" font-size="11.00" fill="#000000">Customer</text>
<text text-anchor="start" x="81.5219" y="-335.8" font-family="Helvetica,sans-Serif" font-size="11.00" fill="#000000">[table]</text>
<polygon fill="none" stroke="#000000" points="12,-308.7 12,-327.7 116,-327.7 116,-308.7 12,-308.7"/>
<text text-anchor="start" x="15" y="-314.8" font-family="Helvetica,sans-Serif" font-size="11.00" fill="#000000">...</text>
<polygon fill="#ffffff" stroke="transparent" points="12,-289.7 12,-308.7 42,-308.7 42,-289.7 12,-289.7"/>
<polygon fill="none" stroke="#000000" points="12,-289.7 12,-308.7 42,-308.7 42,-289.7 12,-289.7"/>
<text text-anchor="start" x="15" y="-295.8" font-family="Helvetica,sans-Serif" font-size="11.00" fill="#000000">&lt; 1</text>
<polygon fill="#ffffff" stroke="transparent" points="42,-289.7 42,-308.7 90,-308.7 90,-289.7 42,-289.7"/>
<polygon fill="none" stroke="#000000" points="42,-289.7 42,-308.7 90,-308.7 90,-289.7 42,-289.7"/>
<text text-anchor="start" x="48.4956" y="-295.8" font-family="Helvetica,sans-Serif" font-size="11.00" fill="#000000">59 rows</text>
<polygon fill="#ffffff" stroke="transparent" points="90,-289.7 90,-308.7 116,-308.7 116,-289.7 90,-289.7"/>
<polygon fill="none" stroke="#000000" points="90,-289.7 90,-308.7 116,-308.7 116,-289.7 90,-289.7"/>
<text text-anchor="start" x="97.4053" y="-295.8" font-family="Helvetica,sans-Serif" font-size="11.00" fill="#000000">1 &gt;</text>
</a>
</g>
</g>
<!-- Invoice&#45;&gt;Customer -->
<g id="edge1" class="edge">
<title>Invoice:w&#45;&gt;Customer:e</title>
<path fill="none" stroke="#000000" d="M154.8553,-317.7C141.7969,-317.7 134.0191,-317.7 116,-317.7"/>
<polygon fill="#000000" stroke="#000000" points="161.5,-317.7001 169.5,-321.3 165.5,-317.7 169.5,-317.7 169.5,-317.7 169.5,-317.7 165.5,-317.7 169.5,-314.1 161.5,-317.7001 161.5,-317.7001"/>
<ellipse fill="none" stroke="#000000" cx="158.3" cy="-317.7001" rx="3.2" ry="3.2"/>
</g>
<!-- InvoiceLine -->
<g id="node3" class="node">
<title>InvoiceLine</title>
<g id="a_node3"><a xlink:href="../../tables/InvoiceLine.html" xlink:title="InvoiceLine" target="_top">
<polygon fill="#ffffff" stroke="transparent" points="357,-241.7 357,-397.7 577,-397.7 577,-241.7 357,-241.7"/>
<polygon fill="#f5f5f5" stroke="transparent" points="359,-372.7 359,-395.7 575,-395.7 575,-372.7 359,-372.7"/>
<polygon fill="none" stroke="#000000" points="359,-372.7 359,-395.7 575,-395.7 575,-372.7 359,-372.7"/>
<text text-anchor="start" x="364" y="-381.3" font-family="Helvetica,sans-Serif" font-weight="bold" font-size="11.00" fill="#000000">InvoiceLine</text>
<text text-anchor="start" x="540.0437" y="-380.8" font-family="Helvetica,sans-Serif" font-size="11.00" fill="#000000">[table]</text>
<polygon fill="none" stroke="#000000" points="359,-350.7 359,-372.7 469,-372.7 469,-350.7 359,-350.7"/>
<image xlink:href="../../images/primaryKeys.png" width="11px" height="12px" preserveAspectRatio="xMinYMin meet" x="364" y="-367.7"/>
<text text-anchor="start" x="379" y="-357.8" font-family="Helvetica,sans-Serif" font-size="11.00" fill="#000000">InvoiceLineId</text>
<polygon fill="none" stroke="#000000" points="469,-350.7 469,-372.7 575,-372.7 575,-350.7 469,-350.7"/>
<text text-anchor="start" x="471.559" y="-358.4" font-family="Helvetica,sans-Serif" font-size="11.00" fill="#000000">integer[2000000000]</text>
<polygon fill="#ffffff" stroke="transparent" points="359,-328.7 359,-350.7 469,-350.7 469,-328.7 359,-328.7"/>
<polygon fill="none" stroke="#000000" points="359,-328.7 359,-350.7 469,-350.7 469,-328.7 359,-328.7"/>
<image xlink:href="../../images/foreignKeys.png" width="11px" height="12px" preserveAspectRatio="xMinYMin meet" x="364" y="-345.7"/>
<text text-anchor="start" x="379" y="-335.8" font-family="Helvetica,sans-Serif" font-size="11.00" fill="#000000">InvoiceId</text>
<polygon fill="none" stroke="#000000" points="469,-328.7 469,-350.7 575,-350.7 575,-328.7 469,-328.7"/>
<text text-anchor="start" x="471.559" y="-336.4" font-family="Helvetica,sans-Serif" font-size="11.00" fill="#000000">integer[2000000000]</text>
<polygon fill="#ffffff" stroke="transparent" points="359,-306.7 359,-328.7 469,-328.7 469,-306.7 359,-306.7"/>
<polygon fill="none" stroke="#000000" points="359,-306.7 359,-328.7 469,-328.7 469,-306.7 359,-306.7"/>
<image xlink:href="../../images/foreignKeys.png" width="11px" height="12px" preserveAspectRatio="xMinYMin meet" x="364" y="-323.7"/>
<text text-anchor="start" x="379" y="-313.8" font-family="Helvetica,sans-Serif" font-size="11.00" fill="#000000">TrackId</text>
<polygon fill="none" stroke="#000000" points="469,-306.7 469,-328.7 575,-328.7 575,-306.7 469,-306.7"/>
<text text-anchor="start" x="471.559" y="-314.4" font-family="Helvetica,sans-Serif" font-size="11.00" fill="#000000">integer[2000000000]</text>
<polygon fill="none" stroke="#000000" points="359,-284.7 359,-306.7 469,-306.7 469,-284.7 359,-284.7"/>
<text text-anchor="start" x="379" y="-291.8" font-family="Helvetica,sans-Serif" font-size="11.00" fill="#000000">UnitPrice</text>
<polygon fill="none" stroke="#000000" points="469,-284.7 469,-306.7 575,-306.7 575,-284.7 469,-284.7"/>
<text text-anchor="start" x="472" y="-292.4" font-family="Helvetica,sans-Serif" font-size="11.00" fill="#000000">numeric[12,2]</text>
<polygon fill="none" stroke="#000000" points="359,-262.7 359,-284.7 469,-284.7 469,-262.7 359,-262.7"/>
<text text-anchor="start" x="379" y="-269.8" font-family="Helvetica,sans-Serif" font-size="11.00" fill="#000000">Quantity</text>
<polygon fill="none" stroke="#000000" points="469,-262.7 469,-284.7 575,-284.7 575,-262.7 469,-262.7"/>
<text text-anchor="start" x="471.559" y="-270.4" font-family="Helvetica,sans-Serif" font-size="11.00" fill="#000000">integer[2000000000]</text>
<polygon fill="#ffffff" stroke="transparent" points="359,-243.7 359,-262.7 395,-262.7 395,-243.7 359,-243.7"/>
<polygon fill="none" stroke="#000000" points="359,-243.7 359,-262.7 395,-262.7 395,-243.7 359,-243.7"/>
<text text-anchor="start" x="362" y="-249.8" font-family="Helvetica,sans-Serif" font-size="11.00" fill="#000000">&lt; 2</text>
<polygon fill="#ffffff" stroke="transparent" points="395,-243.7 395,-262.7 469,-262.7 469,-243.7 395,-243.7"/>
<polygon fill="none" stroke="#000000" points="395,-243.7 395,-262.7 469,-262.7 469,-243.7 395,-243.7"/>
<text text-anchor="start" x="412.2089" y="-249.8" font-family="Helvetica,sans-Serif" font-size="11.00" fill="#000000">2,240 rows</text>
<polygon fill="#ffffff" stroke="transparent" points="469,-243.7 469,-262.7 575,-262.7 575,-243.7 469,-243.7"/>
<polygon fill="none" stroke="#000000" points="469,-243.7 469,-262.7 575,-262.7 575,-243.7 469,-243.7"/>
<text text-anchor="start" x="556.4053" y="-249.8" font-family="Helvetica,sans-Serif" font-size="11.00" fill="#000000">0 &gt;</text>
<polygon fill="none" stroke="#000000" stroke-width="2" points="358,-242.7 358,-396.7 576,-396.7 576,-242.7 358,-242.7"/>
</a>
</g>
</g>
<!-- InvoiceLine&#45;&gt;Invoice -->
<g id="edge2" class="edge">
<title>InvoiceLine:w&#45;&gt;Invoice:e</title>
<path fill="none" stroke="#000000" d="M344.4203,-339.7C332.5435,-339.7 325.158,-339.7 308.5,-339.7"/>
<polygon fill="#000000" stroke="#000000" points="351,-339.7001 359,-343.3 355,-339.7 359,-339.7 359,-339.7 359,-339.7 355,-339.7 359,-336.1 351,-339.7001 351,-339.7001"/>
<ellipse fill="none" stroke="#000000" cx="347.8" cy="-339.7001" rx="3.2" ry="3.2"/>
</g>
<!-- Track -->
<g id="node4" class="node">
<title>Track</title>
<g id="a_node4"><a xlink:href="../../tables/Track.html" xlink:title="Track" target="_top">
<polygon fill="#ffffff" stroke="transparent" points="185,-77.2 185,-226.2 292,-226.2 292,-77.2 185,-77.2"/>
<polygon fill="#f5f5f5" stroke="transparent" points="185.5,-202.7 185.5,-225.7 292.5,-225.7 292.5,-202.7 185.5,-202.7"/>
<polygon fill="none" stroke="#000000" points="185.5,-202.7 185.5,-225.7 292.5,-225.7 292.5,-202.7 185.5,-202.7"/>
<text text-anchor="start" x="190.5" y="-211.3" font-family="Helvetica,sans-Serif" font-weight="bold" font-size="11.00" fill="#000000">Track</text>
<text text-anchor="start" x="257.5437" y="-210.8" font-family="Helvetica,sans-Serif" font-size="11.00" fill="#000000">[table]</text>
<polygon fill="none" stroke="#000000" points="185.5,-180.7 185.5,-202.7 292.5,-202.7 292.5,-180.7 185.5,-180.7"/>
<image xlink:href="../../images/primaryKeys.png" width="11px" height="12px" preserveAspectRatio="xMinYMin meet" x="190.5" y="-197.7"/>
<text text-anchor="start" x="205.5" y="-187.8" font-family="Helvetica,sans-Serif" font-size="11.00" fill="#000000">TrackId</text>
<polygon fill="#ffffff" stroke="transparent" points="185.5,-158.7 185.5,-180.7 292.5,-180.7 292.5,-158.7 185.5,-158.7"/>
<polygon fill="none" stroke="#000000" points="185.5,-158.7 185.5,-180.7 292.5,-180.7 292.5,-158.7 185.5,-158.7"/>
<image xlink:href="../../images/foreignKeys.png" width="11px" height="12px" preserveAspectRatio="xMinYMin meet" x="190.5" y="-175.7"/>
<text text-anchor="start" x="205.5" y="-165.8" font-family="Helvetica,sans-Serif" font-size="11.00" fill="#000000">AlbumId</text>
<polygon fill="#ffffff" stroke="transparent" points="185.5,-136.7 185.5,-158.7 292.5,-158.7 292.5,-136.7 185.5,-136.7"/>
<polygon fill="none" stroke="#000000" points="185.5,-136.7 185.5,-158.7 292.5,-158.7 292.5,-136.7 185.5,-136.7"/>
<image xlink:href="../../images/foreignKeys.png" width="11px" height="12px" preserveAspectRatio="xMinYMin meet" x="190.5" y="-153.7"/>
<text text-anchor="start" x="205.5" y="-143.8" font-family="Helvetica,sans-Serif" font-size="11.00" fill="#000000">MediaTypeId</text>
<polygon fill="#ffffff" stroke="transparent" points="185.5,-114.7 185.5,-136.7 292.5,-136.7 292.5,-114.7 185.5,-114.7"/>
<polygon fill="none" stroke="#000000" points="185.5,-114.7 185.5,-136.7 292.5,-136.7 292.5,-114.7 185.5,-114.7"/>
<image xlink:href="../../images/foreignKeys.png" width="11px" height="12px" preserveAspectRatio="xMinYMin meet" x="190.5" y="-131.7"/>
<text text-anchor="start" x="205.5" y="-121.8" font-family="Helvetica,sans-Serif" font-size="11.00" fill="#000000">GenreId</text>
<polygon fill="none" stroke="#000000" points="185.5,-95.7 185.5,-114.7 292.5,-114.7 292.5,-95.7 185.5,-95.7"/>
<text text-anchor="start" x="188.5" y="-101.8" font-family="Helvetica,sans-Serif" font-size="11.00" fill="#000000">...</text>
<polygon fill="#ffffff" stroke="transparent" points="185.5,-76.7 185.5,-95.7 209.5,-95.7 209.5,-76.7 185.5,-76.7"/>
<polygon fill="none" stroke="#000000" points="185.5,-76.7 185.5,-95.7 209.5,-95.7 209.5,-76.7 185.5,-76.7"/>
<text text-anchor="start" x="188.5" y="-82.8" font-family="Helvetica,sans-Serif" font-size="11.00" fill="#000000">&lt; 3</text>
<polygon fill="#ffffff" stroke="transparent" points="209.5,-76.7 209.5,-95.7 269.5,-95.7 269.5,-76.7 209.5,-76.7"/>
<polygon fill="none" stroke="#000000" points="209.5,-76.7 209.5,-95.7 269.5,-95.7 269.5,-76.7 209.5,-76.7"/>
<text text-anchor="start" x="212.7089" y="-82.8" font-family="Helvetica,sans-Serif" font-size="11.00" fill="#000000">3,503 rows</text>
<polygon fill="#ffffff" stroke="transparent" points="269.5,-76.7 269.5,-95.7 292.5,-95.7 292.5,-76.7 269.5,-76.7"/>
<polygon fill="none" stroke="#000000" points="269.5,-76.7 269.5,-95.7 292.5,-95.7 292.5,-76.7 269.5,-76.7"/>
<text text-anchor="start" x="273.9053" y="-82.8" font-family="Helvetica,sans-Serif" font-size="11.00" fill="#000000">2 &gt;</text>
</a>
</g>
</g>
<!-- InvoiceLine&#45;&gt;Track -->
<g id="edge3" class="edge">
<title>InvoiceLine:w&#45;&gt;Track:e</title>
<path fill="none" stroke="#000000" d="M344.7437,-314.8316C305.4893,-296.0764 350.1319,-191.7 292.5,-191.7"/>
<polygon fill="#000000" stroke="#000000" points="351.1572,-316.1219 358.2899,-321.2293 355.0786,-316.911 359,-317.7 359,-317.7 359,-317.7 355.0786,-316.911 359.7101,-314.1707 351.1572,-316.1219 351.1572,-316.1219"/>
<ellipse fill="none" stroke="#000000" cx="348.02" cy="-315.4907" rx="3.2" ry="3.2"/>
</g>
<!-- Album -->
<g id="node6" class="node">
<title>Album</title>
<g id="a_node6"><a xlink:href="../../tables/Album.html" xlink:title="Album" target="_top">
<polygon fill="#ffffff" stroke="transparent" points="18,-202.2 18,-263.2 110,-263.2 110,-202.2 18,-202.2"/>
<polygon fill="#f5f5f5" stroke="transparent" points="18,-239.7 18,-262.7 110,-262.7 110,-239.7 18,-239.7"/>
<polygon fill="none" stroke="#000000" points="18,-239.7 18,-262.7 110,-262.7 110,-239.7 18,-239.7"/>
<text text-anchor="start" x="23" y="-248.3" font-family="Helvetica,sans-Serif" font-weight="bold" font-size="11.00" fill="#000000">Album</text>
<text text-anchor="start" x="75.0437" y="-247.8" font-family="Helvetica,sans-Serif" font-size="11.00" fill="#000000">[table]</text>
<polygon fill="none" stroke="#000000" points="18,-220.7 18,-239.7 110,-239.7 110,-220.7 18,-220.7"/>
<text text-anchor="start" x="21" y="-226.8" font-family="Helvetica,sans-Serif" font-size="11.00" fill="#000000">...</text>
<polygon fill="#ffffff" stroke="transparent" points="18,-201.7 18,-220.7 39,-220.7 39,-201.7 18,-201.7"/>
<polygon fill="none" stroke="#000000" points="18,-201.7 18,-220.7 39,-220.7 39,-201.7 18,-201.7"/>
<text text-anchor="start" x="20.7026" y="-207.8" font-family="Helvetica,sans-Serif" font-size="11.00" fill="#000000">&lt; 1</text>
<polygon fill="#ffffff" stroke="transparent" points="39,-201.7 39,-220.7 89,-220.7 89,-201.7 39,-201.7"/>
<polygon fill="none" stroke="#000000" points="39,-201.7 39,-220.7 89,-220.7 89,-201.7 39,-201.7"/>
<text text-anchor="start" x="41.6903" y="-207.8" font-family="Helvetica,sans-Serif" font-size="11.00" fill="#000000">347 rows</text>
<polygon fill="#ffffff" stroke="transparent" points="89,-201.7 89,-220.7 110,-220.7 110,-201.7 89,-201.7"/>
<polygon fill="none" stroke="#000000" points="89,-201.7 89,-220.7 110,-220.7 110,-201.7 89,-201.7"/>
<text text-anchor="start" x="91.7027" y="-207.8" font-family="Helvetica,sans-Serif" font-size="11.00" fill="#000000">1 &gt;</text>
</a>
</g>
</g>
<!-- Track&#45;&gt;Album -->
<g id="edge5" class="edge">
<title>Track:w&#45;&gt;Album:e</title>
<path fill="none" stroke="#000000" d="M171.3436,-172.434C144.3922,-184.1717 147.3362,-229.7 110,-229.7"/>
<polygon fill="#000000" stroke="#000000" points="177.6451,-171.217 186.1827,-173.2347 181.5726,-170.4585 185.5,-169.7 185.5,-169.7 185.5,-169.7 181.5726,-170.4585 184.8173,-166.1653 177.6451,-171.217 177.6451,-171.217"/>
<ellipse fill="none" stroke="#000000" cx="174.5032" cy="-171.8238" rx="3.2" ry="3.2"/>
</g>
<!-- Genre -->
<g id="node7" class="node">
<title>Genre</title>
<g id="a_node7"><a xlink:href="../../tables/Genre.html" xlink:title="Genre" target="_top">
<polygon fill="#ffffff" stroke="transparent" points="24.5,-38.2 24.5,-99.2 103.5,-99.2 103.5,-38.2 24.5,-38.2"/>
<polygon fill="#f5f5f5" stroke="transparent" points="25,-75.7 25,-98.7 104,-98.7 104,-75.7 25,-75.7"/>
<polygon fill="none" stroke="#000000" points="25,-75.7 25,-98.7 104,-98.7 104,-75.7 25,-75.7"/>
<text text-anchor="start" x="30" y="-84.3" font-family="Helvetica,sans-Serif" font-weight="bold" font-size="11.00" fill="#000000">Genre</text>
<text text-anchor="start" x="69.5219" y="-83.8" font-family="Helvetica,sans-Serif" font-size="11.00" fill="#000000">[table]</text>
<polygon fill="none" stroke="#000000" points="25,-56.7 25,-75.7 104,-75.7 104,-56.7 25,-56.7"/>
<text text-anchor="start" x="28" y="-62.8" font-family="Helvetica,sans-Serif" font-size="11.00" fill="#000000">...</text>
<polygon fill="#ffffff" stroke="transparent" points="25,-37.7 25,-56.7 38,-56.7 38,-37.7 25,-37.7"/>
<polygon fill="none" stroke="#000000" points="25,-37.7 25,-56.7 38,-56.7 38,-37.7 25,-37.7"/>
<text text-anchor="start" x="28" y="-43.8" font-family="Helvetica,sans-Serif" font-size="11.00" fill="#000000"> &#160;</text>
<polygon fill="#ffffff" stroke="transparent" points="38,-37.7 38,-56.7 82,-56.7 82,-37.7 38,-37.7"/>
<polygon fill="none" stroke="#000000" points="38,-37.7 38,-56.7 82,-56.7 82,-37.7 38,-37.7"/>
<text text-anchor="start" x="40.7478" y="-43.8" font-family="Helvetica,sans-Serif" font-size="11.00" fill="#000000">25 rows</text>
<polygon fill="#ffffff" stroke="transparent" points="82,-37.7 82,-56.7 104,-56.7 104,-37.7 82,-37.7"/>
<polygon fill="none" stroke="#000000" points="82,-37.7 82,-56.7 104,-56.7 104,-37.7 82,-37.7"/>
<text text-anchor="start" x="85.4053" y="-43.8" font-family="Helvetica,sans-Serif" font-size="11.00" fill="#000000">1 &gt;</text>
</a>
</g>
</g>
<!-- Track&#45;&gt;Genre -->
<g id="edge6" class="edge">
<title>Track:w&#45;&gt;Genre:e</title>
<path fill="none" stroke="#000000" d="M170.9289,-123.1219C141.8002,-111.6375 143.3571,-65.7 104,-65.7"/>
<polygon fill="#000000" stroke="#000000" points="177.6224,-124.3061 184.8728,-129.2449 181.5612,-125.0031 185.5,-125.7 185.5,-125.7 185.5,-125.7 181.5612,-125.0031 186.1272,-122.1551 177.6224,-124.3061 177.6224,-124.3061"/>
<ellipse fill="none" stroke="#000000" cx="174.4713" cy="-123.7486" rx="3.2" ry="3.2"/>
</g>
<!-- MediaType -->
<g id="node8" class="node">
<title>MediaType</title>
<g id="a_node8"><a xlink:href="../../tables/MediaType.html" xlink:title="MediaType" target="_top">
<polygon fill="#ffffff" stroke="transparent" points="8,-120.2 8,-181.2 120,-181.2 120,-120.2 8,-120.2"/>
<polygon fill="#f5f5f5" stroke="transparent" points="8,-157.7 8,-180.7 120,-180.7 120,-157.7 8,-157.7"/>
<polygon fill="none" stroke="#000000" points="8,-157.7 8,-180.7 120,-180.7 120,-157.7 8,-157.7"/>
<text text-anchor="start" x="13" y="-166.3" font-family="Helvetica,sans-Serif" font-weight="bold" font-size="11.00" fill="#000000">MediaType</text>
<text text-anchor="start" x="85.5219" y="-165.8" font-family="Helvetica,sans-Serif" font-size="11.00" fill="#000000">[table]</text>
<polygon fill="none" stroke="#000000" points="8,-138.7 8,-157.7 120,-157.7 120,-138.7 8,-138.7"/>
<text text-anchor="start" x="11" y="-144.8" font-family="Helvetica,sans-Serif" font-size="11.00" fill="#000000">...</text>
<polygon fill="#ffffff" stroke="transparent" points="8,-119.7 8,-138.7 40,-138.7 40,-119.7 8,-119.7"/>
<polygon fill="none" stroke="#000000" points="8,-119.7 8,-138.7 40,-138.7 40,-119.7 8,-119.7"/>
<text text-anchor="start" x="11" y="-125.8" font-family="Helvetica,sans-Serif" font-size="11.00" fill="#000000"> &#160;</text>
<polygon fill="#ffffff" stroke="transparent" points="40,-119.7 40,-138.7 88,-138.7 88,-119.7 40,-119.7"/>
<polygon fill="none" stroke="#000000" points="40,-119.7 40,-138.7 88,-138.7 88,-119.7 40,-119.7"/>
<text text-anchor="start" x="52.6105" y="-125.8" font-family="Helvetica,sans-Serif" font-size="11.00" fill="#000000">5 rows</text>
<polygon fill="#ffffff" stroke="transparent" points="88,-119.7 88,-138.7 120,-138.7 120,-119.7 88,-119.7"/>
<polygon fill="none" stroke="#000000" points="88,-119.7 88,-138.7 120,-138.7 120,-119.7 88,-119.7"/>
<text text-anchor="start" x="101.4053" y="-125.8" font-family="Helvetica,sans-Serif" font-size="11.00" fill="#000000">1 &gt;</text>
</a>
</g>
</g>
<!-- Track&#45;&gt;MediaType -->
<g id="edge7" class="edge">
<title>Track:w&#45;&gt;MediaType:e</title>
<path fill="none" stroke="#000000" d="M170.8773,-147.7C152.803,-147.7 143.5391,-147.7 120,-147.7"/>
<polygon fill="#000000" stroke="#000000" points="177.5,-147.7001 185.5,-151.3 181.5,-147.7 185.5,-147.7 185.5,-147.7 185.5,-147.7 181.5,-147.7 185.5,-144.1 177.5,-147.7001 177.5,-147.7001"/>
<ellipse fill="none" stroke="#000000" cx="174.3" cy="-147.7001" rx="3.2" ry="3.2"/>
</g>
<!-- PlaylistTrack -->
<g id="node5" class="node">
<title>PlaylistTrack</title>
<g id="a_node5"><a xlink:href="../../tables/PlaylistTrack.html" xlink:title="PlaylistTrack" target="_top">
<polygon fill="#ffffff" stroke="transparent" points="404,-159.2 404,-220.2 530,-220.2 530,-159.2 404,-159.2"/>
<polygon fill="#f5f5f5" stroke="transparent" points="404,-196.7 404,-219.7 530,-219.7 530,-196.7 404,-196.7"/>
<polygon fill="none" stroke="#000000" points="404,-196.7 404,-219.7 530,-219.7 530,-196.7 404,-196.7"/>
<text text-anchor="start" x="409" y="-205.3" font-family="Helvetica,sans-Serif" font-weight="bold" font-size="11.00" fill="#000000">PlaylistTrack</text>
<text text-anchor="start" x="495.5219" y="-204.8" font-family="Helvetica,sans-Serif" font-size="11.00" fill="#000000">[table]</text>
<polygon fill="none" stroke="#000000" points="404,-177.7 404,-196.7 530,-196.7 530,-177.7 404,-177.7"/>
<text text-anchor="start" x="407" y="-183.8" font-family="Helvetica,sans-Serif" font-size="11.00" fill="#000000">...</text>
<polygon fill="#ffffff" stroke="transparent" points="404,-158.7 404,-177.7 442,-177.7 442,-158.7 404,-158.7"/>
<polygon fill="none" stroke="#000000" points="404,-158.7 404,-177.7 442,-177.7 442,-158.7 404,-158.7"/>
<text text-anchor="start" x="407" y="-164.8" font-family="Helvetica,sans-Serif" font-size="11.00" fill="#000000">&lt; 2</text>
<polygon fill="#ffffff" stroke="transparent" points="442,-158.7 442,-177.7 509,-177.7 509,-158.7 442,-158.7"/>
<polygon fill="none" stroke="#000000" points="442,-158.7 442,-177.7 509,-177.7 509,-158.7 442,-158.7"/>
<text text-anchor="start" x="452.2089" y="-164.8" font-family="Helvetica,sans-Serif" font-size="11.00" fill="#000000">8,715 rows</text>
<polygon fill="#ffffff" stroke="transparent" points="509,-158.7 509,-177.7 530,-177.7 530,-158.7 509,-158.7"/>
<polygon fill="none" stroke="#000000" points="509,-158.7 509,-177.7 530,-177.7 530,-158.7 509,-158.7"/>
<text text-anchor="start" x="520.8862" y="-164.8" font-family="Helvetica,sans-Serif" font-size="11.00" fill="#000000"> &#160;</text>
</a>
</g>
</g>
<!-- PlaylistTrack&#45;&gt;Track -->
<g id="edge4" class="edge">
<title>PlaylistTrack:w&#45;&gt;Track:e</title>
<path fill="none" stroke="#000000" d="M389.4623,-186.8551C351.3873,-187.6991 336.8735,-191.7 292.5,-191.7"/>
<polygon fill="#000000" stroke="#000000" points="396.0005,-186.7854 404.0384,-190.2998 400.0002,-186.7427 404,-186.7 404,-186.7 404,-186.7 400.0002,-186.7427 403.9616,-183.1002 396.0005,-186.7854 396.0005,-186.7854"/>
<ellipse fill="none" stroke="#000000" cx="392.8006" cy="-186.8196" rx="3.2" ry="3.2"/>
</g>
</g>
</svg>
