<?xml version="1.0" encoding="UTF-8" standalone="no"?>
<!DOCTYPE svg PUBLIC "-//W3C//DTD SVG 1.1//EN"
 "http://www.w3.org/Graphics/SVG/1.1/DTD/svg11.dtd">
<!-- Generated by graphviz version 2.40.1 (20161225.0304)
 -->
<!-- Title: twoDegreesRelationshipsDiagram Pages: 1 -->
<svg width="777pt" height="377pt"
 viewBox="0.00 0.00 777.00 376.70" xmlns="http://www.w3.org/2000/svg" xmlns:xlink="http://www.w3.org/1999/xlink">
<g id="graph0" class="graph" transform="scale(1 1) rotate(0) translate(4 372.7)">
<title>twoDegreesRelationshipsDiagram</title>
<polygon fill="#ffffff" stroke="transparent" points="-4,4 -4,-372.7 773,-372.7 773,4 -4,4"/>
<text text-anchor="middle" x="72.4936" y="-7.3" font-family="Helvetica,sans-Serif" font-size="11.00" fill="#000000">Generated by SchemaSpy</text>
<!-- Customer -->
<g id="node1" class="node">
<title>Customer</title>
<g id="a_node1"><a xlink:href="../../tables/Customer.html" xlink:title="Customer" target="_top">
<polygon fill="#ffffff" stroke="transparent" points="161,-236.2 161,-341.2 275,-341.2 275,-236.2 161,-236.2"/>
<polygon fill="#f5f5f5" stroke="transparent" points="161,-317.7 161,-340.7 275,-340.7 275,-317.7 161,-317.7"/>
<polygon fill="none" stroke="#000000" points="161,-317.7 161,-340.7 275,-340.7 275,-317.7 161,-317.7"/>
<text text-anchor="start" x="166" y="-326.3" font-family="Helvetica,sans-Serif" font-weight="bold" font-size="11.00" fill="#000000">Customer</text>
<text text-anchor="start" x="240.0437" y="-325.8" font-family="Helvetica,sans-Serif" font-size="11.00" fill="#000000">[table]</text>
<polygon fill="none" stroke="#000000" points="161,-295.7 161,-317.7 275,-317.7 275,-295.7 161,-295.7"/>
<image xlink:href="../../images/primaryKeys.png" width="11px" height="12px" preserveAspectRatio="xMinYMin meet" x="166" y="-312.7"/>
<text text-anchor="start" x="181" y="-302.8" font-family="Helvetica,sans-Serif" font-size="11.00" fill="#000000">CustomerId</text>
<polygon fill="#ffffff" stroke="transparent" points="161,-273.7 161,-295.7 275,-295.7 275,-273.7 161,-273.7"/>
<polygon fill="none" stroke="#000000" points="161,-273.7 161,-295.7 275,-295.7 275,-273.7 161,-273.7"/>
<image xlink:href="../../images/foreignKeys.png" width="11px" height="12px" preserveAspectRatio="xMinYMin meet" x="166" y="-290.7"/>
<text text-anchor="start" x="181" y="-280.8" font-family="Helvetica,sans-Serif" font-size="11.00" fill="#000000">SupportRepId</text>
<polygon fill="none" stroke="#000000" points="161,-254.7 161,-273.7 275,-273.7 275,-254.7 161,-254.7"/>
<text text-anchor="start" x="164" y="-260.8" font-family="Helvetica,sans-Serif" font-size="11.00" fill="#000000">...</text>
<polygon fill="#ffffff" stroke="transparent" points="161,-235.7 161,-254.7 196,-254.7 196,-235.7 161,-235.7"/>
<polygon fill="none" stroke="#000000" points="161,-235.7 161,-254.7 196,-254.7 196,-235.7 161,-235.7"/>
<text text-anchor="start" x="164" y="-241.8" font-family="Helvetica,sans-Serif" font-size="11.00" fill="#000000">&lt; 1</text>
<polygon fill="#ffffff" stroke="transparent" points="196,-235.7 196,-254.7 247,-254.7 247,-235.7 196,-235.7"/>
<polygon fill="none" stroke="#000000" points="196,-235.7 196,-254.7 247,-254.7 247,-235.7 196,-235.7"/>
<text text-anchor="start" x="205.4956" y="-241.8" font-family="Helvetica,sans-Serif" font-size="11.00" fill="#000000">59 rows</text>
<polygon fill="#ffffff" stroke="transparent" points="247,-235.7 247,-254.7 275,-254.7 275,-235.7 247,-235.7"/>
<polygon fill="none" stroke="#000000" points="247,-235.7 247,-254.7 275,-254.7 275,-235.7 247,-235.7"/>
<text text-anchor="start" x="256.4053" y="-241.8" font-family="Helvetica,sans-Serif" font-size="11.00" fill="#000000">1 &gt;</text>
</a>
</g>
</g>
<!-- Employee -->
<g id="node2" class="node">
<title>Employee</title>
<g id="a_node2"><a xlink:href="../../tables/Employee.html" xlink:title="Employee" target="_top">
<polygon fill="#ffffff" stroke="transparent" points="8,-257.2 8,-318.2 112,-318.2 112,-257.2 8,-257.2"/>
<polygon fill="#f5f5f5" stroke="transparent" points="8,-294.7 8,-317.7 112,-317.7 112,-294.7 8,-294.7"/>
<polygon fill="none" stroke="#000000" points="8,-294.7 8,-317.7 112,-317.7 112,-294.7 8,-294.7"/>
<text text-anchor="start" x="13" y="-303.3" font-family="Helvetica,sans-Serif" font-weight="bold" font-size="11.00" fill="#000000">Employee</text>
<text text-anchor="start" x="77.5219" y="-302.8" font-family="Helvetica,sans-Serif" font-size="11.00" fill="#000000">[table]</text>
<polygon fill="none" stroke="#000000" points="8,-275.7 8,-294.7 112,-294.7 112,-275.7 8,-275.7"/>
<text text-anchor="start" x="11" y="-281.8" font-family="Helvetica,sans-Serif" font-size="11.00" fill="#000000">...</text>
<polygon fill="#ffffff" stroke="transparent" points="8,-256.7 8,-275.7 41,-275.7 41,-256.7 8,-256.7"/>
<polygon fill="none" stroke="#000000" points="8,-256.7 8,-275.7 41,-275.7 41,-256.7 8,-256.7"/>
<text text-anchor="start" x="11" y="-262.8" font-family="Helvetica,sans-Serif" font-size="11.00" fill="#000000">&lt; 1</text>
<polygon fill="#ffffff" stroke="transparent" points="41,-256.7 41,-275.7 85,-275.7 85,-256.7 41,-256.7"/>
<polygon fill="none" stroke="#000000" points="41,-256.7 41,-275.7 85,-275.7 85,-256.7 41,-256.7"/>
<text text-anchor="start" x="49.6105" y="-262.8" font-family="Helvetica,sans-Serif" font-size="11.00" fill="#000000">8 rows</text>
<polygon fill="#ffffff" stroke="transparent" points="85,-256.7 85,-275.7 112,-275.7 112,-256.7 85,-256.7"/>
<polygon fill="none" stroke="#000000" points="85,-256.7 85,-275.7 112,-275.7 112,-256.7 85,-256.7"/>
<text text-anchor="start" x="93.4053" y="-262.8" font-family="Helvetica,sans-Serif" font-size="11.00" fill="#000000">2 &gt;</text>
</a>
</g>
</g>
<!-- Customer&#45;&gt;Employee -->
<g id="edge1" class="edge">
<title>Customer:w&#45;&gt;Employee:e</title>
<path fill="none" stroke="#000000" d="M146.4909,-284.7C135.1774,-284.7 127.9931,-284.7 112,-284.7"/>
<polygon fill="#000000" stroke="#000000" points="153,-284.7001 161,-288.3 157,-284.7 161,-284.7 161,-284.7 161,-284.7 157,-284.7 161,-281.1 153,-284.7001 153,-284.7001"/>
<ellipse fill="none" stroke="#000000" cx="149.8" cy="-284.7001" rx="3.2" ry="3.2"/>
</g>
<!-- Invoice -->
<g id="node3" class="node">
<title>Invoice</title>
<g id="a_node3"><a xlink:href="../../tables/Invoice.html" xlink:title="Invoice" target="_top">
<polygon fill="#ffffff" stroke="transparent" points="324,-120.7 324,-364.7 597,-364.7 597,-120.7 324,-120.7"/>
<polygon fill="#f5f5f5" stroke="transparent" points="326.5,-339.7 326.5,-362.7 595.5,-362.7 595.5,-339.7 326.5,-339.7"/>
<polygon fill="none" stroke="#000000" points="326.5,-339.7 326.5,-362.7 595.5,-362.7 595.5,-339.7 326.5,-339.7"/>
<text text-anchor="start" x="331.5" y="-348.3" font-family="Helvetica,sans-Serif" font-weight="bold" font-size="11.00" fill="#000000">Invoice</text>
<text text-anchor="start" x="560.5437" y="-347.8" font-family="Helvetica,sans-Serif" font-size="11.00" fill="#000000">[table]</text>
<polygon fill="none" stroke="#000000" points="326.5,-317.7 326.5,-339.7 465.5,-339.7 465.5,-317.7 326.5,-317.7"/>
<image xlink:href="../../images/primaryKeys.png" width="11px" height="12px" preserveAspectRatio="xMinYMin meet" x="331.5" y="-334.7"/>
<text text-anchor="start" x="346.5" y="-324.8" font-family="Helvetica,sans-Serif" font-size="11.00" fill="#000000">InvoiceId</text>
<polygon fill="none" stroke="#000000" points="465.5,-317.7 465.5,-339.7 595.5,-339.7 595.5,-317.7 465.5,-317.7"/>
<text text-anchor="start" x="468.5" y="-325.4" font-family="Helvetica,sans-Serif" font-size="11.00" fill="#000000">integer[2000000000]</text>
<polygon fill="#ffffff" stroke="transparent" points="326.5,-295.7 326.5,-317.7 465.5,-317.7 465.5,-295.7 326.5,-295.7"/>
<polygon fill="none" stroke="#000000" points="326.5,-295.7 326.5,-317.7 465.5,-317.7 465.5,-295.7 326.5,-295.7"/>
<image xlink:href="../../images/foreignKeys.png" width="11px" height="12px" preserveAspectRatio="xMinYMin meet" x="331.5" y="-312.7"/>
<text text-anchor="start" x="346.5" y="-302.8" font-family="Helvetica,sans-Serif" font-size="11.00" fill="#000000">CustomerId</text>
<polygon fill="none" stroke="#000000" points="465.5,-295.7 465.5,-317.7 595.5,-317.7 595.5,-295.7 465.5,-295.7"/>
<text text-anchor="start" x="468.5" y="-303.4" font-family="Helvetica,sans-Serif" font-size="11.00" fill="#000000">integer[2000000000]</text>
<polygon fill="none" stroke="#000000" points="326.5,-273.7 326.5,-295.7 465.5,-295.7 465.5,-273.7 326.5,-273.7"/>
<text text-anchor="start" x="346.5" y="-280.8" font-family="Helvetica,sans-Serif" font-size="11.00" fill="#000000">InvoiceDate</text>
<polygon fill="none" stroke="#000000" points="465.5,-273.7 465.5,-295.7 595.5,-295.7 595.5,-273.7 465.5,-273.7"/>
<text text-anchor="start" x="468.1372" y="-281.4" font-family="Helvetica,sans-Serif" font-size="11.00" fill="#000000">datetime[2000000000,10]</text>
<polygon fill="none" stroke="#000000" points="326.5,-251.7 326.5,-273.7 465.5,-273.7 465.5,-251.7 326.5,-251.7"/>
<text text-anchor="start" x="346.5" y="-258.8" font-family="Helvetica,sans-Serif" font-size="11.00" fill="#000000">BillingAddress</text>
<polygon fill="none" stroke="#000000" points="465.5,-251.7 465.5,-273.7 595.5,-273.7 595.5,-251.7 465.5,-251.7"/>
<text text-anchor="start" x="468.5" y="-259.4" font-family="Helvetica,sans-Serif" font-size="11.00" fill="#000000">nvarchar[70]</text>
<polygon fill="none" stroke="#000000" points="326.5,-229.7 326.5,-251.7 465.5,-251.7 465.5,-229.7 326.5,-229.7"/>
<text text-anchor="start" x="346.5" y="-236.8" font-family="Helvetica,sans-Serif" font-size="11.00" fill="#000000">BillingCity</text>
<polygon fill="none" stroke="#000000" points="465.5,-229.7 465.5,-251.7 595.5,-251.7 595.5,-229.7 465.5,-229.7"/>
<text text-anchor="start" x="468.5" y="-237.4" font-family="Helvetica,sans-Serif" font-size="11.00" fill="#000000">nvarchar[40]</text>
<polygon fill="none" stroke="#000000" points="326.5,-207.7 326.5,-229.7 465.5,-229.7 465.5,-207.7 326.5,-207.7"/>
<text text-anchor="start" x="346.5" y="-214.8" font-family="Helvetica,sans-Serif" font-size="11.00" fill="#000000">BillingState</text>
<polygon fill="none" stroke="#000000" points="465.5,-207.7 465.5,-229.7 595.5,-229.7 595.5,-207.7 465.5,-207.7"/>
<text text-anchor="start" x="468.5" y="-215.4" font-family="Helvetica,sans-Serif" font-size="11.00" fill="#000000">nvarchar[40]</text>
<polygon fill="none" stroke="#000000" points="326.5,-185.7 326.5,-207.7 465.5,-207.7 465.5,-185.7 326.5,-185.7"/>
<text text-anchor="start" x="346.5" y="-192.8" font-family="Helvetica,sans-Serif" font-size="11.00" fill="#000000">BillingCountry</text>
<polygon fill="none" stroke="#000000" points="465.5,-185.7 465.5,-207.7 595.5,-207.7 595.5,-185.7 465.5,-185.7"/>
<text text-anchor="start" x="468.5" y="-193.4" font-family="Helvetica,sans-Serif" font-size="11.00" fill="#000000">nvarchar[40]</text>
<polygon fill="none" stroke="#000000" points="326.5,-163.7 326.5,-185.7 465.5,-185.7 465.5,-163.7 326.5,-163.7"/>
<text text-anchor="start" x="346.5" y="-170.8" font-family="Helvetica,sans-Serif" font-size="11.00" fill="#000000">BillingPostalCode</text>
<polygon fill="none" stroke="#000000" points="465.5,-163.7 465.5,-185.7 595.5,-185.7 595.5,-163.7 465.5,-163.7"/>
<text text-anchor="start" x="468.5" y="-171.4" font-family="Helvetica,sans-Serif" font-size="11.00" fill="#000000">nvarchar[10]</text>
<polygon fill="none" stroke="#000000" points="326.5,-141.7 326.5,-163.7 465.5,-163.7 465.5,-141.7 326.5,-141.7"/>
<text text-anchor="start" x="346.5" y="-148.8" font-family="Helvetica,sans-Serif" font-size="11.00" fill="#000000">Total</text>
<polygon fill="none" stroke="#000000" points="465.5,-141.7 465.5,-163.7 595.5,-163.7 595.5,-141.7 465.5,-141.7"/>
<text text-anchor="start" x="468.5" y="-149.4" font-family="Helvetica,sans-Serif" font-size="11.00" fill="#000000">numeric[12,2]</text>
<polygon fill="#ffffff" stroke="transparent" points="326.5,-122.7 326.5,-141.7 381.5,-141.7 381.5,-122.7 326.5,-122.7"/>
<polygon fill="none" stroke="#000000" points="326.5,-122.7 326.5,-141.7 381.5,-141.7 381.5,-122.7 326.5,-122.7"/>
<text text-anchor="start" x="329.5" y="-128.8" font-family="Helvetica,sans-Serif" font-size="11.00" fill="#000000">&lt; 1</text>
<polygon fill="#ffffff" stroke="transparent" points="381.5,-122.7 381.5,-141.7 465.5,-141.7 465.5,-122.7 381.5,-122.7"/>
<polygon fill="none" stroke="#000000" points="381.5,-122.7 381.5,-141.7 465.5,-141.7 465.5,-122.7 381.5,-122.7"/>
<text text-anchor="start" x="417.8807" y="-128.8" font-family="Helvetica,sans-Serif" font-size="11.00" fill="#000000">412 rows</text>
<polygon fill="#ffffff" stroke="transparent" points="465.5,-122.7 465.5,-141.7 595.5,-141.7 595.5,-122.7 465.5,-122.7"/>
<polygon fill="none" stroke="#000000" points="465.5,-122.7 465.5,-141.7 595.5,-141.7 595.5,-122.7 465.5,-122.7"/>
<text text-anchor="start" x="576.9053" y="-128.8" font-family="Helvetica,sans-Serif" font-size="11.00" fill="#000000">1 &gt;</text>
<polygon fill="none" stroke="#000000" stroke-width="2" points="325,-121.7 325,-363.7 596,-363.7 596,-121.7 325,-121.7"/>
</a>
</g>
</g>
<!-- Invoice&#45;&gt;Customer -->
<g id="edge2" class="edge">
<title>Invoice:w&#45;&gt;Customer:e</title>
<path fill="none" stroke="#000000" d="M312.0156,-306.7C299.6771,-306.7 292.1667,-306.7 275,-306.7"/>
<polygon fill="#000000" stroke="#000000" points="318.5,-306.7001 326.5,-310.3 322.5,-306.7 326.5,-306.7 326.5,-306.7 326.5,-306.7 322.5,-306.7 326.5,-303.1 318.5,-306.7001 318.5,-306.7001"/>
<ellipse fill="none" stroke="#000000" cx="315.3" cy="-306.7001" rx="3.2" ry="3.2"/>
</g>
<!-- InvoiceLine -->
<g id="node4" class="node">
<title>InvoiceLine</title>
<g id="a_node4"><a xlink:href="../../tables/InvoiceLine.html" xlink:title="InvoiceLine" target="_top">
<polygon fill="#ffffff" stroke="transparent" points="646,-137.2 646,-264.2 761,-264.2 761,-137.2 646,-137.2"/>
<polygon fill="#f5f5f5" stroke="transparent" points="646.5,-240.7 646.5,-263.7 761.5,-263.7 761.5,-240.7 646.5,-240.7"/>
<polygon fill="none" stroke="#000000" points="646.5,-240.7 646.5,-263.7 761.5,-263.7 761.5,-240.7 646.5,-240.7"/>
<text text-anchor="start" x="651.5" y="-249.3" font-family="Helvetica,sans-Serif" font-weight="bold" font-size="11.00" fill="#000000">InvoiceLine</text>
<text text-anchor="start" x="727.0219" y="-248.8" font-family="Helvetica,sans-Serif" font-size="11.00" fill="#000000">[table]</text>
<polygon fill="none" stroke="#000000" points="646.5,-218.7 646.5,-240.7 761.5,-240.7 761.5,-218.7 646.5,-218.7"/>
<image xlink:href="../../images/primaryKeys.png" width="11px" height="12px" preserveAspectRatio="xMinYMin meet" x="651.5" y="-235.7"/>
<text text-anchor="start" x="669.5" y="-225.8" font-family="Helvetica,sans-Serif" font-size="11.00" fill="#000000">InvoiceLineId</text>
<polygon fill="#ffffff" stroke="transparent" points="646.5,-196.7 646.5,-218.7 761.5,-218.7 761.5,-196.7 646.5,-196.7"/>
<polygon fill="none" stroke="#000000" points="646.5,-196.7 646.5,-218.7 761.5,-218.7 761.5,-196.7 646.5,-196.7"/>
<image xlink:href="../../images/foreignKeys.png" width="11px" height="12px" preserveAspectRatio="xMinYMin meet" x="651.5" y="-213.7"/>
<text text-anchor="start" x="669.5" y="-203.8" font-family="Helvetica,sans-Serif" font-size="11.00" fill="#000000">InvoiceId</text>
<polygon fill="#ffffff" stroke="transparent" points="646.5,-174.7 646.5,-196.7 761.5,-196.7 761.5,-174.7 646.5,-174.7"/>
<polygon fill="none" stroke="#000000" points="646.5,-174.7 646.5,-196.7 761.5,-196.7 761.5,-174.7 646.5,-174.7"/>
<image xlink:href="../../images/foreignKeys.png" width="11px" height="12px" preserveAspectRatio="xMinYMin meet" x="651.5" y="-191.7"/>
<text text-anchor="start" x="669.5" y="-181.8" font-family="Helvetica,sans-Serif" font-size="11.00" fill="#000000">TrackId</text>
<polygon fill="none" stroke="#000000" points="646.5,-155.7 646.5,-174.7 761.5,-174.7 761.5,-155.7 646.5,-155.7"/>
<text text-anchor="start" x="649.5" y="-161.8" font-family="Helvetica,sans-Serif" font-size="11.00" fill="#000000">...</text>
<polygon fill="#ffffff" stroke="transparent" points="646.5,-136.7 646.5,-155.7 678.5,-155.7 678.5,-136.7 646.5,-136.7"/>
<polygon fill="none" stroke="#000000" points="646.5,-136.7 646.5,-155.7 678.5,-155.7 678.5,-136.7 646.5,-136.7"/>
<text text-anchor="start" x="649.5" y="-142.8" font-family="Helvetica,sans-Serif" font-size="11.00" fill="#000000">&lt; 2</text>
<polygon fill="#ffffff" stroke="transparent" points="678.5,-136.7 678.5,-155.7 743.5,-155.7 743.5,-136.7 678.5,-136.7"/>
<polygon fill="none" stroke="#000000" points="678.5,-136.7 678.5,-155.7 743.5,-155.7 743.5,-136.7 678.5,-136.7"/>
<text text-anchor="start" x="686.7089" y="-142.8" font-family="Helvetica,sans-Serif" font-size="11.00" fill="#000000">2,240 rows</text>
<polygon fill="#ffffff" stroke="transparent" points="743.5,-136.7 743.5,-155.7 761.5,-155.7 761.5,-136.7 743.5,-136.7"/>
<polygon fill="none" stroke="#000000" points="743.5,-136.7 743.5,-155.7 761.5,-155.7 761.5,-136.7 743.5,-136.7"/>
<text text-anchor="start" x="752.3862" y="-142.8" font-family="Helvetica,sans-Serif" font-size="11.00" fill="#000000"> &#160;</text>
</a>
</g>
</g>
<!-- InvoiceLine&#45;&gt;Invoice -->
<g id="edge3" class="edge">
<title>InvoiceLine:w&#45;&gt;Invoice:e</title>
<path fill="none" stroke="#000000" d="M632.2982,-211.1908C600.2098,-231.03 647.9323,-328.7 595.5,-328.7"/>
<polygon fill="#000000" stroke="#000000" points="638.7312,-209.6096 647.3593,-211.1959 642.6156,-208.6548 646.5,-207.7 646.5,-207.7 646.5,-207.7 642.6156,-208.6548 645.6407,-204.2041 638.7312,-209.6096 638.7312,-209.6096"/>
<ellipse fill="none" stroke="#000000" cx="635.6237" cy="-210.3734" rx="3.2" ry="3.2"/>
</g>
<!-- Track -->
<g id="node5" class="node">
<title>Track</title>
<g id="a_node5"><a xlink:href="../../tables/Track.html" xlink:title="Track" target="_top">
<polygon fill="#ffffff" stroke="transparent" points="410,-38.2 410,-99.2 511,-99.2 511,-38.2 410,-38.2"/>
<polygon fill="#f5f5f5" stroke="transparent" points="410.5,-75.7 410.5,-98.7 511.5,-98.7 511.5,-75.7 410.5,-75.7"/>
<polygon fill="none" stroke="#000000" points="410.5,-75.7 410.5,-98.7 511.5,-98.7 511.5,-75.7 410.5,-75.7"/>
<text text-anchor="start" x="415.5" y="-84.3" font-family="Helvetica,sans-Serif" font-weight="bold" font-size="11.00" fill="#000000">Track</text>
<text text-anchor="start" x="476.5437" y="-83.8" font-family="Helvetica,sans-Serif" font-size="11.00" fill="#000000">[table]</text>
<polygon fill="none" stroke="#000000" points="410.5,-56.7 410.5,-75.7 511.5,-75.7 511.5,-56.7 410.5,-56.7"/>
<text text-anchor="start" x="413.5" y="-62.8" font-family="Helvetica,sans-Serif" font-size="11.00" fill="#000000">...</text>
<polygon fill="#ffffff" stroke="transparent" points="410.5,-37.7 410.5,-56.7 431.5,-56.7 431.5,-37.7 410.5,-37.7"/>
<polygon fill="none" stroke="#000000" points="410.5,-37.7 410.5,-56.7 431.5,-56.7 431.5,-37.7 410.5,-37.7"/>
<text text-anchor="start" x="413.2027" y="-43.8" font-family="Helvetica,sans-Serif" font-size="11.00" fill="#000000">&lt; 3</text>
<polygon fill="#ffffff" stroke="transparent" points="431.5,-37.7 431.5,-56.7 490.5,-56.7 490.5,-37.7 431.5,-37.7"/>
<polygon fill="none" stroke="#000000" points="431.5,-37.7 431.5,-56.7 490.5,-56.7 490.5,-37.7 431.5,-37.7"/>
<text text-anchor="start" x="434.1045" y="-43.8" font-family="Helvetica,sans-Serif" font-size="11.00" fill="#000000">3,503 rows</text>
<polygon fill="#ffffff" stroke="transparent" points="490.5,-37.7 490.5,-56.7 511.5,-56.7 511.5,-37.7 490.5,-37.7"/>
<polygon fill="none" stroke="#000000" points="490.5,-37.7 490.5,-56.7 511.5,-56.7 511.5,-37.7 490.5,-37.7"/>
<text text-anchor="start" x="493.2027" y="-43.8" font-family="Helvetica,sans-Serif" font-size="11.00" fill="#000000">2 &gt;</text>
</a>
</g>
</g>
<!-- InvoiceLine&#45;&gt;Track -->
<g id="edge4" class="edge">
<title>InvoiceLine:w&#45;&gt;Track:e</title>
<path fill="none" stroke="#000000" d="M632.2821,-182.0721C614.9745,-170.2853 628.1492,-132.5695 605,-110.7 571.4763,-79.0295 557.6179,-65.7 511.5,-65.7"/>
<polygon fill="#000000" stroke="#000000" points="638.7484,-183.722 645.6099,-189.1882 642.6242,-184.711 646.5,-185.7 646.5,-185.7 646.5,-185.7 642.6242,-184.711 647.3901,-182.2118 638.7484,-183.722 638.7484,-183.722"/>
<ellipse fill="none" stroke="#000000" cx="635.6477" cy="-182.9309" rx="3.2" ry="3.2"/>
</g>
</g>
</svg>
