<?xml version="1.0" encoding="UTF-8" standalone="no"?>
<!DOCTYPE svg PUBLIC "-//W3C//DTD SVG 1.1//EN"
 "http://www.w3.org/Graphics/SVG/1.1/DTD/svg11.dtd">
<!-- Generated by graphviz version 2.40.1 (20161225.0304)
 -->
<!-- Title: oneDegreeRelationshipsDiagram Pages: 1 -->
<svg width="624pt" height="315pt"
 viewBox="0.00 0.00 624.00 314.70" xmlns="http://www.w3.org/2000/svg" xmlns:xlink="http://www.w3.org/1999/xlink">
<g id="graph0" class="graph" transform="scale(1 1) rotate(0) translate(4 310.7)">
<title>oneDegreeRelationshipsDiagram</title>
<polygon fill="#ffffff" stroke="transparent" points="-4,4 -4,-310.7 620,-310.7 620,4 -4,4"/>
<text text-anchor="middle" x="72.4936" y="-7.3" font-family="Helvetica,sans-Serif" font-size="11.00" fill="#000000">Generated by SchemaSpy</text>
<!-- Invoice -->
<g id="node1" class="node">
<title>Invoice</title>
<g id="a_node1"><a xlink:href="../../tables/Invoice.html" xlink:title="Invoice" target="_top">
<polygon fill="#ffffff" stroke="transparent" points="171,-38.2 171,-282.2 444,-282.2 444,-38.2 171,-38.2"/>
<polygon fill="#f5f5f5" stroke="transparent" points="173.5,-257.2 173.5,-280.2 442.5,-280.2 442.5,-257.2 173.5,-257.2"/>
<polygon fill="none" stroke="#000000" points="173.5,-257.2 173.5,-280.2 442.5,-280.2 442.5,-257.2 173.5,-257.2"/>
<text text-anchor="start" x="178.5" y="-265.8" font-family="Helvetica,sans-Serif" font-weight="bold" font-size="11.00" fill="#000000">Invoice</text>
<text text-anchor="start" x="407.5437" y="-265.3" font-family="Helvetica,sans-Serif" font-size="11.00" fill="#000000">[table]</text>
<polygon fill="none" stroke="#000000" points="173.5,-235.2 173.5,-257.2 312.5,-257.2 312.5,-235.2 173.5,-235.2"/>
<image xlink:href="../../images/primaryKeys.png" width="11px" height="12px" preserveAspectRatio="xMinYMin meet" x="178.5" y="-252.2"/>
<text text-anchor="start" x="193.5" y="-242.3" font-family="Helvetica,sans-Serif" font-size="11.00" fill="#000000">InvoiceId</text>
<polygon fill="none" stroke="#000000" points="312.5,-235.2 312.5,-257.2 442.5,-257.2 442.5,-235.2 312.5,-235.2"/>
<text text-anchor="start" x="315.5" y="-242.9" font-family="Helvetica,sans-Serif" font-size="11.00" fill="#000000">integer[2000000000]</text>
<polygon fill="#ffffff" stroke="transparent" points="173.5,-213.2 173.5,-235.2 312.5,-235.2 312.5,-213.2 173.5,-213.2"/>
<polygon fill="none" stroke="#000000" points="173.5,-213.2 173.5,-235.2 312.5,-235.2 312.5,-213.2 173.5,-213.2"/>
<image xlink:href="../../images/foreignKeys.png" width="11px" height="12px" preserveAspectRatio="xMinYMin meet" x="178.5" y="-230.2"/>
<text text-anchor="start" x="193.5" y="-220.3" font-family="Helvetica,sans-Serif" font-size="11.00" fill="#000000">CustomerId</text>
<polygon fill="none" stroke="#000000" points="312.5,-213.2 312.5,-235.2 442.5,-235.2 442.5,-213.2 312.5,-213.2"/>
<text text-anchor="start" x="315.5" y="-220.9" font-family="Helvetica,sans-Serif" font-size="11.00" fill="#000000">integer[2000000000]</text>
<polygon fill="none" stroke="#000000" points="173.5,-191.2 173.5,-213.2 312.5,-213.2 312.5,-191.2 173.5,-191.2"/>
<text text-anchor="start" x="193.5" y="-198.3" font-family="Helvetica,sans-Serif" font-size="11.00" fill="#000000">InvoiceDate</text>
<polygon fill="none" stroke="#000000" points="312.5,-191.2 312.5,-213.2 442.5,-213.2 442.5,-191.2 312.5,-191.2"/>
<text text-anchor="start" x="315.1372" y="-198.9" font-family="Helvetica,sans-Serif" font-size="11.00" fill="#000000">datetime[2000000000,10]</text>
<polygon fill="none" stroke="#000000" points="173.5,-169.2 173.5,-191.2 312.5,-191.2 312.5,-169.2 173.5,-169.2"/>
<text text-anchor="start" x="193.5" y="-176.3" font-family="Helvetica,sans-Serif" font-size="11.00" fill="#000000">BillingAddress</text>
<polygon fill="none" stroke="#000000" points="312.5,-169.2 312.5,-191.2 442.5,-191.2 442.5,-169.2 312.5,-169.2"/>
<text text-anchor="start" x="315.5" y="-176.9" font-family="Helvetica,sans-Serif" font-size="11.00" fill="#000000">nvarchar[70]</text>
<polygon fill="none" stroke="#000000" points="173.5,-147.2 173.5,-169.2 312.5,-169.2 312.5,-147.2 173.5,-147.2"/>
<text text-anchor="start" x="193.5" y="-154.3" font-family="Helvetica,sans-Serif" font-size="11.00" fill="#000000">BillingCity</text>
<polygon fill="none" stroke="#000000" points="312.5,-147.2 312.5,-169.2 442.5,-169.2 442.5,-147.2 312.5,-147.2"/>
<text text-anchor="start" x="315.5" y="-154.9" font-family="Helvetica,sans-Serif" font-size="11.00" fill="#000000">nvarchar[40]</text>
<polygon fill="none" stroke="#000000" points="173.5,-125.2 173.5,-147.2 312.5,-147.2 312.5,-125.2 173.5,-125.2"/>
<text text-anchor="start" x="193.5" y="-132.3" font-family="Helvetica,sans-Serif" font-size="11.00" fill="#000000">BillingState</text>
<polygon fill="none" stroke="#000000" points="312.5,-125.2 312.5,-147.2 442.5,-147.2 442.5,-125.2 312.5,-125.2"/>
<text text-anchor="start" x="315.5" y="-132.9" font-family="Helvetica,sans-Serif" font-size="11.00" fill="#000000">nvarchar[40]</text>
<polygon fill="none" stroke="#000000" points="173.5,-103.2 173.5,-125.2 312.5,-125.2 312.5,-103.2 173.5,-103.2"/>
<text text-anchor="start" x="193.5" y="-110.3" font-family="Helvetica,sans-Serif" font-size="11.00" fill="#000000">BillingCountry</text>
<polygon fill="none" stroke="#000000" points="312.5,-103.2 312.5,-125.2 442.5,-125.2 442.5,-103.2 312.5,-103.2"/>
<text text-anchor="start" x="315.5" y="-110.9" font-family="Helvetica,sans-Serif" font-size="11.00" fill="#000000">nvarchar[40]</text>
<polygon fill="none" stroke="#000000" points="173.5,-81.2 173.5,-103.2 312.5,-103.2 312.5,-81.2 173.5,-81.2"/>
<text text-anchor="start" x="193.5" y="-88.3" font-family="Helvetica,sans-Serif" font-size="11.00" fill="#000000">BillingPostalCode</text>
<polygon fill="none" stroke="#000000" points="312.5,-81.2 312.5,-103.2 442.5,-103.2 442.5,-81.2 312.5,-81.2"/>
<text text-anchor="start" x="315.5" y="-88.9" font-family="Helvetica,sans-Serif" font-size="11.00" fill="#000000">nvarchar[10]</text>
<polygon fill="none" stroke="#000000" points="173.5,-59.2 173.5,-81.2 312.5,-81.2 312.5,-59.2 173.5,-59.2"/>
<text text-anchor="start" x="193.5" y="-66.3" font-family="Helvetica,sans-Serif" font-size="11.00" fill="#000000">Total</text>
<polygon fill="none" stroke="#000000" points="312.5,-59.2 312.5,-81.2 442.5,-81.2 442.5,-59.2 312.5,-59.2"/>
<text text-anchor="start" x="315.5" y="-66.9" font-family="Helvetica,sans-Serif" font-size="11.00" fill="#000000">numeric[12,2]</text>
<polygon fill="#ffffff" stroke="transparent" points="173.5,-40.2 173.5,-59.2 228.5,-59.2 228.5,-40.2 173.5,-40.2"/>
<polygon fill="none" stroke="#000000" points="173.5,-40.2 173.5,-59.2 228.5,-59.2 228.5,-40.2 173.5,-40.2"/>
<text text-anchor="start" x="176.5" y="-46.3" font-family="Helvetica,sans-Serif" font-size="11.00" fill="#000000">&lt; 1</text>
<polygon fill="#ffffff" stroke="transparent" points="228.5,-40.2 228.5,-59.2 312.5,-59.2 312.5,-40.2 228.5,-40.2"/>
<polygon fill="none" stroke="#000000" points="228.5,-40.2 228.5,-59.2 312.5,-59.2 312.5,-40.2 228.5,-40.2"/>
<text text-anchor="start" x="264.8807" y="-46.3" font-family="Helvetica,sans-Serif" font-size="11.00" fill="#000000">412 rows</text>
<polygon fill="#ffffff" stroke="transparent" points="312.5,-40.2 312.5,-59.2 442.5,-59.2 442.5,-40.2 312.5,-40.2"/>
<polygon fill="none" stroke="#000000" points="312.5,-40.2 312.5,-59.2 442.5,-59.2 442.5,-40.2 312.5,-40.2"/>
<text text-anchor="start" x="423.9053" y="-46.3" font-family="Helvetica,sans-Serif" font-size="11.00" fill="#000000">1 &gt;</text>
<polygon fill="none" stroke="#000000" stroke-width="2" points="172,-39.2 172,-281.2 443,-281.2 443,-39.2 172,-39.2"/>
</a>
</g>
</g>
<!-- Customer -->
<g id="node2" class="node">
<title>Customer</title>
<g id="a_node2"><a xlink:href="../../tables/Customer.html" xlink:title="Customer" target="_top">
<polygon fill="#ffffff" stroke="transparent" points="8,-153.7 8,-258.7 122,-258.7 122,-153.7 8,-153.7"/>
<polygon fill="#f5f5f5" stroke="transparent" points="8,-235.2 8,-258.2 122,-258.2 122,-235.2 8,-235.2"/>
<polygon fill="none" stroke="#000000" points="8,-235.2 8,-258.2 122,-258.2 122,-235.2 8,-235.2"/>
<text text-anchor="start" x="13" y="-243.8" font-family="Helvetica,sans-Serif" font-weight="bold" font-size="11.00" fill="#000000">Customer</text>
<text text-anchor="start" x="87.0437" y="-243.3" font-family="Helvetica,sans-Serif" font-size="11.00" fill="#000000">[table]</text>
<polygon fill="none" stroke="#000000" points="8,-213.2 8,-235.2 122,-235.2 122,-213.2 8,-213.2"/>
<image xlink:href="../../images/primaryKeys.png" width="11px" height="12px" preserveAspectRatio="xMinYMin meet" x="13" y="-230.2"/>
<text text-anchor="start" x="28" y="-220.3" font-family="Helvetica,sans-Serif" font-size="11.00" fill="#000000">CustomerId</text>
<polygon fill="#ffffff" stroke="transparent" points="8,-191.2 8,-213.2 122,-213.2 122,-191.2 8,-191.2"/>
<polygon fill="none" stroke="#000000" points="8,-191.2 8,-213.2 122,-213.2 122,-191.2 8,-191.2"/>
<image xlink:href="../../images/foreignKeys.png" width="11px" height="12px" preserveAspectRatio="xMinYMin meet" x="13" y="-208.2"/>
<text text-anchor="start" x="28" y="-198.3" font-family="Helvetica,sans-Serif" font-size="11.00" fill="#000000">SupportRepId</text>
<polygon fill="none" stroke="#000000" points="8,-172.2 8,-191.2 122,-191.2 122,-172.2 8,-172.2"/>
<text text-anchor="start" x="11" y="-178.3" font-family="Helvetica,sans-Serif" font-size="11.00" fill="#000000">...</text>
<polygon fill="#ffffff" stroke="transparent" points="8,-153.2 8,-172.2 43,-172.2 43,-153.2 8,-153.2"/>
<polygon fill="none" stroke="#000000" points="8,-153.2 8,-172.2 43,-172.2 43,-153.2 8,-153.2"/>
<text text-anchor="start" x="11" y="-159.3" font-family="Helvetica,sans-Serif" font-size="11.00" fill="#000000">&lt; 1</text>
<polygon fill="#ffffff" stroke="transparent" points="43,-153.2 43,-172.2 94,-172.2 94,-153.2 43,-153.2"/>
<polygon fill="none" stroke="#000000" points="43,-153.2 43,-172.2 94,-172.2 94,-153.2 43,-153.2"/>
<text text-anchor="start" x="52.4956" y="-159.3" font-family="Helvetica,sans-Serif" font-size="11.00" fill="#000000">59 rows</text>
<polygon fill="#ffffff" stroke="transparent" points="94,-153.2 94,-172.2 122,-172.2 122,-153.2 94,-153.2"/>
<polygon fill="none" stroke="#000000" points="94,-153.2 94,-172.2 122,-172.2 122,-153.2 94,-153.2"/>
<text text-anchor="start" x="103.4053" y="-159.3" font-family="Helvetica,sans-Serif" font-size="11.00" fill="#000000">1 &gt;</text>
</a>
</g>
</g>
<!-- Invoice&#45;&gt;Customer -->
<g id="edge1" class="edge">
<title>Invoice:w&#45;&gt;Customer:e</title>
<path fill="none" stroke="#000000" d="M159.0156,-224.2C146.6771,-224.2 139.1667,-224.2 122,-224.2"/>
<polygon fill="#000000" stroke="#000000" points="165.5,-224.2001 173.5,-227.8 169.5,-224.2 173.5,-224.2 173.5,-224.2 173.5,-224.2 169.5,-224.2 173.5,-220.6 165.5,-224.2001 165.5,-224.2001"/>
<ellipse fill="none" stroke="#000000" cx="162.3" cy="-224.2001" rx="3.2" ry="3.2"/>
</g>
<!-- InvoiceLine -->
<g id="node3" class="node">
<title>InvoiceLine</title>
<g id="a_node3"><a xlink:href="../../tables/InvoiceLine.html" xlink:title="InvoiceLine" target="_top">
<polygon fill="#ffffff" stroke="transparent" points="493,-175.7 493,-302.7 608,-302.7 608,-175.7 493,-175.7"/>
<polygon fill="#f5f5f5" stroke="transparent" points="493.5,-279.2 493.5,-302.2 608.5,-302.2 608.5,-279.2 493.5,-279.2"/>
<polygon fill="none" stroke="#000000" points="493.5,-279.2 493.5,-302.2 608.5,-302.2 608.5,-279.2 493.5,-279.2"/>
<text text-anchor="start" x="498.5" y="-287.8" font-family="Helvetica,sans-Serif" font-weight="bold" font-size="11.00" fill="#000000">InvoiceLine</text>
<text text-anchor="start" x="574.0219" y="-287.3" font-family="Helvetica,sans-Serif" font-size="11.00" fill="#000000">[table]</text>
<polygon fill="none" stroke="#000000" points="493.5,-257.2 493.5,-279.2 608.5,-279.2 608.5,-257.2 493.5,-257.2"/>
<image xlink:href="../../images/primaryKeys.png" width="11px" height="12px" preserveAspectRatio="xMinYMin meet" x="498.5" y="-274.2"/>
<text text-anchor="start" x="516.5" y="-264.3" font-family="Helvetica,sans-Serif" font-size="11.00" fill="#000000">InvoiceLineId</text>
<polygon fill="#ffffff" stroke="transparent" points="493.5,-235.2 493.5,-257.2 608.5,-257.2 608.5,-235.2 493.5,-235.2"/>
<polygon fill="none" stroke="#000000" points="493.5,-235.2 493.5,-257.2 608.5,-257.2 608.5,-235.2 493.5,-235.2"/>
<image xlink:href="../../images/foreignKeys.png" width="11px" height="12px" preserveAspectRatio="xMinYMin meet" x="498.5" y="-252.2"/>
<text text-anchor="start" x="516.5" y="-242.3" font-family="Helvetica,sans-Serif" font-size="11.00" fill="#000000">InvoiceId</text>
<polygon fill="#ffffff" stroke="transparent" points="493.5,-213.2 493.5,-235.2 608.5,-235.2 608.5,-213.2 493.5,-213.2"/>
<polygon fill="none" stroke="#000000" points="493.5,-213.2 493.5,-235.2 608.5,-235.2 608.5,-213.2 493.5,-213.2"/>
<image xlink:href="../../images/foreignKeys.png" width="11px" height="12px" preserveAspectRatio="xMinYMin meet" x="498.5" y="-230.2"/>
<text text-anchor="start" x="516.5" y="-220.3" font-family="Helvetica,sans-Serif" font-size="11.00" fill="#000000">TrackId</text>
<polygon fill="none" stroke="#000000" points="493.5,-194.2 493.5,-213.2 608.5,-213.2 608.5,-194.2 493.5,-194.2"/>
<text text-anchor="start" x="496.5" y="-200.3" font-family="Helvetica,sans-Serif" font-size="11.00" fill="#000000">...</text>
<polygon fill="#ffffff" stroke="transparent" points="493.5,-175.2 493.5,-194.2 525.5,-194.2 525.5,-175.2 493.5,-175.2"/>
<polygon fill="none" stroke="#000000" points="493.5,-175.2 493.5,-194.2 525.5,-194.2 525.5,-175.2 493.5,-175.2"/>
<text text-anchor="start" x="496.5" y="-181.3" font-family="Helvetica,sans-Serif" font-size="11.00" fill="#000000">&lt; 2</text>
<polygon fill="#ffffff" stroke="transparent" points="525.5,-175.2 525.5,-194.2 590.5,-194.2 590.5,-175.2 525.5,-175.2"/>
<polygon fill="none" stroke="#000000" points="525.5,-175.2 525.5,-194.2 590.5,-194.2 590.5,-175.2 525.5,-175.2"/>
<text text-anchor="start" x="533.7089" y="-181.3" font-family="Helvetica,sans-Serif" font-size="11.00" fill="#000000">2,240 rows</text>
<polygon fill="#ffffff" stroke="transparent" points="590.5,-175.2 590.5,-194.2 608.5,-194.2 608.5,-175.2 590.5,-175.2"/>
<polygon fill="none" stroke="#000000" points="590.5,-175.2 590.5,-194.2 608.5,-194.2 608.5,-175.2 590.5,-175.2"/>
<text text-anchor="start" x="599.3862" y="-181.3" font-family="Helvetica,sans-Serif" font-size="11.00" fill="#000000"> &#160;</text>
</a>
</g>
</g>
<!-- InvoiceLine&#45;&gt;Invoice -->
<g id="edge2" class="edge">
<title>InvoiceLine:w&#45;&gt;Invoice:e</title>
<path fill="none" stroke="#000000" d="M478.776,-246.2C466.7815,-246.2 459.3229,-246.2 442.5,-246.2"/>
<polygon fill="#000000" stroke="#000000" points="485.5,-246.2001 493.5,-249.8 489.5,-246.2 493.5,-246.2 493.5,-246.2 493.5,-246.2 489.5,-246.2 493.5,-242.6 485.5,-246.2001 485.5,-246.2001"/>
<ellipse fill="none" stroke="#000000" cx="482.3" cy="-246.2001" rx="3.2" ry="3.2"/>
</g>
</g>
</svg>
