<?xml version="1.0" encoding="UTF-8" standalone="no"?>
<!DOCTYPE svg PUBLIC "-//W3C//DTD SVG 1.1//EN"
 "http://www.w3.org/Graphics/SVG/1.1/DTD/svg11.dtd">
<!-- Generated by graphviz version 2.40.1 (20161225.0304)
 -->
<!-- Title: oneDegreeRelationshipsDiagram Pages: 1 -->
<svg width="397pt" height="199pt"
 viewBox="0.00 0.00 397.00 199.20" xmlns="http://www.w3.org/2000/svg" xmlns:xlink="http://www.w3.org/1999/xlink">
<g id="graph0" class="graph" transform="scale(1 1) rotate(0) translate(4 195.2)">
<title>oneDegreeRelationshipsDiagram</title>
<polygon fill="#ffffff" stroke="transparent" points="-4,4 -4,-195.2 393,-195.2 393,4 -4,4"/>
<text text-anchor="middle" x="72.4936" y="-7.3" font-family="Helvetica,sans-Serif" font-size="11.00" fill="#000000">Generated by SchemaSpy</text>
<!-- Track -->
<g id="node1" class="node">
<title>Track</title>
<g id="a_node1"><a xlink:href="../../tables/Track.html" xlink:title="Track" target="_top">
<polygon fill="#ffffff" stroke="transparent" points="274,-38.2 274,-187.2 381,-187.2 381,-38.2 274,-38.2"/>
<polygon fill="#f5f5f5" stroke="transparent" points="274.5,-163.7 274.5,-186.7 381.5,-186.7 381.5,-163.7 274.5,-163.7"/>
<polygon fill="none" stroke="#000000" points="274.5,-163.7 274.5,-186.7 381.5,-186.7 381.5,-163.7 274.5,-163.7"/>
<text text-anchor="start" x="279.5" y="-172.3" font-family="Helvetica,sans-Serif" font-weight="bold" font-size="11.00" fill="#000000">Track</text>
<text text-anchor="start" x="346.5437" y="-171.8" font-family="Helvetica,sans-Serif" font-size="11.00" fill="#000000">[table]</text>
<polygon fill="none" stroke="#000000" points="274.5,-141.7 274.5,-163.7 381.5,-163.7 381.5,-141.7 274.5,-141.7"/>
<image xlink:href="../../images/primaryKeys.png" width="11px" height="12px" preserveAspectRatio="xMinYMin meet" x="279.5" y="-158.7"/>
<text text-anchor="start" x="294.5" y="-148.8" font-family="Helvetica,sans-Serif" font-size="11.00" fill="#000000">TrackId</text>
<polygon fill="#ffffff" stroke="transparent" points="274.5,-119.7 274.5,-141.7 381.5,-141.7 381.5,-119.7 274.5,-119.7"/>
<polygon fill="none" stroke="#000000" points="274.5,-119.7 274.5,-141.7 381.5,-141.7 381.5,-119.7 274.5,-119.7"/>
<image xlink:href="../../images/foreignKeys.png" width="11px" height="12px" preserveAspectRatio="xMinYMin meet" x="279.5" y="-136.7"/>
<text text-anchor="start" x="294.5" y="-126.8" font-family="Helvetica,sans-Serif" font-size="11.00" fill="#000000">AlbumId</text>
<polygon fill="#ffffff" stroke="transparent" points="274.5,-97.7 274.5,-119.7 381.5,-119.7 381.5,-97.7 274.5,-97.7"/>
<polygon fill="none" stroke="#000000" points="274.5,-97.7 274.5,-119.7 381.5,-119.7 381.5,-97.7 274.5,-97.7"/>
<image xlink:href="../../images/foreignKeys.png" width="11px" height="12px" preserveAspectRatio="xMinYMin meet" x="279.5" y="-114.7"/>
<text text-anchor="start" x="294.5" y="-104.8" font-family="Helvetica,sans-Serif" font-size="11.00" fill="#000000">MediaTypeId</text>
<polygon fill="#ffffff" stroke="transparent" points="274.5,-75.7 274.5,-97.7 381.5,-97.7 381.5,-75.7 274.5,-75.7"/>
<polygon fill="none" stroke="#000000" points="274.5,-75.7 274.5,-97.7 381.5,-97.7 381.5,-75.7 274.5,-75.7"/>
<image xlink:href="../../images/foreignKeys.png" width="11px" height="12px" preserveAspectRatio="xMinYMin meet" x="279.5" y="-92.7"/>
<text text-anchor="start" x="294.5" y="-82.8" font-family="Helvetica,sans-Serif" font-size="11.00" fill="#000000">GenreId</text>
<polygon fill="none" stroke="#000000" points="274.5,-56.7 274.5,-75.7 381.5,-75.7 381.5,-56.7 274.5,-56.7"/>
<text text-anchor="start" x="277.5" y="-62.8" font-family="Helvetica,sans-Serif" font-size="11.00" fill="#000000">...</text>
<polygon fill="#ffffff" stroke="transparent" points="274.5,-37.7 274.5,-56.7 298.5,-56.7 298.5,-37.7 274.5,-37.7"/>
<polygon fill="none" stroke="#000000" points="274.5,-37.7 274.5,-56.7 298.5,-56.7 298.5,-37.7 274.5,-37.7"/>
<text text-anchor="start" x="277.5" y="-43.8" font-family="Helvetica,sans-Serif" font-size="11.00" fill="#000000">&lt; 3</text>
<polygon fill="#ffffff" stroke="transparent" points="298.5,-37.7 298.5,-56.7 358.5,-56.7 358.5,-37.7 298.5,-37.7"/>
<polygon fill="none" stroke="#000000" points="298.5,-37.7 298.5,-56.7 358.5,-56.7 358.5,-37.7 298.5,-37.7"/>
<text text-anchor="start" x="301.7089" y="-43.8" font-family="Helvetica,sans-Serif" font-size="11.00" fill="#000000">3,503 rows</text>
<polygon fill="#ffffff" stroke="transparent" points="358.5,-37.7 358.5,-56.7 381.5,-56.7 381.5,-37.7 358.5,-37.7"/>
<polygon fill="none" stroke="#000000" points="358.5,-37.7 358.5,-56.7 381.5,-56.7 381.5,-37.7 358.5,-37.7"/>
<text text-anchor="start" x="362.9053" y="-43.8" font-family="Helvetica,sans-Serif" font-size="11.00" fill="#000000">2 &gt;</text>
</a>
</g>
</g>
<!-- MediaType -->
<g id="node2" class="node">
<title>MediaType</title>
<g id="a_node2"><a xlink:href="../../tables/MediaType.html" xlink:title="MediaType" target="_top">
<polygon fill="#ffffff" stroke="transparent" points="8,-54.7 8,-144.7 225,-144.7 225,-54.7 8,-54.7"/>
<polygon fill="#f5f5f5" stroke="transparent" points="10.5,-119.7 10.5,-142.7 223.5,-142.7 223.5,-119.7 10.5,-119.7"/>
<polygon fill="none" stroke="#000000" points="10.5,-119.7 10.5,-142.7 223.5,-142.7 223.5,-119.7 10.5,-119.7"/>
<text text-anchor="start" x="15.5" y="-128.3" font-family="Helvetica,sans-Serif" font-weight="bold" font-size="11.00" fill="#000000">MediaType</text>
<text text-anchor="start" x="188.5437" y="-127.8" font-family="Helvetica,sans-Serif" font-size="11.00" fill="#000000">[table]</text>
<polygon fill="none" stroke="#000000" points="10.5,-97.7 10.5,-119.7 117.5,-119.7 117.5,-97.7 10.5,-97.7"/>
<image xlink:href="../../images/primaryKeys.png" width="11px" height="12px" preserveAspectRatio="xMinYMin meet" x="15.5" y="-114.7"/>
<text text-anchor="start" x="30.5" y="-104.8" font-family="Helvetica,sans-Serif" font-size="11.00" fill="#000000">MediaTypeId</text>
<polygon fill="none" stroke="#000000" points="117.5,-97.7 117.5,-119.7 223.5,-119.7 223.5,-97.7 117.5,-97.7"/>
<text text-anchor="start" x="120.059" y="-105.4" font-family="Helvetica,sans-Serif" font-size="11.00" fill="#000000">integer[2000000000]</text>
<polygon fill="none" stroke="#000000" points="10.5,-75.7 10.5,-97.7 117.5,-97.7 117.5,-75.7 10.5,-75.7"/>
<text text-anchor="start" x="30.5" y="-82.8" font-family="Helvetica,sans-Serif" font-size="11.00" fill="#000000">Name</text>
<polygon fill="none" stroke="#000000" points="117.5,-75.7 117.5,-97.7 223.5,-97.7 223.5,-75.7 117.5,-75.7"/>
<text text-anchor="start" x="120.5" y="-83.4" font-family="Helvetica,sans-Serif" font-size="11.00" fill="#000000">nvarchar[120]</text>
<polygon fill="#ffffff" stroke="transparent" points="10.5,-56.7 10.5,-75.7 55.5,-75.7 55.5,-56.7 10.5,-56.7"/>
<polygon fill="none" stroke="#000000" points="10.5,-56.7 10.5,-75.7 55.5,-75.7 55.5,-56.7 10.5,-56.7"/>
<text text-anchor="start" x="13.5" y="-62.8" font-family="Helvetica,sans-Serif" font-size="11.00" fill="#000000">&lt; 0</text>
<polygon fill="#ffffff" stroke="transparent" points="55.5,-56.7 55.5,-75.7 117.5,-75.7 117.5,-56.7 55.5,-56.7"/>
<polygon fill="none" stroke="#000000" points="55.5,-56.7 55.5,-75.7 117.5,-75.7 117.5,-56.7 55.5,-56.7"/>
<text text-anchor="start" x="82.1105" y="-62.8" font-family="Helvetica,sans-Serif" font-size="11.00" fill="#000000">5 rows</text>
<polygon fill="#ffffff" stroke="transparent" points="117.5,-56.7 117.5,-75.7 223.5,-75.7 223.5,-56.7 117.5,-56.7"/>
<polygon fill="none" stroke="#000000" points="117.5,-56.7 117.5,-75.7 223.5,-75.7 223.5,-56.7 117.5,-56.7"/>
<text text-anchor="start" x="204.9053" y="-62.8" font-family="Helvetica,sans-Serif" font-size="11.00" fill="#000000">1 &gt;</text>
<polygon fill="none" stroke="#000000" stroke-width="2" points="9,-55.7 9,-143.7 224,-143.7 224,-55.7 9,-55.7"/>
</a>
</g>
</g>
<!-- Track&#45;&gt;MediaType -->
<g id="edge1" class="edge">
<title>Track:w&#45;&gt;MediaType:e</title>
<path fill="none" stroke="#000000" d="M259.776,-108.7C247.7815,-108.7 240.3229,-108.7 223.5,-108.7"/>
<polygon fill="#000000" stroke="#000000" points="266.5,-108.7001 274.5,-112.3 270.5,-108.7 274.5,-108.7 274.5,-108.7 274.5,-108.7 270.5,-108.7 274.5,-105.1 266.5,-108.7001 266.5,-108.7001"/>
<ellipse fill="none" stroke="#000000" cx="263.3" cy="-108.7001" rx="3.2" ry="3.2"/>
</g>
</g>
</svg>
