<?xml version="1.0" encoding="UTF-8" standalone="no"?>
<!DOCTYPE svg PUBLIC "-//W3C//DTD SVG 1.1//EN"
 "http://www.w3.org/Graphics/SVG/1.1/DTD/svg11.dtd">
<!-- Generated by graphviz version 2.40.1 (20161225.0304)
 -->
<!-- Title: twoDegreesRelationshipsDiagram Pages: 1 -->
<svg width="572pt" height="305pt"
 viewBox="0.00 0.00 572.00 305.20" xmlns="http://www.w3.org/2000/svg" xmlns:xlink="http://www.w3.org/1999/xlink">
<g id="graph0" class="graph" transform="scale(1 1) rotate(0) translate(4 301.2)">
<title>twoDegreesRelationshipsDiagram</title>
<polygon fill="#ffffff" stroke="transparent" points="-4,4 -4,-301.2 568,-301.2 568,4 -4,4"/>
<text text-anchor="middle" x="72.4936" y="-7.3" font-family="Helvetica,sans-Serif" font-size="11.00" fill="#000000">Generated by SchemaSpy</text>
<!-- InvoiceLine -->
<g id="node1" class="node">
<title>InvoiceLine</title>
<g id="a_node1"><a xlink:href="../../tables/InvoiceLine.html" xlink:title="InvoiceLine" target="_top">
<polygon fill="#ffffff" stroke="transparent" points="435.5,-232.2 435.5,-293.2 550.5,-293.2 550.5,-232.2 435.5,-232.2"/>
<polygon fill="#f5f5f5" stroke="transparent" points="436,-269.7 436,-292.7 551,-292.7 551,-269.7 436,-269.7"/>
<polygon fill="none" stroke="#000000" points="436,-269.7 436,-292.7 551,-292.7 551,-269.7 436,-269.7"/>
<text text-anchor="start" x="441" y="-278.3" font-family="Helvetica,sans-Serif" font-weight="bold" font-size="11.00" fill="#000000">InvoiceLine</text>
<text text-anchor="start" x="516.5219" y="-277.8" font-family="Helvetica,sans-Serif" font-size="11.00" fill="#000000">[table]</text>
<polygon fill="none" stroke="#000000" points="436,-250.7 436,-269.7 551,-269.7 551,-250.7 436,-250.7"/>
<text text-anchor="start" x="439" y="-256.8" font-family="Helvetica,sans-Serif" font-size="11.00" fill="#000000">...</text>
<polygon fill="#ffffff" stroke="transparent" points="436,-231.7 436,-250.7 468,-250.7 468,-231.7 436,-231.7"/>
<polygon fill="none" stroke="#000000" points="436,-231.7 436,-250.7 468,-250.7 468,-231.7 436,-231.7"/>
<text text-anchor="start" x="439" y="-237.8" font-family="Helvetica,sans-Serif" font-size="11.00" fill="#000000">&lt; 2</text>
<polygon fill="#ffffff" stroke="transparent" points="468,-231.7 468,-250.7 533,-250.7 533,-231.7 468,-231.7"/>
<polygon fill="none" stroke="#000000" points="468,-231.7 468,-250.7 533,-250.7 533,-231.7 468,-231.7"/>
<text text-anchor="start" x="476.2089" y="-237.8" font-family="Helvetica,sans-Serif" font-size="11.00" fill="#000000">2,240 rows</text>
<polygon fill="#ffffff" stroke="transparent" points="533,-231.7 533,-250.7 551,-250.7 551,-231.7 533,-231.7"/>
<polygon fill="none" stroke="#000000" points="533,-231.7 533,-250.7 551,-250.7 551,-231.7 533,-231.7"/>
<text text-anchor="start" x="541.8862" y="-237.8" font-family="Helvetica,sans-Serif" font-size="11.00" fill="#000000"> &#160;</text>
</a>
</g>
</g>
<!-- Track -->
<g id="node2" class="node">
<title>Track</title>
<g id="a_node2"><a xlink:href="../../tables/Track.html" xlink:title="Track" target="_top">
<polygon fill="#ffffff" stroke="transparent" points="274,-104.2 274,-253.2 381,-253.2 381,-104.2 274,-104.2"/>
<polygon fill="#f5f5f5" stroke="transparent" points="274.5,-229.7 274.5,-252.7 381.5,-252.7 381.5,-229.7 274.5,-229.7"/>
<polygon fill="none" stroke="#000000" points="274.5,-229.7 274.5,-252.7 381.5,-252.7 381.5,-229.7 274.5,-229.7"/>
<text text-anchor="start" x="279.5" y="-238.3" font-family="Helvetica,sans-Serif" font-weight="bold" font-size="11.00" fill="#000000">Track</text>
<text text-anchor="start" x="346.5437" y="-237.8" font-family="Helvetica,sans-Serif" font-size="11.00" fill="#000000">[table]</text>
<polygon fill="none" stroke="#000000" points="274.5,-207.7 274.5,-229.7 381.5,-229.7 381.5,-207.7 274.5,-207.7"/>
<image xlink:href="../../images/primaryKeys.png" width="11px" height="12px" preserveAspectRatio="xMinYMin meet" x="279.5" y="-224.7"/>
<text text-anchor="start" x="294.5" y="-214.8" font-family="Helvetica,sans-Serif" font-size="11.00" fill="#000000">TrackId</text>
<polygon fill="#ffffff" stroke="transparent" points="274.5,-185.7 274.5,-207.7 381.5,-207.7 381.5,-185.7 274.5,-185.7"/>
<polygon fill="none" stroke="#000000" points="274.5,-185.7 274.5,-207.7 381.5,-207.7 381.5,-185.7 274.5,-185.7"/>
<image xlink:href="../../images/foreignKeys.png" width="11px" height="12px" preserveAspectRatio="xMinYMin meet" x="279.5" y="-202.7"/>
<text text-anchor="start" x="294.5" y="-192.8" font-family="Helvetica,sans-Serif" font-size="11.00" fill="#000000">AlbumId</text>
<polygon fill="#ffffff" stroke="transparent" points="274.5,-163.7 274.5,-185.7 381.5,-185.7 381.5,-163.7 274.5,-163.7"/>
<polygon fill="none" stroke="#000000" points="274.5,-163.7 274.5,-185.7 381.5,-185.7 381.5,-163.7 274.5,-163.7"/>
<image xlink:href="../../images/foreignKeys.png" width="11px" height="12px" preserveAspectRatio="xMinYMin meet" x="279.5" y="-180.7"/>
<text text-anchor="start" x="294.5" y="-170.8" font-family="Helvetica,sans-Serif" font-size="11.00" fill="#000000">MediaTypeId</text>
<polygon fill="#ffffff" stroke="transparent" points="274.5,-141.7 274.5,-163.7 381.5,-163.7 381.5,-141.7 274.5,-141.7"/>
<polygon fill="none" stroke="#000000" points="274.5,-141.7 274.5,-163.7 381.5,-163.7 381.5,-141.7 274.5,-141.7"/>
<image xlink:href="../../images/foreignKeys.png" width="11px" height="12px" preserveAspectRatio="xMinYMin meet" x="279.5" y="-158.7"/>
<text text-anchor="start" x="294.5" y="-148.8" font-family="Helvetica,sans-Serif" font-size="11.00" fill="#000000">GenreId</text>
<polygon fill="none" stroke="#000000" points="274.5,-122.7 274.5,-141.7 381.5,-141.7 381.5,-122.7 274.5,-122.7"/>
<text text-anchor="start" x="277.5" y="-128.8" font-family="Helvetica,sans-Serif" font-size="11.00" fill="#000000">...</text>
<polygon fill="#ffffff" stroke="transparent" points="274.5,-103.7 274.5,-122.7 298.5,-122.7 298.5,-103.7 274.5,-103.7"/>
<polygon fill="none" stroke="#000000" points="274.5,-103.7 274.5,-122.7 298.5,-122.7 298.5,-103.7 274.5,-103.7"/>
<text text-anchor="start" x="277.5" y="-109.8" font-family="Helvetica,sans-Serif" font-size="11.00" fill="#000000">&lt; 3</text>
<polygon fill="#ffffff" stroke="transparent" points="298.5,-103.7 298.5,-122.7 358.5,-122.7 358.5,-103.7 298.5,-103.7"/>
<polygon fill="none" stroke="#000000" points="298.5,-103.7 298.5,-122.7 358.5,-122.7 358.5,-103.7 298.5,-103.7"/>
<text text-anchor="start" x="301.7089" y="-109.8" font-family="Helvetica,sans-Serif" font-size="11.00" fill="#000000">3,503 rows</text>
<polygon fill="#ffffff" stroke="transparent" points="358.5,-103.7 358.5,-122.7 381.5,-122.7 381.5,-103.7 358.5,-103.7"/>
<polygon fill="none" stroke="#000000" points="358.5,-103.7 358.5,-122.7 381.5,-122.7 381.5,-103.7 358.5,-103.7"/>
<text text-anchor="start" x="362.9053" y="-109.8" font-family="Helvetica,sans-Serif" font-size="11.00" fill="#000000">2 &gt;</text>
</a>
</g>
</g>
<!-- InvoiceLine&#45;&gt;Track -->
<g id="edge1" class="edge">
<title>InvoiceLine:w&#45;&gt;Track:e</title>
<path fill="none" stroke="#000000" d="M421.8661,-255.6189C406.6905,-245.2484 405.891,-218.7 381.5,-218.7"/>
<polygon fill="#000000" stroke="#000000" points="428.314,-257.4806 435.0013,-263.1587 432.157,-258.5903 436,-259.7 436,-259.7 436,-259.7 432.157,-258.5903 436.9987,-256.2413 428.314,-257.4806 428.314,-257.4806"/>
<ellipse fill="none" stroke="#000000" cx="425.2396" cy="-256.5929" rx="3.2" ry="3.2"/>
</g>
<!-- Album -->
<g id="node4" class="node">
<title>Album</title>
<g id="a_node4"><a xlink:href="../../tables/Album.html" xlink:title="Album" target="_top">
<polygon fill="#ffffff" stroke="transparent" points="70.5,-232.2 70.5,-293.2 162.5,-293.2 162.5,-232.2 70.5,-232.2"/>
<polygon fill="#f5f5f5" stroke="transparent" points="70.5,-269.7 70.5,-292.7 162.5,-292.7 162.5,-269.7 70.5,-269.7"/>
<polygon fill="none" stroke="#000000" points="70.5,-269.7 70.5,-292.7 162.5,-292.7 162.5,-269.7 70.5,-269.7"/>
<text text-anchor="start" x="75.5" y="-278.3" font-family="Helvetica,sans-Serif" font-weight="bold" font-size="11.00" fill="#000000">Album</text>
<text text-anchor="start" x="127.5437" y="-277.8" font-family="Helvetica,sans-Serif" font-size="11.00" fill="#000000">[table]</text>
<polygon fill="none" stroke="#000000" points="70.5,-250.7 70.5,-269.7 162.5,-269.7 162.5,-250.7 70.5,-250.7"/>
<text text-anchor="start" x="73.5" y="-256.8" font-family="Helvetica,sans-Serif" font-size="11.00" fill="#000000">...</text>
<polygon fill="#ffffff" stroke="transparent" points="70.5,-231.7 70.5,-250.7 91.5,-250.7 91.5,-231.7 70.5,-231.7"/>
<polygon fill="none" stroke="#000000" points="70.5,-231.7 70.5,-250.7 91.5,-250.7 91.5,-231.7 70.5,-231.7"/>
<text text-anchor="start" x="73.2027" y="-237.8" font-family="Helvetica,sans-Serif" font-size="11.00" fill="#000000">&lt; 1</text>
<polygon fill="#ffffff" stroke="transparent" points="91.5,-231.7 91.5,-250.7 141.5,-250.7 141.5,-231.7 91.5,-231.7"/>
<polygon fill="none" stroke="#000000" points="91.5,-231.7 91.5,-250.7 141.5,-250.7 141.5,-231.7 91.5,-231.7"/>
<text text-anchor="start" x="94.1904" y="-237.8" font-family="Helvetica,sans-Serif" font-size="11.00" fill="#000000">347 rows</text>
<polygon fill="#ffffff" stroke="transparent" points="141.5,-231.7 141.5,-250.7 162.5,-250.7 162.5,-231.7 141.5,-231.7"/>
<polygon fill="none" stroke="#000000" points="141.5,-231.7 141.5,-250.7 162.5,-250.7 162.5,-231.7 141.5,-231.7"/>
<text text-anchor="start" x="144.2027" y="-237.8" font-family="Helvetica,sans-Serif" font-size="11.00" fill="#000000">1 &gt;</text>
</a>
</g>
</g>
<!-- Track&#45;&gt;Album -->
<g id="edge3" class="edge">
<title>Track:w&#45;&gt;Album:e</title>
<path fill="none" stroke="#000000" d="M260.303,-199.7009C250.8775,-204.4724 246.4441,-214.0331 233,-221.7 202.0794,-239.3333 198.0951,-259.7 162.5,-259.7"/>
<polygon fill="#000000" stroke="#000000" points="266.6729,-198.3545 275.2445,-200.2222 270.5865,-197.5272 274.5,-196.7 274.5,-196.7 274.5,-196.7 270.5865,-197.5272 273.7555,-193.1778 266.6729,-198.3545 266.6729,-198.3545"/>
<ellipse fill="none" stroke="#000000" cx="263.5421" cy="-199.0163" rx="3.2" ry="3.2"/>
</g>
<!-- Genre -->
<g id="node5" class="node">
<title>Genre</title>
<g id="a_node5"><a xlink:href="../../tables/Genre.html" xlink:title="Genre" target="_top">
<polygon fill="#ffffff" stroke="transparent" points="77,-38.2 77,-99.2 156,-99.2 156,-38.2 77,-38.2"/>
<polygon fill="#f5f5f5" stroke="transparent" points="77.5,-75.7 77.5,-98.7 156.5,-98.7 156.5,-75.7 77.5,-75.7"/>
<polygon fill="none" stroke="#000000" points="77.5,-75.7 77.5,-98.7 156.5,-98.7 156.5,-75.7 77.5,-75.7"/>
<text text-anchor="start" x="82.5" y="-84.3" font-family="Helvetica,sans-Serif" font-weight="bold" font-size="11.00" fill="#000000">Genre</text>
<text text-anchor="start" x="122.0219" y="-83.8" font-family="Helvetica,sans-Serif" font-size="11.00" fill="#000000">[table]</text>
<polygon fill="none" stroke="#000000" points="77.5,-56.7 77.5,-75.7 156.5,-75.7 156.5,-56.7 77.5,-56.7"/>
<text text-anchor="start" x="80.5" y="-62.8" font-family="Helvetica,sans-Serif" font-size="11.00" fill="#000000">...</text>
<polygon fill="#ffffff" stroke="transparent" points="77.5,-37.7 77.5,-56.7 90.5,-56.7 90.5,-37.7 77.5,-37.7"/>
<polygon fill="none" stroke="#000000" points="77.5,-37.7 77.5,-56.7 90.5,-56.7 90.5,-37.7 77.5,-37.7"/>
<text text-anchor="start" x="80.5" y="-43.8" font-family="Helvetica,sans-Serif" font-size="11.00" fill="#000000"> &#160;</text>
<polygon fill="#ffffff" stroke="transparent" points="90.5,-37.7 90.5,-56.7 134.5,-56.7 134.5,-37.7 90.5,-37.7"/>
<polygon fill="none" stroke="#000000" points="90.5,-37.7 90.5,-56.7 134.5,-56.7 134.5,-37.7 90.5,-37.7"/>
<text text-anchor="start" x="93.2478" y="-43.8" font-family="Helvetica,sans-Serif" font-size="11.00" fill="#000000">25 rows</text>
<polygon fill="#ffffff" stroke="transparent" points="134.5,-37.7 134.5,-56.7 156.5,-56.7 156.5,-37.7 134.5,-37.7"/>
<polygon fill="none" stroke="#000000" points="134.5,-37.7 134.5,-56.7 156.5,-56.7 156.5,-37.7 134.5,-37.7"/>
<text text-anchor="start" x="137.9053" y="-43.8" font-family="Helvetica,sans-Serif" font-size="11.00" fill="#000000">1 &gt;</text>
</a>
</g>
</g>
<!-- Track&#45;&gt;Genre -->
<g id="edge4" class="edge">
<title>Track:w&#45;&gt;Genre:e</title>
<path fill="none" stroke="#000000" d="M260.4248,-148.7824C249.2729,-140.7693 249.0326,-122.2087 233,-109.7 202.0759,-85.5729 195.7227,-65.7 156.5,-65.7"/>
<polygon fill="#000000" stroke="#000000" points="266.793,-150.5548 273.5347,-156.1682 270.6465,-151.6274 274.5,-152.7 274.5,-152.7 274.5,-152.7 270.6465,-151.6274 275.4653,-149.2318 266.793,-150.5548 266.793,-150.5548"/>
<ellipse fill="none" stroke="#000000" cx="263.7101" cy="-149.6968" rx="3.2" ry="3.2"/>
</g>
<!-- MediaType -->
<g id="node6" class="node">
<title>MediaType</title>
<g id="a_node6"><a xlink:href="../../tables/MediaType.html" xlink:title="MediaType" target="_top">
<polygon fill="#ffffff" stroke="transparent" points="8,-120.7 8,-210.7 225,-210.7 225,-120.7 8,-120.7"/>
<polygon fill="#f5f5f5" stroke="transparent" points="10.5,-185.7 10.5,-208.7 223.5,-208.7 223.5,-185.7 10.5,-185.7"/>
<polygon fill="none" stroke="#000000" points="10.5,-185.7 10.5,-208.7 223.5,-208.7 223.5,-185.7 10.5,-185.7"/>
<text text-anchor="start" x="15.5" y="-194.3" font-family="Helvetica,sans-Serif" font-weight="bold" font-size="11.00" fill="#000000">MediaType</text>
<text text-anchor="start" x="188.5437" y="-193.8" font-family="Helvetica,sans-Serif" font-size="11.00" fill="#000000">[table]</text>
<polygon fill="none" stroke="#000000" points="10.5,-163.7 10.5,-185.7 117.5,-185.7 117.5,-163.7 10.5,-163.7"/>
<image xlink:href="../../images/primaryKeys.png" width="11px" height="12px" preserveAspectRatio="xMinYMin meet" x="15.5" y="-180.7"/>
<text text-anchor="start" x="30.5" y="-170.8" font-family="Helvetica,sans-Serif" font-size="11.00" fill="#000000">MediaTypeId</text>
<polygon fill="none" stroke="#000000" points="117.5,-163.7 117.5,-185.7 223.5,-185.7 223.5,-163.7 117.5,-163.7"/>
<text text-anchor="start" x="120.059" y="-171.4" font-family="Helvetica,sans-Serif" font-size="11.00" fill="#000000">integer[2000000000]</text>
<polygon fill="none" stroke="#000000" points="10.5,-141.7 10.5,-163.7 117.5,-163.7 117.5,-141.7 10.5,-141.7"/>
<text text-anchor="start" x="30.5" y="-148.8" font-family="Helvetica,sans-Serif" font-size="11.00" fill="#000000">Name</text>
<polygon fill="none" stroke="#000000" points="117.5,-141.7 117.5,-163.7 223.5,-163.7 223.5,-141.7 117.5,-141.7"/>
<text text-anchor="start" x="120.5" y="-149.4" font-family="Helvetica,sans-Serif" font-size="11.00" fill="#000000">nvarchar[120]</text>
<polygon fill="#ffffff" stroke="transparent" points="10.5,-122.7 10.5,-141.7 55.5,-141.7 55.5,-122.7 10.5,-122.7"/>
<polygon fill="none" stroke="#000000" points="10.5,-122.7 10.5,-141.7 55.5,-141.7 55.5,-122.7 10.5,-122.7"/>
<text text-anchor="start" x="13.5" y="-128.8" font-family="Helvetica,sans-Serif" font-size="11.00" fill="#000000">&lt; 0</text>
<polygon fill="#ffffff" stroke="transparent" points="55.5,-122.7 55.5,-141.7 117.5,-141.7 117.5,-122.7 55.5,-122.7"/>
<polygon fill="none" stroke="#000000" points="55.5,-122.7 55.5,-141.7 117.5,-141.7 117.5,-122.7 55.5,-122.7"/>
<text text-anchor="start" x="82.1105" y="-128.8" font-family="Helvetica,sans-Serif" font-size="11.00" fill="#000000">5 rows</text>
<polygon fill="#ffffff" stroke="transparent" points="117.5,-122.7 117.5,-141.7 223.5,-141.7 223.5,-122.7 117.5,-122.7"/>
<polygon fill="none" stroke="#000000" points="117.5,-122.7 117.5,-141.7 223.5,-141.7 223.5,-122.7 117.5,-122.7"/>
<text text-anchor="start" x="204.9053" y="-128.8" font-family="Helvetica,sans-Serif" font-size="11.00" fill="#000000">1 &gt;</text>
<polygon fill="none" stroke="#000000" stroke-width="2" points="9,-121.7 9,-209.7 224,-209.7 224,-121.7 9,-121.7"/>
</a>
</g>
</g>
<!-- Track&#45;&gt;MediaType -->
<g id="edge5" class="edge">
<title>Track:w&#45;&gt;MediaType:e</title>
<path fill="none" stroke="#000000" d="M259.776,-174.7C247.7815,-174.7 240.3229,-174.7 223.5,-174.7"/>
<polygon fill="#000000" stroke="#000000" points="266.5,-174.7001 274.5,-178.3 270.5,-174.7 274.5,-174.7 274.5,-174.7 274.5,-174.7 270.5,-174.7 274.5,-171.1 266.5,-174.7001 266.5,-174.7001"/>
<ellipse fill="none" stroke="#000000" cx="263.3" cy="-174.7001" rx="3.2" ry="3.2"/>
</g>
<!-- PlaylistTrack -->
<g id="node3" class="node">
<title>PlaylistTrack</title>
<g id="a_node3"><a xlink:href="../../tables/PlaylistTrack.html" xlink:title="PlaylistTrack" target="_top">
<polygon fill="#ffffff" stroke="transparent" points="430,-150.2 430,-211.2 556,-211.2 556,-150.2 430,-150.2"/>
<polygon fill="#f5f5f5" stroke="transparent" points="430,-187.7 430,-210.7 556,-210.7 556,-187.7 430,-187.7"/>
<polygon fill="none" stroke="#000000" points="430,-187.7 430,-210.7 556,-210.7 556,-187.7 430,-187.7"/>
<text text-anchor="start" x="435" y="-196.3" font-family="Helvetica,sans-Serif" font-weight="bold" font-size="11.00" fill="#000000">PlaylistTrack</text>
<text text-anchor="start" x="521.5219" y="-195.8" font-family="Helvetica,sans-Serif" font-size="11.00" fill="#000000">[table]</text>
<polygon fill="none" stroke="#000000" points="430,-168.7 430,-187.7 556,-187.7 556,-168.7 430,-168.7"/>
<text text-anchor="start" x="433" y="-174.8" font-family="Helvetica,sans-Serif" font-size="11.00" fill="#000000">...</text>
<polygon fill="#ffffff" stroke="transparent" points="430,-149.7 430,-168.7 468,-168.7 468,-149.7 430,-149.7"/>
<polygon fill="none" stroke="#000000" points="430,-149.7 430,-168.7 468,-168.7 468,-149.7 430,-149.7"/>
<text text-anchor="start" x="433" y="-155.8" font-family="Helvetica,sans-Serif" font-size="11.00" fill="#000000">&lt; 2</text>
<polygon fill="#ffffff" stroke="transparent" points="468,-149.7 468,-168.7 535,-168.7 535,-149.7 468,-149.7"/>
<polygon fill="none" stroke="#000000" points="468,-149.7 468,-168.7 535,-168.7 535,-149.7 468,-149.7"/>
<text text-anchor="start" x="478.2089" y="-155.8" font-family="Helvetica,sans-Serif" font-size="11.00" fill="#000000">8,715 rows</text>
<polygon fill="#ffffff" stroke="transparent" points="535,-149.7 535,-168.7 556,-168.7 556,-149.7 535,-149.7"/>
<polygon fill="none" stroke="#000000" points="535,-149.7 535,-168.7 556,-168.7 556,-149.7 535,-149.7"/>
<text text-anchor="start" x="546.8862" y="-155.8" font-family="Helvetica,sans-Serif" font-size="11.00" fill="#000000"> &#160;</text>
</a>
</g>
</g>
<!-- PlaylistTrack&#45;&gt;Track -->
<g id="edge2" class="edge">
<title>PlaylistTrack:w&#45;&gt;Track:e</title>
<path fill="none" stroke="#000000" d="M416.2884,-182.4032C403.5191,-193.1726 403.7719,-218.7 381.5,-218.7"/>
<polygon fill="#000000" stroke="#000000" points="422.4328,-180.2957 431.1681,-181.1052 426.2164,-178.9978 430,-177.7 430,-177.7 430,-177.7 426.2164,-178.9978 428.8319,-174.2948 422.4328,-180.2957 422.4328,-180.2957"/>
<ellipse fill="none" stroke="#000000" cx="419.4059" cy="-181.3339" rx="3.2" ry="3.2"/>
</g>
</g>
</svg>
