<?xml version="1.0" encoding="UTF-8" standalone="no"?>
<!DOCTYPE svg PUBLIC "-//W3C//DTD SVG 1.1//EN"
 "http://www.w3.org/Graphics/SVG/1.1/DTD/svg11.dtd">
<!-- Generated by graphviz version 2.40.1 (20161225.0304)
 -->
<!-- Title: twoDegreesRelationshipsDiagram Pages: 1 -->
<svg width="392pt" height="223pt"
 viewBox="0.00 0.00 392.00 222.70" xmlns="http://www.w3.org/2000/svg" xmlns:xlink="http://www.w3.org/1999/xlink">
<g id="graph0" class="graph" transform="scale(1 1) rotate(0) translate(4 218.7)">
<title>twoDegreesRelationshipsDiagram</title>
<polygon fill="#ffffff" stroke="transparent" points="-4,4 -4,-218.7 388,-218.7 388,4 -4,4"/>
<text text-anchor="middle" x="72.4936" y="-7.3" font-family="Helvetica,sans-Serif" font-size="11.00" fill="#000000">Generated by SchemaSpy</text>
<!-- PlaylistTrack -->
<g id="node1" class="node">
<title>PlaylistTrack</title>
<g id="a_node1"><a xlink:href="../../tables/PlaylistTrack.html" xlink:title="PlaylistTrack" target="_top">
<polygon fill="#ffffff" stroke="transparent" points="250,-78.7 250,-164.7 376,-164.7 376,-78.7 250,-78.7"/>
<polygon fill="#f5f5f5" stroke="transparent" points="250,-141.7 250,-164.7 376,-164.7 376,-141.7 250,-141.7"/>
<polygon fill="none" stroke="#000000" points="250,-141.7 250,-164.7 376,-164.7 376,-141.7 250,-141.7"/>
<text text-anchor="start" x="255" y="-150.3" font-family="Helvetica,sans-Serif" font-weight="bold" font-size="11.00" fill="#000000">PlaylistTrack</text>
<text text-anchor="start" x="341.5219" y="-149.8" font-family="Helvetica,sans-Serif" font-size="11.00" fill="#000000">[table]</text>
<polygon fill="none" stroke="#000000" points="250,-119.7 250,-141.7 376,-141.7 376,-119.7 250,-119.7"/>
<image xlink:href="../../images/primaryKeys.png" width="11px" height="12px" preserveAspectRatio="xMinYMin meet" x="255" y="-136.7"/>
<text text-anchor="start" x="279" y="-126.8" font-family="Helvetica,sans-Serif" font-size="11.00" fill="#000000">PlaylistId</text>
<polygon fill="none" stroke="#000000" points="250,-97.7 250,-119.7 376,-119.7 376,-97.7 250,-97.7"/>
<image xlink:href="../../images/primaryKeys.png" width="11px" height="12px" preserveAspectRatio="xMinYMin meet" x="255" y="-114.7"/>
<text text-anchor="start" x="279" y="-104.8" font-family="Helvetica,sans-Serif" font-size="11.00" fill="#000000">TrackId</text>
<polygon fill="#ffffff" stroke="transparent" points="250,-78.7 250,-97.7 288,-97.7 288,-78.7 250,-78.7"/>
<polygon fill="none" stroke="#000000" points="250,-78.7 250,-97.7 288,-97.7 288,-78.7 250,-78.7"/>
<text text-anchor="start" x="253" y="-84.8" font-family="Helvetica,sans-Serif" font-size="11.00" fill="#000000">&lt; 2</text>
<polygon fill="#ffffff" stroke="transparent" points="288,-78.7 288,-97.7 355,-97.7 355,-78.7 288,-78.7"/>
<polygon fill="none" stroke="#000000" points="288,-78.7 288,-97.7 355,-97.7 355,-78.7 288,-78.7"/>
<text text-anchor="start" x="298.2089" y="-84.8" font-family="Helvetica,sans-Serif" font-size="11.00" fill="#000000">8,715 rows</text>
<polygon fill="#ffffff" stroke="transparent" points="355,-78.7 355,-97.7 376,-97.7 376,-78.7 355,-78.7"/>
<polygon fill="none" stroke="#000000" points="355,-78.7 355,-97.7 376,-97.7 376,-78.7 355,-78.7"/>
<text text-anchor="start" x="366.8862" y="-84.8" font-family="Helvetica,sans-Serif" font-size="11.00" fill="#000000"> &#160;</text>
</a>
</g>
</g>
<!-- Playlist -->
<g id="node2" class="node">
<title>Playlist</title>
<g id="a_node2"><a xlink:href="../../tables/Playlist.html" xlink:title="Playlist" target="_top">
<polygon fill="#ffffff" stroke="transparent" points="8,-120.7 8,-210.7 201,-210.7 201,-120.7 8,-120.7"/>
<polygon fill="#f5f5f5" stroke="transparent" points="10.5,-185.7 10.5,-208.7 199.5,-208.7 199.5,-185.7 10.5,-185.7"/>
<polygon fill="none" stroke="#000000" points="10.5,-185.7 10.5,-208.7 199.5,-208.7 199.5,-185.7 10.5,-185.7"/>
<text text-anchor="start" x="15.5" y="-194.3" font-family="Helvetica,sans-Serif" font-weight="bold" font-size="11.00" fill="#000000">Playlist</text>
<text text-anchor="start" x="164.5437" y="-193.8" font-family="Helvetica,sans-Serif" font-size="11.00" fill="#000000">[table]</text>
<polygon fill="none" stroke="#000000" points="10.5,-163.7 10.5,-185.7 93.5,-185.7 93.5,-163.7 10.5,-163.7"/>
<image xlink:href="../../images/primaryKeys.png" width="11px" height="12px" preserveAspectRatio="xMinYMin meet" x="15.5" y="-180.7"/>
<text text-anchor="start" x="30.5" y="-170.8" font-family="Helvetica,sans-Serif" font-size="11.00" fill="#000000">PlaylistId</text>
<polygon fill="none" stroke="#000000" points="93.5,-163.7 93.5,-185.7 199.5,-185.7 199.5,-163.7 93.5,-163.7"/>
<text text-anchor="start" x="96.059" y="-171.4" font-family="Helvetica,sans-Serif" font-size="11.00" fill="#000000">integer[2000000000]</text>
<polygon fill="none" stroke="#000000" points="10.5,-141.7 10.5,-163.7 93.5,-163.7 93.5,-141.7 10.5,-141.7"/>
<text text-anchor="start" x="30.5" y="-148.8" font-family="Helvetica,sans-Serif" font-size="11.00" fill="#000000">Name</text>
<polygon fill="none" stroke="#000000" points="93.5,-141.7 93.5,-163.7 199.5,-163.7 199.5,-141.7 93.5,-141.7"/>
<text text-anchor="start" x="96.5" y="-149.4" font-family="Helvetica,sans-Serif" font-size="11.00" fill="#000000">nvarchar[120]</text>
<polygon fill="#ffffff" stroke="transparent" points="10.5,-122.7 10.5,-141.7 40.5,-141.7 40.5,-122.7 10.5,-122.7"/>
<polygon fill="none" stroke="#000000" points="10.5,-122.7 10.5,-141.7 40.5,-141.7 40.5,-122.7 10.5,-122.7"/>
<text text-anchor="start" x="13.5" y="-128.8" font-family="Helvetica,sans-Serif" font-size="11.00" fill="#000000">&lt; 0</text>
<polygon fill="#ffffff" stroke="transparent" points="40.5,-122.7 40.5,-141.7 93.5,-141.7 93.5,-122.7 40.5,-122.7"/>
<polygon fill="none" stroke="#000000" points="40.5,-122.7 40.5,-141.7 93.5,-141.7 93.5,-122.7 40.5,-122.7"/>
<text text-anchor="start" x="51.9956" y="-128.8" font-family="Helvetica,sans-Serif" font-size="11.00" fill="#000000">18 rows</text>
<polygon fill="#ffffff" stroke="transparent" points="93.5,-122.7 93.5,-141.7 199.5,-141.7 199.5,-122.7 93.5,-122.7"/>
<polygon fill="none" stroke="#000000" points="93.5,-122.7 93.5,-141.7 199.5,-141.7 199.5,-122.7 93.5,-122.7"/>
<text text-anchor="start" x="180.9053" y="-128.8" font-family="Helvetica,sans-Serif" font-size="11.00" fill="#000000">1 &gt;</text>
<polygon fill="none" stroke="#000000" stroke-width="2" points="9,-121.7 9,-209.7 200,-209.7 200,-121.7 9,-121.7"/>
</a>
</g>
</g>
<!-- PlaylistTrack&#45;&gt;Playlist -->
<g id="edge1" class="edge">
<title>PlaylistTrack:w&#45;&gt;Playlist:e</title>
<path fill="none" stroke="#000000" d="M236.0126,-135.4088C222.3016,-146.7596 223.2219,-174.7 199.5,-174.7"/>
<polygon fill="#000000" stroke="#000000" points="242.4181,-133.2524 251.1486,-134.1119 246.209,-131.9762 250,-130.7 250,-130.7 250,-130.7 246.209,-131.9762 248.8514,-127.2881 242.4181,-133.2524 242.4181,-133.2524"/>
<ellipse fill="none" stroke="#000000" cx="239.3853" cy="-134.2734" rx="3.2" ry="3.2"/>
</g>
<!-- Track -->
<g id="node3" class="node">
<title>Track</title>
<g id="a_node3"><a xlink:href="../../tables/Track.html" xlink:title="Track" target="_top">
<polygon fill="#ffffff" stroke="transparent" points="54,-38.2 54,-99.2 155,-99.2 155,-38.2 54,-38.2"/>
<polygon fill="#f5f5f5" stroke="transparent" points="54.5,-75.7 54.5,-98.7 155.5,-98.7 155.5,-75.7 54.5,-75.7"/>
<polygon fill="none" stroke="#000000" points="54.5,-75.7 54.5,-98.7 155.5,-98.7 155.5,-75.7 54.5,-75.7"/>
<text text-anchor="start" x="59.5" y="-84.3" font-family="Helvetica,sans-Serif" font-weight="bold" font-size="11.00" fill="#000000">Track</text>
<text text-anchor="start" x="120.5437" y="-83.8" font-family="Helvetica,sans-Serif" font-size="11.00" fill="#000000">[table]</text>
<polygon fill="none" stroke="#000000" points="54.5,-56.7 54.5,-75.7 155.5,-75.7 155.5,-56.7 54.5,-56.7"/>
<text text-anchor="start" x="57.5" y="-62.8" font-family="Helvetica,sans-Serif" font-size="11.00" fill="#000000">...</text>
<polygon fill="#ffffff" stroke="transparent" points="54.5,-37.7 54.5,-56.7 75.5,-56.7 75.5,-37.7 54.5,-37.7"/>
<polygon fill="none" stroke="#000000" points="54.5,-37.7 54.5,-56.7 75.5,-56.7 75.5,-37.7 54.5,-37.7"/>
<text text-anchor="start" x="57.2027" y="-43.8" font-family="Helvetica,sans-Serif" font-size="11.00" fill="#000000">&lt; 3</text>
<polygon fill="#ffffff" stroke="transparent" points="75.5,-37.7 75.5,-56.7 134.5,-56.7 134.5,-37.7 75.5,-37.7"/>
<polygon fill="none" stroke="#000000" points="75.5,-37.7 75.5,-56.7 134.5,-56.7 134.5,-37.7 75.5,-37.7"/>
<text text-anchor="start" x="78.1045" y="-43.8" font-family="Helvetica,sans-Serif" font-size="11.00" fill="#000000">3,503 rows</text>
<polygon fill="#ffffff" stroke="transparent" points="134.5,-37.7 134.5,-56.7 155.5,-56.7 155.5,-37.7 134.5,-37.7"/>
<polygon fill="none" stroke="#000000" points="134.5,-37.7 134.5,-56.7 155.5,-56.7 155.5,-37.7 134.5,-37.7"/>
<text text-anchor="start" x="137.2027" y="-43.8" font-family="Helvetica,sans-Serif" font-size="11.00" fill="#000000">2 &gt;</text>
</a>
</g>
</g>
<!-- PlaylistTrack&#45;&gt;Track -->
<g id="edge2" class="edge">
<title>PlaylistTrack:w&#45;&gt;Track:e</title>
<path fill="none" stroke="#000000" d="M235.4461,-107.0669C202.7345,-99.2124 196.2362,-65.7 155.5,-65.7"/>
<polygon fill="#000000" stroke="#000000" points="242.0499,-107.8078 249.5985,-112.2775 246.0249,-108.2539 250,-108.7 250,-108.7 250,-108.7 246.0249,-108.2539 250.4015,-105.1225 242.0499,-107.8078 242.0499,-107.8078"/>
<ellipse fill="none" stroke="#000000" cx="238.8699" cy="-107.451" rx="3.2" ry="3.2"/>
</g>
</g>
</svg>
