<?xml version="1.0" encoding="UTF-8" standalone="no"?>
<!DOCTYPE svg PUBLIC "-//W3C//DTD SVG 1.1//EN"
 "http://www.w3.org/Graphics/SVG/1.1/DTD/svg11.dtd">
<!-- Generated by graphviz version 2.40.1 (20161225.0304)
 -->
<!-- Title: twoDegreesRelationshipsDiagram Pages: 1 -->
<svg width="559pt" height="346pt"
 viewBox="0.00 0.00 559.00 345.70" xmlns="http://www.w3.org/2000/svg" xmlns:xlink="http://www.w3.org/1999/xlink">
<g id="graph0" class="graph" transform="scale(1 1) rotate(0) translate(4 341.7)">
<title>twoDegreesRelationshipsDiagram</title>
<polygon fill="#ffffff" stroke="transparent" points="-4,4 -4,-341.7 555,-341.7 555,4 -4,4"/>
<text text-anchor="middle" x="72.4936" y="-7.3" font-family="Helvetica,sans-Serif" font-size="11.00" fill="#000000">Generated by SchemaSpy</text>
<!-- InvoiceLine -->
<g id="node1" class="node">
<title>InvoiceLine</title>
<g id="a_node1"><a xlink:href="../../tables/InvoiceLine.html" xlink:title="InvoiceLine" target="_top">
<polygon fill="#ffffff" stroke="transparent" points="376.5,-161.2 376.5,-222.2 491.5,-222.2 491.5,-161.2 376.5,-161.2"/>
<polygon fill="#f5f5f5" stroke="transparent" points="377,-198.7 377,-221.7 492,-221.7 492,-198.7 377,-198.7"/>
<polygon fill="none" stroke="#000000" points="377,-198.7 377,-221.7 492,-221.7 492,-198.7 377,-198.7"/>
<text text-anchor="start" x="382" y="-207.3" font-family="Helvetica,sans-Serif" font-weight="bold" font-size="11.00" fill="#000000">InvoiceLine</text>
<text text-anchor="start" x="457.5219" y="-206.8" font-family="Helvetica,sans-Serif" font-size="11.00" fill="#000000">[table]</text>
<polygon fill="none" stroke="#000000" points="377,-179.7 377,-198.7 492,-198.7 492,-179.7 377,-179.7"/>
<text text-anchor="start" x="380" y="-185.8" font-family="Helvetica,sans-Serif" font-size="11.00" fill="#000000">...</text>
<polygon fill="#ffffff" stroke="transparent" points="377,-160.7 377,-179.7 409,-179.7 409,-160.7 377,-160.7"/>
<polygon fill="none" stroke="#000000" points="377,-160.7 377,-179.7 409,-179.7 409,-160.7 377,-160.7"/>
<text text-anchor="start" x="380" y="-166.8" font-family="Helvetica,sans-Serif" font-size="11.00" fill="#000000">&lt; 2</text>
<polygon fill="#ffffff" stroke="transparent" points="409,-160.7 409,-179.7 474,-179.7 474,-160.7 409,-160.7"/>
<polygon fill="none" stroke="#000000" points="409,-160.7 409,-179.7 474,-179.7 474,-160.7 409,-160.7"/>
<text text-anchor="start" x="417.2089" y="-166.8" font-family="Helvetica,sans-Serif" font-size="11.00" fill="#000000">2,240 rows</text>
<polygon fill="#ffffff" stroke="transparent" points="474,-160.7 474,-179.7 492,-179.7 492,-160.7 474,-160.7"/>
<polygon fill="none" stroke="#000000" points="474,-160.7 474,-179.7 492,-179.7 492,-160.7 474,-160.7"/>
<text text-anchor="start" x="482.8862" y="-166.8" font-family="Helvetica,sans-Serif" font-size="11.00" fill="#000000"> &#160;</text>
</a>
</g>
</g>
<!-- Track -->
<g id="node2" class="node">
<title>Track</title>
<g id="a_node2"><a xlink:href="../../tables/Track.html" xlink:title="Track" target="_top">
<polygon fill="#ffffff" stroke="transparent" points="169,-77.2 169,-226.2 276,-226.2 276,-77.2 169,-77.2"/>
<polygon fill="#f5f5f5" stroke="transparent" points="169.5,-202.7 169.5,-225.7 276.5,-225.7 276.5,-202.7 169.5,-202.7"/>
<polygon fill="none" stroke="#000000" points="169.5,-202.7 169.5,-225.7 276.5,-225.7 276.5,-202.7 169.5,-202.7"/>
<text text-anchor="start" x="174.5" y="-211.3" font-family="Helvetica,sans-Serif" font-weight="bold" font-size="11.00" fill="#000000">Track</text>
<text text-anchor="start" x="241.5437" y="-210.8" font-family="Helvetica,sans-Serif" font-size="11.00" fill="#000000">[table]</text>
<polygon fill="none" stroke="#000000" points="169.5,-180.7 169.5,-202.7 276.5,-202.7 276.5,-180.7 169.5,-180.7"/>
<image xlink:href="../../images/primaryKeys.png" width="11px" height="12px" preserveAspectRatio="xMinYMin meet" x="174.5" y="-197.7"/>
<text text-anchor="start" x="189.5" y="-187.8" font-family="Helvetica,sans-Serif" font-size="11.00" fill="#000000">TrackId</text>
<polygon fill="#ffffff" stroke="transparent" points="169.5,-158.7 169.5,-180.7 276.5,-180.7 276.5,-158.7 169.5,-158.7"/>
<polygon fill="none" stroke="#000000" points="169.5,-158.7 169.5,-180.7 276.5,-180.7 276.5,-158.7 169.5,-158.7"/>
<image xlink:href="../../images/foreignKeys.png" width="11px" height="12px" preserveAspectRatio="xMinYMin meet" x="174.5" y="-175.7"/>
<text text-anchor="start" x="189.5" y="-165.8" font-family="Helvetica,sans-Serif" font-size="11.00" fill="#000000">AlbumId</text>
<polygon fill="#ffffff" stroke="transparent" points="169.5,-136.7 169.5,-158.7 276.5,-158.7 276.5,-136.7 169.5,-136.7"/>
<polygon fill="none" stroke="#000000" points="169.5,-136.7 169.5,-158.7 276.5,-158.7 276.5,-136.7 169.5,-136.7"/>
<image xlink:href="../../images/foreignKeys.png" width="11px" height="12px" preserveAspectRatio="xMinYMin meet" x="174.5" y="-153.7"/>
<text text-anchor="start" x="189.5" y="-143.8" font-family="Helvetica,sans-Serif" font-size="11.00" fill="#000000">MediaTypeId</text>
<polygon fill="#ffffff" stroke="transparent" points="169.5,-114.7 169.5,-136.7 276.5,-136.7 276.5,-114.7 169.5,-114.7"/>
<polygon fill="none" stroke="#000000" points="169.5,-114.7 169.5,-136.7 276.5,-136.7 276.5,-114.7 169.5,-114.7"/>
<image xlink:href="../../images/foreignKeys.png" width="11px" height="12px" preserveAspectRatio="xMinYMin meet" x="174.5" y="-131.7"/>
<text text-anchor="start" x="189.5" y="-121.8" font-family="Helvetica,sans-Serif" font-size="11.00" fill="#000000">GenreId</text>
<polygon fill="none" stroke="#000000" points="169.5,-95.7 169.5,-114.7 276.5,-114.7 276.5,-95.7 169.5,-95.7"/>
<text text-anchor="start" x="172.5" y="-101.8" font-family="Helvetica,sans-Serif" font-size="11.00" fill="#000000">...</text>
<polygon fill="#ffffff" stroke="transparent" points="169.5,-76.7 169.5,-95.7 193.5,-95.7 193.5,-76.7 169.5,-76.7"/>
<polygon fill="none" stroke="#000000" points="169.5,-76.7 169.5,-95.7 193.5,-95.7 193.5,-76.7 169.5,-76.7"/>
<text text-anchor="start" x="172.5" y="-82.8" font-family="Helvetica,sans-Serif" font-size="11.00" fill="#000000">&lt; 3</text>
<polygon fill="#ffffff" stroke="transparent" points="193.5,-76.7 193.5,-95.7 253.5,-95.7 253.5,-76.7 193.5,-76.7"/>
<polygon fill="none" stroke="#000000" points="193.5,-76.7 193.5,-95.7 253.5,-95.7 253.5,-76.7 193.5,-76.7"/>
<text text-anchor="start" x="196.7089" y="-82.8" font-family="Helvetica,sans-Serif" font-size="11.00" fill="#000000">3,503 rows</text>
<polygon fill="#ffffff" stroke="transparent" points="253.5,-76.7 253.5,-95.7 276.5,-95.7 276.5,-76.7 253.5,-76.7"/>
<polygon fill="none" stroke="#000000" points="253.5,-76.7 253.5,-95.7 276.5,-95.7 276.5,-76.7 253.5,-76.7"/>
<text text-anchor="start" x="257.9053" y="-82.8" font-family="Helvetica,sans-Serif" font-size="11.00" fill="#000000">2 &gt;</text>
</a>
</g>
</g>
<!-- InvoiceLine&#45;&gt;Track -->
<g id="edge1" class="edge">
<title>InvoiceLine:w&#45;&gt;Track:e</title>
<path fill="none" stroke="#000000" d="M362.5645,-188.8139C329.2447,-189.3619 315.9499,-191.7 276.5,-191.7"/>
<polygon fill="#000000" stroke="#000000" points="369.0002,-188.7632 377.0284,-192.2999 373.0001,-188.7316 377,-188.7 377,-188.7 377,-188.7 373.0001,-188.7316 376.9716,-185.1001 369.0002,-188.7632 369.0002,-188.7632"/>
<ellipse fill="none" stroke="#000000" cx="365.8003" cy="-188.7885" rx="3.2" ry="3.2"/>
</g>
<!-- Album -->
<g id="node5" class="node">
<title>Album</title>
<g id="a_node5"><a xlink:href="../../tables/Album.html" xlink:title="Album" target="_top">
<polygon fill="#ffffff" stroke="transparent" points="18,-202.2 18,-263.2 110,-263.2 110,-202.2 18,-202.2"/>
<polygon fill="#f5f5f5" stroke="transparent" points="18,-239.7 18,-262.7 110,-262.7 110,-239.7 18,-239.7"/>
<polygon fill="none" stroke="#000000" points="18,-239.7 18,-262.7 110,-262.7 110,-239.7 18,-239.7"/>
<text text-anchor="start" x="23" y="-248.3" font-family="Helvetica,sans-Serif" font-weight="bold" font-size="11.00" fill="#000000">Album</text>
<text text-anchor="start" x="75.0437" y="-247.8" font-family="Helvetica,sans-Serif" font-size="11.00" fill="#000000">[table]</text>
<polygon fill="none" stroke="#000000" points="18,-220.7 18,-239.7 110,-239.7 110,-220.7 18,-220.7"/>
<text text-anchor="start" x="21" y="-226.8" font-family="Helvetica,sans-Serif" font-size="11.00" fill="#000000">...</text>
<polygon fill="#ffffff" stroke="transparent" points="18,-201.7 18,-220.7 39,-220.7 39,-201.7 18,-201.7"/>
<polygon fill="none" stroke="#000000" points="18,-201.7 18,-220.7 39,-220.7 39,-201.7 18,-201.7"/>
<text text-anchor="start" x="20.7026" y="-207.8" font-family="Helvetica,sans-Serif" font-size="11.00" fill="#000000">&lt; 1</text>
<polygon fill="#ffffff" stroke="transparent" points="39,-201.7 39,-220.7 89,-220.7 89,-201.7 39,-201.7"/>
<polygon fill="none" stroke="#000000" points="39,-201.7 39,-220.7 89,-220.7 89,-201.7 39,-201.7"/>
<text text-anchor="start" x="41.6903" y="-207.8" font-family="Helvetica,sans-Serif" font-size="11.00" fill="#000000">347 rows</text>
<polygon fill="#ffffff" stroke="transparent" points="89,-201.7 89,-220.7 110,-220.7 110,-201.7 89,-201.7"/>
<polygon fill="none" stroke="#000000" points="89,-201.7 89,-220.7 110,-220.7 110,-201.7 89,-201.7"/>
<text text-anchor="start" x="91.7027" y="-207.8" font-family="Helvetica,sans-Serif" font-size="11.00" fill="#000000">1 &gt;</text>
</a>
</g>
</g>
<!-- Track&#45;&gt;Album -->
<g id="edge4" class="edge">
<title>Track:w&#45;&gt;Album:e</title>
<path fill="none" stroke="#000000" d="M155.3842,-173.6368C135.5249,-186.9852 141.6875,-229.7 110,-229.7"/>
<polygon fill="#000000" stroke="#000000" points="161.7941,-171.8492 170.4671,-173.1677 165.647,-170.7746 169.5,-169.7 169.5,-169.7 169.5,-169.7 165.647,-170.7746 168.5329,-166.2323 161.7941,-171.8492 161.7941,-171.8492"/>
<ellipse fill="none" stroke="#000000" cx="158.7117" cy="-172.7088" rx="3.2" ry="3.2"/>
</g>
<!-- Genre -->
<g id="node6" class="node">
<title>Genre</title>
<g id="a_node6"><a xlink:href="../../tables/Genre.html" xlink:title="Genre" target="_top">
<polygon fill="#ffffff" stroke="transparent" points="24.5,-38.2 24.5,-99.2 103.5,-99.2 103.5,-38.2 24.5,-38.2"/>
<polygon fill="#f5f5f5" stroke="transparent" points="25,-75.7 25,-98.7 104,-98.7 104,-75.7 25,-75.7"/>
<polygon fill="none" stroke="#000000" points="25,-75.7 25,-98.7 104,-98.7 104,-75.7 25,-75.7"/>
<text text-anchor="start" x="30" y="-84.3" font-family="Helvetica,sans-Serif" font-weight="bold" font-size="11.00" fill="#000000">Genre</text>
<text text-anchor="start" x="69.5219" y="-83.8" font-family="Helvetica,sans-Serif" font-size="11.00" fill="#000000">[table]</text>
<polygon fill="none" stroke="#000000" points="25,-56.7 25,-75.7 104,-75.7 104,-56.7 25,-56.7"/>
<text text-anchor="start" x="28" y="-62.8" font-family="Helvetica,sans-Serif" font-size="11.00" fill="#000000">...</text>
<polygon fill="#ffffff" stroke="transparent" points="25,-37.7 25,-56.7 38,-56.7 38,-37.7 25,-37.7"/>
<polygon fill="none" stroke="#000000" points="25,-37.7 25,-56.7 38,-56.7 38,-37.7 25,-37.7"/>
<text text-anchor="start" x="28" y="-43.8" font-family="Helvetica,sans-Serif" font-size="11.00" fill="#000000"> &#160;</text>
<polygon fill="#ffffff" stroke="transparent" points="38,-37.7 38,-56.7 82,-56.7 82,-37.7 38,-37.7"/>
<polygon fill="none" stroke="#000000" points="38,-37.7 38,-56.7 82,-56.7 82,-37.7 38,-37.7"/>
<text text-anchor="start" x="40.7478" y="-43.8" font-family="Helvetica,sans-Serif" font-size="11.00" fill="#000000">25 rows</text>
<polygon fill="#ffffff" stroke="transparent" points="82,-37.7 82,-56.7 104,-56.7 104,-37.7 82,-37.7"/>
<polygon fill="none" stroke="#000000" points="82,-37.7 82,-56.7 104,-56.7 104,-37.7 82,-37.7"/>
<text text-anchor="start" x="85.4053" y="-43.8" font-family="Helvetica,sans-Serif" font-size="11.00" fill="#000000">1 &gt;</text>
</a>
</g>
</g>
<!-- Track&#45;&gt;Genre -->
<g id="edge5" class="edge">
<title>Track:w&#45;&gt;Genre:e</title>
<path fill="none" stroke="#000000" d="M155.38,-122.3022C132.8055,-109.6096 137.7728,-65.7 104,-65.7"/>
<polygon fill="#000000" stroke="#000000" points="161.722,-123.8283 168.6577,-129.2001 165.611,-124.7641 169.5,-125.7 169.5,-125.7 169.5,-125.7 165.611,-124.7641 170.3423,-122.1999 161.722,-123.8283 161.722,-123.8283"/>
<ellipse fill="none" stroke="#000000" cx="158.6108" cy="-123.0796" rx="3.2" ry="3.2"/>
</g>
<!-- MediaType -->
<g id="node7" class="node">
<title>MediaType</title>
<g id="a_node7"><a xlink:href="../../tables/MediaType.html" xlink:title="MediaType" target="_top">
<polygon fill="#ffffff" stroke="transparent" points="8,-120.2 8,-181.2 120,-181.2 120,-120.2 8,-120.2"/>
<polygon fill="#f5f5f5" stroke="transparent" points="8,-157.7 8,-180.7 120,-180.7 120,-157.7 8,-157.7"/>
<polygon fill="none" stroke="#000000" points="8,-157.7 8,-180.7 120,-180.7 120,-157.7 8,-157.7"/>
<text text-anchor="start" x="13" y="-166.3" font-family="Helvetica,sans-Serif" font-weight="bold" font-size="11.00" fill="#000000">MediaType</text>
<text text-anchor="start" x="85.5219" y="-165.8" font-family="Helvetica,sans-Serif" font-size="11.00" fill="#000000">[table]</text>
<polygon fill="none" stroke="#000000" points="8,-138.7 8,-157.7 120,-157.7 120,-138.7 8,-138.7"/>
<text text-anchor="start" x="11" y="-144.8" font-family="Helvetica,sans-Serif" font-size="11.00" fill="#000000">...</text>
<polygon fill="#ffffff" stroke="transparent" points="8,-119.7 8,-138.7 40,-138.7 40,-119.7 8,-119.7"/>
<polygon fill="none" stroke="#000000" points="8,-119.7 8,-138.7 40,-138.7 40,-119.7 8,-119.7"/>
<text text-anchor="start" x="11" y="-125.8" font-family="Helvetica,sans-Serif" font-size="11.00" fill="#000000"> &#160;</text>
<polygon fill="#ffffff" stroke="transparent" points="40,-119.7 40,-138.7 88,-138.7 88,-119.7 40,-119.7"/>
<polygon fill="none" stroke="#000000" points="40,-119.7 40,-138.7 88,-138.7 88,-119.7 40,-119.7"/>
<text text-anchor="start" x="52.6105" y="-125.8" font-family="Helvetica,sans-Serif" font-size="11.00" fill="#000000">5 rows</text>
<polygon fill="#ffffff" stroke="transparent" points="88,-119.7 88,-138.7 120,-138.7 120,-119.7 88,-119.7"/>
<polygon fill="none" stroke="#000000" points="88,-119.7 88,-138.7 120,-138.7 120,-119.7 88,-119.7"/>
<text text-anchor="start" x="101.4053" y="-125.8" font-family="Helvetica,sans-Serif" font-size="11.00" fill="#000000">1 &gt;</text>
</a>
</g>
</g>
<!-- Track&#45;&gt;MediaType -->
<g id="edge6" class="edge">
<title>Track:w&#45;&gt;MediaType:e</title>
<path fill="none" stroke="#000000" d="M154.8428,-147.7C143.4139,-147.7 136.1563,-147.7 120,-147.7"/>
<polygon fill="#000000" stroke="#000000" points="161.5,-147.7001 169.5,-151.3 165.5,-147.7 169.5,-147.7 169.5,-147.7 169.5,-147.7 165.5,-147.7 169.5,-144.1 161.5,-147.7001 161.5,-147.7001"/>
<ellipse fill="none" stroke="#000000" cx="158.3" cy="-147.7001" rx="3.2" ry="3.2"/>
</g>
<!-- PlaylistTrack -->
<g id="node3" class="node">
<title>PlaylistTrack</title>
<g id="a_node3"><a xlink:href="../../tables/PlaylistTrack.html" xlink:title="PlaylistTrack" target="_top">
<polygon fill="#ffffff" stroke="transparent" points="325,-243.7 325,-333.7 543,-333.7 543,-243.7 325,-243.7"/>
<polygon fill="#f5f5f5" stroke="transparent" points="327,-308.7 327,-331.7 541,-331.7 541,-308.7 327,-308.7"/>
<polygon fill="none" stroke="#000000" points="327,-308.7 327,-331.7 541,-331.7 541,-308.7 327,-308.7"/>
<text text-anchor="start" x="332" y="-317.3" font-family="Helvetica,sans-Serif" font-weight="bold" font-size="11.00" fill="#000000">PlaylistTrack</text>
<text text-anchor="start" x="506.0437" y="-316.8" font-family="Helvetica,sans-Serif" font-size="11.00" fill="#000000">[table]</text>
<polygon fill="none" stroke="#000000" points="327,-286.7 327,-308.7 435,-308.7 435,-286.7 327,-286.7"/>
<image xlink:href="../../images/primaryKeys.png" width="11px" height="12px" preserveAspectRatio="xMinYMin meet" x="332" y="-303.7"/>
<text text-anchor="start" x="347" y="-293.8" font-family="Helvetica,sans-Serif" font-size="11.00" fill="#000000">PlaylistId</text>
<polygon fill="none" stroke="#000000" points="435,-286.7 435,-308.7 541,-308.7 541,-286.7 435,-286.7"/>
<text text-anchor="start" x="437.559" y="-294.4" font-family="Helvetica,sans-Serif" font-size="11.00" fill="#000000">integer[2000000000]</text>
<polygon fill="none" stroke="#000000" points="327,-264.7 327,-286.7 435,-286.7 435,-264.7 327,-264.7"/>
<image xlink:href="../../images/primaryKeys.png" width="11px" height="12px" preserveAspectRatio="xMinYMin meet" x="332" y="-281.7"/>
<text text-anchor="start" x="347" y="-271.8" font-family="Helvetica,sans-Serif" font-size="11.00" fill="#000000">TrackId</text>
<polygon fill="none" stroke="#000000" points="435,-264.7 435,-286.7 541,-286.7 541,-264.7 435,-264.7"/>
<text text-anchor="start" x="437.559" y="-272.4" font-family="Helvetica,sans-Serif" font-size="11.00" fill="#000000">integer[2000000000]</text>
<polygon fill="#ffffff" stroke="transparent" points="327,-245.7 327,-264.7 362,-264.7 362,-245.7 327,-245.7"/>
<polygon fill="none" stroke="#000000" points="327,-245.7 327,-264.7 362,-264.7 362,-245.7 327,-245.7"/>
<text text-anchor="start" x="330" y="-251.8" font-family="Helvetica,sans-Serif" font-size="11.00" fill="#000000">&lt; 2</text>
<polygon fill="#ffffff" stroke="transparent" points="362,-245.7 362,-264.7 435,-264.7 435,-245.7 362,-245.7"/>
<polygon fill="none" stroke="#000000" points="362,-245.7 362,-264.7 435,-264.7 435,-245.7 362,-245.7"/>
<text text-anchor="start" x="378.2089" y="-251.8" font-family="Helvetica,sans-Serif" font-size="11.00" fill="#000000">8,715 rows</text>
<polygon fill="#ffffff" stroke="transparent" points="435,-245.7 435,-264.7 541,-264.7 541,-245.7 435,-245.7"/>
<polygon fill="none" stroke="#000000" points="435,-245.7 435,-264.7 541,-264.7 541,-245.7 435,-245.7"/>
<text text-anchor="start" x="522.4053" y="-251.8" font-family="Helvetica,sans-Serif" font-size="11.00" fill="#000000">0 &gt;</text>
<polygon fill="none" stroke="#000000" stroke-width="2" points="326,-244.7 326,-332.7 542,-332.7 542,-244.7 326,-244.7"/>
</a>
</g>
</g>
<!-- PlaylistTrack&#45;&gt;Track -->
<g id="edge3" class="edge">
<title>PlaylistTrack:w&#45;&gt;Track:e</title>
<path fill="none" stroke="#000000" d="M313.2198,-271.4189C291.9542,-254.3014 314.1051,-191.7 276.5,-191.7"/>
<polygon fill="#000000" stroke="#000000" points="319.3602,-273.3265 325.9319,-279.1379 323.1801,-274.5133 327,-275.7 327,-275.7 327,-275.7 323.1801,-274.5133 328.0681,-272.2621 319.3602,-273.3265 319.3602,-273.3265"/>
<ellipse fill="none" stroke="#000000" cx="316.3043" cy="-272.3771" rx="3.2" ry="3.2"/>
</g>
<!-- Playlist -->
<g id="node4" class="node">
<title>Playlist</title>
<g id="a_node4"><a xlink:href="../../tables/Playlist.html" xlink:title="Playlist" target="_top">
<polygon fill="#ffffff" stroke="transparent" points="178.5,-249.2 178.5,-332.2 266.5,-332.2 266.5,-249.2 178.5,-249.2"/>
<polygon fill="#f5f5f5" stroke="transparent" points="178.5,-308.7 178.5,-331.7 266.5,-331.7 266.5,-308.7 178.5,-308.7"/>
<polygon fill="none" stroke="#000000" points="178.5,-308.7 178.5,-331.7 266.5,-331.7 266.5,-308.7 178.5,-308.7"/>
<text text-anchor="start" x="183.5" y="-317.3" font-family="Helvetica,sans-Serif" font-weight="bold" font-size="11.00" fill="#000000">Playlist</text>
<text text-anchor="start" x="232.0219" y="-316.8" font-family="Helvetica,sans-Serif" font-size="11.00" fill="#000000">[table]</text>
<polygon fill="none" stroke="#000000" points="178.5,-286.7 178.5,-308.7 266.5,-308.7 266.5,-286.7 178.5,-286.7"/>
<image xlink:href="../../images/primaryKeys.png" width="11px" height="12px" preserveAspectRatio="xMinYMin meet" x="183.5" y="-303.7"/>
<text text-anchor="start" x="201.5" y="-293.8" font-family="Helvetica,sans-Serif" font-size="11.00" fill="#000000">PlaylistId</text>
<polygon fill="none" stroke="#000000" points="178.5,-267.7 178.5,-286.7 266.5,-286.7 266.5,-267.7 178.5,-267.7"/>
<text text-anchor="start" x="181.5" y="-273.8" font-family="Helvetica,sans-Serif" font-size="11.00" fill="#000000">...</text>
<polygon fill="#ffffff" stroke="transparent" points="178.5,-248.7 178.5,-267.7 195.5,-267.7 195.5,-248.7 178.5,-248.7"/>
<polygon fill="none" stroke="#000000" points="178.5,-248.7 178.5,-267.7 195.5,-267.7 195.5,-248.7 178.5,-248.7"/>
<text text-anchor="start" x="181.5" y="-254.8" font-family="Helvetica,sans-Serif" font-size="11.00" fill="#000000"> &#160;</text>
<polygon fill="#ffffff" stroke="transparent" points="195.5,-248.7 195.5,-267.7 242.5,-267.7 242.5,-248.7 195.5,-248.7"/>
<polygon fill="none" stroke="#000000" points="195.5,-248.7 195.5,-267.7 242.5,-267.7 242.5,-248.7 195.5,-248.7"/>
<text text-anchor="start" x="200.9956" y="-254.8" font-family="Helvetica,sans-Serif" font-size="11.00" fill="#000000">18 rows</text>
<polygon fill="#ffffff" stroke="transparent" points="242.5,-248.7 242.5,-267.7 266.5,-267.7 266.5,-248.7 242.5,-248.7"/>
<polygon fill="none" stroke="#000000" points="242.5,-248.7 242.5,-267.7 266.5,-267.7 266.5,-248.7 242.5,-248.7"/>
<text text-anchor="start" x="247.9053" y="-254.8" font-family="Helvetica,sans-Serif" font-size="11.00" fill="#000000">1 &gt;</text>
</a>
</g>
</g>
<!-- PlaylistTrack&#45;&gt;Playlist -->
<g id="edge2" class="edge">
<title>PlaylistTrack:w&#45;&gt;Playlist:e</title>
<path fill="none" stroke="#000000" d="M312.2977,-297.7C296.3779,-297.7 287.717,-297.7 266.5,-297.7"/>
<polygon fill="#000000" stroke="#000000" points="319,-297.7001 327,-301.3 323,-297.7 327,-297.7 327,-297.7 327,-297.7 323,-297.7 327,-294.1 319,-297.7001 319,-297.7001"/>
<ellipse fill="none" stroke="#000000" cx="315.8" cy="-297.7001" rx="3.2" ry="3.2"/>
</g>
</g>
</svg>
