<?xml version="1.0" encoding="UTF-8" standalone="no"?>
<!DOCTYPE svg PUBLIC "-//W3C//DTD SVG 1.1//EN"
 "http://www.w3.org/Graphics/SVG/1.1/DTD/svg11.dtd">
<!-- Generated by graphviz version 2.40.1 (20161225.0304)
 -->
<!-- Title: oneDegreeRelationshipsDiagram Pages: 1 -->
<svg width="392pt" height="140pt"
 viewBox="0.00 0.00 392.00 140.20" xmlns="http://www.w3.org/2000/svg" xmlns:xlink="http://www.w3.org/1999/xlink">
<g id="graph0" class="graph" transform="scale(1 1) rotate(0) translate(4 136.2)">
<title>oneDegreeRelationshipsDiagram</title>
<polygon fill="#ffffff" stroke="transparent" points="-4,4 -4,-136.2 388,-136.2 388,4 -4,4"/>
<text text-anchor="middle" x="72.4936" y="-7.3" font-family="Helvetica,sans-Serif" font-size="11.00" fill="#000000">Generated by SchemaSpy</text>
<!-- PlaylistTrack -->
<g id="node1" class="node">
<title>PlaylistTrack</title>
<g id="a_node1"><a xlink:href="../../tables/PlaylistTrack.html" xlink:title="PlaylistTrack" target="_top">
<polygon fill="#ffffff" stroke="transparent" points="250,-40.2 250,-126.2 376,-126.2 376,-40.2 250,-40.2"/>
<polygon fill="#f5f5f5" stroke="transparent" points="250,-103.2 250,-126.2 376,-126.2 376,-103.2 250,-103.2"/>
<polygon fill="none" stroke="#000000" points="250,-103.2 250,-126.2 376,-126.2 376,-103.2 250,-103.2"/>
<text text-anchor="start" x="255" y="-111.8" font-family="Helvetica,sans-Serif" font-weight="bold" font-size="11.00" fill="#000000">PlaylistTrack</text>
<text text-anchor="start" x="341.5219" y="-111.3" font-family="Helvetica,sans-Serif" font-size="11.00" fill="#000000">[table]</text>
<polygon fill="none" stroke="#000000" points="250,-81.2 250,-103.2 376,-103.2 376,-81.2 250,-81.2"/>
<image xlink:href="../../images/primaryKeys.png" width="11px" height="12px" preserveAspectRatio="xMinYMin meet" x="255" y="-98.2"/>
<text text-anchor="start" x="279" y="-88.3" font-family="Helvetica,sans-Serif" font-size="11.00" fill="#000000">PlaylistId</text>
<polygon fill="none" stroke="#000000" points="250,-59.2 250,-81.2 376,-81.2 376,-59.2 250,-59.2"/>
<image xlink:href="../../images/primaryKeys.png" width="11px" height="12px" preserveAspectRatio="xMinYMin meet" x="255" y="-76.2"/>
<text text-anchor="start" x="279" y="-66.3" font-family="Helvetica,sans-Serif" font-size="11.00" fill="#000000">TrackId</text>
<polygon fill="#ffffff" stroke="transparent" points="250,-40.2 250,-59.2 288,-59.2 288,-40.2 250,-40.2"/>
<polygon fill="none" stroke="#000000" points="250,-40.2 250,-59.2 288,-59.2 288,-40.2 250,-40.2"/>
<text text-anchor="start" x="253" y="-46.3" font-family="Helvetica,sans-Serif" font-size="11.00" fill="#000000">&lt; 2</text>
<polygon fill="#ffffff" stroke="transparent" points="288,-40.2 288,-59.2 355,-59.2 355,-40.2 288,-40.2"/>
<polygon fill="none" stroke="#000000" points="288,-40.2 288,-59.2 355,-59.2 355,-40.2 288,-40.2"/>
<text text-anchor="start" x="298.2089" y="-46.3" font-family="Helvetica,sans-Serif" font-size="11.00" fill="#000000">8,715 rows</text>
<polygon fill="#ffffff" stroke="transparent" points="355,-40.2 355,-59.2 376,-59.2 376,-40.2 355,-40.2"/>
<polygon fill="none" stroke="#000000" points="355,-40.2 355,-59.2 376,-59.2 376,-40.2 355,-40.2"/>
<text text-anchor="start" x="366.8862" y="-46.3" font-family="Helvetica,sans-Serif" font-size="11.00" fill="#000000"> &#160;</text>
</a>
</g>
</g>
<!-- Playlist -->
<g id="node2" class="node">
<title>Playlist</title>
<g id="a_node2"><a xlink:href="../../tables/Playlist.html" xlink:title="Playlist" target="_top">
<polygon fill="#ffffff" stroke="transparent" points="8,-38.2 8,-128.2 201,-128.2 201,-38.2 8,-38.2"/>
<polygon fill="#f5f5f5" stroke="transparent" points="10.5,-103.2 10.5,-126.2 199.5,-126.2 199.5,-103.2 10.5,-103.2"/>
<polygon fill="none" stroke="#000000" points="10.5,-103.2 10.5,-126.2 199.5,-126.2 199.5,-103.2 10.5,-103.2"/>
<text text-anchor="start" x="15.5" y="-111.8" font-family="Helvetica,sans-Serif" font-weight="bold" font-size="11.00" fill="#000000">Playlist</text>
<text text-anchor="start" x="164.5437" y="-111.3" font-family="Helvetica,sans-Serif" font-size="11.00" fill="#000000">[table]</text>
<polygon fill="none" stroke="#000000" points="10.5,-81.2 10.5,-103.2 93.5,-103.2 93.5,-81.2 10.5,-81.2"/>
<image xlink:href="../../images/primaryKeys.png" width="11px" height="12px" preserveAspectRatio="xMinYMin meet" x="15.5" y="-98.2"/>
<text text-anchor="start" x="30.5" y="-88.3" font-family="Helvetica,sans-Serif" font-size="11.00" fill="#000000">PlaylistId</text>
<polygon fill="none" stroke="#000000" points="93.5,-81.2 93.5,-103.2 199.5,-103.2 199.5,-81.2 93.5,-81.2"/>
<text text-anchor="start" x="96.059" y="-88.9" font-family="Helvetica,sans-Serif" font-size="11.00" fill="#000000">integer[2000000000]</text>
<polygon fill="none" stroke="#000000" points="10.5,-59.2 10.5,-81.2 93.5,-81.2 93.5,-59.2 10.5,-59.2"/>
<text text-anchor="start" x="30.5" y="-66.3" font-family="Helvetica,sans-Serif" font-size="11.00" fill="#000000">Name</text>
<polygon fill="none" stroke="#000000" points="93.5,-59.2 93.5,-81.2 199.5,-81.2 199.5,-59.2 93.5,-59.2"/>
<text text-anchor="start" x="96.5" y="-66.9" font-family="Helvetica,sans-Serif" font-size="11.00" fill="#000000">nvarchar[120]</text>
<polygon fill="#ffffff" stroke="transparent" points="10.5,-40.2 10.5,-59.2 40.5,-59.2 40.5,-40.2 10.5,-40.2"/>
<polygon fill="none" stroke="#000000" points="10.5,-40.2 10.5,-59.2 40.5,-59.2 40.5,-40.2 10.5,-40.2"/>
<text text-anchor="start" x="13.5" y="-46.3" font-family="Helvetica,sans-Serif" font-size="11.00" fill="#000000">&lt; 0</text>
<polygon fill="#ffffff" stroke="transparent" points="40.5,-40.2 40.5,-59.2 93.5,-59.2 93.5,-40.2 40.5,-40.2"/>
<polygon fill="none" stroke="#000000" points="40.5,-40.2 40.5,-59.2 93.5,-59.2 93.5,-40.2 40.5,-40.2"/>
<text text-anchor="start" x="51.9956" y="-46.3" font-family="Helvetica,sans-Serif" font-size="11.00" fill="#000000">18 rows</text>
<polygon fill="#ffffff" stroke="transparent" points="93.5,-40.2 93.5,-59.2 199.5,-59.2 199.5,-40.2 93.5,-40.2"/>
<polygon fill="none" stroke="#000000" points="93.5,-40.2 93.5,-59.2 199.5,-59.2 199.5,-40.2 93.5,-40.2"/>
<text text-anchor="start" x="180.9053" y="-46.3" font-family="Helvetica,sans-Serif" font-size="11.00" fill="#000000">1 &gt;</text>
<polygon fill="none" stroke="#000000" stroke-width="2" points="9,-39.2 9,-127.2 200,-127.2 200,-39.2 9,-39.2"/>
</a>
</g>
</g>
<!-- PlaylistTrack&#45;&gt;Playlist -->
<g id="edge1" class="edge">
<title>PlaylistTrack:w&#45;&gt;Playlist:e</title>
<path fill="none" stroke="#000000" d="M235.4203,-92.2C223.5435,-92.2 216.158,-92.2 199.5,-92.2"/>
<polygon fill="#000000" stroke="#000000" points="242,-92.2001 250,-95.8 246,-92.2 250,-92.2 250,-92.2 250,-92.2 246,-92.2 250,-88.6 242,-92.2001 242,-92.2001"/>
<ellipse fill="none" stroke="#000000" cx="238.8" cy="-92.2001" rx="3.2" ry="3.2"/>
</g>
</g>
</svg>
