<?xml version="1.0" encoding="UTF-8" standalone="no"?>
<!DOCTYPE svg PUBLIC "-//W3C//DTD SVG 1.1//EN"
 "http://www.w3.org/Graphics/SVG/1.1/DTD/svg11.dtd">
<!-- Generated by graphviz version 2.40.1 (20161225.0304)
 -->
<!-- Title: oneDegreeRelationshipsDiagram Pages: 1 -->
<svg width="398pt" height="303pt"
 viewBox="0.00 0.00 398.00 303.20" xmlns="http://www.w3.org/2000/svg" xmlns:xlink="http://www.w3.org/1999/xlink">
<g id="graph0" class="graph" transform="scale(1 1) rotate(0) translate(4 299.2)">
<title>oneDegreeRelationshipsDiagram</title>
<polygon fill="#ffffff" stroke="transparent" points="-4,4 -4,-299.2 394,-299.2 394,4 -4,4"/>
<text text-anchor="middle" x="72.4936" y="-7.3" font-family="Helvetica,sans-Serif" font-size="11.00" fill="#000000">Generated by SchemaSpy</text>
<!-- PlaylistTrack -->
<g id="node1" class="node">
<title>PlaylistTrack</title>
<g id="a_node1"><a xlink:href="../../tables/PlaylistTrack.html" xlink:title="PlaylistTrack" target="_top">
<polygon fill="#ffffff" stroke="transparent" points="164,-161.7 164,-251.7 382,-251.7 382,-161.7 164,-161.7"/>
<polygon fill="#f5f5f5" stroke="transparent" points="166,-226.7 166,-249.7 380,-249.7 380,-226.7 166,-226.7"/>
<polygon fill="none" stroke="#000000" points="166,-226.7 166,-249.7 380,-249.7 380,-226.7 166,-226.7"/>
<text text-anchor="start" x="171" y="-235.3" font-family="Helvetica,sans-Serif" font-weight="bold" font-size="11.00" fill="#000000">PlaylistTrack</text>
<text text-anchor="start" x="345.0437" y="-234.8" font-family="Helvetica,sans-Serif" font-size="11.00" fill="#000000">[table]</text>
<polygon fill="none" stroke="#000000" points="166,-204.7 166,-226.7 274,-226.7 274,-204.7 166,-204.7"/>
<image xlink:href="../../images/primaryKeys.png" width="11px" height="12px" preserveAspectRatio="xMinYMin meet" x="171" y="-221.7"/>
<text text-anchor="start" x="186" y="-211.8" font-family="Helvetica,sans-Serif" font-size="11.00" fill="#000000">PlaylistId</text>
<polygon fill="none" stroke="#000000" points="274,-204.7 274,-226.7 380,-226.7 380,-204.7 274,-204.7"/>
<text text-anchor="start" x="276.559" y="-212.4" font-family="Helvetica,sans-Serif" font-size="11.00" fill="#000000">integer[2000000000]</text>
<polygon fill="none" stroke="#000000" points="166,-182.7 166,-204.7 274,-204.7 274,-182.7 166,-182.7"/>
<image xlink:href="../../images/primaryKeys.png" width="11px" height="12px" preserveAspectRatio="xMinYMin meet" x="171" y="-199.7"/>
<text text-anchor="start" x="186" y="-189.8" font-family="Helvetica,sans-Serif" font-size="11.00" fill="#000000">TrackId</text>
<polygon fill="none" stroke="#000000" points="274,-182.7 274,-204.7 380,-204.7 380,-182.7 274,-182.7"/>
<text text-anchor="start" x="276.559" y="-190.4" font-family="Helvetica,sans-Serif" font-size="11.00" fill="#000000">integer[2000000000]</text>
<polygon fill="#ffffff" stroke="transparent" points="166,-163.7 166,-182.7 201,-182.7 201,-163.7 166,-163.7"/>
<polygon fill="none" stroke="#000000" points="166,-163.7 166,-182.7 201,-182.7 201,-163.7 166,-163.7"/>
<text text-anchor="start" x="169" y="-169.8" font-family="Helvetica,sans-Serif" font-size="11.00" fill="#000000">&lt; 2</text>
<polygon fill="#ffffff" stroke="transparent" points="201,-163.7 201,-182.7 274,-182.7 274,-163.7 201,-163.7"/>
<polygon fill="none" stroke="#000000" points="201,-163.7 201,-182.7 274,-182.7 274,-163.7 201,-163.7"/>
<text text-anchor="start" x="217.2089" y="-169.8" font-family="Helvetica,sans-Serif" font-size="11.00" fill="#000000">8,715 rows</text>
<polygon fill="#ffffff" stroke="transparent" points="274,-163.7 274,-182.7 380,-182.7 380,-163.7 274,-163.7"/>
<polygon fill="none" stroke="#000000" points="274,-163.7 274,-182.7 380,-182.7 380,-163.7 274,-163.7"/>
<text text-anchor="start" x="361.4053" y="-169.8" font-family="Helvetica,sans-Serif" font-size="11.00" fill="#000000">0 &gt;</text>
<polygon fill="none" stroke="#000000" stroke-width="2" points="165,-162.7 165,-250.7 381,-250.7 381,-162.7 165,-162.7"/>
</a>
</g>
</g>
<!-- Playlist -->
<g id="node2" class="node">
<title>Playlist</title>
<g id="a_node2"><a xlink:href="../../tables/Playlist.html" xlink:title="Playlist" target="_top">
<polygon fill="#ffffff" stroke="transparent" points="17.5,-208.2 17.5,-291.2 105.5,-291.2 105.5,-208.2 17.5,-208.2"/>
<polygon fill="#f5f5f5" stroke="transparent" points="17.5,-267.7 17.5,-290.7 105.5,-290.7 105.5,-267.7 17.5,-267.7"/>
<polygon fill="none" stroke="#000000" points="17.5,-267.7 17.5,-290.7 105.5,-290.7 105.5,-267.7 17.5,-267.7"/>
<text text-anchor="start" x="22.5" y="-276.3" font-family="Helvetica,sans-Serif" font-weight="bold" font-size="11.00" fill="#000000">Playlist</text>
<text text-anchor="start" x="71.0219" y="-275.8" font-family="Helvetica,sans-Serif" font-size="11.00" fill="#000000">[table]</text>
<polygon fill="none" stroke="#000000" points="17.5,-245.7 17.5,-267.7 105.5,-267.7 105.5,-245.7 17.5,-245.7"/>
<image xlink:href="../../images/primaryKeys.png" width="11px" height="12px" preserveAspectRatio="xMinYMin meet" x="22.5" y="-262.7"/>
<text text-anchor="start" x="40.5" y="-252.8" font-family="Helvetica,sans-Serif" font-size="11.00" fill="#000000">PlaylistId</text>
<polygon fill="none" stroke="#000000" points="17.5,-226.7 17.5,-245.7 105.5,-245.7 105.5,-226.7 17.5,-226.7"/>
<text text-anchor="start" x="20.5" y="-232.8" font-family="Helvetica,sans-Serif" font-size="11.00" fill="#000000">...</text>
<polygon fill="#ffffff" stroke="transparent" points="17.5,-207.7 17.5,-226.7 34.5,-226.7 34.5,-207.7 17.5,-207.7"/>
<polygon fill="none" stroke="#000000" points="17.5,-207.7 17.5,-226.7 34.5,-226.7 34.5,-207.7 17.5,-207.7"/>
<text text-anchor="start" x="20.5" y="-213.8" font-family="Helvetica,sans-Serif" font-size="11.00" fill="#000000"> &#160;</text>
<polygon fill="#ffffff" stroke="transparent" points="34.5,-207.7 34.5,-226.7 81.5,-226.7 81.5,-207.7 34.5,-207.7"/>
<polygon fill="none" stroke="#000000" points="34.5,-207.7 34.5,-226.7 81.5,-226.7 81.5,-207.7 34.5,-207.7"/>
<text text-anchor="start" x="39.9956" y="-213.8" font-family="Helvetica,sans-Serif" font-size="11.00" fill="#000000">18 rows</text>
<polygon fill="#ffffff" stroke="transparent" points="81.5,-207.7 81.5,-226.7 105.5,-226.7 105.5,-207.7 81.5,-207.7"/>
<polygon fill="none" stroke="#000000" points="81.5,-207.7 81.5,-226.7 105.5,-226.7 105.5,-207.7 81.5,-207.7"/>
<text text-anchor="start" x="86.9053" y="-213.8" font-family="Helvetica,sans-Serif" font-size="11.00" fill="#000000">1 &gt;</text>
</a>
</g>
</g>
<!-- PlaylistTrack&#45;&gt;Playlist -->
<g id="edge1" class="edge">
<title>PlaylistTrack:w&#45;&gt;Playlist:e</title>
<path fill="none" stroke="#000000" d="M151.8943,-219.0552C133.9459,-228.8472 132.272,-256.7 105.5,-256.7"/>
<polygon fill="#000000" stroke="#000000" points="158.2171,-217.5513 166.8331,-219.2023 162.1086,-216.6256 166,-215.7 166,-215.7 166,-215.7 162.1086,-216.6256 165.1669,-212.1977 158.2171,-217.5513 158.2171,-217.5513"/>
<ellipse fill="none" stroke="#000000" cx="155.104" cy="-218.2918" rx="3.2" ry="3.2"/>
</g>
<!-- Track -->
<g id="node3" class="node">
<title>Track</title>
<g id="a_node3"><a xlink:href="../../tables/Track.html" xlink:title="Track" target="_top">
<polygon fill="#ffffff" stroke="transparent" points="8,-38.2 8,-187.2 115,-187.2 115,-38.2 8,-38.2"/>
<polygon fill="#f5f5f5" stroke="transparent" points="8.5,-163.7 8.5,-186.7 115.5,-186.7 115.5,-163.7 8.5,-163.7"/>
<polygon fill="none" stroke="#000000" points="8.5,-163.7 8.5,-186.7 115.5,-186.7 115.5,-163.7 8.5,-163.7"/>
<text text-anchor="start" x="13.5" y="-172.3" font-family="Helvetica,sans-Serif" font-weight="bold" font-size="11.00" fill="#000000">Track</text>
<text text-anchor="start" x="80.5437" y="-171.8" font-family="Helvetica,sans-Serif" font-size="11.00" fill="#000000">[table]</text>
<polygon fill="none" stroke="#000000" points="8.5,-141.7 8.5,-163.7 115.5,-163.7 115.5,-141.7 8.5,-141.7"/>
<image xlink:href="../../images/primaryKeys.png" width="11px" height="12px" preserveAspectRatio="xMinYMin meet" x="13.5" y="-158.7"/>
<text text-anchor="start" x="28.5" y="-148.8" font-family="Helvetica,sans-Serif" font-size="11.00" fill="#000000">TrackId</text>
<polygon fill="#ffffff" stroke="transparent" points="8.5,-119.7 8.5,-141.7 115.5,-141.7 115.5,-119.7 8.5,-119.7"/>
<polygon fill="none" stroke="#000000" points="8.5,-119.7 8.5,-141.7 115.5,-141.7 115.5,-119.7 8.5,-119.7"/>
<image xlink:href="../../images/foreignKeys.png" width="11px" height="12px" preserveAspectRatio="xMinYMin meet" x="13.5" y="-136.7"/>
<text text-anchor="start" x="28.5" y="-126.8" font-family="Helvetica,sans-Serif" font-size="11.00" fill="#000000">AlbumId</text>
<polygon fill="#ffffff" stroke="transparent" points="8.5,-97.7 8.5,-119.7 115.5,-119.7 115.5,-97.7 8.5,-97.7"/>
<polygon fill="none" stroke="#000000" points="8.5,-97.7 8.5,-119.7 115.5,-119.7 115.5,-97.7 8.5,-97.7"/>
<image xlink:href="../../images/foreignKeys.png" width="11px" height="12px" preserveAspectRatio="xMinYMin meet" x="13.5" y="-114.7"/>
<text text-anchor="start" x="28.5" y="-104.8" font-family="Helvetica,sans-Serif" font-size="11.00" fill="#000000">MediaTypeId</text>
<polygon fill="#ffffff" stroke="transparent" points="8.5,-75.7 8.5,-97.7 115.5,-97.7 115.5,-75.7 8.5,-75.7"/>
<polygon fill="none" stroke="#000000" points="8.5,-75.7 8.5,-97.7 115.5,-97.7 115.5,-75.7 8.5,-75.7"/>
<image xlink:href="../../images/foreignKeys.png" width="11px" height="12px" preserveAspectRatio="xMinYMin meet" x="13.5" y="-92.7"/>
<text text-anchor="start" x="28.5" y="-82.8" font-family="Helvetica,sans-Serif" font-size="11.00" fill="#000000">GenreId</text>
<polygon fill="none" stroke="#000000" points="8.5,-56.7 8.5,-75.7 115.5,-75.7 115.5,-56.7 8.5,-56.7"/>
<text text-anchor="start" x="11.5" y="-62.8" font-family="Helvetica,sans-Serif" font-size="11.00" fill="#000000">...</text>
<polygon fill="#ffffff" stroke="transparent" points="8.5,-37.7 8.5,-56.7 32.5,-56.7 32.5,-37.7 8.5,-37.7"/>
<polygon fill="none" stroke="#000000" points="8.5,-37.7 8.5,-56.7 32.5,-56.7 32.5,-37.7 8.5,-37.7"/>
<text text-anchor="start" x="11.5" y="-43.8" font-family="Helvetica,sans-Serif" font-size="11.00" fill="#000000">&lt; 3</text>
<polygon fill="#ffffff" stroke="transparent" points="32.5,-37.7 32.5,-56.7 92.5,-56.7 92.5,-37.7 32.5,-37.7"/>
<polygon fill="none" stroke="#000000" points="32.5,-37.7 32.5,-56.7 92.5,-56.7 92.5,-37.7 32.5,-37.7"/>
<text text-anchor="start" x="35.7089" y="-43.8" font-family="Helvetica,sans-Serif" font-size="11.00" fill="#000000">3,503 rows</text>
<polygon fill="#ffffff" stroke="transparent" points="92.5,-37.7 92.5,-56.7 115.5,-56.7 115.5,-37.7 92.5,-37.7"/>
<polygon fill="none" stroke="#000000" points="92.5,-37.7 92.5,-56.7 115.5,-56.7 115.5,-37.7 92.5,-37.7"/>
<text text-anchor="start" x="96.9053" y="-43.8" font-family="Helvetica,sans-Serif" font-size="11.00" fill="#000000">2 &gt;</text>
</a>
</g>
</g>
<!-- PlaylistTrack&#45;&gt;Track -->
<g id="edge2" class="edge">
<title>PlaylistTrack:w&#45;&gt;Track:e</title>
<path fill="none" stroke="#000000" d="M152.2601,-189.3123C138.5688,-178.7354 138.5379,-152.7 115.5,-152.7"/>
<polygon fill="#000000" stroke="#000000" points="158.3792,-191.2663 164.9048,-197.1294 162.1896,-192.4832 166,-193.7 166,-193.7 166,-193.7 162.1896,-192.4832 167.0952,-190.2706 158.3792,-191.2663 158.3792,-191.2663"/>
<ellipse fill="none" stroke="#000000" cx="155.3308" cy="-190.2928" rx="3.2" ry="3.2"/>
</g>
</g>
</svg>
