<?xml version="1.0" encoding="UTF-8" standalone="no"?>
<!DOCTYPE svg PUBLIC "-//W3C//DTD SVG 1.1//EN"
 "http://www.w3.org/Graphics/SVG/1.1/DTD/svg11.dtd">
<!-- Generated by graphviz version 2.40.1 (20161225.0304)
 -->
<!-- Title: twoDegreesRelationshipsDiagram Pages: 1 -->
<svg width="709pt" height="459pt"
 viewBox="0.00 0.00 709.00 459.20" xmlns="http://www.w3.org/2000/svg" xmlns:xlink="http://www.w3.org/1999/xlink">
<g id="graph0" class="graph" transform="scale(1 1) rotate(0) translate(4 455.2)">
<title>twoDegreesRelationshipsDiagram</title>
<polygon fill="#ffffff" stroke="transparent" points="-4,4 -4,-455.2 705,-455.2 705,4 -4,4"/>
<text text-anchor="middle" x="72.4936" y="-7.3" font-family="Helvetica,sans-Serif" font-size="11.00" fill="#000000">Generated by SchemaSpy</text>
<!-- Album -->
<g id="node1" class="node">
<title>Album</title>
<g id="a_node1"><a xlink:href="../../tables/Album.html" xlink:title="Album" target="_top">
<polygon fill="#ffffff" stroke="transparent" points="150,-318.2 150,-423.2 242,-423.2 242,-318.2 150,-318.2"/>
<polygon fill="#f5f5f5" stroke="transparent" points="150,-399.7 150,-422.7 242,-422.7 242,-399.7 150,-399.7"/>
<polygon fill="none" stroke="#000000" points="150,-399.7 150,-422.7 242,-422.7 242,-399.7 150,-399.7"/>
<text text-anchor="start" x="155" y="-408.3" font-family="Helvetica,sans-Serif" font-weight="bold" font-size="11.00" fill="#000000">Album</text>
<text text-anchor="start" x="207.0437" y="-407.8" font-family="Helvetica,sans-Serif" font-size="11.00" fill="#000000">[table]</text>
<polygon fill="none" stroke="#000000" points="150,-377.7 150,-399.7 242,-399.7 242,-377.7 150,-377.7"/>
<image xlink:href="../../images/primaryKeys.png" width="11px" height="12px" preserveAspectRatio="xMinYMin meet" x="155" y="-394.7"/>
<text text-anchor="start" x="178" y="-384.8" font-family="Helvetica,sans-Serif" font-size="11.00" fill="#000000">AlbumId</text>
<polygon fill="#ffffff" stroke="transparent" points="150,-355.7 150,-377.7 242,-377.7 242,-355.7 150,-355.7"/>
<polygon fill="none" stroke="#000000" points="150,-355.7 150,-377.7 242,-377.7 242,-355.7 150,-355.7"/>
<image xlink:href="../../images/foreignKeys.png" width="11px" height="12px" preserveAspectRatio="xMinYMin meet" x="155" y="-372.7"/>
<text text-anchor="start" x="178" y="-362.8" font-family="Helvetica,sans-Serif" font-size="11.00" fill="#000000">ArtistId</text>
<polygon fill="none" stroke="#000000" points="150,-336.7 150,-355.7 242,-355.7 242,-336.7 150,-336.7"/>
<text text-anchor="start" x="153" y="-342.8" font-family="Helvetica,sans-Serif" font-size="11.00" fill="#000000">...</text>
<polygon fill="#ffffff" stroke="transparent" points="150,-317.7 150,-336.7 171,-336.7 171,-317.7 150,-317.7"/>
<polygon fill="none" stroke="#000000" points="150,-317.7 150,-336.7 171,-336.7 171,-317.7 150,-317.7"/>
<text text-anchor="start" x="152.7027" y="-323.8" font-family="Helvetica,sans-Serif" font-size="11.00" fill="#000000">&lt; 1</text>
<polygon fill="#ffffff" stroke="transparent" points="171,-317.7 171,-336.7 221,-336.7 221,-317.7 171,-317.7"/>
<polygon fill="none" stroke="#000000" points="171,-317.7 171,-336.7 221,-336.7 221,-317.7 171,-317.7"/>
<text text-anchor="start" x="173.6904" y="-323.8" font-family="Helvetica,sans-Serif" font-size="11.00" fill="#000000">347 rows</text>
<polygon fill="#ffffff" stroke="transparent" points="221,-317.7 221,-336.7 242,-336.7 242,-317.7 221,-317.7"/>
<polygon fill="none" stroke="#000000" points="221,-317.7 221,-336.7 242,-336.7 242,-317.7 221,-317.7"/>
<text text-anchor="start" x="223.7027" y="-323.8" font-family="Helvetica,sans-Serif" font-size="11.00" fill="#000000">1 &gt;</text>
</a>
</g>
</g>
<!-- Artist -->
<g id="node2" class="node">
<title>Artist</title>
<g id="a_node2"><a xlink:href="../../tables/Artist.html" xlink:title="Artist" target="_top">
<polygon fill="#ffffff" stroke="transparent" points="8,-339.2 8,-400.2 91,-400.2 91,-339.2 8,-339.2"/>
<polygon fill="#f5f5f5" stroke="transparent" points="8.5,-376.7 8.5,-399.7 91.5,-399.7 91.5,-376.7 8.5,-376.7"/>
<polygon fill="none" stroke="#000000" points="8.5,-376.7 8.5,-399.7 91.5,-399.7 91.5,-376.7 8.5,-376.7"/>
<text text-anchor="start" x="13.5" y="-385.3" font-family="Helvetica,sans-Serif" font-weight="bold" font-size="11.00" fill="#000000">Artist</text>
<text text-anchor="start" x="56.5437" y="-384.8" font-family="Helvetica,sans-Serif" font-size="11.00" fill="#000000">[table]</text>
<polygon fill="none" stroke="#000000" points="8.5,-357.7 8.5,-376.7 91.5,-376.7 91.5,-357.7 8.5,-357.7"/>
<text text-anchor="start" x="11.5" y="-363.8" font-family="Helvetica,sans-Serif" font-size="11.00" fill="#000000">...</text>
<polygon fill="#ffffff" stroke="transparent" points="8.5,-338.7 8.5,-357.7 20.5,-357.7 20.5,-338.7 8.5,-338.7"/>
<polygon fill="none" stroke="#000000" points="8.5,-338.7 8.5,-357.7 20.5,-357.7 20.5,-338.7 8.5,-338.7"/>
<text text-anchor="start" x="11.4431" y="-344.8" font-family="Helvetica,sans-Serif" font-size="11.00" fill="#000000"> &#160;</text>
<polygon fill="#ffffff" stroke="transparent" points="20.5,-338.7 20.5,-357.7 70.5,-357.7 70.5,-338.7 20.5,-338.7"/>
<polygon fill="none" stroke="#000000" points="20.5,-338.7 20.5,-357.7 70.5,-357.7 70.5,-338.7 20.5,-338.7"/>
<text text-anchor="start" x="23.1904" y="-344.8" font-family="Helvetica,sans-Serif" font-size="11.00" fill="#000000">275 rows</text>
<polygon fill="#ffffff" stroke="transparent" points="70.5,-338.7 70.5,-357.7 91.5,-357.7 91.5,-338.7 70.5,-338.7"/>
<polygon fill="none" stroke="#000000" points="70.5,-338.7 70.5,-357.7 91.5,-357.7 91.5,-338.7 70.5,-338.7"/>
<text text-anchor="start" x="73.2027" y="-344.8" font-family="Helvetica,sans-Serif" font-size="11.00" fill="#000000">1 &gt;</text>
</a>
</g>
</g>
<!-- Album&#45;&gt;Artist -->
<g id="edge1" class="edge">
<title>Album:w&#45;&gt;Artist:e</title>
<path fill="none" stroke="#000000" d="M135.3286,-366.7C120.2231,-366.7 111.8125,-366.7 91.5,-366.7"/>
<polygon fill="#000000" stroke="#000000" points="142,-366.7001 150,-370.3 146,-366.7 150,-366.7 150,-366.7 150,-366.7 146,-366.7 150,-363.1 142,-366.7001 142,-366.7001"/>
<ellipse fill="none" stroke="#000000" cx="138.8" cy="-366.7001" rx="3.2" ry="3.2"/>
</g>
<!-- InvoiceLine -->
<g id="node3" class="node">
<title>InvoiceLine</title>
<g id="a_node3"><a xlink:href="../../tables/InvoiceLine.html" xlink:title="InvoiceLine" target="_top">
<polygon fill="#ffffff" stroke="transparent" points="572.5,-311.2 572.5,-438.2 687.5,-438.2 687.5,-311.2 572.5,-311.2"/>
<polygon fill="#f5f5f5" stroke="transparent" points="573,-414.7 573,-437.7 688,-437.7 688,-414.7 573,-414.7"/>
<polygon fill="none" stroke="#000000" points="573,-414.7 573,-437.7 688,-437.7 688,-414.7 573,-414.7"/>
<text text-anchor="start" x="578" y="-423.3" font-family="Helvetica,sans-Serif" font-weight="bold" font-size="11.00" fill="#000000">InvoiceLine</text>
<text text-anchor="start" x="653.5219" y="-422.8" font-family="Helvetica,sans-Serif" font-size="11.00" fill="#000000">[table]</text>
<polygon fill="none" stroke="#000000" points="573,-392.7 573,-414.7 688,-414.7 688,-392.7 573,-392.7"/>
<image xlink:href="../../images/primaryKeys.png" width="11px" height="12px" preserveAspectRatio="xMinYMin meet" x="578" y="-409.7"/>
<text text-anchor="start" x="596" y="-399.8" font-family="Helvetica,sans-Serif" font-size="11.00" fill="#000000">InvoiceLineId</text>
<polygon fill="#ffffff" stroke="transparent" points="573,-370.7 573,-392.7 688,-392.7 688,-370.7 573,-370.7"/>
<polygon fill="none" stroke="#000000" points="573,-370.7 573,-392.7 688,-392.7 688,-370.7 573,-370.7"/>
<image xlink:href="../../images/foreignKeys.png" width="11px" height="12px" preserveAspectRatio="xMinYMin meet" x="578" y="-387.7"/>
<text text-anchor="start" x="596" y="-377.8" font-family="Helvetica,sans-Serif" font-size="11.00" fill="#000000">InvoiceId</text>
<polygon fill="#ffffff" stroke="transparent" points="573,-348.7 573,-370.7 688,-370.7 688,-348.7 573,-348.7"/>
<polygon fill="none" stroke="#000000" points="573,-348.7 573,-370.7 688,-370.7 688,-348.7 573,-348.7"/>
<image xlink:href="../../images/foreignKeys.png" width="11px" height="12px" preserveAspectRatio="xMinYMin meet" x="578" y="-365.7"/>
<text text-anchor="start" x="596" y="-355.8" font-family="Helvetica,sans-Serif" font-size="11.00" fill="#000000">TrackId</text>
<polygon fill="none" stroke="#000000" points="573,-329.7 573,-348.7 688,-348.7 688,-329.7 573,-329.7"/>
<text text-anchor="start" x="576" y="-335.8" font-family="Helvetica,sans-Serif" font-size="11.00" fill="#000000">...</text>
<polygon fill="#ffffff" stroke="transparent" points="573,-310.7 573,-329.7 605,-329.7 605,-310.7 573,-310.7"/>
<polygon fill="none" stroke="#000000" points="573,-310.7 573,-329.7 605,-329.7 605,-310.7 573,-310.7"/>
<text text-anchor="start" x="576" y="-316.8" font-family="Helvetica,sans-Serif" font-size="11.00" fill="#000000">&lt; 2</text>
<polygon fill="#ffffff" stroke="transparent" points="605,-310.7 605,-329.7 670,-329.7 670,-310.7 605,-310.7"/>
<polygon fill="none" stroke="#000000" points="605,-310.7 605,-329.7 670,-329.7 670,-310.7 605,-310.7"/>
<text text-anchor="start" x="613.2089" y="-316.8" font-family="Helvetica,sans-Serif" font-size="11.00" fill="#000000">2,240 rows</text>
<polygon fill="#ffffff" stroke="transparent" points="670,-310.7 670,-329.7 688,-329.7 688,-310.7 670,-310.7"/>
<polygon fill="none" stroke="#000000" points="670,-310.7 670,-329.7 688,-329.7 688,-310.7 670,-310.7"/>
<text text-anchor="start" x="678.8862" y="-316.8" font-family="Helvetica,sans-Serif" font-size="11.00" fill="#000000"> &#160;</text>
</a>
</g>
</g>
<!-- Invoice -->
<g id="node4" class="node">
<title>Invoice</title>
<g id="a_node4"><a xlink:href="../../tables/Invoice.html" xlink:title="Invoice" target="_top">
<polygon fill="#ffffff" stroke="transparent" points="363.5,-386.2 363.5,-447.2 455.5,-447.2 455.5,-386.2 363.5,-386.2"/>
<polygon fill="#f5f5f5" stroke="transparent" points="363.5,-423.7 363.5,-446.7 455.5,-446.7 455.5,-423.7 363.5,-423.7"/>
<polygon fill="none" stroke="#000000" points="363.5,-423.7 363.5,-446.7 455.5,-446.7 455.5,-423.7 363.5,-423.7"/>
<text text-anchor="start" x="368.5" y="-432.3" font-family="Helvetica,sans-Serif" font-weight="bold" font-size="11.00" fill="#000000">Invoice</text>
<text text-anchor="start" x="420.5437" y="-431.8" font-family="Helvetica,sans-Serif" font-size="11.00" fill="#000000">[table]</text>
<polygon fill="none" stroke="#000000" points="363.5,-404.7 363.5,-423.7 455.5,-423.7 455.5,-404.7 363.5,-404.7"/>
<text text-anchor="start" x="366.5" y="-410.8" font-family="Helvetica,sans-Serif" font-size="11.00" fill="#000000">...</text>
<polygon fill="#ffffff" stroke="transparent" points="363.5,-385.7 363.5,-404.7 384.5,-404.7 384.5,-385.7 363.5,-385.7"/>
<polygon fill="none" stroke="#000000" points="363.5,-385.7 363.5,-404.7 384.5,-404.7 384.5,-385.7 363.5,-385.7"/>
<text text-anchor="start" x="366.2027" y="-391.8" font-family="Helvetica,sans-Serif" font-size="11.00" fill="#000000">&lt; 1</text>
<polygon fill="#ffffff" stroke="transparent" points="384.5,-385.7 384.5,-404.7 434.5,-404.7 434.5,-385.7 384.5,-385.7"/>
<polygon fill="none" stroke="#000000" points="384.5,-385.7 384.5,-404.7 434.5,-404.7 434.5,-385.7 384.5,-385.7"/>
<text text-anchor="start" x="387.1904" y="-391.8" font-family="Helvetica,sans-Serif" font-size="11.00" fill="#000000">412 rows</text>
<polygon fill="#ffffff" stroke="transparent" points="434.5,-385.7 434.5,-404.7 455.5,-404.7 455.5,-385.7 434.5,-385.7"/>
<polygon fill="none" stroke="#000000" points="434.5,-385.7 434.5,-404.7 455.5,-404.7 455.5,-385.7 434.5,-385.7"/>
<text text-anchor="start" x="437.2027" y="-391.8" font-family="Helvetica,sans-Serif" font-size="11.00" fill="#000000">1 &gt;</text>
</a>
</g>
</g>
<!-- InvoiceLine&#45;&gt;Invoice -->
<g id="edge2" class="edge">
<title>InvoiceLine:w&#45;&gt;Invoice:e</title>
<path fill="none" stroke="#000000" d="M558.6147,-382.5232C516.694,-387.5319 504.4444,-413.7 455.5,-413.7"/>
<polygon fill="#000000" stroke="#000000" points="565.0131,-382.1571 573.2057,-385.2941 569.0065,-381.9285 573,-381.7 573,-381.7 573,-381.7 569.0065,-381.9285 572.7943,-378.1059 565.0131,-382.1571 565.0131,-382.1571"/>
<ellipse fill="none" stroke="#000000" cx="561.8183" cy="-382.3399" rx="3.2" ry="3.2"/>
</g>
<!-- Track -->
<g id="node5" class="node">
<title>Track</title>
<g id="a_node5"><a xlink:href="../../tables/Track.html" xlink:title="Track" target="_top">
<polygon fill="#ffffff" stroke="transparent" points="301,-120.7 301,-364.7 518,-364.7 518,-120.7 301,-120.7"/>
<polygon fill="#f5f5f5" stroke="transparent" points="303.5,-339.7 303.5,-362.7 516.5,-362.7 516.5,-339.7 303.5,-339.7"/>
<polygon fill="none" stroke="#000000" points="303.5,-339.7 303.5,-362.7 516.5,-362.7 516.5,-339.7 303.5,-339.7"/>
<text text-anchor="start" x="308.5" y="-348.3" font-family="Helvetica,sans-Serif" font-weight="bold" font-size="11.00" fill="#000000">Track</text>
<text text-anchor="start" x="481.5437" y="-347.8" font-family="Helvetica,sans-Serif" font-size="11.00" fill="#000000">[table]</text>
<polygon fill="none" stroke="#000000" points="303.5,-317.7 303.5,-339.7 410.5,-339.7 410.5,-317.7 303.5,-317.7"/>
<image xlink:href="../../images/primaryKeys.png" width="11px" height="12px" preserveAspectRatio="xMinYMin meet" x="308.5" y="-334.7"/>
<text text-anchor="start" x="323.5" y="-324.8" font-family="Helvetica,sans-Serif" font-size="11.00" fill="#000000">TrackId</text>
<polygon fill="none" stroke="#000000" points="410.5,-317.7 410.5,-339.7 516.5,-339.7 516.5,-317.7 410.5,-317.7"/>
<text text-anchor="start" x="413.059" y="-325.4" font-family="Helvetica,sans-Serif" font-size="11.00" fill="#000000">integer[2000000000]</text>
<polygon fill="none" stroke="#000000" points="303.5,-295.7 303.5,-317.7 410.5,-317.7 410.5,-295.7 303.5,-295.7"/>
<text text-anchor="start" x="323.5" y="-302.8" font-family="Helvetica,sans-Serif" font-size="11.00" fill="#000000">Name</text>
<polygon fill="none" stroke="#000000" points="410.5,-295.7 410.5,-317.7 516.5,-317.7 516.5,-295.7 410.5,-295.7"/>
<text text-anchor="start" x="413.5" y="-303.4" font-family="Helvetica,sans-Serif" font-size="11.00" fill="#000000">nvarchar[200]</text>
<polygon fill="#ffffff" stroke="transparent" points="303.5,-273.7 303.5,-295.7 410.5,-295.7 410.5,-273.7 303.5,-273.7"/>
<polygon fill="none" stroke="#000000" points="303.5,-273.7 303.5,-295.7 410.5,-295.7 410.5,-273.7 303.5,-273.7"/>
<image xlink:href="../../images/foreignKeys.png" width="11px" height="12px" preserveAspectRatio="xMinYMin meet" x="308.5" y="-290.7"/>
<text text-anchor="start" x="323.5" y="-280.8" font-family="Helvetica,sans-Serif" font-size="11.00" fill="#000000">AlbumId</text>
<polygon fill="none" stroke="#000000" points="410.5,-273.7 410.5,-295.7 516.5,-295.7 516.5,-273.7 410.5,-273.7"/>
<text text-anchor="start" x="413.059" y="-281.4" font-family="Helvetica,sans-Serif" font-size="11.00" fill="#000000">integer[2000000000]</text>
<polygon fill="#ffffff" stroke="transparent" points="303.5,-251.7 303.5,-273.7 410.5,-273.7 410.5,-251.7 303.5,-251.7"/>
<polygon fill="none" stroke="#000000" points="303.5,-251.7 303.5,-273.7 410.5,-273.7 410.5,-251.7 303.5,-251.7"/>
<image xlink:href="../../images/foreignKeys.png" width="11px" height="12px" preserveAspectRatio="xMinYMin meet" x="308.5" y="-268.7"/>
<text text-anchor="start" x="323.5" y="-258.8" font-family="Helvetica,sans-Serif" font-size="11.00" fill="#000000">MediaTypeId</text>
<polygon fill="none" stroke="#000000" points="410.5,-251.7 410.5,-273.7 516.5,-273.7 516.5,-251.7 410.5,-251.7"/>
<text text-anchor="start" x="413.059" y="-259.4" font-family="Helvetica,sans-Serif" font-size="11.00" fill="#000000">integer[2000000000]</text>
<polygon fill="#ffffff" stroke="transparent" points="303.5,-229.7 303.5,-251.7 410.5,-251.7 410.5,-229.7 303.5,-229.7"/>
<polygon fill="none" stroke="#000000" points="303.5,-229.7 303.5,-251.7 410.5,-251.7 410.5,-229.7 303.5,-229.7"/>
<image xlink:href="../../images/foreignKeys.png" width="11px" height="12px" preserveAspectRatio="xMinYMin meet" x="308.5" y="-246.7"/>
<text text-anchor="start" x="323.5" y="-236.8" font-family="Helvetica,sans-Serif" font-size="11.00" fill="#000000">GenreId</text>
<polygon fill="none" stroke="#000000" points="410.5,-229.7 410.5,-251.7 516.5,-251.7 516.5,-229.7 410.5,-229.7"/>
<text text-anchor="start" x="413.059" y="-237.4" font-family="Helvetica,sans-Serif" font-size="11.00" fill="#000000">integer[2000000000]</text>
<polygon fill="none" stroke="#000000" points="303.5,-207.7 303.5,-229.7 410.5,-229.7 410.5,-207.7 303.5,-207.7"/>
<text text-anchor="start" x="323.5" y="-214.8" font-family="Helvetica,sans-Serif" font-size="11.00" fill="#000000">Composer</text>
<polygon fill="none" stroke="#000000" points="410.5,-207.7 410.5,-229.7 516.5,-229.7 516.5,-207.7 410.5,-207.7"/>
<text text-anchor="start" x="413.5" y="-215.4" font-family="Helvetica,sans-Serif" font-size="11.00" fill="#000000">nvarchar[220]</text>
<polygon fill="none" stroke="#000000" points="303.5,-185.7 303.5,-207.7 410.5,-207.7 410.5,-185.7 303.5,-185.7"/>
<text text-anchor="start" x="323.5" y="-192.8" font-family="Helvetica,sans-Serif" font-size="11.00" fill="#000000">Milliseconds</text>
<polygon fill="none" stroke="#000000" points="410.5,-185.7 410.5,-207.7 516.5,-207.7 516.5,-185.7 410.5,-185.7"/>
<text text-anchor="start" x="413.059" y="-193.4" font-family="Helvetica,sans-Serif" font-size="11.00" fill="#000000">integer[2000000000]</text>
<polygon fill="none" stroke="#000000" points="303.5,-163.7 303.5,-185.7 410.5,-185.7 410.5,-163.7 303.5,-163.7"/>
<text text-anchor="start" x="323.5" y="-170.8" font-family="Helvetica,sans-Serif" font-size="11.00" fill="#000000">Bytes</text>
<polygon fill="none" stroke="#000000" points="410.5,-163.7 410.5,-185.7 516.5,-185.7 516.5,-163.7 410.5,-163.7"/>
<text text-anchor="start" x="413.059" y="-171.4" font-family="Helvetica,sans-Serif" font-size="11.00" fill="#000000">integer[2000000000]</text>
<polygon fill="none" stroke="#000000" points="303.5,-141.7 303.5,-163.7 410.5,-163.7 410.5,-141.7 303.5,-141.7"/>
<text text-anchor="start" x="323.5" y="-148.8" font-family="Helvetica,sans-Serif" font-size="11.00" fill="#000000">UnitPrice</text>
<polygon fill="none" stroke="#000000" points="410.5,-141.7 410.5,-163.7 516.5,-163.7 516.5,-141.7 410.5,-141.7"/>
<text text-anchor="start" x="413.5" y="-149.4" font-family="Helvetica,sans-Serif" font-size="11.00" fill="#000000">numeric[12,2]</text>
<polygon fill="#ffffff" stroke="transparent" points="303.5,-122.7 303.5,-141.7 337.5,-141.7 337.5,-122.7 303.5,-122.7"/>
<polygon fill="none" stroke="#000000" points="303.5,-122.7 303.5,-141.7 337.5,-141.7 337.5,-122.7 303.5,-122.7"/>
<text text-anchor="start" x="306.5" y="-128.8" font-family="Helvetica,sans-Serif" font-size="11.00" fill="#000000">&lt; 3</text>
<polygon fill="#ffffff" stroke="transparent" points="337.5,-122.7 337.5,-141.7 410.5,-141.7 410.5,-122.7 337.5,-122.7"/>
<polygon fill="none" stroke="#000000" points="337.5,-122.7 337.5,-141.7 410.5,-141.7 410.5,-122.7 337.5,-122.7"/>
<text text-anchor="start" x="353.7089" y="-128.8" font-family="Helvetica,sans-Serif" font-size="11.00" fill="#000000">3,503 rows</text>
<polygon fill="#ffffff" stroke="transparent" points="410.5,-122.7 410.5,-141.7 516.5,-141.7 516.5,-122.7 410.5,-122.7"/>
<polygon fill="none" stroke="#000000" points="410.5,-122.7 410.5,-141.7 516.5,-141.7 516.5,-122.7 410.5,-122.7"/>
<text text-anchor="start" x="497.9053" y="-128.8" font-family="Helvetica,sans-Serif" font-size="11.00" fill="#000000">2 &gt;</text>
<polygon fill="none" stroke="#000000" stroke-width="2" points="302,-121.7 302,-363.7 517,-363.7 517,-121.7 302,-121.7"/>
</a>
</g>
</g>
<!-- InvoiceLine&#45;&gt;Track -->
<g id="edge3" class="edge">
<title>InvoiceLine:w&#45;&gt;Track:e</title>
<path fill="none" stroke="#000000" d="M558.6952,-356.3825C543.4622,-348.3853 539.3245,-328.7 516.5,-328.7"/>
<polygon fill="#000000" stroke="#000000" points="565.2068,-357.8926 572.1867,-363.2069 569.1034,-358.7963 573,-359.7 573,-359.7 573,-359.7 569.1034,-358.7963 573.8133,-356.1931 565.2068,-357.8926 565.2068,-357.8926"/>
<ellipse fill="none" stroke="#000000" cx="562.0896" cy="-357.1696" rx="3.2" ry="3.2"/>
</g>
<!-- Track&#45;&gt;Album -->
<g id="edge6" class="edge">
<title>Track:w&#45;&gt;Album:e</title>
<path fill="none" stroke="#000000" d="M289.1937,-288.1603C258.6496,-306.2059 289.8259,-388.7 242,-388.7"/>
<polygon fill="#000000" stroke="#000000" points="295.7242,-286.5808 304.3463,-288.1991 299.6121,-285.6404 303.5,-284.7 303.5,-284.7 303.5,-284.7 299.6121,-285.6404 302.6537,-281.2009 295.7242,-286.5808 295.7242,-286.5808"/>
<ellipse fill="none" stroke="#000000" cx="292.6139" cy="-287.3331" rx="3.2" ry="3.2"/>
</g>
<!-- Genre -->
<g id="node8" class="node">
<title>Genre</title>
<g id="a_node8"><a xlink:href="../../tables/Genre.html" xlink:title="Genre" target="_top">
<polygon fill="#ffffff" stroke="transparent" points="156.5,-110.2 156.5,-193.2 235.5,-193.2 235.5,-110.2 156.5,-110.2"/>
<polygon fill="#f5f5f5" stroke="transparent" points="157,-169.7 157,-192.7 236,-192.7 236,-169.7 157,-169.7"/>
<polygon fill="none" stroke="#000000" points="157,-169.7 157,-192.7 236,-192.7 236,-169.7 157,-169.7"/>
<text text-anchor="start" x="162" y="-178.3" font-family="Helvetica,sans-Serif" font-weight="bold" font-size="11.00" fill="#000000">Genre</text>
<text text-anchor="start" x="201.5219" y="-177.8" font-family="Helvetica,sans-Serif" font-size="11.00" fill="#000000">[table]</text>
<polygon fill="none" stroke="#000000" points="157,-147.7 157,-169.7 236,-169.7 236,-147.7 157,-147.7"/>
<image xlink:href="../../images/primaryKeys.png" width="11px" height="12px" preserveAspectRatio="xMinYMin meet" x="162" y="-164.7"/>
<text text-anchor="start" x="180" y="-154.8" font-family="Helvetica,sans-Serif" font-size="11.00" fill="#000000">GenreId</text>
<polygon fill="none" stroke="#000000" points="157,-128.7 157,-147.7 236,-147.7 236,-128.7 157,-128.7"/>
<text text-anchor="start" x="160" y="-134.8" font-family="Helvetica,sans-Serif" font-size="11.00" fill="#000000">...</text>
<polygon fill="#ffffff" stroke="transparent" points="157,-109.7 157,-128.7 170,-128.7 170,-109.7 157,-109.7"/>
<polygon fill="none" stroke="#000000" points="157,-109.7 157,-128.7 170,-128.7 170,-109.7 157,-109.7"/>
<text text-anchor="start" x="160" y="-115.8" font-family="Helvetica,sans-Serif" font-size="11.00" fill="#000000"> &#160;</text>
<polygon fill="#ffffff" stroke="transparent" points="170,-109.7 170,-128.7 214,-128.7 214,-109.7 170,-109.7"/>
<polygon fill="none" stroke="#000000" points="170,-109.7 170,-128.7 214,-128.7 214,-109.7 170,-109.7"/>
<text text-anchor="start" x="172.7478" y="-115.8" font-family="Helvetica,sans-Serif" font-size="11.00" fill="#000000">25 rows</text>
<polygon fill="#ffffff" stroke="transparent" points="214,-109.7 214,-128.7 236,-128.7 236,-109.7 214,-109.7"/>
<polygon fill="none" stroke="#000000" points="214,-109.7 214,-128.7 236,-128.7 236,-109.7 214,-109.7"/>
<text text-anchor="start" x="217.4053" y="-115.8" font-family="Helvetica,sans-Serif" font-size="11.00" fill="#000000">1 &gt;</text>
</a>
</g>
</g>
<!-- Track&#45;&gt;Genre -->
<g id="edge7" class="edge">
<title>Track:w&#45;&gt;Genre:e</title>
<path fill="none" stroke="#000000" d="M289.3488,-237.3839C261.7261,-222.043 277.4877,-158.7 236,-158.7"/>
<polygon fill="#000000" stroke="#000000" points="295.711,-238.8748 302.6786,-244.2051 299.6055,-239.7874 303.5,-240.7 303.5,-240.7 303.5,-240.7 299.6055,-239.7874 304.3214,-237.1949 295.711,-238.8748 295.711,-238.8748"/>
<ellipse fill="none" stroke="#000000" cx="292.5954" cy="-238.1447" rx="3.2" ry="3.2"/>
</g>
<!-- MediaType -->
<g id="node9" class="node">
<title>MediaType</title>
<g id="a_node9"><a xlink:href="../../tables/MediaType.html" xlink:title="MediaType" target="_top">
<polygon fill="#ffffff" stroke="transparent" points="140,-214.2 140,-297.2 252,-297.2 252,-214.2 140,-214.2"/>
<polygon fill="#f5f5f5" stroke="transparent" points="140,-273.7 140,-296.7 252,-296.7 252,-273.7 140,-273.7"/>
<polygon fill="none" stroke="#000000" points="140,-273.7 140,-296.7 252,-296.7 252,-273.7 140,-273.7"/>
<text text-anchor="start" x="145" y="-282.3" font-family="Helvetica,sans-Serif" font-weight="bold" font-size="11.00" fill="#000000">MediaType</text>
<text text-anchor="start" x="217.5219" y="-281.8" font-family="Helvetica,sans-Serif" font-size="11.00" fill="#000000">[table]</text>
<polygon fill="none" stroke="#000000" points="140,-251.7 140,-273.7 252,-273.7 252,-251.7 140,-251.7"/>
<image xlink:href="../../images/primaryKeys.png" width="11px" height="12px" preserveAspectRatio="xMinYMin meet" x="145" y="-268.7"/>
<text text-anchor="start" x="163" y="-258.8" font-family="Helvetica,sans-Serif" font-size="11.00" fill="#000000">MediaTypeId</text>
<polygon fill="none" stroke="#000000" points="140,-232.7 140,-251.7 252,-251.7 252,-232.7 140,-232.7"/>
<text text-anchor="start" x="143" y="-238.8" font-family="Helvetica,sans-Serif" font-size="11.00" fill="#000000">...</text>
<polygon fill="#ffffff" stroke="transparent" points="140,-213.7 140,-232.7 172,-232.7 172,-213.7 140,-213.7"/>
<polygon fill="none" stroke="#000000" points="140,-213.7 140,-232.7 172,-232.7 172,-213.7 140,-213.7"/>
<text text-anchor="start" x="143" y="-219.8" font-family="Helvetica,sans-Serif" font-size="11.00" fill="#000000"> &#160;</text>
<polygon fill="#ffffff" stroke="transparent" points="172,-213.7 172,-232.7 220,-232.7 220,-213.7 172,-213.7"/>
<polygon fill="none" stroke="#000000" points="172,-213.7 172,-232.7 220,-232.7 220,-213.7 172,-213.7"/>
<text text-anchor="start" x="184.6105" y="-219.8" font-family="Helvetica,sans-Serif" font-size="11.00" fill="#000000">5 rows</text>
<polygon fill="#ffffff" stroke="transparent" points="220,-213.7 220,-232.7 252,-232.7 252,-213.7 220,-213.7"/>
<polygon fill="none" stroke="#000000" points="220,-213.7 220,-232.7 252,-232.7 252,-213.7 220,-213.7"/>
<text text-anchor="start" x="233.4053" y="-219.8" font-family="Helvetica,sans-Serif" font-size="11.00" fill="#000000">1 &gt;</text>
</a>
</g>
</g>
<!-- Track&#45;&gt;MediaType -->
<g id="edge8" class="edge">
<title>Track:w&#45;&gt;MediaType:e</title>
<path fill="none" stroke="#000000" d="M289.0156,-262.7C276.6771,-262.7 269.1667,-262.7 252,-262.7"/>
<polygon fill="#000000" stroke="#000000" points="295.5,-262.7001 303.5,-266.3 299.5,-262.7 303.5,-262.7 303.5,-262.7 303.5,-262.7 299.5,-262.7 303.5,-259.1 295.5,-262.7001 295.5,-262.7001"/>
<ellipse fill="none" stroke="#000000" cx="292.3" cy="-262.7001" rx="3.2" ry="3.2"/>
</g>
<!-- PlaylistTrack -->
<g id="node6" class="node">
<title>PlaylistTrack</title>
<g id="a_node6"><a xlink:href="../../tables/PlaylistTrack.html" xlink:title="PlaylistTrack" target="_top">
<polygon fill="#ffffff" stroke="transparent" points="567,-124.7 567,-210.7 693,-210.7 693,-124.7 567,-124.7"/>
<polygon fill="#f5f5f5" stroke="transparent" points="567,-187.7 567,-210.7 693,-210.7 693,-187.7 567,-187.7"/>
<polygon fill="none" stroke="#000000" points="567,-187.7 567,-210.7 693,-210.7 693,-187.7 567,-187.7"/>
<text text-anchor="start" x="572" y="-196.3" font-family="Helvetica,sans-Serif" font-weight="bold" font-size="11.00" fill="#000000">PlaylistTrack</text>
<text text-anchor="start" x="658.5219" y="-195.8" font-family="Helvetica,sans-Serif" font-size="11.00" fill="#000000">[table]</text>
<polygon fill="none" stroke="#000000" points="567,-165.7 567,-187.7 693,-187.7 693,-165.7 567,-165.7"/>
<image xlink:href="../../images/primaryKeys.png" width="11px" height="12px" preserveAspectRatio="xMinYMin meet" x="572" y="-182.7"/>
<text text-anchor="start" x="596" y="-172.8" font-family="Helvetica,sans-Serif" font-size="11.00" fill="#000000">PlaylistId</text>
<polygon fill="none" stroke="#000000" points="567,-143.7 567,-165.7 693,-165.7 693,-143.7 567,-143.7"/>
<image xlink:href="../../images/primaryKeys.png" width="11px" height="12px" preserveAspectRatio="xMinYMin meet" x="572" y="-160.7"/>
<text text-anchor="start" x="596" y="-150.8" font-family="Helvetica,sans-Serif" font-size="11.00" fill="#000000">TrackId</text>
<polygon fill="#ffffff" stroke="transparent" points="567,-124.7 567,-143.7 605,-143.7 605,-124.7 567,-124.7"/>
<polygon fill="none" stroke="#000000" points="567,-124.7 567,-143.7 605,-143.7 605,-124.7 567,-124.7"/>
<text text-anchor="start" x="570" y="-130.8" font-family="Helvetica,sans-Serif" font-size="11.00" fill="#000000">&lt; 2</text>
<polygon fill="#ffffff" stroke="transparent" points="605,-124.7 605,-143.7 672,-143.7 672,-124.7 605,-124.7"/>
<polygon fill="none" stroke="#000000" points="605,-124.7 605,-143.7 672,-143.7 672,-124.7 605,-124.7"/>
<text text-anchor="start" x="615.2089" y="-130.8" font-family="Helvetica,sans-Serif" font-size="11.00" fill="#000000">8,715 rows</text>
<polygon fill="#ffffff" stroke="transparent" points="672,-124.7 672,-143.7 693,-143.7 693,-124.7 672,-124.7"/>
<polygon fill="none" stroke="#000000" points="672,-124.7 672,-143.7 693,-143.7 693,-124.7 672,-124.7"/>
<text text-anchor="start" x="683.8862" y="-130.8" font-family="Helvetica,sans-Serif" font-size="11.00" fill="#000000"> &#160;</text>
</a>
</g>
</g>
<!-- PlaylistTrack&#45;&gt;Track -->
<g id="edge5" class="edge">
<title>PlaylistTrack:w&#45;&gt;Track:e</title>
<path fill="none" stroke="#000000" d="M552.7154,-157.1597C501.0768,-178.3085 591.3626,-328.7 516.5,-328.7"/>
<polygon fill="#000000" stroke="#000000" points="559.116,-156.0576 567.6109,-158.2478 563.058,-155.3788 567,-154.7 567,-154.7 567,-154.7 563.058,-155.3788 566.3891,-151.1522 559.116,-156.0576 559.116,-156.0576"/>
<ellipse fill="none" stroke="#000000" cx="555.9624" cy="-156.6007" rx="3.2" ry="3.2"/>
</g>
<!-- Playlist -->
<g id="node7" class="node">
<title>Playlist</title>
<g id="a_node7"><a xlink:href="../../tables/Playlist.html" xlink:title="Playlist" target="_top">
<polygon fill="#ffffff" stroke="transparent" points="365.5,-38.2 365.5,-99.2 453.5,-99.2 453.5,-38.2 365.5,-38.2"/>
<polygon fill="#f5f5f5" stroke="transparent" points="365.5,-75.7 365.5,-98.7 453.5,-98.7 453.5,-75.7 365.5,-75.7"/>
<polygon fill="none" stroke="#000000" points="365.5,-75.7 365.5,-98.7 453.5,-98.7 453.5,-75.7 365.5,-75.7"/>
<text text-anchor="start" x="370.5" y="-84.3" font-family="Helvetica,sans-Serif" font-weight="bold" font-size="11.00" fill="#000000">Playlist</text>
<text text-anchor="start" x="419.0219" y="-83.8" font-family="Helvetica,sans-Serif" font-size="11.00" fill="#000000">[table]</text>
<polygon fill="none" stroke="#000000" points="365.5,-56.7 365.5,-75.7 453.5,-75.7 453.5,-56.7 365.5,-56.7"/>
<text text-anchor="start" x="368.5" y="-62.8" font-family="Helvetica,sans-Serif" font-size="11.00" fill="#000000">...</text>
<polygon fill="#ffffff" stroke="transparent" points="365.5,-37.7 365.5,-56.7 382.5,-56.7 382.5,-37.7 365.5,-37.7"/>
<polygon fill="none" stroke="#000000" points="365.5,-37.7 365.5,-56.7 382.5,-56.7 382.5,-37.7 365.5,-37.7"/>
<text text-anchor="start" x="368.5" y="-43.8" font-family="Helvetica,sans-Serif" font-size="11.00" fill="#000000"> &#160;</text>
<polygon fill="#ffffff" stroke="transparent" points="382.5,-37.7 382.5,-56.7 429.5,-56.7 429.5,-37.7 382.5,-37.7"/>
<polygon fill="none" stroke="#000000" points="382.5,-37.7 382.5,-56.7 429.5,-56.7 429.5,-37.7 382.5,-37.7"/>
<text text-anchor="start" x="387.9956" y="-43.8" font-family="Helvetica,sans-Serif" font-size="11.00" fill="#000000">18 rows</text>
<polygon fill="#ffffff" stroke="transparent" points="429.5,-37.7 429.5,-56.7 453.5,-56.7 453.5,-37.7 429.5,-37.7"/>
<polygon fill="none" stroke="#000000" points="429.5,-37.7 429.5,-56.7 453.5,-56.7 453.5,-37.7 429.5,-37.7"/>
<text text-anchor="start" x="434.9053" y="-43.8" font-family="Helvetica,sans-Serif" font-size="11.00" fill="#000000">1 &gt;</text>
</a>
</g>
</g>
<!-- PlaylistTrack&#45;&gt;Playlist -->
<g id="edge4" class="edge">
<title>PlaylistTrack:w&#45;&gt;Playlist:e</title>
<path fill="none" stroke="#000000" d="M552.8058,-172.9455C537.3882,-162.0491 546.2872,-129.9127 526,-109.7 499.2987,-83.0967 491.1921,-65.7 453.5,-65.7"/>
<polygon fill="#000000" stroke="#000000" points="559.266,-174.6542 566.0794,-180.1803 563.133,-175.6771 567,-176.7 567,-176.7 567,-176.7 563.133,-175.6771 567.9206,-173.2197 559.266,-174.6542 559.266,-174.6542"/>
<ellipse fill="none" stroke="#000000" cx="556.1724" cy="-173.8359" rx="3.2" ry="3.2"/>
</g>
</g>
</svg>
