<?xml version="1.0" encoding="UTF-8" standalone="no"?>
<!DOCTYPE svg PUBLIC "-//W3C//DTD SVG 1.1//EN"
 "http://www.w3.org/Graphics/SVG/1.1/DTD/svg11.dtd">
<!-- Generated by graphviz version 2.40.1 (20161225.0304)
 -->
<!-- Title: oneDegreeRelationshipsDiagram Pages: 1 -->
<svg width="577pt" height="410pt"
 viewBox="0.00 0.00 577.00 410.20" xmlns="http://www.w3.org/2000/svg" xmlns:xlink="http://www.w3.org/1999/xlink">
<g id="graph0" class="graph" transform="scale(1 1) rotate(0) translate(4 406.2)">
<title>oneDegreeRelationshipsDiagram</title>
<polygon fill="#ffffff" stroke="transparent" points="-4,4 -4,-406.2 573,-406.2 573,4 -4,4"/>
<text text-anchor="middle" x="72.4936" y="-7.3" font-family="Helvetica,sans-Serif" font-size="11.00" fill="#000000">Generated by SchemaSpy</text>
<!-- InvoiceLine -->
<g id="node1" class="node">
<title>InvoiceLine</title>
<g id="a_node1"><a xlink:href="../../tables/InvoiceLine.html" xlink:title="InvoiceLine" target="_top">
<polygon fill="#ffffff" stroke="transparent" points="440.5,-271.2 440.5,-398.2 555.5,-398.2 555.5,-271.2 440.5,-271.2"/>
<polygon fill="#f5f5f5" stroke="transparent" points="441,-374.7 441,-397.7 556,-397.7 556,-374.7 441,-374.7"/>
<polygon fill="none" stroke="#000000" points="441,-374.7 441,-397.7 556,-397.7 556,-374.7 441,-374.7"/>
<text text-anchor="start" x="446" y="-383.3" font-family="Helvetica,sans-Serif" font-weight="bold" font-size="11.00" fill="#000000">InvoiceLine</text>
<text text-anchor="start" x="521.5219" y="-382.8" font-family="Helvetica,sans-Serif" font-size="11.00" fill="#000000">[table]</text>
<polygon fill="none" stroke="#000000" points="441,-352.7 441,-374.7 556,-374.7 556,-352.7 441,-352.7"/>
<image xlink:href="../../images/primaryKeys.png" width="11px" height="12px" preserveAspectRatio="xMinYMin meet" x="446" y="-369.7"/>
<text text-anchor="start" x="464" y="-359.8" font-family="Helvetica,sans-Serif" font-size="11.00" fill="#000000">InvoiceLineId</text>
<polygon fill="#ffffff" stroke="transparent" points="441,-330.7 441,-352.7 556,-352.7 556,-330.7 441,-330.7"/>
<polygon fill="none" stroke="#000000" points="441,-330.7 441,-352.7 556,-352.7 556,-330.7 441,-330.7"/>
<image xlink:href="../../images/foreignKeys.png" width="11px" height="12px" preserveAspectRatio="xMinYMin meet" x="446" y="-347.7"/>
<text text-anchor="start" x="464" y="-337.8" font-family="Helvetica,sans-Serif" font-size="11.00" fill="#000000">InvoiceId</text>
<polygon fill="#ffffff" stroke="transparent" points="441,-308.7 441,-330.7 556,-330.7 556,-308.7 441,-308.7"/>
<polygon fill="none" stroke="#000000" points="441,-308.7 441,-330.7 556,-330.7 556,-308.7 441,-308.7"/>
<image xlink:href="../../images/foreignKeys.png" width="11px" height="12px" preserveAspectRatio="xMinYMin meet" x="446" y="-325.7"/>
<text text-anchor="start" x="464" y="-315.8" font-family="Helvetica,sans-Serif" font-size="11.00" fill="#000000">TrackId</text>
<polygon fill="none" stroke="#000000" points="441,-289.7 441,-308.7 556,-308.7 556,-289.7 441,-289.7"/>
<text text-anchor="start" x="444" y="-295.8" font-family="Helvetica,sans-Serif" font-size="11.00" fill="#000000">...</text>
<polygon fill="#ffffff" stroke="transparent" points="441,-270.7 441,-289.7 473,-289.7 473,-270.7 441,-270.7"/>
<polygon fill="none" stroke="#000000" points="441,-270.7 441,-289.7 473,-289.7 473,-270.7 441,-270.7"/>
<text text-anchor="start" x="444" y="-276.8" font-family="Helvetica,sans-Serif" font-size="11.00" fill="#000000">&lt; 2</text>
<polygon fill="#ffffff" stroke="transparent" points="473,-270.7 473,-289.7 538,-289.7 538,-270.7 473,-270.7"/>
<polygon fill="none" stroke="#000000" points="473,-270.7 473,-289.7 538,-289.7 538,-270.7 473,-270.7"/>
<text text-anchor="start" x="481.2089" y="-276.8" font-family="Helvetica,sans-Serif" font-size="11.00" fill="#000000">2,240 rows</text>
<polygon fill="#ffffff" stroke="transparent" points="538,-270.7 538,-289.7 556,-289.7 556,-270.7 538,-270.7"/>
<polygon fill="none" stroke="#000000" points="538,-270.7 538,-289.7 556,-289.7 556,-270.7 538,-270.7"/>
<text text-anchor="start" x="546.8862" y="-276.8" font-family="Helvetica,sans-Serif" font-size="11.00" fill="#000000"> &#160;</text>
</a>
</g>
</g>
<!-- Track -->
<g id="node2" class="node">
<title>Track</title>
<g id="a_node2"><a xlink:href="../../tables/Track.html" xlink:title="Track" target="_top">
<polygon fill="#ffffff" stroke="transparent" points="169,-48.7 169,-292.7 386,-292.7 386,-48.7 169,-48.7"/>
<polygon fill="#f5f5f5" stroke="transparent" points="171.5,-267.7 171.5,-290.7 384.5,-290.7 384.5,-267.7 171.5,-267.7"/>
<polygon fill="none" stroke="#000000" points="171.5,-267.7 171.5,-290.7 384.5,-290.7 384.5,-267.7 171.5,-267.7"/>
<text text-anchor="start" x="176.5" y="-276.3" font-family="Helvetica,sans-Serif" font-weight="bold" font-size="11.00" fill="#000000">Track</text>
<text text-anchor="start" x="349.5437" y="-275.8" font-family="Helvetica,sans-Serif" font-size="11.00" fill="#000000">[table]</text>
<polygon fill="none" stroke="#000000" points="171.5,-245.7 171.5,-267.7 278.5,-267.7 278.5,-245.7 171.5,-245.7"/>
<image xlink:href="../../images/primaryKeys.png" width="11px" height="12px" preserveAspectRatio="xMinYMin meet" x="176.5" y="-262.7"/>
<text text-anchor="start" x="191.5" y="-252.8" font-family="Helvetica,sans-Serif" font-size="11.00" fill="#000000">TrackId</text>
<polygon fill="none" stroke="#000000" points="278.5,-245.7 278.5,-267.7 384.5,-267.7 384.5,-245.7 278.5,-245.7"/>
<text text-anchor="start" x="281.059" y="-253.4" font-family="Helvetica,sans-Serif" font-size="11.00" fill="#000000">integer[2000000000]</text>
<polygon fill="none" stroke="#000000" points="171.5,-223.7 171.5,-245.7 278.5,-245.7 278.5,-223.7 171.5,-223.7"/>
<text text-anchor="start" x="191.5" y="-230.8" font-family="Helvetica,sans-Serif" font-size="11.00" fill="#000000">Name</text>
<polygon fill="none" stroke="#000000" points="278.5,-223.7 278.5,-245.7 384.5,-245.7 384.5,-223.7 278.5,-223.7"/>
<text text-anchor="start" x="281.5" y="-231.4" font-family="Helvetica,sans-Serif" font-size="11.00" fill="#000000">nvarchar[200]</text>
<polygon fill="#ffffff" stroke="transparent" points="171.5,-201.7 171.5,-223.7 278.5,-223.7 278.5,-201.7 171.5,-201.7"/>
<polygon fill="none" stroke="#000000" points="171.5,-201.7 171.5,-223.7 278.5,-223.7 278.5,-201.7 171.5,-201.7"/>
<image xlink:href="../../images/foreignKeys.png" width="11px" height="12px" preserveAspectRatio="xMinYMin meet" x="176.5" y="-218.7"/>
<text text-anchor="start" x="191.5" y="-208.8" font-family="Helvetica,sans-Serif" font-size="11.00" fill="#000000">AlbumId</text>
<polygon fill="none" stroke="#000000" points="278.5,-201.7 278.5,-223.7 384.5,-223.7 384.5,-201.7 278.5,-201.7"/>
<text text-anchor="start" x="281.059" y="-209.4" font-family="Helvetica,sans-Serif" font-size="11.00" fill="#000000">integer[2000000000]</text>
<polygon fill="#ffffff" stroke="transparent" points="171.5,-179.7 171.5,-201.7 278.5,-201.7 278.5,-179.7 171.5,-179.7"/>
<polygon fill="none" stroke="#000000" points="171.5,-179.7 171.5,-201.7 278.5,-201.7 278.5,-179.7 171.5,-179.7"/>
<image xlink:href="../../images/foreignKeys.png" width="11px" height="12px" preserveAspectRatio="xMinYMin meet" x="176.5" y="-196.7"/>
<text text-anchor="start" x="191.5" y="-186.8" font-family="Helvetica,sans-Serif" font-size="11.00" fill="#000000">MediaTypeId</text>
<polygon fill="none" stroke="#000000" points="278.5,-179.7 278.5,-201.7 384.5,-201.7 384.5,-179.7 278.5,-179.7"/>
<text text-anchor="start" x="281.059" y="-187.4" font-family="Helvetica,sans-Serif" font-size="11.00" fill="#000000">integer[2000000000]</text>
<polygon fill="#ffffff" stroke="transparent" points="171.5,-157.7 171.5,-179.7 278.5,-179.7 278.5,-157.7 171.5,-157.7"/>
<polygon fill="none" stroke="#000000" points="171.5,-157.7 171.5,-179.7 278.5,-179.7 278.5,-157.7 171.5,-157.7"/>
<image xlink:href="../../images/foreignKeys.png" width="11px" height="12px" preserveAspectRatio="xMinYMin meet" x="176.5" y="-174.7"/>
<text text-anchor="start" x="191.5" y="-164.8" font-family="Helvetica,sans-Serif" font-size="11.00" fill="#000000">GenreId</text>
<polygon fill="none" stroke="#000000" points="278.5,-157.7 278.5,-179.7 384.5,-179.7 384.5,-157.7 278.5,-157.7"/>
<text text-anchor="start" x="281.059" y="-165.4" font-family="Helvetica,sans-Serif" font-size="11.00" fill="#000000">integer[2000000000]</text>
<polygon fill="none" stroke="#000000" points="171.5,-135.7 171.5,-157.7 278.5,-157.7 278.5,-135.7 171.5,-135.7"/>
<text text-anchor="start" x="191.5" y="-142.8" font-family="Helvetica,sans-Serif" font-size="11.00" fill="#000000">Composer</text>
<polygon fill="none" stroke="#000000" points="278.5,-135.7 278.5,-157.7 384.5,-157.7 384.5,-135.7 278.5,-135.7"/>
<text text-anchor="start" x="281.5" y="-143.4" font-family="Helvetica,sans-Serif" font-size="11.00" fill="#000000">nvarchar[220]</text>
<polygon fill="none" stroke="#000000" points="171.5,-113.7 171.5,-135.7 278.5,-135.7 278.5,-113.7 171.5,-113.7"/>
<text text-anchor="start" x="191.5" y="-120.8" font-family="Helvetica,sans-Serif" font-size="11.00" fill="#000000">Milliseconds</text>
<polygon fill="none" stroke="#000000" points="278.5,-113.7 278.5,-135.7 384.5,-135.7 384.5,-113.7 278.5,-113.7"/>
<text text-anchor="start" x="281.059" y="-121.4" font-family="Helvetica,sans-Serif" font-size="11.00" fill="#000000">integer[2000000000]</text>
<polygon fill="none" stroke="#000000" points="171.5,-91.7 171.5,-113.7 278.5,-113.7 278.5,-91.7 171.5,-91.7"/>
<text text-anchor="start" x="191.5" y="-98.8" font-family="Helvetica,sans-Serif" font-size="11.00" fill="#000000">Bytes</text>
<polygon fill="none" stroke="#000000" points="278.5,-91.7 278.5,-113.7 384.5,-113.7 384.5,-91.7 278.5,-91.7"/>
<text text-anchor="start" x="281.059" y="-99.4" font-family="Helvetica,sans-Serif" font-size="11.00" fill="#000000">integer[2000000000]</text>
<polygon fill="none" stroke="#000000" points="171.5,-69.7 171.5,-91.7 278.5,-91.7 278.5,-69.7 171.5,-69.7"/>
<text text-anchor="start" x="191.5" y="-76.8" font-family="Helvetica,sans-Serif" font-size="11.00" fill="#000000">UnitPrice</text>
<polygon fill="none" stroke="#000000" points="278.5,-69.7 278.5,-91.7 384.5,-91.7 384.5,-69.7 278.5,-69.7"/>
<text text-anchor="start" x="281.5" y="-77.4" font-family="Helvetica,sans-Serif" font-size="11.00" fill="#000000">numeric[12,2]</text>
<polygon fill="#ffffff" stroke="transparent" points="171.5,-50.7 171.5,-69.7 205.5,-69.7 205.5,-50.7 171.5,-50.7"/>
<polygon fill="none" stroke="#000000" points="171.5,-50.7 171.5,-69.7 205.5,-69.7 205.5,-50.7 171.5,-50.7"/>
<text text-anchor="start" x="174.5" y="-56.8" font-family="Helvetica,sans-Serif" font-size="11.00" fill="#000000">&lt; 3</text>
<polygon fill="#ffffff" stroke="transparent" points="205.5,-50.7 205.5,-69.7 278.5,-69.7 278.5,-50.7 205.5,-50.7"/>
<polygon fill="none" stroke="#000000" points="205.5,-50.7 205.5,-69.7 278.5,-69.7 278.5,-50.7 205.5,-50.7"/>
<text text-anchor="start" x="221.7089" y="-56.8" font-family="Helvetica,sans-Serif" font-size="11.00" fill="#000000">3,503 rows</text>
<polygon fill="#ffffff" stroke="transparent" points="278.5,-50.7 278.5,-69.7 384.5,-69.7 384.5,-50.7 278.5,-50.7"/>
<polygon fill="none" stroke="#000000" points="278.5,-50.7 278.5,-69.7 384.5,-69.7 384.5,-50.7 278.5,-50.7"/>
<text text-anchor="start" x="365.9053" y="-56.8" font-family="Helvetica,sans-Serif" font-size="11.00" fill="#000000">2 &gt;</text>
<polygon fill="none" stroke="#000000" stroke-width="2" points="170,-49.7 170,-291.7 385,-291.7 385,-49.7 170,-49.7"/>
</a>
</g>
</g>
<!-- InvoiceLine&#45;&gt;Track -->
<g id="edge1" class="edge">
<title>InvoiceLine:w&#45;&gt;Track:e</title>
<path fill="none" stroke="#000000" d="M427.0661,-315.5664C407.8644,-301.5506 416.2341,-256.7 384.5,-256.7"/>
<polygon fill="#000000" stroke="#000000" points="433.3304,-317.4247 439.9761,-323.1513 437.1652,-318.5624 441,-319.7 441,-319.7 441,-319.7 437.1652,-318.5624 442.0239,-316.2487 433.3304,-317.4247 433.3304,-317.4247"/>
<ellipse fill="none" stroke="#000000" cx="430.2625" cy="-316.5146" rx="3.2" ry="3.2"/>
</g>
<!-- Album -->
<g id="node4" class="node">
<title>Album</title>
<g id="a_node4"><a xlink:href="../../tables/Album.html" xlink:title="Album" target="_top">
<polygon fill="#ffffff" stroke="transparent" points="18,-246.2 18,-351.2 110,-351.2 110,-246.2 18,-246.2"/>
<polygon fill="#f5f5f5" stroke="transparent" points="18,-327.7 18,-350.7 110,-350.7 110,-327.7 18,-327.7"/>
<polygon fill="none" stroke="#000000" points="18,-327.7 18,-350.7 110,-350.7 110,-327.7 18,-327.7"/>
<text text-anchor="start" x="23" y="-336.3" font-family="Helvetica,sans-Serif" font-weight="bold" font-size="11.00" fill="#000000">Album</text>
<text text-anchor="start" x="75.0437" y="-335.8" font-family="Helvetica,sans-Serif" font-size="11.00" fill="#000000">[table]</text>
<polygon fill="none" stroke="#000000" points="18,-305.7 18,-327.7 110,-327.7 110,-305.7 18,-305.7"/>
<image xlink:href="../../images/primaryKeys.png" width="11px" height="12px" preserveAspectRatio="xMinYMin meet" x="23" y="-322.7"/>
<text text-anchor="start" x="46" y="-312.8" font-family="Helvetica,sans-Serif" font-size="11.00" fill="#000000">AlbumId</text>
<polygon fill="#ffffff" stroke="transparent" points="18,-283.7 18,-305.7 110,-305.7 110,-283.7 18,-283.7"/>
<polygon fill="none" stroke="#000000" points="18,-283.7 18,-305.7 110,-305.7 110,-283.7 18,-283.7"/>
<image xlink:href="../../images/foreignKeys.png" width="11px" height="12px" preserveAspectRatio="xMinYMin meet" x="23" y="-300.7"/>
<text text-anchor="start" x="46" y="-290.8" font-family="Helvetica,sans-Serif" font-size="11.00" fill="#000000">ArtistId</text>
<polygon fill="none" stroke="#000000" points="18,-264.7 18,-283.7 110,-283.7 110,-264.7 18,-264.7"/>
<text text-anchor="start" x="21" y="-270.8" font-family="Helvetica,sans-Serif" font-size="11.00" fill="#000000">...</text>
<polygon fill="#ffffff" stroke="transparent" points="18,-245.7 18,-264.7 39,-264.7 39,-245.7 18,-245.7"/>
<polygon fill="none" stroke="#000000" points="18,-245.7 18,-264.7 39,-264.7 39,-245.7 18,-245.7"/>
<text text-anchor="start" x="20.7026" y="-251.8" font-family="Helvetica,sans-Serif" font-size="11.00" fill="#000000">&lt; 1</text>
<polygon fill="#ffffff" stroke="transparent" points="39,-245.7 39,-264.7 89,-264.7 89,-245.7 39,-245.7"/>
<polygon fill="none" stroke="#000000" points="39,-245.7 39,-264.7 89,-264.7 89,-245.7 39,-245.7"/>
<text text-anchor="start" x="41.6903" y="-251.8" font-family="Helvetica,sans-Serif" font-size="11.00" fill="#000000">347 rows</text>
<polygon fill="#ffffff" stroke="transparent" points="89,-245.7 89,-264.7 110,-264.7 110,-245.7 89,-245.7"/>
<polygon fill="none" stroke="#000000" points="89,-245.7 89,-264.7 110,-264.7 110,-245.7 89,-245.7"/>
<text text-anchor="start" x="91.7027" y="-251.8" font-family="Helvetica,sans-Serif" font-size="11.00" fill="#000000">1 &gt;</text>
</a>
</g>
</g>
<!-- Track&#45;&gt;Album -->
<g id="edge3" class="edge">
<title>Track:w&#45;&gt;Album:e</title>
<path fill="none" stroke="#000000" d="M157.1937,-216.1603C126.6496,-234.2059 157.8259,-316.7 110,-316.7"/>
<polygon fill="#000000" stroke="#000000" points="163.7242,-214.5808 172.3463,-216.1991 167.6121,-213.6404 171.5,-212.7 171.5,-212.7 171.5,-212.7 167.6121,-213.6404 170.6537,-209.2009 163.7242,-214.5808 163.7242,-214.5808"/>
<ellipse fill="none" stroke="#000000" cx="160.6139" cy="-215.3331" rx="3.2" ry="3.2"/>
</g>
<!-- Genre -->
<g id="node5" class="node">
<title>Genre</title>
<g id="a_node5"><a xlink:href="../../tables/Genre.html" xlink:title="Genre" target="_top">
<polygon fill="#ffffff" stroke="transparent" points="24.5,-38.2 24.5,-121.2 103.5,-121.2 103.5,-38.2 24.5,-38.2"/>
<polygon fill="#f5f5f5" stroke="transparent" points="25,-97.7 25,-120.7 104,-120.7 104,-97.7 25,-97.7"/>
<polygon fill="none" stroke="#000000" points="25,-97.7 25,-120.7 104,-120.7 104,-97.7 25,-97.7"/>
<text text-anchor="start" x="30" y="-106.3" font-family="Helvetica,sans-Serif" font-weight="bold" font-size="11.00" fill="#000000">Genre</text>
<text text-anchor="start" x="69.5219" y="-105.8" font-family="Helvetica,sans-Serif" font-size="11.00" fill="#000000">[table]</text>
<polygon fill="none" stroke="#000000" points="25,-75.7 25,-97.7 104,-97.7 104,-75.7 25,-75.7"/>
<image xlink:href="../../images/primaryKeys.png" width="11px" height="12px" preserveAspectRatio="xMinYMin meet" x="30" y="-92.7"/>
<text text-anchor="start" x="48" y="-82.8" font-family="Helvetica,sans-Serif" font-size="11.00" fill="#000000">GenreId</text>
<polygon fill="none" stroke="#000000" points="25,-56.7 25,-75.7 104,-75.7 104,-56.7 25,-56.7"/>
<text text-anchor="start" x="28" y="-62.8" font-family="Helvetica,sans-Serif" font-size="11.00" fill="#000000">...</text>
<polygon fill="#ffffff" stroke="transparent" points="25,-37.7 25,-56.7 38,-56.7 38,-37.7 25,-37.7"/>
<polygon fill="none" stroke="#000000" points="25,-37.7 25,-56.7 38,-56.7 38,-37.7 25,-37.7"/>
<text text-anchor="start" x="28" y="-43.8" font-family="Helvetica,sans-Serif" font-size="11.00" fill="#000000"> &#160;</text>
<polygon fill="#ffffff" stroke="transparent" points="38,-37.7 38,-56.7 82,-56.7 82,-37.7 38,-37.7"/>
<polygon fill="none" stroke="#000000" points="38,-37.7 38,-56.7 82,-56.7 82,-37.7 38,-37.7"/>
<text text-anchor="start" x="40.7478" y="-43.8" font-family="Helvetica,sans-Serif" font-size="11.00" fill="#000000">25 rows</text>
<polygon fill="#ffffff" stroke="transparent" points="82,-37.7 82,-56.7 104,-56.7 104,-37.7 82,-37.7"/>
<polygon fill="none" stroke="#000000" points="82,-37.7 82,-56.7 104,-56.7 104,-37.7 82,-37.7"/>
<text text-anchor="start" x="85.4053" y="-43.8" font-family="Helvetica,sans-Serif" font-size="11.00" fill="#000000">1 &gt;</text>
</a>
</g>
</g>
<!-- Track&#45;&gt;Genre -->
<g id="edge4" class="edge">
<title>Track:w&#45;&gt;Genre:e</title>
<path fill="none" stroke="#000000" d="M157.3488,-165.3839C129.7261,-150.043 145.4877,-86.7 104,-86.7"/>
<polygon fill="#000000" stroke="#000000" points="163.711,-166.8748 170.6786,-172.2051 167.6055,-167.7874 171.5,-168.7 171.5,-168.7 171.5,-168.7 167.6055,-167.7874 172.3214,-165.1949 163.711,-166.8748 163.711,-166.8748"/>
<ellipse fill="none" stroke="#000000" cx="160.5954" cy="-166.1447" rx="3.2" ry="3.2"/>
</g>
<!-- MediaType -->
<g id="node6" class="node">
<title>MediaType</title>
<g id="a_node6"><a xlink:href="../../tables/MediaType.html" xlink:title="MediaType" target="_top">
<polygon fill="#ffffff" stroke="transparent" points="8,-142.2 8,-225.2 120,-225.2 120,-142.2 8,-142.2"/>
<polygon fill="#f5f5f5" stroke="transparent" points="8,-201.7 8,-224.7 120,-224.7 120,-201.7 8,-201.7"/>
<polygon fill="none" stroke="#000000" points="8,-201.7 8,-224.7 120,-224.7 120,-201.7 8,-201.7"/>
<text text-anchor="start" x="13" y="-210.3" font-family="Helvetica,sans-Serif" font-weight="bold" font-size="11.00" fill="#000000">MediaType</text>
<text text-anchor="start" x="85.5219" y="-209.8" font-family="Helvetica,sans-Serif" font-size="11.00" fill="#000000">[table]</text>
<polygon fill="none" stroke="#000000" points="8,-179.7 8,-201.7 120,-201.7 120,-179.7 8,-179.7"/>
<image xlink:href="../../images/primaryKeys.png" width="11px" height="12px" preserveAspectRatio="xMinYMin meet" x="13" y="-196.7"/>
<text text-anchor="start" x="31" y="-186.8" font-family="Helvetica,sans-Serif" font-size="11.00" fill="#000000">MediaTypeId</text>
<polygon fill="none" stroke="#000000" points="8,-160.7 8,-179.7 120,-179.7 120,-160.7 8,-160.7"/>
<text text-anchor="start" x="11" y="-166.8" font-family="Helvetica,sans-Serif" font-size="11.00" fill="#000000">...</text>
<polygon fill="#ffffff" stroke="transparent" points="8,-141.7 8,-160.7 40,-160.7 40,-141.7 8,-141.7"/>
<polygon fill="none" stroke="#000000" points="8,-141.7 8,-160.7 40,-160.7 40,-141.7 8,-141.7"/>
<text text-anchor="start" x="11" y="-147.8" font-family="Helvetica,sans-Serif" font-size="11.00" fill="#000000"> &#160;</text>
<polygon fill="#ffffff" stroke="transparent" points="40,-141.7 40,-160.7 88,-160.7 88,-141.7 40,-141.7"/>
<polygon fill="none" stroke="#000000" points="40,-141.7 40,-160.7 88,-160.7 88,-141.7 40,-141.7"/>
<text text-anchor="start" x="52.6105" y="-147.8" font-family="Helvetica,sans-Serif" font-size="11.00" fill="#000000">5 rows</text>
<polygon fill="#ffffff" stroke="transparent" points="88,-141.7 88,-160.7 120,-160.7 120,-141.7 88,-141.7"/>
<polygon fill="none" stroke="#000000" points="88,-141.7 88,-160.7 120,-160.7 120,-141.7 88,-141.7"/>
<text text-anchor="start" x="101.4053" y="-147.8" font-family="Helvetica,sans-Serif" font-size="11.00" fill="#000000">1 &gt;</text>
</a>
</g>
</g>
<!-- Track&#45;&gt;MediaType -->
<g id="edge5" class="edge">
<title>Track:w&#45;&gt;MediaType:e</title>
<path fill="none" stroke="#000000" d="M157.0156,-190.7C144.6771,-190.7 137.1667,-190.7 120,-190.7"/>
<polygon fill="#000000" stroke="#000000" points="163.5,-190.7001 171.5,-194.3 167.5,-190.7 171.5,-190.7 171.5,-190.7 171.5,-190.7 167.5,-190.7 171.5,-187.1 163.5,-190.7001 163.5,-190.7001"/>
<ellipse fill="none" stroke="#000000" cx="160.3" cy="-190.7001" rx="3.2" ry="3.2"/>
</g>
<!-- PlaylistTrack -->
<g id="node3" class="node">
<title>PlaylistTrack</title>
<g id="a_node3"><a xlink:href="../../tables/PlaylistTrack.html" xlink:title="PlaylistTrack" target="_top">
<polygon fill="#ffffff" stroke="transparent" points="435,-163.7 435,-249.7 561,-249.7 561,-163.7 435,-163.7"/>
<polygon fill="#f5f5f5" stroke="transparent" points="435,-226.7 435,-249.7 561,-249.7 561,-226.7 435,-226.7"/>
<polygon fill="none" stroke="#000000" points="435,-226.7 435,-249.7 561,-249.7 561,-226.7 435,-226.7"/>
<text text-anchor="start" x="440" y="-235.3" font-family="Helvetica,sans-Serif" font-weight="bold" font-size="11.00" fill="#000000">PlaylistTrack</text>
<text text-anchor="start" x="526.5219" y="-234.8" font-family="Helvetica,sans-Serif" font-size="11.00" fill="#000000">[table]</text>
<polygon fill="none" stroke="#000000" points="435,-204.7 435,-226.7 561,-226.7 561,-204.7 435,-204.7"/>
<image xlink:href="../../images/primaryKeys.png" width="11px" height="12px" preserveAspectRatio="xMinYMin meet" x="440" y="-221.7"/>
<text text-anchor="start" x="464" y="-211.8" font-family="Helvetica,sans-Serif" font-size="11.00" fill="#000000">PlaylistId</text>
<polygon fill="none" stroke="#000000" points="435,-182.7 435,-204.7 561,-204.7 561,-182.7 435,-182.7"/>
<image xlink:href="../../images/primaryKeys.png" width="11px" height="12px" preserveAspectRatio="xMinYMin meet" x="440" y="-199.7"/>
<text text-anchor="start" x="464" y="-189.8" font-family="Helvetica,sans-Serif" font-size="11.00" fill="#000000">TrackId</text>
<polygon fill="#ffffff" stroke="transparent" points="435,-163.7 435,-182.7 473,-182.7 473,-163.7 435,-163.7"/>
<polygon fill="none" stroke="#000000" points="435,-163.7 435,-182.7 473,-182.7 473,-163.7 435,-163.7"/>
<text text-anchor="start" x="438" y="-169.8" font-family="Helvetica,sans-Serif" font-size="11.00" fill="#000000">&lt; 2</text>
<polygon fill="#ffffff" stroke="transparent" points="473,-163.7 473,-182.7 540,-182.7 540,-163.7 473,-163.7"/>
<polygon fill="none" stroke="#000000" points="473,-163.7 473,-182.7 540,-182.7 540,-163.7 473,-163.7"/>
<text text-anchor="start" x="483.2089" y="-169.8" font-family="Helvetica,sans-Serif" font-size="11.00" fill="#000000">8,715 rows</text>
<polygon fill="#ffffff" stroke="transparent" points="540,-163.7 540,-182.7 561,-182.7 561,-163.7 540,-163.7"/>
<polygon fill="none" stroke="#000000" points="540,-163.7 540,-182.7 561,-182.7 561,-163.7 540,-163.7"/>
<text text-anchor="start" x="551.8862" y="-169.8" font-family="Helvetica,sans-Serif" font-size="11.00" fill="#000000"> &#160;</text>
</a>
</g>
</g>
<!-- PlaylistTrack&#45;&gt;Track -->
<g id="edge2" class="edge">
<title>PlaylistTrack:w&#45;&gt;Track:e</title>
<path fill="none" stroke="#000000" d="M420.9816,-198.6435C404.738,-213.4952 414.2175,-256.7 384.5,-256.7"/>
<polygon fill="#000000" stroke="#000000" points="427.4554,-196.3606 436.1973,-197.0951 431.2277,-195.0303 435,-193.7 435,-193.7 435,-193.7 431.2277,-195.0303 433.8027,-190.3049 427.4554,-196.3606 427.4554,-196.3606"/>
<ellipse fill="none" stroke="#000000" cx="424.4375" cy="-197.4248" rx="3.2" ry="3.2"/>
</g>
</g>
</svg>
