<?xml version="1.0" encoding="UTF-8" standalone="no"?>
<!DOCTYPE svg PUBLIC "-//W3C//DTD SVG 1.1//EN"
 "http://www.w3.org/Graphics/SVG/1.1/DTD/svg11.dtd">
<!-- Generated by graphviz version 2.40.1 (20161225.0304)
 -->
<!-- Title: compactRelationshipsDiagram Pages: 1 -->
<svg width="671pt" height="518pt"
 viewBox="0.00 0.00 671.34 518.20" xmlns="http://www.w3.org/2000/svg" xmlns:xlink="http://www.w3.org/1999/xlink">
<g id="graph0" class="graph" transform="scale(1 1) rotate(0) translate(4 514.2)">
<title>compactRelationshipsDiagram</title>
<polygon fill="#ffffff" stroke="transparent" points="-4,4 -4,-514.2 667.3407,-514.2 667.3407,4 -4,4"/>
<text text-anchor="middle" x="72.4936" y="-7.3" font-family="Helvetica,sans-Serif" font-size="11.00" fill="#000000">Generated by SchemaSpy</text>
<!-- Artist -->
<g id="node1" class="node">
<title>Artist</title>
<g id="a_node1"><a xlink:href="../../tables/Artist.html" xlink:title="Artist" target="_top">
<polygon fill="#ffffff" stroke="transparent" points="35.8407,-394.2 35.8407,-477.2 118.8407,-477.2 118.8407,-394.2 35.8407,-394.2"/>
<polygon fill="#f5f5f5" stroke="transparent" points="36.3407,-453.7 36.3407,-476.7 119.3407,-476.7 119.3407,-453.7 36.3407,-453.7"/>
<polygon fill="none" stroke="#000000" points="36.3407,-453.7 36.3407,-476.7 119.3407,-476.7 119.3407,-453.7 36.3407,-453.7"/>
<text text-anchor="start" x="41.3407" y="-462.3" font-family="Helvetica,sans-Serif" font-weight="bold" font-size="11.00" fill="#000000">Artist</text>
<text text-anchor="start" x="84.3844" y="-461.8" font-family="Helvetica,sans-Serif" font-size="11.00" fill="#000000">[table]</text>
<polygon fill="none" stroke="#000000" points="36.3407,-431.7 36.3407,-453.7 119.3407,-453.7 119.3407,-431.7 36.3407,-431.7"/>
<image xlink:href="../../images/primaryKeys.png" width="11px" height="12px" preserveAspectRatio="xMinYMin meet" x="41.3407" y="-448.7"/>
<text text-anchor="start" x="62.3407" y="-438.8" font-family="Helvetica,sans-Serif" font-size="11.00" fill="#000000">ArtistId</text>
<polygon fill="none" stroke="#000000" points="36.3407,-412.7 36.3407,-431.7 119.3407,-431.7 119.3407,-412.7 36.3407,-412.7"/>
<text text-anchor="start" x="39.3407" y="-418.8" font-family="Helvetica,sans-Serif" font-size="11.00" fill="#000000">...</text>
<polygon fill="#ffffff" stroke="transparent" points="36.3407,-393.7 36.3407,-412.7 48.3407,-412.7 48.3407,-393.7 36.3407,-393.7"/>
<polygon fill="none" stroke="#000000" points="36.3407,-393.7 36.3407,-412.7 48.3407,-412.7 48.3407,-393.7 36.3407,-393.7"/>
<text text-anchor="start" x="39.2838" y="-399.8" font-family="Helvetica,sans-Serif" font-size="11.00" fill="#000000"> &#160;</text>
<polygon fill="#ffffff" stroke="transparent" points="48.3407,-393.7 48.3407,-412.7 98.3407,-412.7 98.3407,-393.7 48.3407,-393.7"/>
<polygon fill="none" stroke="#000000" points="48.3407,-393.7 48.3407,-412.7 98.3407,-412.7 98.3407,-393.7 48.3407,-393.7"/>
<text text-anchor="start" x="51.031" y="-399.8" font-family="Helvetica,sans-Serif" font-size="11.00" fill="#000000">275 rows</text>
<polygon fill="#ffffff" stroke="transparent" points="98.3407,-393.7 98.3407,-412.7 119.3407,-412.7 119.3407,-393.7 98.3407,-393.7"/>
<polygon fill="none" stroke="#000000" points="98.3407,-393.7 98.3407,-412.7 119.3407,-412.7 119.3407,-393.7 98.3407,-393.7"/>
<text text-anchor="start" x="101.0433" y="-399.8" font-family="Helvetica,sans-Serif" font-size="11.00" fill="#000000">1 &gt;</text>
</a>
</g>
</g>
<!-- MediaType -->
<g id="node2" class="node">
<title>MediaType</title>
<g id="a_node2"><a xlink:href="../../tables/MediaType.html" xlink:title="MediaType" target="_top">
<polygon fill="#ffffff" stroke="transparent" points="179.3407,-290.2 179.3407,-373.2 291.3407,-373.2 291.3407,-290.2 179.3407,-290.2"/>
<polygon fill="#f5f5f5" stroke="transparent" points="179.3407,-349.7 179.3407,-372.7 291.3407,-372.7 291.3407,-349.7 179.3407,-349.7"/>
<polygon fill="none" stroke="#000000" points="179.3407,-349.7 179.3407,-372.7 291.3407,-372.7 291.3407,-349.7 179.3407,-349.7"/>
<text text-anchor="start" x="184.3407" y="-358.3" font-family="Helvetica,sans-Serif" font-weight="bold" font-size="11.00" fill="#000000">MediaType</text>
<text text-anchor="start" x="256.8625" y="-357.8" font-family="Helvetica,sans-Serif" font-size="11.00" fill="#000000">[table]</text>
<polygon fill="none" stroke="#000000" points="179.3407,-327.7 179.3407,-349.7 291.3407,-349.7 291.3407,-327.7 179.3407,-327.7"/>
<image xlink:href="../../images/primaryKeys.png" width="11px" height="12px" preserveAspectRatio="xMinYMin meet" x="184.341" y="-344.7"/>
<text text-anchor="start" x="202.3407" y="-334.8" font-family="Helvetica,sans-Serif" font-size="11.00" fill="#000000">MediaTypeId</text>
<polygon fill="none" stroke="#000000" points="179.3407,-308.7 179.3407,-327.7 291.3407,-327.7 291.3407,-308.7 179.3407,-308.7"/>
<text text-anchor="start" x="182.3407" y="-314.8" font-family="Helvetica,sans-Serif" font-size="11.00" fill="#000000">...</text>
<polygon fill="#ffffff" stroke="transparent" points="179.3407,-289.7 179.3407,-308.7 211.3407,-308.7 211.3407,-289.7 179.3407,-289.7"/>
<polygon fill="none" stroke="#000000" points="179.3407,-289.7 179.3407,-308.7 211.3407,-308.7 211.3407,-289.7 179.3407,-289.7"/>
<text text-anchor="start" x="182.3407" y="-295.8" font-family="Helvetica,sans-Serif" font-size="11.00" fill="#000000"> &#160;</text>
<polygon fill="#ffffff" stroke="transparent" points="211.3407,-289.7 211.3407,-308.7 259.3407,-308.7 259.3407,-289.7 211.3407,-289.7"/>
<polygon fill="none" stroke="#000000" points="211.3407,-289.7 211.3407,-308.7 259.3407,-308.7 259.3407,-289.7 211.3407,-289.7"/>
<text text-anchor="start" x="223.9512" y="-295.8" font-family="Helvetica,sans-Serif" font-size="11.00" fill="#000000">5 rows</text>
<polygon fill="#ffffff" stroke="transparent" points="259.3407,-289.7 259.3407,-308.7 291.3407,-308.7 291.3407,-289.7 259.3407,-289.7"/>
<polygon fill="none" stroke="#000000" points="259.3407,-289.7 259.3407,-308.7 291.3407,-308.7 291.3407,-289.7 259.3407,-289.7"/>
<text text-anchor="start" x="272.746" y="-295.8" font-family="Helvetica,sans-Serif" font-size="11.00" fill="#000000">1 &gt;</text>
</a>
</g>
</g>
<!-- Employee -->
<g id="node3" class="node">
<title>Employee</title>
<g id="a_node3"><a xlink:href="../../tables/Employee.html" xlink:title="Employee" target="_top">
<polygon fill="#ffffff" stroke="transparent" points="25.3407,-38.2 25.3407,-143.2 129.3407,-143.2 129.3407,-38.2 25.3407,-38.2"/>
<polygon fill="#f5f5f5" stroke="transparent" points="25.3407,-119.7 25.3407,-142.7 129.3407,-142.7 129.3407,-119.7 25.3407,-119.7"/>
<polygon fill="none" stroke="#000000" points="25.3407,-119.7 25.3407,-142.7 129.3407,-142.7 129.3407,-119.7 25.3407,-119.7"/>
<text text-anchor="start" x="30.3407" y="-128.3" font-family="Helvetica,sans-Serif" font-weight="bold" font-size="11.00" fill="#000000">Employee</text>
<text text-anchor="start" x="94.8625" y="-127.8" font-family="Helvetica,sans-Serif" font-size="11.00" fill="#000000">[table]</text>
<polygon fill="none" stroke="#000000" points="25.3407,-97.7 25.3407,-119.7 129.3407,-119.7 129.3407,-97.7 25.3407,-97.7"/>
<image xlink:href="../../images/primaryKeys.png" width="11px" height="12px" preserveAspectRatio="xMinYMin meet" x="30.3407" y="-114.7"/>
<text text-anchor="start" x="48.3407" y="-104.8" font-family="Helvetica,sans-Serif" font-size="11.00" fill="#000000">EmployeeId</text>
<polygon fill="#ffffff" stroke="transparent" points="25.3407,-75.7 25.3407,-97.7 129.3407,-97.7 129.3407,-75.7 25.3407,-75.7"/>
<polygon fill="none" stroke="#000000" points="25.3407,-75.7 25.3407,-97.7 129.3407,-97.7 129.3407,-75.7 25.3407,-75.7"/>
<image xlink:href="../../images/foreignKeys.png" width="11px" height="12px" preserveAspectRatio="xMinYMin meet" x="30.3407" y="-92.7"/>
<text text-anchor="start" x="48.3407" y="-82.8" font-family="Helvetica,sans-Serif" font-size="11.00" fill="#000000">ReportsTo</text>
<polygon fill="none" stroke="#000000" points="25.3407,-56.7 25.3407,-75.7 129.3407,-75.7 129.3407,-56.7 25.3407,-56.7"/>
<text text-anchor="start" x="28.3407" y="-62.8" font-family="Helvetica,sans-Serif" font-size="11.00" fill="#000000">...</text>
<polygon fill="#ffffff" stroke="transparent" points="25.3407,-37.7 25.3407,-56.7 58.3407,-56.7 58.3407,-37.7 25.3407,-37.7"/>
<polygon fill="none" stroke="#000000" points="25.3407,-37.7 25.3407,-56.7 58.3407,-56.7 58.3407,-37.7 25.3407,-37.7"/>
<text text-anchor="start" x="28.3407" y="-43.8" font-family="Helvetica,sans-Serif" font-size="11.00" fill="#000000">&lt; 1</text>
<polygon fill="#ffffff" stroke="transparent" points="58.3407,-37.7 58.3407,-56.7 102.3407,-56.7 102.3407,-37.7 58.3407,-37.7"/>
<polygon fill="none" stroke="#000000" points="58.3407,-37.7 58.3407,-56.7 102.3407,-56.7 102.3407,-37.7 58.3407,-37.7"/>
<text text-anchor="start" x="66.9512" y="-43.8" font-family="Helvetica,sans-Serif" font-size="11.00" fill="#000000">8 rows</text>
<polygon fill="#ffffff" stroke="transparent" points="102.3407,-37.7 102.3407,-56.7 129.3407,-56.7 129.3407,-37.7 102.3407,-37.7"/>
<polygon fill="none" stroke="#000000" points="102.3407,-37.7 102.3407,-56.7 129.3407,-56.7 129.3407,-37.7 102.3407,-37.7"/>
<text text-anchor="start" x="110.746" y="-43.8" font-family="Helvetica,sans-Serif" font-size="11.00" fill="#000000">2 &gt;</text>
</a>
</g>
</g>
<!-- Employee&#45;&gt;Employee -->
<g id="edge3" class="edge">
<title>Employee:w&#45;&gt;Employee:e</title>
<path fill="none" stroke="#000000" d="M13.5131,-95.5062C-12.9851,-120.6244 -3.7941,-160.2 77.3407,-160.2 168.8407,-160.2 168.8407,-131.8667 129.3407,-108.7"/>
<polygon fill="#000000" stroke="#000000" points="18.9239,-91.4776 27.4906,-89.5875 22.1323,-89.0888 25.3407,-86.7 25.3407,-86.7 25.3407,-86.7 22.1323,-89.0888 23.1908,-83.8125 18.9239,-91.4776 18.9239,-91.4776"/>
<ellipse fill="none" stroke="#000000" cx="16.3572" cy="-93.3887" rx="3.2" ry="3.2"/>
</g>
<!-- Album -->
<g id="node4" class="node">
<title>Album</title>
<g id="a_node4"><a xlink:href="../../tables/Album.html" xlink:title="Album" target="_top">
<polygon fill="#ffffff" stroke="transparent" points="189.3407,-394.2 189.3407,-499.2 281.3407,-499.2 281.3407,-394.2 189.3407,-394.2"/>
<polygon fill="#f5f5f5" stroke="transparent" points="189.3407,-475.7 189.3407,-498.7 281.3407,-498.7 281.3407,-475.7 189.3407,-475.7"/>
<polygon fill="none" stroke="#000000" points="189.3407,-475.7 189.3407,-498.7 281.3407,-498.7 281.3407,-475.7 189.3407,-475.7"/>
<text text-anchor="start" x="194.3407" y="-484.3" font-family="Helvetica,sans-Serif" font-weight="bold" font-size="11.00" fill="#000000">Album</text>
<text text-anchor="start" x="246.3844" y="-483.8" font-family="Helvetica,sans-Serif" font-size="11.00" fill="#000000">[table]</text>
<polygon fill="none" stroke="#000000" points="189.3407,-453.7 189.3407,-475.7 281.3407,-475.7 281.3407,-453.7 189.3407,-453.7"/>
<image xlink:href="../../images/primaryKeys.png" width="11px" height="12px" preserveAspectRatio="xMinYMin meet" x="194.341" y="-470.7"/>
<text text-anchor="start" x="217.3407" y="-460.8" font-family="Helvetica,sans-Serif" font-size="11.00" fill="#000000">AlbumId</text>
<polygon fill="#ffffff" stroke="transparent" points="189.3407,-431.7 189.3407,-453.7 281.3407,-453.7 281.3407,-431.7 189.3407,-431.7"/>
<polygon fill="none" stroke="#000000" points="189.3407,-431.7 189.3407,-453.7 281.3407,-453.7 281.3407,-431.7 189.3407,-431.7"/>
<image xlink:href="../../images/foreignKeys.png" width="11px" height="12px" preserveAspectRatio="xMinYMin meet" x="194.341" y="-448.7"/>
<text text-anchor="start" x="217.3407" y="-438.8" font-family="Helvetica,sans-Serif" font-size="11.00" fill="#000000">ArtistId</text>
<polygon fill="none" stroke="#000000" points="189.3407,-412.7 189.3407,-431.7 281.3407,-431.7 281.3407,-412.7 189.3407,-412.7"/>
<text text-anchor="start" x="192.3407" y="-418.8" font-family="Helvetica,sans-Serif" font-size="11.00" fill="#000000">...</text>
<polygon fill="#ffffff" stroke="transparent" points="189.3407,-393.7 189.3407,-412.7 210.3407,-412.7 210.3407,-393.7 189.3407,-393.7"/>
<polygon fill="none" stroke="#000000" points="189.3407,-393.7 189.3407,-412.7 210.3407,-412.7 210.3407,-393.7 189.3407,-393.7"/>
<text text-anchor="start" x="192.0433" y="-399.8" font-family="Helvetica,sans-Serif" font-size="11.00" fill="#000000">&lt; 1</text>
<polygon fill="#ffffff" stroke="transparent" points="210.3407,-393.7 210.3407,-412.7 260.3407,-412.7 260.3407,-393.7 210.3407,-393.7"/>
<polygon fill="none" stroke="#000000" points="210.3407,-393.7 210.3407,-412.7 260.3407,-412.7 260.3407,-393.7 210.3407,-393.7"/>
<text text-anchor="start" x="213.031" y="-399.8" font-family="Helvetica,sans-Serif" font-size="11.00" fill="#000000">347 rows</text>
<polygon fill="#ffffff" stroke="transparent" points="260.3407,-393.7 260.3407,-412.7 281.3407,-412.7 281.3407,-393.7 260.3407,-393.7"/>
<polygon fill="none" stroke="#000000" points="260.3407,-393.7 260.3407,-412.7 281.3407,-412.7 281.3407,-393.7 260.3407,-393.7"/>
<text text-anchor="start" x="263.0433" y="-399.8" font-family="Helvetica,sans-Serif" font-size="11.00" fill="#000000">1 &gt;</text>
</a>
</g>
</g>
<!-- Album&#45;&gt;Artist -->
<g id="edge1" class="edge">
<title>Album:w&#45;&gt;Artist:e</title>
<path fill="none" stroke="#000000" d="M174.8439,-442.7C154.7742,-442.7 144.9831,-442.7 119.3407,-442.7"/>
<polygon fill="#000000" stroke="#000000" points="181.3407,-442.7001 189.3407,-446.3 185.3407,-442.7 189.3407,-442.7 189.3407,-442.7 189.3407,-442.7 185.3407,-442.7 189.3407,-439.1 181.3407,-442.7001 181.3407,-442.7001"/>
<ellipse fill="none" stroke="#000000" cx="178.1407" cy="-442.7001" rx="3.2" ry="3.2"/>
</g>
<!-- PlaylistTrack -->
<g id="node5" class="node">
<title>PlaylistTrack</title>
<g id="a_node5"><a xlink:href="../../tables/PlaylistTrack.html" xlink:title="PlaylistTrack" target="_top">
<polygon fill="#ffffff" stroke="transparent" points="529.3407,-378.7 529.3407,-464.7 655.3407,-464.7 655.3407,-378.7 529.3407,-378.7"/>
<polygon fill="#f5f5f5" stroke="transparent" points="529.3407,-441.7 529.3407,-464.7 655.3407,-464.7 655.3407,-441.7 529.3407,-441.7"/>
<polygon fill="none" stroke="#000000" points="529.3407,-441.7 529.3407,-464.7 655.3407,-464.7 655.3407,-441.7 529.3407,-441.7"/>
<text text-anchor="start" x="534.3407" y="-450.3" font-family="Helvetica,sans-Serif" font-weight="bold" font-size="11.00" fill="#000000">PlaylistTrack</text>
<text text-anchor="start" x="620.8625" y="-449.8" font-family="Helvetica,sans-Serif" font-size="11.00" fill="#000000">[table]</text>
<polygon fill="none" stroke="#000000" points="529.3407,-419.7 529.3407,-441.7 655.3407,-441.7 655.3407,-419.7 529.3407,-419.7"/>
<image xlink:href="../../images/primaryKeys.png" width="11px" height="12px" preserveAspectRatio="xMinYMin meet" x="534.341" y="-436.7"/>
<text text-anchor="start" x="558.3407" y="-426.8" font-family="Helvetica,sans-Serif" font-size="11.00" fill="#000000">PlaylistId</text>
<polygon fill="none" stroke="#000000" points="529.3407,-397.7 529.3407,-419.7 655.3407,-419.7 655.3407,-397.7 529.3407,-397.7"/>
<image xlink:href="../../images/primaryKeys.png" width="11px" height="12px" preserveAspectRatio="xMinYMin meet" x="534.341" y="-414.7"/>
<text text-anchor="start" x="558.3407" y="-404.8" font-family="Helvetica,sans-Serif" font-size="11.00" fill="#000000">TrackId</text>
<polygon fill="#ffffff" stroke="transparent" points="529.3407,-378.7 529.3407,-397.7 567.3407,-397.7 567.3407,-378.7 529.3407,-378.7"/>
<polygon fill="none" stroke="#000000" points="529.3407,-378.7 529.3407,-397.7 567.3407,-397.7 567.3407,-378.7 529.3407,-378.7"/>
<text text-anchor="start" x="532.3407" y="-384.8" font-family="Helvetica,sans-Serif" font-size="11.00" fill="#000000">&lt; 2</text>
<polygon fill="#ffffff" stroke="transparent" points="567.3407,-378.7 567.3407,-397.7 634.3407,-397.7 634.3407,-378.7 567.3407,-378.7"/>
<polygon fill="none" stroke="#000000" points="567.3407,-378.7 567.3407,-397.7 634.3407,-397.7 634.3407,-378.7 567.3407,-378.7"/>
<text text-anchor="start" x="577.5496" y="-384.8" font-family="Helvetica,sans-Serif" font-size="11.00" fill="#000000">8,715 rows</text>
<polygon fill="#ffffff" stroke="transparent" points="634.3407,-378.7 634.3407,-397.7 655.3407,-397.7 655.3407,-378.7 634.3407,-378.7"/>
<polygon fill="none" stroke="#000000" points="634.3407,-378.7 634.3407,-397.7 655.3407,-397.7 655.3407,-378.7 634.3407,-378.7"/>
<text text-anchor="start" x="646.2269" y="-384.8" font-family="Helvetica,sans-Serif" font-size="11.00" fill="#000000"> &#160;</text>
</a>
</g>
</g>
<!-- Track -->
<g id="node10" class="node">
<title>Track</title>
<g id="a_node10"><a xlink:href="../../tables/Track.html" xlink:title="Track" target="_top">
<polygon fill="#ffffff" stroke="transparent" points="357.3407,-253.2 357.3407,-402.2 464.3407,-402.2 464.3407,-253.2 357.3407,-253.2"/>
<polygon fill="#f5f5f5" stroke="transparent" points="357.8407,-378.7 357.8407,-401.7 464.8407,-401.7 464.8407,-378.7 357.8407,-378.7"/>
<polygon fill="none" stroke="#000000" points="357.8407,-378.7 357.8407,-401.7 464.8407,-401.7 464.8407,-378.7 357.8407,-378.7"/>
<text text-anchor="start" x="362.8407" y="-387.3" font-family="Helvetica,sans-Serif" font-weight="bold" font-size="11.00" fill="#000000">Track</text>
<text text-anchor="start" x="429.8844" y="-386.8" font-family="Helvetica,sans-Serif" font-size="11.00" fill="#000000">[table]</text>
<polygon fill="none" stroke="#000000" points="357.8407,-356.7 357.8407,-378.7 464.8407,-378.7 464.8407,-356.7 357.8407,-356.7"/>
<image xlink:href="../../images/primaryKeys.png" width="11px" height="12px" preserveAspectRatio="xMinYMin meet" x="362.841" y="-373.7"/>
<text text-anchor="start" x="377.8407" y="-363.8" font-family="Helvetica,sans-Serif" font-size="11.00" fill="#000000">TrackId</text>
<polygon fill="#ffffff" stroke="transparent" points="357.8407,-334.7 357.8407,-356.7 464.8407,-356.7 464.8407,-334.7 357.8407,-334.7"/>
<polygon fill="none" stroke="#000000" points="357.8407,-334.7 357.8407,-356.7 464.8407,-356.7 464.8407,-334.7 357.8407,-334.7"/>
<image xlink:href="../../images/foreignKeys.png" width="11px" height="12px" preserveAspectRatio="xMinYMin meet" x="362.841" y="-351.7"/>
<text text-anchor="start" x="377.8407" y="-341.8" font-family="Helvetica,sans-Serif" font-size="11.00" fill="#000000">AlbumId</text>
<polygon fill="#ffffff" stroke="transparent" points="357.8407,-312.7 357.8407,-334.7 464.8407,-334.7 464.8407,-312.7 357.8407,-312.7"/>
<polygon fill="none" stroke="#000000" points="357.8407,-312.7 357.8407,-334.7 464.8407,-334.7 464.8407,-312.7 357.8407,-312.7"/>
<image xlink:href="../../images/foreignKeys.png" width="11px" height="12px" preserveAspectRatio="xMinYMin meet" x="362.841" y="-329.7"/>
<text text-anchor="start" x="377.8407" y="-319.8" font-family="Helvetica,sans-Serif" font-size="11.00" fill="#000000">MediaTypeId</text>
<polygon fill="#ffffff" stroke="transparent" points="357.8407,-290.7 357.8407,-312.7 464.8407,-312.7 464.8407,-290.7 357.8407,-290.7"/>
<polygon fill="none" stroke="#000000" points="357.8407,-290.7 357.8407,-312.7 464.8407,-312.7 464.8407,-290.7 357.8407,-290.7"/>
<image xlink:href="../../images/foreignKeys.png" width="11px" height="12px" preserveAspectRatio="xMinYMin meet" x="362.841" y="-307.7"/>
<text text-anchor="start" x="377.8407" y="-297.8" font-family="Helvetica,sans-Serif" font-size="11.00" fill="#000000">GenreId</text>
<polygon fill="none" stroke="#000000" points="357.8407,-271.7 357.8407,-290.7 464.8407,-290.7 464.8407,-271.7 357.8407,-271.7"/>
<text text-anchor="start" x="360.8407" y="-277.8" font-family="Helvetica,sans-Serif" font-size="11.00" fill="#000000">...</text>
<polygon fill="#ffffff" stroke="transparent" points="357.8407,-252.7 357.8407,-271.7 381.8407,-271.7 381.8407,-252.7 357.8407,-252.7"/>
<polygon fill="none" stroke="#000000" points="357.8407,-252.7 357.8407,-271.7 381.8407,-271.7 381.8407,-252.7 357.8407,-252.7"/>
<text text-anchor="start" x="360.8407" y="-258.8" font-family="Helvetica,sans-Serif" font-size="11.00" fill="#000000">&lt; 3</text>
<polygon fill="#ffffff" stroke="transparent" points="381.8407,-252.7 381.8407,-271.7 441.8407,-271.7 441.8407,-252.7 381.8407,-252.7"/>
<polygon fill="none" stroke="#000000" points="381.8407,-252.7 381.8407,-271.7 441.8407,-271.7 441.8407,-252.7 381.8407,-252.7"/>
<text text-anchor="start" x="385.0496" y="-258.8" font-family="Helvetica,sans-Serif" font-size="11.00" fill="#000000">3,503 rows</text>
<polygon fill="#ffffff" stroke="transparent" points="441.8407,-252.7 441.8407,-271.7 464.8407,-271.7 464.8407,-252.7 441.8407,-252.7"/>
<polygon fill="none" stroke="#000000" points="441.8407,-252.7 441.8407,-271.7 464.8407,-271.7 464.8407,-252.7 441.8407,-252.7"/>
<text text-anchor="start" x="446.246" y="-258.8" font-family="Helvetica,sans-Serif" font-size="11.00" fill="#000000">2 &gt;</text>
</a>
</g>
</g>
<!-- PlaylistTrack&#45;&gt;Track -->
<g id="edge8" class="edge">
<title>PlaylistTrack:w&#45;&gt;Track:e</title>
<path fill="none" stroke="#000000" d="M515.0354,-405.6183C495.4717,-396.0833 493.1032,-367.7 464.8407,-367.7"/>
<polygon fill="#000000" stroke="#000000" points="521.5201,-407.0152 528.5826,-412.2193 525.4304,-407.8576 529.3407,-408.7 529.3407,-408.7 529.3407,-408.7 525.4304,-407.8576 530.0988,-405.1807 521.5201,-407.0152 521.5201,-407.0152"/>
<ellipse fill="none" stroke="#000000" cx="518.3919" cy="-406.3413" rx="3.2" ry="3.2"/>
</g>
<!-- Playlist -->
<g id="node11" class="node">
<title>Playlist</title>
<g id="a_node11"><a xlink:href="../../tables/Playlist.html" xlink:title="Playlist" target="_top">
<polygon fill="#ffffff" stroke="transparent" points="366.8407,-423.2 366.8407,-506.2 454.8407,-506.2 454.8407,-423.2 366.8407,-423.2"/>
<polygon fill="#f5f5f5" stroke="transparent" points="366.8407,-482.7 366.8407,-505.7 454.8407,-505.7 454.8407,-482.7 366.8407,-482.7"/>
<polygon fill="none" stroke="#000000" points="366.8407,-482.7 366.8407,-505.7 454.8407,-505.7 454.8407,-482.7 366.8407,-482.7"/>
<text text-anchor="start" x="371.8407" y="-491.3" font-family="Helvetica,sans-Serif" font-weight="bold" font-size="11.00" fill="#000000">Playlist</text>
<text text-anchor="start" x="420.3625" y="-490.8" font-family="Helvetica,sans-Serif" font-size="11.00" fill="#000000">[table]</text>
<polygon fill="none" stroke="#000000" points="366.8407,-460.7 366.8407,-482.7 454.8407,-482.7 454.8407,-460.7 366.8407,-460.7"/>
<image xlink:href="../../images/primaryKeys.png" width="11px" height="12px" preserveAspectRatio="xMinYMin meet" x="371.841" y="-477.7"/>
<text text-anchor="start" x="389.8407" y="-467.8" font-family="Helvetica,sans-Serif" font-size="11.00" fill="#000000">PlaylistId</text>
<polygon fill="none" stroke="#000000" points="366.8407,-441.7 366.8407,-460.7 454.8407,-460.7 454.8407,-441.7 366.8407,-441.7"/>
<text text-anchor="start" x="369.8407" y="-447.8" font-family="Helvetica,sans-Serif" font-size="11.00" fill="#000000">...</text>
<polygon fill="#ffffff" stroke="transparent" points="366.8407,-422.7 366.8407,-441.7 383.8407,-441.7 383.8407,-422.7 366.8407,-422.7"/>
<polygon fill="none" stroke="#000000" points="366.8407,-422.7 366.8407,-441.7 383.8407,-441.7 383.8407,-422.7 366.8407,-422.7"/>
<text text-anchor="start" x="369.8407" y="-428.8" font-family="Helvetica,sans-Serif" font-size="11.00" fill="#000000"> &#160;</text>
<polygon fill="#ffffff" stroke="transparent" points="383.8407,-422.7 383.8407,-441.7 430.8407,-441.7 430.8407,-422.7 383.8407,-422.7"/>
<polygon fill="none" stroke="#000000" points="383.8407,-422.7 383.8407,-441.7 430.8407,-441.7 430.8407,-422.7 383.8407,-422.7"/>
<text text-anchor="start" x="389.3363" y="-428.8" font-family="Helvetica,sans-Serif" font-size="11.00" fill="#000000">18 rows</text>
<polygon fill="#ffffff" stroke="transparent" points="430.8407,-422.7 430.8407,-441.7 454.8407,-441.7 454.8407,-422.7 430.8407,-422.7"/>
<polygon fill="none" stroke="#000000" points="430.8407,-422.7 430.8407,-441.7 454.8407,-441.7 454.8407,-422.7 430.8407,-422.7"/>
<text text-anchor="start" x="436.246" y="-428.8" font-family="Helvetica,sans-Serif" font-size="11.00" fill="#000000">1 &gt;</text>
</a>
</g>
</g>
<!-- PlaylistTrack&#45;&gt;Playlist -->
<g id="edge7" class="edge">
<title>PlaylistTrack:w&#45;&gt;Playlist:e</title>
<path fill="none" stroke="#000000" d="M514.8263,-433.142C491.0129,-441.9685 487.0247,-471.7 454.8407,-471.7"/>
<polygon fill="#000000" stroke="#000000" points="521.4516,-432.0273 529.938,-434.2501 525.3961,-431.3637 529.3407,-430.7 529.3407,-430.7 529.3407,-430.7 525.3961,-431.3637 528.7434,-427.1499 521.4516,-432.0273 521.4516,-432.0273"/>
<ellipse fill="none" stroke="#000000" cx="518.2959" cy="-432.5583" rx="3.2" ry="3.2"/>
</g>
<!-- Customer -->
<g id="node6" class="node">
<title>Customer</title>
<g id="a_node6"><a xlink:href="../../tables/Customer.html" xlink:title="Customer" target="_top">
<polygon fill="#ffffff" stroke="transparent" points="178.3407,-60.2 178.3407,-165.2 292.3407,-165.2 292.3407,-60.2 178.3407,-60.2"/>
<polygon fill="#f5f5f5" stroke="transparent" points="178.3407,-141.7 178.3407,-164.7 292.3407,-164.7 292.3407,-141.7 178.3407,-141.7"/>
<polygon fill="none" stroke="#000000" points="178.3407,-141.7 178.3407,-164.7 292.3407,-164.7 292.3407,-141.7 178.3407,-141.7"/>
<text text-anchor="start" x="183.3407" y="-150.3" font-family="Helvetica,sans-Serif" font-weight="bold" font-size="11.00" fill="#000000">Customer</text>
<text text-anchor="start" x="257.3844" y="-149.8" font-family="Helvetica,sans-Serif" font-size="11.00" fill="#000000">[table]</text>
<polygon fill="none" stroke="#000000" points="178.3407,-119.7 178.3407,-141.7 292.3407,-141.7 292.3407,-119.7 178.3407,-119.7"/>
<image xlink:href="../../images/primaryKeys.png" width="11px" height="12px" preserveAspectRatio="xMinYMin meet" x="183.341" y="-136.7"/>
<text text-anchor="start" x="198.3407" y="-126.8" font-family="Helvetica,sans-Serif" font-size="11.00" fill="#000000">CustomerId</text>
<polygon fill="#ffffff" stroke="transparent" points="178.3407,-97.7 178.3407,-119.7 292.3407,-119.7 292.3407,-97.7 178.3407,-97.7"/>
<polygon fill="none" stroke="#000000" points="178.3407,-97.7 178.3407,-119.7 292.3407,-119.7 292.3407,-97.7 178.3407,-97.7"/>
<image xlink:href="../../images/foreignKeys.png" width="11px" height="12px" preserveAspectRatio="xMinYMin meet" x="183.341" y="-114.7"/>
<text text-anchor="start" x="198.3407" y="-104.8" font-family="Helvetica,sans-Serif" font-size="11.00" fill="#000000">SupportRepId</text>
<polygon fill="none" stroke="#000000" points="178.3407,-78.7 178.3407,-97.7 292.3407,-97.7 292.3407,-78.7 178.3407,-78.7"/>
<text text-anchor="start" x="181.3407" y="-84.8" font-family="Helvetica,sans-Serif" font-size="11.00" fill="#000000">...</text>
<polygon fill="#ffffff" stroke="transparent" points="178.3407,-59.7 178.3407,-78.7 213.3407,-78.7 213.3407,-59.7 178.3407,-59.7"/>
<polygon fill="none" stroke="#000000" points="178.3407,-59.7 178.3407,-78.7 213.3407,-78.7 213.3407,-59.7 178.3407,-59.7"/>
<text text-anchor="start" x="181.3407" y="-65.8" font-family="Helvetica,sans-Serif" font-size="11.00" fill="#000000">&lt; 1</text>
<polygon fill="#ffffff" stroke="transparent" points="213.3407,-59.7 213.3407,-78.7 264.3407,-78.7 264.3407,-59.7 213.3407,-59.7"/>
<polygon fill="none" stroke="#000000" points="213.3407,-59.7 213.3407,-78.7 264.3407,-78.7 264.3407,-59.7 213.3407,-59.7"/>
<text text-anchor="start" x="222.8363" y="-65.8" font-family="Helvetica,sans-Serif" font-size="11.00" fill="#000000">59 rows</text>
<polygon fill="#ffffff" stroke="transparent" points="264.3407,-59.7 264.3407,-78.7 292.3407,-78.7 292.3407,-59.7 264.3407,-59.7"/>
<polygon fill="none" stroke="#000000" points="264.3407,-59.7 264.3407,-78.7 292.3407,-78.7 292.3407,-59.7 264.3407,-59.7"/>
<text text-anchor="start" x="273.746" y="-65.8" font-family="Helvetica,sans-Serif" font-size="11.00" fill="#000000">1 &gt;</text>
</a>
</g>
</g>
<!-- Customer&#45;&gt;Employee -->
<g id="edge2" class="edge">
<title>Customer:w&#45;&gt;Employee:e</title>
<path fill="none" stroke="#000000" d="M163.8316,-108.7C152.5181,-108.7 145.3337,-108.7 129.3407,-108.7"/>
<polygon fill="#000000" stroke="#000000" points="170.3407,-108.7001 178.3407,-112.3 174.3407,-108.7 178.3407,-108.7 178.3407,-108.7 178.3407,-108.7 174.3407,-108.7 178.3407,-105.1 170.3407,-108.7001 170.3407,-108.7001"/>
<ellipse fill="none" stroke="#000000" cx="167.1407" cy="-108.7001" rx="3.2" ry="3.2"/>
</g>
<!-- Genre -->
<g id="node7" class="node">
<title>Genre</title>
<g id="a_node7"><a xlink:href="../../tables/Genre.html" xlink:title="Genre" target="_top">
<polygon fill="#ffffff" stroke="transparent" points="195.8407,-186.2 195.8407,-269.2 274.8407,-269.2 274.8407,-186.2 195.8407,-186.2"/>
<polygon fill="#f5f5f5" stroke="transparent" points="196.3407,-245.7 196.3407,-268.7 275.3407,-268.7 275.3407,-245.7 196.3407,-245.7"/>
<polygon fill="none" stroke="#000000" points="196.3407,-245.7 196.3407,-268.7 275.3407,-268.7 275.3407,-245.7 196.3407,-245.7"/>
<text text-anchor="start" x="201.3407" y="-254.3" font-family="Helvetica,sans-Serif" font-weight="bold" font-size="11.00" fill="#000000">Genre</text>
<text text-anchor="start" x="240.8625" y="-253.8" font-family="Helvetica,sans-Serif" font-size="11.00" fill="#000000">[table]</text>
<polygon fill="none" stroke="#000000" points="196.3407,-223.7 196.3407,-245.7 275.3407,-245.7 275.3407,-223.7 196.3407,-223.7"/>
<image xlink:href="../../images/primaryKeys.png" width="11px" height="12px" preserveAspectRatio="xMinYMin meet" x="201.341" y="-240.7"/>
<text text-anchor="start" x="219.3407" y="-230.8" font-family="Helvetica,sans-Serif" font-size="11.00" fill="#000000">GenreId</text>
<polygon fill="none" stroke="#000000" points="196.3407,-204.7 196.3407,-223.7 275.3407,-223.7 275.3407,-204.7 196.3407,-204.7"/>
<text text-anchor="start" x="199.3407" y="-210.8" font-family="Helvetica,sans-Serif" font-size="11.00" fill="#000000">...</text>
<polygon fill="#ffffff" stroke="transparent" points="196.3407,-185.7 196.3407,-204.7 209.3407,-204.7 209.3407,-185.7 196.3407,-185.7"/>
<polygon fill="none" stroke="#000000" points="196.3407,-185.7 196.3407,-204.7 209.3407,-204.7 209.3407,-185.7 196.3407,-185.7"/>
<text text-anchor="start" x="199.3407" y="-191.8" font-family="Helvetica,sans-Serif" font-size="11.00" fill="#000000"> &#160;</text>
<polygon fill="#ffffff" stroke="transparent" points="209.3407,-185.7 209.3407,-204.7 253.3407,-204.7 253.3407,-185.7 209.3407,-185.7"/>
<polygon fill="none" stroke="#000000" points="209.3407,-185.7 209.3407,-204.7 253.3407,-204.7 253.3407,-185.7 209.3407,-185.7"/>
<text text-anchor="start" x="212.0885" y="-191.8" font-family="Helvetica,sans-Serif" font-size="11.00" fill="#000000">25 rows</text>
<polygon fill="#ffffff" stroke="transparent" points="253.3407,-185.7 253.3407,-204.7 275.3407,-204.7 275.3407,-185.7 253.3407,-185.7"/>
<polygon fill="none" stroke="#000000" points="253.3407,-185.7 253.3407,-204.7 275.3407,-204.7 275.3407,-185.7 253.3407,-185.7"/>
<text text-anchor="start" x="256.746" y="-191.8" font-family="Helvetica,sans-Serif" font-size="11.00" fill="#000000">1 &gt;</text>
</a>
</g>
</g>
<!-- InvoiceLine -->
<g id="node8" class="node">
<title>InvoiceLine</title>
<g id="a_node8"><a xlink:href="../../tables/InvoiceLine.html" xlink:title="InvoiceLine" target="_top">
<polygon fill="#ffffff" stroke="transparent" points="534.8407,-150.2 534.8407,-277.2 649.8407,-277.2 649.8407,-150.2 534.8407,-150.2"/>
<polygon fill="#f5f5f5" stroke="transparent" points="535.3407,-253.7 535.3407,-276.7 650.3407,-276.7 650.3407,-253.7 535.3407,-253.7"/>
<polygon fill="none" stroke="#000000" points="535.3407,-253.7 535.3407,-276.7 650.3407,-276.7 650.3407,-253.7 535.3407,-253.7"/>
<text text-anchor="start" x="540.3407" y="-262.3" font-family="Helvetica,sans-Serif" font-weight="bold" font-size="11.00" fill="#000000">InvoiceLine</text>
<text text-anchor="start" x="615.8625" y="-261.8" font-family="Helvetica,sans-Serif" font-size="11.00" fill="#000000">[table]</text>
<polygon fill="none" stroke="#000000" points="535.3407,-231.7 535.3407,-253.7 650.3407,-253.7 650.3407,-231.7 535.3407,-231.7"/>
<image xlink:href="../../images/primaryKeys.png" width="11px" height="12px" preserveAspectRatio="xMinYMin meet" x="540.341" y="-248.7"/>
<text text-anchor="start" x="558.3407" y="-238.8" font-family="Helvetica,sans-Serif" font-size="11.00" fill="#000000">InvoiceLineId</text>
<polygon fill="#ffffff" stroke="transparent" points="535.3407,-209.7 535.3407,-231.7 650.3407,-231.7 650.3407,-209.7 535.3407,-209.7"/>
<polygon fill="none" stroke="#000000" points="535.3407,-209.7 535.3407,-231.7 650.3407,-231.7 650.3407,-209.7 535.3407,-209.7"/>
<image xlink:href="../../images/foreignKeys.png" width="11px" height="12px" preserveAspectRatio="xMinYMin meet" x="540.341" y="-226.7"/>
<text text-anchor="start" x="558.3407" y="-216.8" font-family="Helvetica,sans-Serif" font-size="11.00" fill="#000000">InvoiceId</text>
<polygon fill="#ffffff" stroke="transparent" points="535.3407,-187.7 535.3407,-209.7 650.3407,-209.7 650.3407,-187.7 535.3407,-187.7"/>
<polygon fill="none" stroke="#000000" points="535.3407,-187.7 535.3407,-209.7 650.3407,-209.7 650.3407,-187.7 535.3407,-187.7"/>
<image xlink:href="../../images/foreignKeys.png" width="11px" height="12px" preserveAspectRatio="xMinYMin meet" x="540.341" y="-204.7"/>
<text text-anchor="start" x="558.3407" y="-194.8" font-family="Helvetica,sans-Serif" font-size="11.00" fill="#000000">TrackId</text>
<polygon fill="none" stroke="#000000" points="535.3407,-168.7 535.3407,-187.7 650.3407,-187.7 650.3407,-168.7 535.3407,-168.7"/>
<text text-anchor="start" x="538.3407" y="-174.8" font-family="Helvetica,sans-Serif" font-size="11.00" fill="#000000">...</text>
<polygon fill="#ffffff" stroke="transparent" points="535.3407,-149.7 535.3407,-168.7 567.3407,-168.7 567.3407,-149.7 535.3407,-149.7"/>
<polygon fill="none" stroke="#000000" points="535.3407,-149.7 535.3407,-168.7 567.3407,-168.7 567.3407,-149.7 535.3407,-149.7"/>
<text text-anchor="start" x="538.3407" y="-155.8" font-family="Helvetica,sans-Serif" font-size="11.00" fill="#000000">&lt; 2</text>
<polygon fill="#ffffff" stroke="transparent" points="567.3407,-149.7 567.3407,-168.7 632.3407,-168.7 632.3407,-149.7 567.3407,-149.7"/>
<polygon fill="none" stroke="#000000" points="567.3407,-149.7 567.3407,-168.7 632.3407,-168.7 632.3407,-149.7 567.3407,-149.7"/>
<text text-anchor="start" x="575.5496" y="-155.8" font-family="Helvetica,sans-Serif" font-size="11.00" fill="#000000">2,240 rows</text>
<polygon fill="#ffffff" stroke="transparent" points="632.3407,-149.7 632.3407,-168.7 650.3407,-168.7 650.3407,-149.7 632.3407,-149.7"/>
<polygon fill="none" stroke="#000000" points="632.3407,-149.7 632.3407,-168.7 650.3407,-168.7 650.3407,-149.7 632.3407,-149.7"/>
<text text-anchor="start" x="641.2269" y="-155.8" font-family="Helvetica,sans-Serif" font-size="11.00" fill="#000000"> &#160;</text>
</a>
</g>
</g>
<!-- Invoice -->
<g id="node9" class="node">
<title>Invoice</title>
<g id="a_node9"><a xlink:href="../../tables/Invoice.html" xlink:title="Invoice" target="_top">
<polygon fill="#ffffff" stroke="transparent" points="341.3407,-112.2 341.3407,-217.2 480.3407,-217.2 480.3407,-112.2 341.3407,-112.2"/>
<polygon fill="#f5f5f5" stroke="transparent" points="341.8407,-193.7 341.8407,-216.7 480.8407,-216.7 480.8407,-193.7 341.8407,-193.7"/>
<polygon fill="none" stroke="#000000" points="341.8407,-193.7 341.8407,-216.7 480.8407,-216.7 480.8407,-193.7 341.8407,-193.7"/>
<text text-anchor="start" x="346.8407" y="-202.3" font-family="Helvetica,sans-Serif" font-weight="bold" font-size="11.00" fill="#000000">Invoice</text>
<text text-anchor="start" x="445.8844" y="-201.8" font-family="Helvetica,sans-Serif" font-size="11.00" fill="#000000">[table]</text>
<polygon fill="none" stroke="#000000" points="341.8407,-171.7 341.8407,-193.7 480.8407,-193.7 480.8407,-171.7 341.8407,-171.7"/>
<image xlink:href="../../images/primaryKeys.png" width="11px" height="12px" preserveAspectRatio="xMinYMin meet" x="346.841" y="-188.7"/>
<text text-anchor="start" x="361.8407" y="-178.8" font-family="Helvetica,sans-Serif" font-size="11.00" fill="#000000">InvoiceId</text>
<polygon fill="#ffffff" stroke="transparent" points="341.8407,-149.7 341.8407,-171.7 480.8407,-171.7 480.8407,-149.7 341.8407,-149.7"/>
<polygon fill="none" stroke="#000000" points="341.8407,-149.7 341.8407,-171.7 480.8407,-171.7 480.8407,-149.7 341.8407,-149.7"/>
<image xlink:href="../../images/foreignKeys.png" width="11px" height="12px" preserveAspectRatio="xMinYMin meet" x="346.841" y="-166.7"/>
<text text-anchor="start" x="361.8407" y="-156.8" font-family="Helvetica,sans-Serif" font-size="11.00" fill="#000000">CustomerId</text>
<polygon fill="none" stroke="#000000" points="341.8407,-130.7 341.8407,-149.7 480.8407,-149.7 480.8407,-130.7 341.8407,-130.7"/>
<text text-anchor="start" x="344.8407" y="-136.8" font-family="Helvetica,sans-Serif" font-size="11.00" fill="#000000">...</text>
<polygon fill="#ffffff" stroke="transparent" points="341.8407,-111.7 341.8407,-130.7 385.8407,-130.7 385.8407,-111.7 341.8407,-111.7"/>
<polygon fill="none" stroke="#000000" points="341.8407,-111.7 341.8407,-130.7 385.8407,-130.7 385.8407,-111.7 341.8407,-111.7"/>
<text text-anchor="start" x="344.8407" y="-117.8" font-family="Helvetica,sans-Serif" font-size="11.00" fill="#000000">&lt; 1</text>
<polygon fill="#ffffff" stroke="transparent" points="385.8407,-111.7 385.8407,-130.7 447.8407,-130.7 447.8407,-111.7 385.8407,-111.7"/>
<polygon fill="none" stroke="#000000" points="385.8407,-111.7 385.8407,-130.7 447.8407,-130.7 447.8407,-111.7 385.8407,-111.7"/>
<text text-anchor="start" x="400.2214" y="-117.8" font-family="Helvetica,sans-Serif" font-size="11.00" fill="#000000">412 rows</text>
<polygon fill="#ffffff" stroke="transparent" points="447.8407,-111.7 447.8407,-130.7 480.8407,-130.7 480.8407,-111.7 447.8407,-111.7"/>
<polygon fill="none" stroke="#000000" points="447.8407,-111.7 447.8407,-130.7 480.8407,-130.7 480.8407,-111.7 447.8407,-111.7"/>
<text text-anchor="start" x="462.246" y="-117.8" font-family="Helvetica,sans-Serif" font-size="11.00" fill="#000000">1 &gt;</text>
</a>
</g>
</g>
<!-- InvoiceLine&#45;&gt;Invoice -->
<g id="edge5" class="edge">
<title>InvoiceLine:w&#45;&gt;Invoice:e</title>
<path fill="none" stroke="#000000" d="M521.4316,-216.9175C506.2919,-207.3058 504.6022,-182.7 480.8407,-182.7"/>
<polygon fill="#000000" stroke="#000000" points="527.6211,-218.6006 534.396,-224.1738 531.4809,-219.6503 535.3407,-220.7 535.3407,-220.7 535.3407,-220.7 531.4809,-219.6503 536.2854,-217.2262 527.6211,-218.6006 527.6211,-218.6006"/>
<ellipse fill="none" stroke="#000000" cx="524.5332" cy="-217.7609" rx="3.2" ry="3.2"/>
</g>
<!-- InvoiceLine&#45;&gt;Track -->
<g id="edge6" class="edge">
<title>InvoiceLine:w&#45;&gt;Track:e</title>
<path fill="none" stroke="#000000" d="M520.974,-200.9612C465.7595,-221.0157 540.6619,-367.7 464.8407,-367.7"/>
<polygon fill="#000000" stroke="#000000" points="527.438,-199.9439 535.9004,-202.2562 531.3893,-199.3219 535.3407,-198.7 535.3407,-198.7 535.3407,-198.7 531.3893,-199.3219 534.7809,-195.1438 527.438,-199.9439 527.438,-199.9439"/>
<ellipse fill="none" stroke="#000000" cx="524.2769" cy="-200.4414" rx="3.2" ry="3.2"/>
</g>
<!-- Invoice&#45;&gt;Customer -->
<g id="edge4" class="edge">
<title>Invoice:w&#45;&gt;Customer:e</title>
<path fill="none" stroke="#000000" d="M327.9737,-156.778C315.5787,-148.6462 312.2374,-130.7 292.3407,-130.7"/>
<polygon fill="#000000" stroke="#000000" points="334.1427,-158.5227 340.8609,-164.1641 337.9917,-159.6114 341.8407,-160.7 341.8407,-160.7 341.8407,-160.7 337.9917,-159.6114 342.8205,-157.2359 334.1427,-158.5227 334.1427,-158.5227"/>
<ellipse fill="none" stroke="#000000" cx="331.0634" cy="-157.6518" rx="3.2" ry="3.2"/>
</g>
<!-- Track&#45;&gt;MediaType -->
<g id="edge11" class="edge">
<title>Track:w&#45;&gt;MediaType:e</title>
<path fill="none" stroke="#000000" d="M343.3179,-325.0311C324.5525,-328.7022 316.0763,-338.7 291.3407,-338.7"/>
<polygon fill="#000000" stroke="#000000" points="349.8741,-324.4303 358.1693,-327.285 353.8574,-324.0651 357.8407,-323.7 357.8407,-323.7 357.8407,-323.7 353.8574,-324.0651 357.5121,-320.115 349.8741,-324.4303 349.8741,-324.4303"/>
<ellipse fill="none" stroke="#000000" cx="346.6874" cy="-324.7224" rx="3.2" ry="3.2"/>
</g>
<!-- Track&#45;&gt;Album -->
<g id="edge9" class="edge">
<title>Track:w&#45;&gt;Album:e</title>
<path fill="none" stroke="#000000" d="M343.4465,-348.4091C302.9104,-366.1223 338.5665,-464.7 281.3407,-464.7"/>
<polygon fill="#000000" stroke="#000000" points="349.9787,-347.1797 358.5066,-349.2379 353.9097,-346.4399 357.8407,-345.7 357.8407,-345.7 357.8407,-345.7 353.9097,-346.4399 357.1748,-342.1621 349.9787,-347.1797 349.9787,-347.1797"/>
<ellipse fill="none" stroke="#000000" cx="346.8339" cy="-347.7716" rx="3.2" ry="3.2"/>
</g>
<!-- Track&#45;&gt;Genre -->
<g id="edge10" class="edge">
<title>Track:w&#45;&gt;Genre:e</title>
<path fill="none" stroke="#000000" d="M343.4832,-299.1553C312.598,-286.917 317.0405,-234.7 275.3407,-234.7"/>
<polygon fill="#000000" stroke="#000000" points="349.9635,-300.3038 357.2124,-305.2448 353.9021,-301.0019 357.8407,-301.7 357.8407,-301.7 357.8407,-301.7 353.9021,-301.0019 358.469,-298.1552 349.9635,-300.3038 349.9635,-300.3038"/>
<ellipse fill="none" stroke="#000000" cx="346.8126" cy="-299.7454" rx="3.2" ry="3.2"/>
</g>
</g>
</svg>
